<svg width="15" height="15" viewBox="0 0 15 15" fill="none" xmlns="http://www.w3.org/2000/svg">
<path d="M12.0472 14.9558C11.5141 15.3356 8.09316 12.9284 7.43798 12.9231C6.7828 12.9178 3.3234 15.2697 2.79647 14.8814C2.26955 14.4931 3.50832 10.505 3.31091 9.88208C3.11349 9.25914 -0.198676 6.70512 0.00880083 6.08541C0.216323 5.46571 4.40282 5.40815 4.93596 5.0284C5.46911 4.6487 6.88151 0.718393 7.53674 0.723638C8.19187 0.728929 9.54047 4.68145 10.0674 5.06972C10.5943 5.45796 14.7794 5.58293 14.9769 6.20587C15.1743 6.82881 11.8212 9.3292 11.6137 9.9489C11.4062 10.5686 12.5803 14.5761 12.0472 14.9558Z" fill="url(#paint0_linear_1317_12819)"/>
<defs>
<linearGradient id="paint0_linear_1317_12819" x1="-0.000530135" y1="7.86005" x2="14.9852" y2="7.86005" gradientUnits="userSpaceOnUse">
<stop stop-color="#FCD635"/>
<stop offset="1" stop-color="#F7A928"/>
</linearGradient>
</defs>
</svg>
