<svg width="24" height="24" viewBox="0 0 24 24" fill="none" xmlns="http://www.w3.org/2000/svg">
<path d="M23.0625 3.24684C23.0625 2.18737 22.2328 1.3125 21.2132 1.3125H2.78663C1.76719 1.3125 0.9375 2.18737 0.9375 3.24684V18.1023C0.9375 19.1618 1.76719 20.0156 2.78663 20.0156H6.51562V22.2996C6.51562 22.5067 6.67214 22.6875 6.87923 22.6875H17.1208C17.3279 22.6875 17.4844 22.5067 17.4844 22.2996V20.0156H21.2132C22.2328 20.0156 23.0625 19.1618 23.0625 18.1023V6.28472C23.0625 6.2835 23.0625 6.28233 23.0625 6.28111C23.0625 6.27989 23.0625 6.27872 23.0625 6.2775V3.24684ZM2.78663 2.0625H21.2132C21.8192 2.0625 22.3125 2.60091 22.3125 3.24684V5.90625H1.6875V3.24684C1.6875 2.60091 2.18058 2.0625 2.78663 2.0625ZM16.7344 21.9375H7.26562V9.09375H14.25V11.196C14.2527 11.2975 14.2946 11.394 14.3669 11.4653C14.4393 11.5366 14.5364 11.577 14.638 11.5781H16.7344V21.9375ZM16.2154 10.8281H15V9.61847L16.2154 10.8281ZM21.2132 19.2656H17.4844V11.196C17.4854 11.147 17.4768 11.0984 17.4589 11.0528C17.441 11.0073 17.4142 10.9657 17.3801 10.9306L14.9004 8.45095C14.866 8.41646 14.8251 8.38921 14.78 8.3708C14.7349 8.35239 14.6866 8.34319 14.6379 8.34375H6.87923C6.83089 8.34338 6.78296 8.35272 6.7383 8.37123C6.69363 8.38974 6.65314 8.41703 6.61923 8.45149C6.58531 8.48594 6.55866 8.52686 6.54087 8.57182C6.52307 8.61677 6.51449 8.66484 6.51562 8.71317V19.2656H2.78663C2.18058 19.2656 1.6875 18.7482 1.6875 18.1023V6.65625H22.3125V18.1023C22.3125 18.7482 21.8192 19.2656 21.2132 19.2656Z" fill="#21334F"/>
<path d="M6.71764 5.42607C7.46633 5.42607 8.07542 4.79537 8.07542 4.0201C8.07542 3.24484 7.46633 2.61414 6.71764 2.61414C5.96896 2.61414 5.35986 3.24484 5.35986 4.0201C5.35986 4.79537 5.96896 5.42607 6.71764 5.42607ZM6.71764 3.36414C7.05275 3.36414 7.32542 3.65842 7.32542 4.0201C7.32542 4.38179 7.05275 4.67607 6.71764 4.67607C6.38253 4.67607 6.10986 4.38184 6.10986 4.0201C6.10986 3.65837 6.38253 3.36414 6.71764 3.36414ZM9.91161 5.42607C10.6603 5.42607 11.2694 4.79537 11.2694 4.0201C11.2694 3.24484 10.6603 2.61414 9.91161 2.61414C9.16292 2.61414 8.55383 3.24484 8.55383 4.0201C8.55383 4.79537 9.16292 5.42607 9.91161 5.42607ZM9.91161 3.36414C10.2467 3.36414 10.5194 3.65842 10.5194 4.0201C10.5194 4.38179 10.2469 4.67607 9.91161 4.67607C9.57636 4.67607 9.30383 4.38184 9.30383 4.0201C9.30383 3.65837 9.57655 3.36414 9.91161 3.36414ZM3.52367 5.42607C4.27236 5.42607 4.88146 4.79537 4.88146 4.0201C4.88146 3.24484 4.27236 2.61414 3.52367 2.61414C2.77499 2.61414 2.16589 3.24484 2.16589 4.0201C2.16589 4.79537 2.77499 5.42607 3.52367 5.42607ZM3.52367 3.36414C3.85878 3.36414 4.13146 3.65842 4.13146 4.0201C4.13146 4.38179 3.85878 4.67607 3.52367 4.67607C3.18857 4.67607 2.91589 4.38184 2.91589 4.0201C2.91589 3.65837 3.18852 3.36414 3.52367 3.36414ZM14.9062 12.7969C14.9062 12.6974 14.8667 12.602 14.7964 12.5317C14.7261 12.4614 14.6307 12.4219 14.5312 12.4219H9.46874C9.36928 12.4219 9.2739 12.4614 9.20357 12.5317C9.13325 12.602 9.09374 12.6974 9.09374 12.7969V17.25C9.09374 17.3495 9.13325 17.4448 9.20357 17.5152C9.2739 17.5855 9.36928 17.625 9.46874 17.625H14.5312C14.6307 17.625 14.7261 17.5855 14.7964 17.5152C14.8667 17.4448 14.9062 17.3495 14.9062 17.25V12.7969ZM14.1562 16.875H9.84374V13.1719H14.1562V16.875Z" fill="#21334F"/>
<path d="M10.9162 16.5403C10.9722 16.5733 11.0359 16.5911 11.1009 16.5918C11.1659 16.5924 11.2299 16.5759 11.2865 16.544L13.3803 15.3721C13.4384 15.3395 13.4869 15.292 13.5206 15.2345C13.5543 15.177 13.572 15.1115 13.572 15.0448C13.572 14.9781 13.5541 14.9126 13.5204 14.8551C13.4866 14.7976 13.4381 14.7502 13.3799 14.7176L11.2857 13.5457C11.2291 13.5138 11.165 13.4974 11.0999 13.4982C11.0349 13.499 10.9712 13.5168 10.9153 13.5501C10.8594 13.5833 10.8132 13.6306 10.7815 13.6874C10.7497 13.7442 10.7334 13.8083 10.7344 13.8733V16.2168C10.7337 16.2819 10.7501 16.3461 10.782 16.4028C10.814 16.4596 10.8602 16.507 10.9162 16.5403ZM11.4844 14.5128L12.4355 15.045L11.4844 15.5772V14.5128ZM14.1883 20.0625H8.72491C8.62546 20.0625 8.53008 20.102 8.45975 20.1723C8.38942 20.2427 8.34991 20.338 8.34991 20.4375C8.34991 20.537 8.38942 20.6323 8.45975 20.7027C8.53008 20.773 8.62546 20.8125 8.72491 20.8125H14.1883C14.2877 20.8125 14.3831 20.773 14.4535 20.7027C14.5238 20.6323 14.5633 20.537 14.5633 20.4375C14.5633 20.338 14.5238 20.2427 14.4535 20.1723C14.3831 20.102 14.2877 20.0625 14.1883 20.0625ZM8.72491 19.5937H12.1907C12.2902 19.5937 12.3856 19.5542 12.4559 19.4839C12.5262 19.4136 12.5657 19.3182 12.5657 19.2187C12.5657 19.1193 12.5262 19.0239 12.4559 18.9536C12.3856 18.8833 12.2902 18.8437 12.1907 18.8437H8.72491C8.62546 18.8437 8.53008 18.8833 8.45975 18.9536C8.38942 19.0239 8.34991 19.1193 8.34991 19.2187C8.34991 19.3182 8.38942 19.4136 8.45975 19.4839C8.53008 19.5542 8.62546 19.5937 8.72491 19.5937Z" fill="#21334F"/>
</svg>
