<svg width="16" height="16" viewBox="0 0 16 16" fill="none" xmlns="http://www.w3.org/2000/svg">
<path d="M8 2C6.81331 2 5.65328 2.35189 4.66658 3.01118C3.67989 3.67047 2.91085 4.60754 2.45673 5.7039C2.0026 6.80026 1.88378 8.00666 2.11529 9.17054C2.3468 10.3344 2.91825 11.4035 3.75736 12.2426C4.59648 13.0818 5.66558 13.6532 6.82946 13.8847C7.99335 14.1162 9.19975 13.9974 10.2961 13.5433C11.3925 13.0892 12.3295 12.3201 12.9888 11.3334C13.6481 10.3467 14 9.18669 14 8C14 6.4087 13.3679 4.88258 12.2426 3.75736C11.1174 2.63214 9.5913 2 8 2ZM10.83 6.795L8 9.62C7.71875 9.9009 7.3375 10.0587 6.94 10.0587C6.5425 10.0587 6.16125 9.9009 5.88 9.62L5.17 8.915C5.12338 8.86838 5.0864 8.81304 5.06117 8.75212C5.03594 8.69121 5.02296 8.62593 5.02296 8.56C5.02296 8.49407 5.03594 8.42879 5.06117 8.36788C5.0864 8.30696 5.12338 8.25162 5.17 8.205C5.21662 8.15838 5.27197 8.1214 5.33288 8.09617C5.39379 8.07094 5.45907 8.05795 5.525 8.05795C5.59093 8.05795 5.65622 8.07094 5.71713 8.09617C5.77804 8.1214 5.83338 8.15838 5.88 8.205L6.585 8.915C6.63148 8.96186 6.68678 8.99906 6.74771 9.02445C6.80864 9.04983 6.874 9.0629 6.94 9.0629C7.00601 9.0629 7.07136 9.04983 7.13229 9.02445C7.19322 8.99906 7.24852 8.96186 7.295 8.915L10.12 6.085C10.1666 6.03838 10.222 6.0014 10.2829 5.97617C10.3438 5.95094 10.4091 5.93795 10.475 5.93795C10.5409 5.93795 10.6062 5.95094 10.6671 5.97617C10.728 6.0014 10.7834 6.03838 10.83 6.085C10.8766 6.13162 10.9136 6.18696 10.9388 6.24788C10.9641 6.30879 10.977 6.37407 10.977 6.44C10.977 6.50593 10.9641 6.57121 10.9388 6.63212C10.9136 6.69304 10.8766 6.74838 10.83 6.795Z" fill="#FFC107"/>
</svg>
