<svg width="20" height="21" viewBox="0 0 20 21" fill="none" xmlns="http://www.w3.org/2000/svg">
<path d="M19.7407 9.7485C19.7451 8.1629 19.3524 6.60144 18.5984 5.2066C17.8444 3.81177 16.753 2.62797 15.424 1.76324C14.0949 0.898504 12.5705 0.380374 10.9898 0.256127C9.40903 0.13188 7.82235 0.405472 6.37452 1.05194C4.92669 1.6984 3.66381 2.69716 2.70111 3.95706C1.73842 5.21696 1.10657 6.69789 0.863222 8.26471C0.619876 9.83152 0.772783 11.4343 1.30799 12.9269C1.84319 14.4194 2.74366 15.7542 3.9272 16.8093L2.6238 18.7687C2.49887 18.959 2.45417 19.191 2.49944 19.4141C2.54471 19.6372 2.67627 19.8334 2.86549 19.9599C3.0045 20.0573 3.17054 20.1086 3.34024 20.1067C3.48241 20.1059 3.6222 20.0701 3.74719 20.0023C3.87217 19.9346 3.97849 19.837 4.05668 19.7182L5.30829 17.8451C6.79294 18.7592 8.50221 19.2432 10.2457 19.2432C11.9892 19.2432 13.6984 18.7592 15.1831 17.8451L16.4347 19.7182C16.5129 19.837 16.6192 19.9346 16.7442 20.0023C16.8692 20.0701 17.009 20.1059 17.1511 20.1067C17.3208 20.1086 17.4869 20.0573 17.6259 19.9599C17.8151 19.8334 17.9467 19.6372 17.9919 19.4141C18.0372 19.191 17.9925 18.959 17.8676 18.7687L16.5642 16.8093C17.56 15.9216 18.3575 14.834 18.9048 13.6174C19.4521 12.4008 19.7369 11.0825 19.7407 9.7485ZM2.47706 9.7485C2.47706 8.21201 2.93268 6.71002 3.78631 5.43248C4.63994 4.15493 5.85323 3.15921 7.27277 2.57122C8.6923 1.98323 10.2543 1.82938 11.7613 2.12914C13.2682 2.42889 14.6525 3.16878 15.7389 4.25525C16.8254 5.34171 17.5653 6.72595 17.8651 8.23291C18.1648 9.73988 18.011 11.3019 17.423 12.7214C16.835 14.141 15.8393 15.3543 14.5617 16.2079C13.2842 17.0615 11.7822 17.5171 10.2457 17.5171C8.18532 17.5171 6.20934 16.6987 4.75244 15.2418C3.29554 13.7848 2.47706 11.8089 2.47706 9.7485Z" fill="#21334F"/>
<path d="M11.1088 10.1456V5.43262C11.1088 5.20369 11.0179 4.98414 10.856 4.82226C10.6942 4.66038 10.4746 4.56944 10.2457 4.56944C10.0167 4.56944 9.79718 4.66038 9.63531 4.82226C9.47343 4.98414 9.38249 5.20369 9.38249 5.43262V10.6117C9.38249 10.6117 9.38249 10.6635 9.38249 10.6894C9.3776 10.7468 9.3776 10.8046 9.38249 10.862C9.39886 10.9152 9.41906 10.9671 9.44291 11.0174C9.46865 11.0625 9.49749 11.1058 9.52923 11.1469C9.56813 11.1915 9.61151 11.232 9.6587 11.2677L9.71913 11.3281L12.3087 13.0545C12.4619 13.1629 12.648 13.2147 12.8352 13.2013C13.0196 13.1998 13.1987 13.1394 13.3463 13.0288C13.4939 12.9181 13.6021 12.7632 13.6552 12.5865C13.7083 12.4099 13.7034 12.2209 13.6413 12.0473C13.5791 11.8737 13.463 11.7245 13.31 11.6216L11.1088 10.1456ZM1.61385 3.70626C1.72745 3.70691 1.84007 3.68514 1.94523 3.64218C2.0504 3.59923 2.14606 3.53594 2.22671 3.45593L3.95307 1.72957C4.11561 1.56703 4.20693 1.34658 4.20693 1.11671C4.20693 0.886847 4.11561 0.666395 3.95307 0.503854C3.79053 0.341314 3.57008 0.25 3.34022 0.25C3.11035 0.25 2.8899 0.341314 2.72736 0.503854L1.00099 2.23022C0.920089 2.31046 0.855874 2.40593 0.812051 2.51112C0.768229 2.6163 0.745667 2.72913 0.745667 2.84308C0.745667 2.95703 0.768229 3.06985 0.812051 3.17504C0.855874 3.28022 0.920089 3.37569 1.00099 3.45593C1.08165 3.53594 1.1773 3.59923 1.28247 3.64218C1.38764 3.68514 1.50025 3.70691 1.61385 3.70626ZM18.2646 3.45593C18.3449 3.53684 18.4403 3.60105 18.5455 3.64488C18.6507 3.6887 18.7635 3.71126 18.8775 3.71126C18.9914 3.71126 19.1043 3.6887 19.2094 3.64488C19.3146 3.60105 19.4101 3.53684 19.4903 3.45593C19.5712 3.37569 19.6355 3.28022 19.6793 3.17504C19.7231 3.06985 19.7457 2.95703 19.7457 2.84308C19.7457 2.72913 19.7231 2.6163 19.6793 2.51112C19.6355 2.40593 19.5712 2.31046 19.4903 2.23022L17.764 0.503854C17.6835 0.423373 17.5879 0.359531 17.4828 0.315975C17.3776 0.272418 17.2649 0.25 17.1511 0.25C16.9213 0.25 16.7008 0.341314 16.5383 0.503854C16.3757 0.666395 16.2844 0.886847 16.2844 1.11671C16.2844 1.34658 16.3757 1.56703 16.5383 1.72957L18.2646 3.45593Z" fill="#21334F"/>
</svg>
