<svg width="24" height="24" viewBox="0 0 24 24" fill="none" xmlns="http://www.w3.org/2000/svg">
<path d="M17.1676 4.39506V3.06006H15.6676V4.39506H8.29506V3.06006H6.79506V4.39506H2.12256V21.6901H21.7501V4.39506H17.1676ZM20.2501 20.1901H3.62256V10.8676H20.2501V20.1901ZM3.62256 9.36756V5.89506H6.79506V7.23006H8.29506V5.89506H15.6676V7.23006H17.1676V5.89506H20.2501V9.36756H3.62256Z" fill="#FD2959"/>
<path d="M11.505 11.9399H10.02V13.4399H11.505V11.9399Z" fill="#FD2959"/>
<path d="M8.96999 14.775H7.48499V16.275H8.96999V14.775Z" fill="#FD2959"/>
<path d="M11.505 14.775H10.02V16.275H11.505V14.775Z" fill="#FD2959"/>
<path d="M6.4275 14.775H4.9425V16.275H6.4275V14.775Z" fill="#FD2959"/>
<path d="M8.96999 17.6176H7.48499V19.1176H8.96999V17.6176Z" fill="#FD2959"/>
<path d="M11.505 17.6176H10.02V19.1176H11.505V17.6176Z" fill="#FD2959"/>
<path d="M6.4275 17.6176H4.9425V19.1176H6.4275V17.6176Z" fill="#FD2959"/>
<path d="M16.605 11.9399H15.12V13.4399H16.605V11.9399Z" fill="#FD2959"/>
<path d="M19.14 11.9399H17.655V13.4399H19.14V11.9399Z" fill="#FD2959"/>
<path d="M14.055 11.9399H12.5775V13.4399H14.055V11.9399Z" fill="#FD2959"/>
<path d="M16.605 14.775H15.12V16.275H16.605V14.775Z" fill="#FD2959"/>
<path d="M19.14 14.775H17.655V16.275H19.14V14.775Z" fill="#FD2959"/>
<path d="M14.055 14.775H12.5775V16.275H14.055V14.775Z" fill="#FD2959"/>
<path d="M14.055 17.6176H12.5775V19.1176H14.055V17.6176Z" fill="#FD2959"/>
</svg>
