<svg width="16" height="16" viewBox="0 0 16 16" fill="none" xmlns="http://www.w3.org/2000/svg">
<path d="M10.5 8.5H8C7.86739 8.5 7.74021 8.44732 7.64645 8.35355C7.55268 8.25979 7.5 8.13261 7.5 8V4.5C7.5 4.36739 7.55268 4.24021 7.64645 4.14645C7.74021 4.05268 7.86739 4 8 4C8.13261 4 8.25979 4.05268 8.35355 4.14645C8.44732 4.24021 8.5 4.36739 8.5 4.5V7.5H10.5C10.6326 7.5 10.7598 7.55268 10.8536 7.64645C10.9473 7.74021 11 7.86739 11 8C11 8.13261 10.9473 8.25979 10.8536 8.35355C10.7598 8.44732 10.6326 8.5 10.5 8.5Z" fill="#21334F"/>
<path d="M12.25 12.25C11.4409 13.0605 10.4168 13.6225 9.29854 13.8696C8.18032 14.1168 7.01472 14.0388 5.93942 13.6448C4.86412 13.2508 3.92404 12.5573 3.23021 11.6462C2.53638 10.7351 2.11779 9.64442 2.02387 8.50307C1.92996 7.36172 2.16465 6.21733 2.70022 5.20507C3.23579 4.19281 4.04987 3.35496 5.04631 2.7905C6.04275 2.22603 7.17991 1.95852 8.32349 2.01957C9.46708 2.08062 10.5693 2.46766 11.5 3.135V2.5C11.5 2.36739 11.5527 2.24021 11.6464 2.14645C11.7402 2.05268 11.8674 2 12 2C12.1326 2 12.2598 2.05268 12.3535 2.14645C12.4473 2.24021 12.5 2.36739 12.5 2.5V4.5C12.5 4.63261 12.4473 4.75979 12.3535 4.85355C12.2598 4.94732 12.1326 5 12 5H10.5C10.3674 5 10.2402 4.94732 10.1464 4.85355C10.0527 4.75979 9.99998 4.63261 9.99998 4.5C9.99998 4.36739 10.0527 4.24021 10.1464 4.14645C10.2402 4.05268 10.3674 4 10.5 4H11C10.0514 3.28857 8.88096 2.93737 7.69744 3.00909C6.51392 3.08081 5.39441 3.57079 4.53873 4.39156C3.68305 5.21234 3.14689 6.31048 3.02597 7.48999C2.90504 8.66949 3.20721 9.85359 3.87854 10.8309C4.54988 11.8082 5.54668 12.5152 6.69102 12.8256C7.83536 13.136 9.05277 13.0296 10.1259 12.5254C11.1991 12.0213 12.0582 11.1521 12.5498 10.0732C13.0414 8.99421 13.1337 7.77565 12.81 6.635C12.7865 6.57035 12.7766 6.50154 12.7809 6.4329C12.7853 6.36425 12.8037 6.29723 12.8351 6.23603C12.8665 6.17483 12.9102 6.12077 12.9634 6.07723C13.0167 6.03369 13.0784 6.0016 13.1446 5.98298C13.2108 5.96435 13.2801 5.95959 13.3483 5.969C13.4164 5.9784 13.4819 6.00175 13.5406 6.03761C13.5993 6.07347 13.65 6.12105 13.6894 6.17738C13.7289 6.23371 13.7563 6.29758 13.77 6.365C14.0636 7.39242 14.0775 8.47961 13.8103 9.51421C13.5431 10.5488 13.0044 11.4933 12.25 12.25Z" fill="#21334F"/>
</svg>
