<svg width="16" height="17" viewBox="0 0 16 17" fill="none" xmlns="http://www.w3.org/2000/svg">
<path d="M3.33331 15.1665H12.6666C13.1971 15.1665 13.7058 14.9558 14.0809 14.5807C14.4559 14.2056 14.6666 13.6969 14.6666 13.1665V7.1665C14.6666 6.63607 14.4559 6.12736 14.0809 5.75229C13.7058 5.37722 13.1971 5.1665 12.6666 5.1665H11.3333V4.49984C11.3333 3.61578 10.9821 2.76794 10.357 2.14281C9.73188 1.51769 8.88403 1.1665 7.99998 1.1665C7.11592 1.1665 6.26808 1.51769 5.64296 2.14281C5.01784 2.76794 4.66665 3.61578 4.66665 4.49984V5.1665H3.33331C2.80288 5.1665 2.29417 5.37722 1.9191 5.75229C1.54403 6.12736 1.33331 6.63607 1.33331 7.1665V13.1665C1.33331 13.6969 1.54403 14.2056 1.9191 14.5807C2.29417 14.9558 2.80288 15.1665 3.33331 15.1665ZM5.99998 4.49984C5.99998 3.9694 6.21069 3.4607 6.58577 3.08562C6.96084 2.71055 7.46955 2.49984 7.99998 2.49984C8.53041 2.49984 9.03912 2.71055 9.41419 3.08562C9.78927 3.4607 9.99998 3.9694 9.99998 4.49984V5.1665H5.99998V4.49984ZM2.66665 7.1665C2.66665 6.98969 2.73688 6.82012 2.86191 6.6951C2.98693 6.57008 3.1565 6.49984 3.33331 6.49984H12.6666C12.8435 6.49984 13.013 6.57008 13.1381 6.6951C13.2631 6.82012 13.3333 6.98969 13.3333 7.1665V13.1665C13.3333 13.3433 13.2631 13.5129 13.1381 13.6379C13.013 13.7629 12.8435 13.8332 12.6666 13.8332H3.33331C3.1565 13.8332 2.98693 13.7629 2.86191 13.6379C2.73688 13.5129 2.66665 13.3433 2.66665 13.1665V7.1665Z" fill="#21334F"/>
<path d="M8.00002 11.5002C8.7364 11.5002 9.33335 10.9032 9.33335 10.1668C9.33335 9.43045 8.7364 8.8335 8.00002 8.8335C7.26364 8.8335 6.66669 9.43045 6.66669 10.1668C6.66669 10.9032 7.26364 11.5002 8.00002 11.5002Z" fill="#21334F"/>
</svg>
