<svg width="16" height="17" viewBox="0 0 16 17" fill="none" xmlns="http://www.w3.org/2000/svg">
<path d="M14.724 10.2813C14.4938 10.0523 14.3112 9.77987 14.187 9.47983C14.0627 9.17979 13.9991 8.85809 14 8.53333V6.5C14 4.9087 13.3679 3.38258 12.2426 2.25736C11.1174 1.13214 9.5913 0.5 8 0.5C6.4087 0.5 4.88258 1.13214 3.75736 2.25736C2.63214 3.38258 2 4.9087 2 6.5V8.53333C2.00085 8.85809 1.9373 9.17979 1.81302 9.47983C1.68875 9.77987 1.50622 10.0523 1.276 10.2813C0.984979 10.5723 0.786789 10.9431 0.706493 11.3467C0.626197 11.7503 0.667401 12.1687 0.824895 12.5489C0.982389 12.9291 1.2491 13.2541 1.59129 13.4827C1.93348 13.7114 2.33579 13.8334 2.74733 13.8333H4.73333C4.88634 14.5869 5.29515 15.2643 5.89049 15.7509C6.48583 16.2375 7.23109 16.5033 8 16.5033C8.7689 16.5033 9.51416 16.2375 10.1095 15.7509C10.7048 15.2643 11.1137 14.5869 11.2667 13.8333H13.2533C13.6649 13.8334 14.0672 13.7114 14.4094 13.4827C14.7516 13.2541 15.0183 12.9291 15.1758 12.5489C15.3333 12.1687 15.3745 11.7503 15.2942 11.3467C15.2139 10.9431 15.0157 10.5723 14.7247 10.2813H14.724ZM8 15.1667C7.58782 15.165 7.18624 15.0359 6.8502 14.7973C6.51415 14.5586 6.26005 14.2219 6.12266 13.8333H9.87733C9.73994 14.2219 9.48584 14.5586 9.1498 14.7973C8.81375 15.0359 8.41217 15.165 8 15.1667ZM13.2527 12.5H2.74733C2.59946 12.5001 2.45488 12.4563 2.3319 12.3742C2.20892 12.2921 2.11307 12.1753 2.05647 12.0387C1.99986 11.9021 1.98506 11.7518 2.01394 11.6067C2.04281 11.4617 2.11406 11.3285 2.21866 11.224C2.5731 10.8715 2.85411 10.4521 3.04544 9.99029C3.23676 9.52844 3.33462 9.03324 3.33333 8.53333V6.5C3.33333 5.26232 3.825 4.07534 4.70017 3.20017C5.57534 2.325 6.76232 1.83333 8 1.83333C9.23768 1.83333 10.4247 2.325 11.2998 3.20017C12.175 4.07534 12.6667 5.26232 12.6667 6.5V8.53333C12.6654 9.03324 12.7632 9.52844 12.9546 9.99029C13.1459 10.4521 13.4269 10.8715 13.7813 11.224C13.8859 11.3285 13.9572 11.4617 13.9861 11.6067C14.0149 11.7518 14.0001 11.9021 13.9435 12.0387C13.8869 12.1753 13.7911 12.2921 13.6681 12.3742C13.5451 12.4563 13.4005 12.5001 13.2527 12.5Z" fill="#21334F"/>
</svg>
