<svg width="375" height="346" viewBox="0 0 375 346" fill="none" xmlns="http://www.w3.org/2000/svg">
<path d="M87.3856 70.3866C61.6549 80.8884 43.725 105.077 36.3189 131.408C31.3846 148.951 31.9873 168.467 40.3753 184.642C46.0044 195.497 55.3674 204.571 66.5733 209.516C72.1904 211.995 77.681 211.811 83.3274 213.313C88.525 214.695 92.6141 218.229 97.6586 220.358C111.215 226.078 123.705 230.59 138.749 229.57C152.547 228.645 163.695 217.511 177.637 214.442C189.444 211.842 201.663 212.168 213.738 211.571C225.812 210.975 238.22 209.321 248.679 203.251C259.139 197.182 267.273 185.799 266.386 173.728C265.583 162.814 257.719 153.517 248.512 147.619C239.305 141.72 228.694 138.501 218.584 134.341C205.805 129.084 193.538 122.137 183.687 112.439C175.28 104.164 172.954 94.7955 167.152 85.4602C162.171 77.4456 149.297 71.8935 140.793 68.9458C124.394 63.2613 104.223 63.5145 87.3856 70.3866Z" fill="url(#paint0_linear_1317_12172)"/>
<path d="M231.618 40.4316C229.817 40.1817 228.003 40.0249 226.185 39.9618C217.188 39.6491 200.737 39.7882 196.316 49.3321C194.33 53.6191 193.785 58.5582 191.191 62.506C188.942 65.929 185.398 68.2326 182.297 70.9075C179.197 73.5824 176.321 77.0856 176.264 81.1829C176.155 88.9988 186.229 96.5666 191.283 101.532C202.148 112.205 213.116 118.966 226.753 125.302C234.924 129.099 242.615 133.822 250.707 137.776C258.478 141.572 266.798 144.666 275.528 145.195C284.257 145.723 293.489 143.43 299.967 137.615C314.956 124.158 303.534 100.051 295.593 86.1031C292.002 79.7943 288.181 72.9667 282.96 67.7822C276.49 61.3562 268.435 55.9952 260.44 51.5164C251.142 46.3085 242.081 41.882 231.618 40.4316Z" fill="#FFF4FF"/>
<g opacity="0.67">
<path d="M334.158 104.946C334.181 104.929 334.203 104.912 334.225 104.894C333.947 108.138 335.391 110.594 333.615 114.001C332.324 116.477 330.397 118.601 329.066 121.058C326.747 125.336 328.74 129.374 326.727 133.806C323.824 140.197 318.963 146.044 312.28 148.775C307.053 150.912 300.822 151.148 296.53 154.715C293.745 157.029 292.222 160.413 289.98 163.22C281.696 173.593 266.531 171.404 254.515 171.121C248.272 170.974 251.352 168.993 254.44 166.604C263.014 159.973 271.587 153.342 280.16 146.711C298.159 132.79 316.111 118.808 334.158 104.946Z" fill="url(#paint1_linear_1317_12172)"/>
<path d="M334.159 104.944C331.407 103.968 329.147 105.071 326.457 104.884C324.222 104.728 322.004 103.654 319.709 103.446C314.682 102.974 309.629 104.004 305.187 106.406C302.344 107.976 299.706 110.148 296.456 110.61C294.001 110.959 291.505 110.273 289.023 110.348C284.818 110.475 280.965 112.804 278.187 115.82C272.992 121.459 270.488 128.976 265.456 134.729C262.895 137.658 259.532 139.84 256.776 142.601C251.241 148.145 247.879 161.815 250.985 169.264C250.674 168.517 266.162 157.538 267.188 156.745C278.483 148.008 289.779 139.271 301.075 130.534C312.099 122.008 323.111 113.414 334.159 104.944Z" fill="#AEC7F3"/>
<path d="M250.574 169.594C250.666 169.701 250.795 169.769 250.934 169.784C251.074 169.799 251.214 169.759 251.326 169.674L334.495 105.346C334.549 105.305 334.594 105.254 334.628 105.195C334.661 105.135 334.682 105.07 334.689 105.003C334.697 104.935 334.69 104.867 334.67 104.802C334.65 104.737 334.617 104.677 334.573 104.625C334.481 104.518 334.352 104.451 334.213 104.436C334.073 104.421 333.933 104.46 333.821 104.546L250.652 168.873C250.598 168.914 250.553 168.966 250.52 169.025C250.486 169.084 250.465 169.149 250.458 169.217C250.45 169.284 250.457 169.353 250.477 169.418C250.497 169.483 250.53 169.543 250.574 169.594Z" fill="#F5FAFA"/>
<path d="M271.993 153.028C272.022 153.063 272.056 153.094 272.093 153.121C272.208 153.202 272.349 153.236 272.488 153.215C272.627 153.195 272.753 153.122 272.84 153.012C273.49 152.154 288.733 131.874 285.747 118.891C285.713 118.755 285.627 118.639 285.508 118.565C285.389 118.492 285.246 118.467 285.11 118.497C285.042 118.51 284.978 118.536 284.921 118.573C284.864 118.611 284.816 118.659 284.778 118.716C284.74 118.773 284.714 118.837 284.701 118.904C284.688 118.971 284.689 119.04 284.704 119.107C287.587 131.642 272.131 152.197 271.975 152.403C271.906 152.494 271.87 152.605 271.874 152.719C271.877 152.833 271.919 152.942 271.993 153.028Z" fill="#F5FAFA"/>
<path d="M296.939 133.733C297.009 133.816 297.103 133.875 297.207 133.905C297.311 133.935 297.422 133.933 297.525 133.899C297.694 133.845 314.503 128.61 320.949 136.27C321.04 136.377 321.169 136.445 321.309 136.46C321.449 136.474 321.589 136.435 321.701 136.35C321.755 136.309 321.8 136.257 321.833 136.198C321.867 136.139 321.888 136.074 321.895 136.006C321.903 135.939 321.896 135.87 321.876 135.805C321.856 135.74 321.823 135.68 321.779 135.629C314.865 127.412 297.901 132.696 297.182 132.925C297.102 132.949 297.028 132.992 296.969 133.051C296.909 133.11 296.865 133.183 296.841 133.263C296.817 133.343 296.813 133.428 296.83 133.511C296.847 133.593 296.885 133.669 296.939 133.733Z" fill="#F5FAFA"/>
</g>
<path d="M258.819 81.3621C251.898 84.2708 250.281 91.6468 244.044 95.8883C241.496 97.6208 238.576 98.9652 236.676 101.388C233.744 105.127 233.984 110.524 235.41 115.123C236.409 118.346 237.935 121.678 237.16 124.931C236.46 127.869 234.033 130.018 232.593 132.663C228.567 140.063 232.55 149.17 235.538 156.273C236.983 159.71 238.7 163.122 241.452 165.735C241.616 165.891 244.413 167.961 244.413 167.962C246.036 158.201 247.66 148.439 249.284 138.678C252.461 119.579 255.377 100.398 258.83 81.3573L258.819 81.3621Z" fill="#D0FCFF"/>
<path d="M258.818 81.36C258.762 81.6952 262.042 85.2353 262.481 86.0993C263.7 88.4003 264.148 91.0327 263.759 93.6081C263.374 96.4328 262.769 99.5745 264.398 101.953C265.771 103.957 268.339 104.772 270.047 106.502C272.446 108.932 272.744 112.702 272.438 116.065C271.864 122.366 269.617 128.172 266.241 133.437C263.095 138.344 263.613 142.188 263.439 147.947C263.233 154.762 258.819 157.985 254.29 162.107C252.223 163.989 250.531 165.812 247.843 166.953C247.644 167.037 244.413 167.961 244.413 167.962C244.468 167.629 258.817 81.365 258.818 81.36Z" fill="url(#paint2_linear_1317_12172)"/>
<path d="M244.341 168.395C244.225 168.374 244.123 168.309 244.055 168.214C243.988 168.118 243.96 168 243.979 167.884L258.384 81.2808C258.393 81.2241 258.414 81.1699 258.445 81.1213C258.475 81.0727 258.516 81.0308 258.563 80.9979C258.61 80.9651 258.663 80.942 258.719 80.9301C258.775 80.9181 258.833 80.9175 258.89 80.9283C259.005 80.9493 259.107 81.0145 259.175 81.1101C259.242 81.2057 259.27 81.324 259.252 81.4398L244.846 168.043C244.837 168.099 244.816 168.154 244.786 168.202C244.755 168.251 244.715 168.293 244.668 168.326C244.62 168.359 244.567 168.382 244.511 168.394C244.455 168.406 244.397 168.406 244.341 168.395Z" fill="#F5FAFA"/>
<path d="M248.05 146.093C248.013 146.086 247.976 146.074 247.941 146.058C247.835 146.009 247.752 145.92 247.711 145.81C247.67 145.701 247.674 145.579 247.721 145.473C248.098 144.65 257.062 125.291 267.933 122.123C268.046 122.091 268.166 122.104 268.269 122.16C268.372 122.216 268.449 122.31 268.483 122.422C268.5 122.477 268.507 122.535 268.501 122.592C268.496 122.649 268.479 122.705 268.452 122.756C268.425 122.806 268.388 122.851 268.344 122.887C268.299 122.924 268.248 122.951 268.193 122.967C257.696 126.026 248.614 145.652 248.523 145.849C248.483 145.936 248.414 146.008 248.329 146.052C248.243 146.096 248.145 146.111 248.05 146.093Z" fill="#F5FAFA"/>
<path d="M252.371 120.116C252.282 120.1 252.201 120.057 252.136 119.994C252.072 119.93 252.029 119.849 252.011 119.76C251.984 119.616 249.111 105.301 240.81 103.781C240.695 103.76 240.593 103.695 240.525 103.599C240.457 103.504 240.43 103.385 240.448 103.269C240.458 103.213 240.478 103.159 240.509 103.11C240.54 103.061 240.58 103.019 240.627 102.987C240.674 102.954 240.727 102.931 240.783 102.919C240.839 102.907 240.897 102.906 240.954 102.917C249.858 104.547 252.756 118.994 252.875 119.609C252.888 119.678 252.884 119.749 252.864 119.817C252.843 119.884 252.807 119.946 252.757 119.996C252.707 120.046 252.646 120.083 252.579 120.104C252.512 120.125 252.441 120.129 252.371 120.116Z" fill="#F5FAFA"/>
<path d="M306.181 76.2035C308.836 82.38 312.086 91.4318 309.59 97.6465C308.396 100.618 306.519 103.523 306.068 106.818C305.548 110.618 307.575 113.598 307.609 117.262C307.75 132.124 289.23 130.6 287.144 142.541C286.633 145.465 287.283 148.584 286.819 151.52C286.225 155.285 283.827 158.391 280.934 160.497C275.644 164.349 268.917 166.57 262.564 167.694C258.26 168.456 254.645 170.432 250.047 169.955C249.816 169.931 246.204 169.134 246.197 169.144C246.265 169.038 306.181 76.2035 306.181 76.2035Z" fill="url(#paint3_linear_1317_12172)"/>
<path d="M306.18 76.2052C304.996 77.9902 298.07 77.0098 296.177 77.213C291.612 77.7029 286.764 79.0955 282.902 81.6514C280.319 83.361 278.172 86.0497 277.739 89.3334C277.577 90.5598 277.645 91.8784 277.114 92.956C276.33 94.5496 274.463 95.1343 272.741 95.1234C266.466 95.0838 261.283 95.4777 258.574 102.448C256.535 107.694 254.967 115.901 254.929 121.581C254.916 123.602 255.079 125.745 254.223 127.491C253.447 129.073 251.965 130.056 250.686 131.188C243.229 137.786 239.363 152.216 243.172 162.254C243.302 162.597 246.131 169.247 246.198 169.142C246.545 168.605 306.181 76.2036 306.18 76.2052Z" fill="#DAB8F4"/>
<path d="M245.897 169.608C245.952 169.655 246.016 169.689 246.086 169.708C246.155 169.727 246.227 169.732 246.298 169.721C246.369 169.71 246.437 169.685 246.497 169.646C246.557 169.607 246.609 169.555 246.648 169.495L306.631 76.554C306.71 76.4233 306.738 76.2682 306.71 76.1182C306.682 75.9682 306.6 75.8337 306.48 75.7402C306.425 75.694 306.36 75.6601 306.291 75.6406C306.222 75.6212 306.15 75.6167 306.079 75.6274C306.008 75.6382 305.94 75.6639 305.88 75.7029C305.819 75.742 305.768 75.7934 305.729 75.8538L245.746 168.795C245.667 168.925 245.639 169.08 245.667 169.23C245.695 169.38 245.777 169.515 245.897 169.608Z" fill="#F5FAFA"/>
<path d="M261.345 145.674C261.384 145.704 261.426 145.729 261.471 145.749C261.537 145.778 261.607 145.792 261.679 145.792C261.751 145.791 261.821 145.775 261.886 145.745C261.951 145.714 262.009 145.671 262.056 145.616C262.103 145.562 262.137 145.498 262.157 145.429C262.514 144.313 270.835 117.944 263.867 104.47C263.837 104.403 263.793 104.343 263.739 104.294C263.685 104.245 263.622 104.207 263.553 104.182C263.484 104.158 263.411 104.147 263.338 104.152C263.265 104.156 263.194 104.175 263.128 104.207C263.001 104.286 262.909 104.411 262.871 104.556C262.834 104.702 262.855 104.855 262.928 104.986C269.657 117.996 261.216 144.723 261.131 144.991C261.094 145.113 261.094 145.244 261.133 145.365C261.171 145.487 261.245 145.595 261.345 145.674Z" fill="#F5FAFA"/>
<path d="M279.337 117.796C279.423 117.867 279.53 117.908 279.642 117.913C279.753 117.917 279.863 117.885 279.955 117.822C280.101 117.717 294.669 107.471 303.299 114.17C303.354 114.216 303.418 114.25 303.487 114.27C303.556 114.289 303.629 114.294 303.7 114.283C303.771 114.272 303.838 114.246 303.899 114.207C303.959 114.168 304.01 114.117 304.049 114.056C304.128 113.926 304.156 113.771 304.128 113.621C304.1 113.471 304.018 113.336 303.897 113.243C294.641 106.058 279.939 116.398 279.317 116.843C279.2 116.937 279.122 117.072 279.1 117.221C279.078 117.37 279.113 117.522 279.199 117.645C279.236 117.703 279.283 117.754 279.337 117.796Z" fill="#F5FAFA"/>
<path d="M255.452 156.558C255.538 156.629 255.645 156.67 255.756 156.675C255.868 156.68 255.978 156.648 256.07 156.584C256.215 156.479 270.783 146.233 279.413 152.932C279.468 152.978 279.533 153.012 279.602 153.032C279.671 153.051 279.743 153.056 279.814 153.045C279.885 153.034 279.953 153.008 280.013 152.969C280.074 152.93 280.125 152.879 280.164 152.819C280.242 152.688 280.27 152.533 280.242 152.383C280.214 152.233 280.132 152.098 280.012 152.005C270.755 144.82 256.053 155.161 255.432 155.605C255.314 155.699 255.236 155.834 255.214 155.983C255.192 156.132 255.228 156.284 255.313 156.408C255.351 156.465 255.397 156.516 255.452 156.558Z" fill="#F5FAFA"/>
<g opacity="0.67">
<path d="M119.769 118.981C119.779 118.955 119.789 118.928 119.8 118.902C121.213 121.86 123.686 123.237 123.913 127.119C124.078 129.94 123.526 132.788 123.647 135.613C123.857 140.534 127.6 142.997 128.147 147.891C128.937 154.949 127.791 162.556 123.517 168.412C120.174 172.993 115.014 176.449 113.191 181.782C112.007 185.242 112.437 188.972 111.965 192.576C110.22 205.896 96.2545 211.909 85.9285 217.933C80.5634 221.063 82.1658 217.738 83.5684 214.055C87.4618 203.83 91.355 193.606 95.2479 183.381C103.421 161.915 111.524 140.421 119.769 118.981Z" fill="url(#paint4_linear_1317_12172)"/>
<path d="M119.769 118.98C116.94 119.569 115.586 121.705 113.211 122.946C111.238 123.977 108.812 124.203 106.762 125.219C102.238 127.456 98.4784 130.987 95.9605 135.365C94.3499 138.209 93.2188 141.469 90.6994 143.566C88.7962 145.149 86.3326 145.857 84.2671 147.217C80.769 149.521 78.6882 153.551 77.8674 157.617C76.3327 165.218 78.033 173.045 76.6946 180.66C76.0133 184.537 74.2734 188.184 73.3414 192.016C71.4701 199.713 75.5724 213.324 81.9933 218.164C81.3489 217.679 88.891 200.076 89.3571 198.852C94.4865 185.38 99.616 171.909 104.745 158.437C109.751 145.29 114.714 132.09 119.769 118.98Z" fill="#AEC7F3"/>
<path d="M81.8127 218.665C81.9455 218.71 82.0903 218.701 82.2167 218.64C82.343 218.58 82.4411 218.473 82.4903 218.342L120.258 119.153C120.283 119.09 120.296 119.022 120.294 118.954C120.293 118.886 120.277 118.818 120.249 118.756C120.221 118.694 120.181 118.638 120.131 118.592C120.08 118.545 120.021 118.51 119.957 118.487C119.824 118.443 119.68 118.452 119.553 118.512C119.427 118.572 119.329 118.679 119.28 118.81L81.5122 217.999C81.4868 218.062 81.4745 218.13 81.4759 218.198C81.4774 218.267 81.4926 218.334 81.5207 218.396C81.5488 218.458 81.5891 218.514 81.6393 218.561C81.6895 218.607 81.7485 218.642 81.8127 218.665Z" fill="#F5FAFA"/>
<path d="M91.539 193.122C91.6158 193.148 91.6976 193.157 91.7782 193.147C91.8589 193.137 91.9363 193.11 92.0046 193.066C92.0729 193.022 92.1304 192.963 92.1727 192.893C92.215 192.824 92.241 192.746 92.2488 192.665C92.3633 191.582 94.9682 166.038 85.8357 156.336C85.7375 156.238 85.6053 156.183 85.4672 156.181C85.329 156.18 85.1956 156.232 85.0952 156.327C84.9947 156.422 84.935 156.552 84.9287 156.691C84.9223 156.829 84.9699 156.964 85.0612 157.068C93.8792 166.435 91.2334 192.329 91.2059 192.588C91.1931 192.702 91.219 192.816 91.2795 192.913C91.34 193.01 91.4315 193.083 91.539 193.122Z" fill="#F5FAFA"/>
<path d="M102.867 163.37C102.969 163.404 103.079 163.408 103.183 163.379C103.287 163.35 103.379 163.29 103.449 163.208C103.564 163.073 115.146 149.762 124.504 153.043C124.637 153.088 124.782 153.079 124.908 153.018C125.034 152.958 125.132 152.851 125.181 152.72C125.207 152.657 125.219 152.589 125.218 152.52C125.216 152.452 125.201 152.385 125.173 152.323C125.145 152.26 125.104 152.205 125.054 152.158C125.004 152.112 124.945 152.076 124.881 152.054C114.844 148.534 103.155 161.968 102.663 162.542C102.617 162.594 102.582 162.653 102.56 162.718C102.538 162.783 102.528 162.852 102.533 162.92C102.537 162.989 102.555 163.056 102.585 163.118C102.615 163.179 102.657 163.234 102.709 163.279C102.756 163.319 102.809 163.35 102.867 163.37Z" fill="#F5FAFA"/>
</g>
<path d="M43.9319 137.835C39.5461 143.969 41.9271 151.21 38.7985 158.143C37.5204 160.975 35.7293 163.665 35.3512 166.757C34.7676 171.53 37.7158 176.086 41.2626 179.331C43.7483 181.605 46.7359 183.699 47.7331 186.925C48.6339 189.839 47.6699 192.969 47.7952 196.014C48.146 204.533 56.1525 210.355 62.296 214.956C65.2688 217.183 68.4589 219.247 72.1198 220.078C72.3384 220.128 75.7609 220.464 75.7611 220.464C72.1733 211.151 68.5855 201.837 64.9977 192.523C57.9776 174.3 50.6959 156.141 43.9393 137.825L43.9319 137.835Z" fill="#D0FCFF"/>
<path d="M43.9302 137.833C44.0533 138.153 48.6332 139.512 49.4446 140.033C51.66 141.407 53.3777 143.456 54.3458 145.879C55.4554 148.53 56.541 151.57 59.1308 152.783C61.3134 153.805 63.9033 153.172 66.2305 153.782C69.4995 154.638 71.6689 157.752 73.12 160.829C75.8382 166.593 76.886 172.801 76.7025 179.13C76.5314 185.027 78.9252 188.091 81.7063 193.177C84.9974 199.195 82.8958 204.294 81.1541 210.233C80.3591 212.944 79.8521 215.407 78.1549 217.799C78.0291 217.976 75.7606 220.463 75.7612 220.464C75.639 220.147 43.932 137.838 43.9302 137.833Z" fill="url(#paint5_linear_1317_12172)"/>
<path d="M75.9203 220.878C75.8664 220.898 75.8089 220.908 75.7513 220.906C75.6936 220.905 75.6368 220.892 75.5842 220.868C75.5315 220.844 75.4841 220.811 75.4445 220.769C75.4049 220.726 75.3739 220.677 75.3534 220.623L43.5221 137.991C43.5008 137.937 43.4905 137.88 43.4915 137.822C43.4926 137.764 43.5051 137.707 43.5283 137.654C43.5515 137.601 43.5849 137.554 43.6267 137.514C43.6684 137.474 43.7177 137.442 43.7716 137.422C43.8255 137.401 43.8829 137.391 43.9407 137.393C43.9984 137.394 44.0552 137.407 44.1079 137.431C44.1606 137.454 44.2081 137.488 44.2476 137.531C44.2872 137.573 44.318 137.622 44.3383 137.676L76.1696 220.308C76.1907 220.362 76.2009 220.419 76.1997 220.477C76.1986 220.535 76.1861 220.592 76.1629 220.645C76.1398 220.698 76.1064 220.745 76.0648 220.785C76.0232 220.825 75.9741 220.857 75.9203 220.878Z" fill="#F5FAFA"/>
<path d="M67.7229 199.598C67.6873 199.611 67.6502 199.62 67.6124 199.625C67.4963 199.636 67.3803 199.602 67.2897 199.528C67.1991 199.454 67.1412 199.348 67.1287 199.232C67.0299 198.322 64.7815 176.854 72.3828 168.433C72.4215 168.391 72.4683 168.356 72.5204 168.332C72.5725 168.307 72.629 168.293 72.6865 168.291C72.744 168.288 72.8015 168.297 72.8555 168.317C72.9096 168.337 72.9592 168.367 73.0015 168.406C73.0875 168.485 73.1389 168.595 73.1447 168.712C73.1504 168.829 73.1099 168.943 73.032 169.03C65.6922 177.16 67.9759 198.921 67.9996 199.14C68.0102 199.236 67.9889 199.333 67.9389 199.416C67.8889 199.499 67.813 199.563 67.7229 199.598Z" fill="#F5FAFA"/>
<path d="M58.1752 174.813C58.0915 174.845 58 174.85 57.913 174.829C57.826 174.807 57.7478 174.759 57.6889 174.691C57.5923 174.581 47.879 163.663 40.0712 166.676C39.9623 166.717 39.8417 166.713 39.7355 166.665C39.6294 166.618 39.5464 166.53 39.5045 166.421C39.4626 166.313 39.4653 166.192 39.512 166.085C39.5586 165.978 39.6455 165.895 39.7536 165.852C48.1282 162.62 57.9305 173.638 58.3437 174.109C58.4207 174.197 58.46 174.312 58.4532 174.428C58.4463 174.545 58.3938 174.654 58.307 174.732C58.2684 174.767 58.2237 174.794 58.1752 174.813Z" fill="#F5FAFA"/>
<path d="M81.4443 108.649C86.8351 112.621 94.1925 118.776 95.2373 125.469C95.7369 128.67 95.6232 132.168 96.9169 135.262C98.4082 138.829 101.641 140.356 103.533 143.516C111.21 156.333 94.7417 164.675 99.0458 176.12C100.1 178.923 102.236 181.288 103.337 184.077C104.747 187.653 104.295 191.598 102.915 194.934C100.39 201.036 95.8189 206.472 91.0069 210.762C87.7473 213.668 85.688 217.268 81.5497 219.253C81.3417 219.353 77.8747 220.546 77.8743 220.559C77.8783 220.431 81.4443 108.649 81.4443 108.649Z" fill="url(#paint6_linear_1317_12172)"/>
<path d="M81.4443 108.651C81.3487 110.817 74.9807 113.581 73.4799 114.744C69.8607 117.551 66.4607 121.288 64.4878 125.52C63.1684 128.351 62.7164 131.803 64.019 134.877C64.5055 136.025 65.2332 137.134 65.3318 138.345C65.4776 140.136 64.1924 141.618 62.7279 142.507C57.3904 145.746 53.1981 148.792 54.4469 156.251C55.387 161.866 58.2315 169.802 61.0877 174.748C62.104 176.508 63.3315 178.282 63.4942 180.243C63.6416 182.02 62.8856 183.646 62.3771 185.295C59.4132 194.909 63.4749 209.442 71.8065 216.161C72.0917 216.391 77.8703 220.682 77.8743 220.556C77.8949 219.91 81.4443 108.649 81.4443 108.651Z" fill="#DAB8F4"/>
<path d="M77.8564 221.118C77.9273 221.128 77.9997 221.124 78.0687 221.104C78.1376 221.084 78.2016 221.05 78.2564 221.004C78.3111 220.958 78.3553 220.9 78.386 220.835C78.4167 220.77 78.4332 220.7 78.4345 220.628L82.0045 108.718C82.0062 108.565 81.9519 108.417 81.852 108.302C81.752 108.186 81.6133 108.111 81.462 108.091C81.3911 108.081 81.3187 108.085 81.2498 108.105C81.1808 108.125 81.1168 108.159 81.0621 108.205C81.0074 108.252 80.9631 108.309 80.9324 108.374C80.9017 108.439 80.8852 108.51 80.884 108.581L77.314 220.491C77.3124 220.644 77.3666 220.792 77.4665 220.907C77.5665 221.023 77.7051 221.098 77.8564 221.118Z" fill="#F5FAFA"/>
<path d="M78.7759 192.298C78.8241 192.304 78.8728 192.303 78.9209 192.297C78.992 192.287 79.0602 192.262 79.1209 192.223C79.1816 192.185 79.2334 192.134 79.273 192.074C79.3126 192.014 79.339 191.946 79.3505 191.875C79.3621 191.804 79.3584 191.731 79.3398 191.662C79.0746 190.507 72.7174 163.295 59.9605 155.243C59.901 155.202 59.8336 155.173 59.7624 155.158C59.6912 155.143 59.6178 155.143 59.5466 155.158C59.4755 155.173 59.4081 155.202 59.3486 155.244C59.2892 155.286 59.2389 155.339 59.2008 155.401C59.1327 155.536 59.1183 155.691 59.1604 155.836C59.2025 155.981 59.298 156.104 59.4275 156.181C71.745 163.954 78.1837 191.54 78.2473 191.817C78.2768 191.942 78.343 192.054 78.4374 192.14C78.5317 192.225 78.6497 192.281 78.7759 192.298Z" fill="#F5FAFA"/>
<path d="M79.8467 158.731C79.9567 158.747 80.0689 158.726 80.166 158.672C80.2631 158.618 80.3395 158.533 80.3835 158.43C80.4536 158.264 87.5887 141.776 98.3087 143.083C98.3796 143.094 98.4519 143.089 98.5209 143.07C98.5899 143.05 98.6539 143.016 98.7086 142.97C98.7633 142.923 98.8075 142.866 98.8382 142.801C98.8689 142.736 98.8854 142.665 98.8866 142.593C98.8883 142.441 98.834 142.292 98.734 142.177C98.6341 142.062 98.4954 141.987 98.3441 141.967C86.8463 140.564 79.6459 157.204 79.3454 157.914C79.2927 158.056 79.2951 158.213 79.352 158.353C79.409 158.493 79.5163 158.607 79.6529 158.672C79.7137 158.703 79.7792 158.722 79.8467 158.731Z" fill="#F5FAFA"/>
<path d="M79.3167 204.814C79.4267 204.83 79.539 204.809 79.6361 204.755C79.7331 204.7 79.8096 204.616 79.8536 204.513C79.9237 204.347 87.0586 187.859 97.7787 189.166C97.8496 189.177 97.922 189.172 97.9909 189.153C98.0599 189.133 98.1239 189.099 98.1786 189.052C98.2333 189.006 98.2775 188.948 98.3082 188.884C98.3389 188.819 98.3554 188.748 98.3567 188.676C98.3583 188.524 98.304 188.375 98.204 188.26C98.1041 188.145 97.9654 188.07 97.8142 188.05C86.3163 186.647 79.116 203.287 78.8153 203.997C78.7627 204.139 78.7651 204.296 78.822 204.436C78.879 204.576 78.9863 204.69 79.1229 204.755C79.1837 204.786 79.2492 204.805 79.3167 204.814Z" fill="#F5FAFA"/>
<path d="M64.6058 264.021H90.702C90.702 264.021 98.9118 252.491 97.4722 226.043H57.8359L57.8449 226.08C56.4052 252.5 64.6058 264.021 64.6058 264.021Z" fill="#9EB8F2"/>
<path d="M64.6058 264.021H74.7837C74.7837 264.021 82.9935 252.491 81.5538 226.043H57.8359L57.8449 226.08C56.4052 252.5 64.6058 264.021 64.6058 264.021Z" fill="url(#paint7_linear_1317_12172)"/>
<path d="M56.4143 220.668V224.468C56.4139 224.675 56.4541 224.879 56.5327 225.07C56.6112 225.261 56.7266 225.435 56.8721 225.581C57.0176 225.727 57.1905 225.843 57.3808 225.923C57.5712 226.002 57.7753 226.043 57.9815 226.043H97.3264C97.5326 226.043 97.7367 226.002 97.927 225.923C98.1174 225.843 98.2903 225.727 98.4358 225.581C98.5813 225.435 98.6967 225.261 98.7752 225.07C98.8538 224.879 98.894 224.675 98.8936 224.468V220.668C98.894 220.462 98.8538 220.257 98.7752 220.066C98.6967 219.875 98.5813 219.702 98.4358 219.555C98.2903 219.409 98.1174 219.293 97.927 219.214C97.7367 219.134 97.5326 219.093 97.3264 219.093H57.9815C57.7753 219.093 57.5712 219.134 57.3809 219.214C57.1905 219.293 57.0176 219.409 56.8721 219.555C56.7266 219.702 56.6112 219.875 56.5327 220.066C56.4542 220.257 56.4139 220.462 56.4143 220.668Z" fill="#9EB8F2"/>
<path d="M56.4143 220.668V224.468C56.4139 224.675 56.4541 224.879 56.5327 225.07C56.6112 225.261 56.7266 225.435 56.8721 225.581C57.0176 225.727 57.1905 225.843 57.3808 225.923C57.5712 226.002 57.7753 226.043 57.9815 226.043H89.8C90.0062 226.043 90.2103 226.002 90.4007 225.923C90.5911 225.843 90.7639 225.727 90.9095 225.581C91.055 225.435 91.1703 225.261 91.2489 225.07C91.3274 224.879 91.3677 224.675 91.3673 224.468V220.668C91.3676 220.462 91.3274 220.257 91.2489 220.066C91.1703 219.875 91.055 219.702 90.9095 219.555C90.7639 219.409 90.591 219.293 90.4007 219.214C90.2103 219.134 90.0062 219.093 89.8 219.093H57.9815C57.7753 219.093 57.5712 219.134 57.3809 219.214C57.1905 219.293 57.0176 219.409 56.8721 219.555C56.7266 219.702 56.6112 219.875 56.5327 220.066C56.4542 220.257 56.4139 220.462 56.4143 220.668Z" fill="url(#paint8_linear_1317_12172)"/>
<path d="M57.673 228.147H97.6414V226.012H57.673V228.147Z" fill="#9EB8F2"/>
<path d="M178.782 44.7391C167.45 42.2079 156.67 47.1249 146.512 51.4864C140.667 53.9959 143.22 59.3436 146.689 63.0101C151.188 67.7655 159.35 69.9134 165.578 71.0906C172.876 72.4694 178.575 67.3811 181.7 61.2704C185.09 54.6417 187.6 46.7089 178.782 44.7391Z" fill="#FFF4FF"/>
<path d="M173.231 199.241H160.387L153.965 184.663H166.809L173.231 199.241Z" fill="#616D7D"/>
<path d="M171.788 199.241H158.943L152.521 184.663H165.365L171.788 199.241Z" fill="#7590A2"/>
<path d="M174.268 197.339H149.614C149.489 197.339 149.365 197.364 149.25 197.411C149.135 197.459 149.03 197.529 148.942 197.617C148.854 197.706 148.784 197.811 148.736 197.926C148.688 198.041 148.664 198.165 148.664 198.29C148.664 198.415 148.688 198.538 148.736 198.654C148.784 198.769 148.854 198.874 148.942 198.962C149.03 199.051 149.135 199.121 149.25 199.168C149.365 199.216 149.489 199.241 149.614 199.241H174.268C174.392 199.241 174.516 199.216 174.631 199.168C174.746 199.121 174.851 199.051 174.939 198.962C175.027 198.874 175.097 198.769 175.145 198.654C175.193 198.538 175.217 198.415 175.217 198.29C175.217 198.165 175.193 198.041 175.145 197.926C175.097 197.811 175.027 197.706 174.939 197.617C174.851 197.529 174.746 197.459 174.631 197.411C174.516 197.364 174.392 197.339 174.268 197.339Z" fill="#758798"/>
<path d="M136.415 189.612C134.042 189.612 132.384 187.679 132.72 185.303L138.296 145.812C138.488 144.634 139.083 143.56 139.979 142.773C140.876 141.987 142.018 141.537 143.209 141.502H193.929C196.302 141.502 197.96 143.435 197.624 145.812L192.048 185.303C191.856 186.48 191.261 187.555 190.365 188.341C189.468 189.127 188.326 189.577 187.135 189.612H136.415Z" fill="#616D7D"/>
<path d="M134.069 189.612C131.695 189.612 130.037 187.679 130.373 185.303L135.949 145.812C136.141 144.634 136.736 143.56 137.633 142.773C138.529 141.987 139.671 141.537 140.862 141.502H191.582C193.955 141.502 195.613 143.435 195.277 145.812L189.701 185.303C189.509 186.48 188.914 187.555 188.018 188.341C187.121 189.127 185.98 189.577 184.788 189.612H134.069Z" fill="#758798"/>
<path d="M134.517 186.438C134.202 186.447 133.889 186.386 133.601 186.258C133.313 186.131 133.057 185.94 132.852 185.701C132.647 185.462 132.498 185.18 132.416 184.876C132.333 184.571 132.32 184.252 132.376 183.942L137.569 147.172C137.679 146.49 138.024 145.867 138.543 145.411C139.062 144.956 139.724 144.696 140.414 144.676H191.133C191.448 144.667 191.761 144.728 192.049 144.856C192.337 144.983 192.593 145.174 192.798 145.413C193.003 145.652 193.152 145.934 193.235 146.238C193.317 146.543 193.33 146.862 193.274 147.172L188.082 183.942C187.971 184.625 187.627 185.247 187.107 185.703C186.588 186.158 185.927 186.418 185.236 186.438H134.517Z" fill="#F7F6F0"/>
<path d="M139.193 153.421H190.056C190.312 153.413 190.558 153.317 190.751 153.148C190.944 152.98 191.073 152.749 191.116 152.496L191.466 150.15C191.488 150.036 191.484 149.918 191.454 149.805C191.424 149.693 191.37 149.588 191.294 149.499C191.219 149.411 191.125 149.34 191.018 149.293C190.912 149.245 190.796 149.223 190.68 149.226H139.817C139.561 149.234 139.315 149.33 139.122 149.499C138.929 149.667 138.8 149.897 138.756 150.15L138.407 152.496C138.385 152.611 138.389 152.729 138.419 152.841C138.449 152.954 138.503 153.059 138.578 153.147C138.654 153.236 138.748 153.307 138.855 153.354C138.961 153.401 139.077 153.424 139.193 153.421Z" fill="#BCCACE"/>
<path d="M179.584 178.218H186.306C186.579 178.21 186.841 178.108 187.046 177.928C187.252 177.749 187.39 177.504 187.435 177.235L190.572 156.152C190.596 156.031 190.592 155.905 190.56 155.785C190.529 155.665 190.471 155.554 190.39 155.459C190.31 155.365 190.21 155.29 190.096 155.239C189.983 155.189 189.86 155.165 189.736 155.169H183.014C182.741 155.177 182.479 155.279 182.274 155.459C182.068 155.638 181.93 155.883 181.884 156.152L178.747 177.235C178.724 177.356 178.728 177.482 178.76 177.602C178.791 177.722 178.849 177.833 178.929 177.928C179.01 178.022 179.11 178.097 179.223 178.148C179.337 178.198 179.46 178.222 179.584 178.218Z" fill="#BCCACE"/>
<path d="M136.7 171.519H154.574C154.846 171.51 155.108 171.408 155.314 171.229C155.519 171.049 155.657 170.804 155.703 170.535L157.843 156.152C157.866 156.031 157.862 155.905 157.831 155.785C157.799 155.665 157.741 155.554 157.661 155.459C157.581 155.365 157.48 155.29 157.367 155.239C157.254 155.189 157.13 155.165 157.007 155.169H139.133C138.86 155.177 138.599 155.279 138.393 155.459C138.187 155.638 138.05 155.883 138.004 156.152L135.864 170.535C135.84 170.657 135.844 170.782 135.876 170.902C135.907 171.022 135.965 171.133 136.046 171.228C136.126 171.322 136.227 171.398 136.34 171.448C136.453 171.498 136.576 171.522 136.7 171.519Z" fill="#BCCACE"/>
<path d="M135.352 173.977C135.382 173.704 135.506 173.451 135.701 173.259C135.897 173.066 136.152 172.947 136.424 172.921H154.432C154.938 172.921 155.277 173.394 155.191 173.977L154.013 181.888H134.174L135.352 173.977Z" fill="#BCCACE"/>
<path d="M158.615 166.588C158.646 166.316 158.77 166.062 158.965 165.87C159.16 165.678 159.416 165.559 159.688 165.533H166.544C167.05 165.533 167.39 166.006 167.303 166.588L165.027 181.888H156.339L158.615 166.588Z" fill="#BCCACE"/>
<path d="M178.225 180.743C178.256 180.471 178.38 180.217 178.575 180.025C178.77 179.833 179.026 179.714 179.298 179.688H186.155C186.66 179.688 187 180.16 186.913 180.743L186.743 181.888H178.055L178.225 180.743Z" fill="#BCCACE"/>
<path d="M170.077 170.179H176.8C177.072 170.17 177.334 170.068 177.539 169.889C177.745 169.709 177.883 169.464 177.929 169.195L179.869 156.152C179.893 156.031 179.889 155.905 179.857 155.785C179.826 155.665 179.768 155.554 179.687 155.459C179.607 155.365 179.506 155.29 179.393 155.239C179.28 155.189 179.157 155.165 179.033 155.169H172.31C172.038 155.177 171.776 155.279 171.57 155.459C171.365 155.638 171.227 155.883 171.181 156.152L169.241 169.195C169.217 169.317 169.221 169.442 169.253 169.562C169.284 169.682 169.342 169.793 169.423 169.888C169.503 169.982 169.603 170.058 169.717 170.108C169.83 170.158 169.953 170.182 170.077 170.179Z" fill="#BCCACE"/>
<path d="M169.002 155.169L167.817 163.137C167.786 163.41 167.662 163.663 167.467 163.856C167.272 164.048 167.016 164.167 166.744 164.193H159.888C159.382 164.193 159.042 163.72 159.129 163.137L160.315 155.169H169.002Z" fill="#BCCACE"/>
<path d="M168.428 172.574C168.459 172.302 168.582 172.048 168.777 171.856C168.973 171.664 169.228 171.545 169.501 171.519H176.357C176.863 171.519 177.202 171.991 177.116 172.574L175.73 181.888H167.042L168.428 172.574Z" fill="#BCCACE"/>
<path d="M184.633 161.156H188.665L189.357 156.509H185.325L184.633 161.156Z" fill="#979DFE"/>
<path d="M181.952 162.506L181.834 163.304H188.346L188.464 162.506H181.952ZM188.242 164.003H181.73L181.611 164.801H188.123L188.242 164.003ZM188.019 165.5H181.507L181.388 166.298H187.9L188.019 165.5ZM187.796 166.997H181.284L181.165 167.795H187.678L187.796 166.997ZM187.574 168.494H184.392L184.273 169.292H187.455L187.574 168.494Z" fill="#F7F6F0"/>
<path fill-rule="evenodd" clip-rule="evenodd" d="M173.93 161.156H177.962L178.654 156.509H174.622L173.93 161.156Z" fill="#FDD247"/>
<path d="M171.249 162.506L171.13 163.304H177.642L177.761 162.506H171.249ZM177.539 164.003H171.026L170.908 164.801H177.42L177.539 164.003ZM177.316 165.5H170.804L170.685 166.298H177.197L177.316 165.5ZM177.093 166.997H170.581L170.462 167.795H176.974L177.093 166.997ZM176.87 168.494H173.689L173.57 169.292H176.752L176.87 168.494Z" fill="#F7F6F0"/>
<path d="M161.375 171.52H165.407L166.098 166.873H162.066L161.375 171.52Z" fill="#70A0FE"/>
<path d="M158.694 172.87L158.575 173.668H165.087L165.206 172.87H158.694ZM164.983 174.367H158.471L158.352 175.165H164.864L164.983 174.367ZM164.76 175.864H158.248L158.129 176.662H164.642L164.76 175.864ZM164.538 177.361H158.025L157.907 178.159H164.419L164.538 177.361ZM164.315 178.858H161.134L161.015 179.656H164.196L164.315 178.858Z" fill="#F7F6F0"/>
<path d="M161.22 155.894L161.101 156.692H167.613L167.732 155.894H161.22ZM167.509 157.391H160.997L160.878 158.189H167.39L167.509 157.391ZM167.286 158.888H164.262L164.143 159.686H167.168L167.286 158.888Z" fill="#F7F6F0"/>
<path d="M138.737 161.156H155.883L156.575 156.509H139.429L138.737 161.156Z" fill="#70A0FE"/>
<path d="M138.536 162.506L138.418 163.304H155.564L155.682 162.506H138.536ZM155.46 164.003H145.289L145.17 164.801H155.341L155.46 164.003Z" fill="#F7F6F0"/>
<path fill-rule="evenodd" clip-rule="evenodd" d="M171.488 177.568H175.52L176.212 172.921H172.179L171.488 177.568Z" fill="#818BEA"/>
<path d="M168.807 178.919L168.688 179.717H175.2L175.319 178.919H168.807ZM175.096 180.416H170.909L170.791 181.214H174.978L175.096 180.416Z" fill="#F7F6F0"/>
<path fill-rule="evenodd" clip-rule="evenodd" d="M182.521 175.353H186.553L187.244 170.706H183.212L182.521 175.353Z" fill="#66BCD5"/>
<path d="M179.84 176.703L179.721 177.501H186.233L186.352 176.703H179.84Z" fill="#F7F6F0"/>
<path d="M138.686 168.305C139.961 173.793 141.858 179.117 144.341 184.174C145.013 185.538 145.977 187.054 147.461 187.141C149.176 187.242 150.602 185.45 150.89 183.708C151.678 178.935 150.516 171.282 149.247 164.801L138.686 168.305Z" fill="#F4A086"/>
<path fill-rule="evenodd" clip-rule="evenodd" d="M149.767 162.402C148.951 158.421 147.68 148.233 142.48 147.782C136.395 147.253 136.28 156.43 136.736 160.417C137.061 163.241 137.548 166.044 138.194 168.812L150.251 164.81C150.093 164.004 149.932 163.201 149.767 162.402Z" fill="#9E7176"/>
<path d="M165.245 162.744C166.17 162.173 167.326 161.591 168.27 162.13C169.662 162.926 169.103 165.1 168.31 166.52C164.158 173.961 158.491 180.445 151.676 185.553C147.933 188.351 146.169 187.765 144.194 183.477C142.018 178.753 159.474 166.306 165.245 162.744Z" fill="#F7B690"/>
<path d="M167.218 158.838C169.606 156.885 172.94 156.896 175.99 157C176.156 157.395 175.827 157.843 175.446 158.023C175.065 158.203 174.629 158.225 174.246 158.402C173.242 158.866 172.952 160.19 172.964 161.323C172.977 162.456 173.144 163.672 172.593 164.654C172.032 165.654 170.854 166.126 169.734 166.209C168.372 166.309 164.978 165.629 164.618 163.89C164.287 162.289 166.102 159.75 167.218 158.838Z" fill="#F7B690"/>
<path d="M168.57 165.116C167.588 165.119 166.623 164.852 165.782 164.346C165.711 164.302 165.66 164.232 165.64 164.151C165.62 164.07 165.632 163.984 165.673 163.912C165.693 163.876 165.72 163.845 165.752 163.82C165.784 163.795 165.821 163.777 165.861 163.767C165.9 163.756 165.941 163.754 165.982 163.76C166.022 163.766 166.06 163.78 166.095 163.801C166.744 164.189 167.474 164.419 168.228 164.472C168.981 164.524 169.737 164.398 170.432 164.103C170.663 164.003 170.901 163.826 170.877 163.675C170.847 163.481 170.404 163.401 170.165 163.359C169.425 163.214 168.735 162.88 168.162 162.39C167.588 161.9 167.151 161.27 166.892 160.561C166.863 160.483 166.866 160.396 166.899 160.32C166.933 160.244 166.995 160.184 167.073 160.154C167.111 160.139 167.151 160.132 167.192 160.134C167.233 160.136 167.273 160.145 167.31 160.163C167.347 160.18 167.38 160.205 167.407 160.235C167.434 160.265 167.455 160.301 167.469 160.339C167.69 160.946 168.065 161.486 168.556 161.905C169.047 162.325 169.637 162.611 170.271 162.735C170.661 162.805 171.386 162.934 171.486 163.576C171.554 164.021 171.25 164.436 170.672 164.686C170.008 164.972 169.292 165.118 168.57 165.116Z" fill="#F4A086"/>
<path d="M130.973 180.838C129.641 177.516 115.593 181.521 113.218 187.074C111.634 188.236 110.429 189.841 109.754 191.687C108.726 194.618 109.089 197.533 109.5 200.298C110.97 210.201 112.866 219.939 115.186 229.514C115.356 230.218 115.541 230.943 116.008 231.447C117.2 232.735 119.177 232.195 120.897 231.007C121.015 231.068 121.136 231.119 121.262 231.16C122.375 231.518 125.987 229.25 126.778 228.339C127.569 227.428 132.044 183.512 130.973 180.838Z" fill="#A0B5BF"/>
<path d="M114.787 267.486C116.519 267.74 118.286 267.595 119.954 267.064C120.183 265.003 120.411 262.942 120.639 260.881C120.69 260.63 120.676 260.37 120.597 260.127C120.503 259.977 120.374 259.853 120.222 259.763C120.07 259.673 119.898 259.621 119.722 259.612C118.375 259.36 116.275 259.281 115.931 261.069C115.52 263.207 115.17 265.348 114.787 267.486Z" fill="#F4A086"/>
<path d="M127.548 221.663C126.391 218.014 121.771 215.513 117.683 221.843C111.448 231.497 117.065 249.556 115.292 261.214H121.112C121.602 260.086 128.19 223.688 127.548 221.663Z" fill="#A0B5BF"/>
<path d="M100.842 191.531C102.259 192.679 104.132 192.855 105.89 192.855C120.356 192.855 128.728 188.015 126.727 181.179C124.672 174.157 111.725 175.29 104.963 177.553C103.505 178.041 101.381 178.513 100.385 179.913C98.9416 181.943 97.3991 188.741 100.842 191.531Z" fill="#A0B5BF"/>
<path d="M98.0968 186.574C100.149 176.65 117.455 179.105 119.456 188.955C120.487 194.029 119.181 199.286 117.521 204.179C116.159 208.191 114.553 212.115 112.711 215.929C111.058 219.351 109.128 223.833 107.112 227.042C106.889 227.398 98.314 226.922 98.0002 225.037C97.2206 220.339 96.7343 215.596 96.544 210.837C96.2226 202.881 96.4778 194.404 98.0968 186.574Z" fill="#A0B5BF"/>
<path d="M131.383 270.515C131.458 269.658 130.668 268.948 129.855 268.749C129.041 268.55 128.191 268.701 127.355 268.691C126.148 268.654 124.974 268.293 123.954 267.646C122.935 266.999 122.108 266.089 121.561 265.012C121.447 264.696 121.245 264.42 120.979 264.216C120.777 264.129 120.554 264.104 120.338 264.145C120.122 264.185 119.923 264.29 119.767 264.445C119.43 264.73 119.192 265.119 118.883 265.437C118.607 265.718 118.276 265.94 117.912 266.09C117.547 266.24 117.156 266.315 116.762 266.31C116.108 266.301 115.375 265.787 114.747 266.126C114.192 266.426 114.043 267.216 113.902 267.78C113.66 268.75 113.441 269.727 113.21 270.701C113.153 270.918 113.114 271.14 113.093 271.364H117.636C117.848 271.057 118.02 270.166 118.111 269.798C118.126 270.177 118.271 271.073 118.504 271.364H130.992C131.211 271.131 131.349 270.833 131.383 270.515Z" fill="#A0B5BF"/>
<path d="M80.8118 264.975C82.2911 265.877 83.9595 266.423 85.6854 266.568C86.3372 264.616 86.989 262.663 87.6407 260.711C87.7431 260.47 87.7849 260.208 87.7623 259.947C87.7097 259.765 87.6204 259.596 87.5001 259.45C87.3798 259.303 87.2309 259.183 87.0626 259.096C85.8692 258.322 83.9426 257.427 83.242 259.065C82.4048 261.022 81.623 263.007 80.8118 264.975Z" fill="#F4A086"/>
<path d="M107.225 226.578C107.293 222.672 103.32 217.892 98.0372 222.909C89.5314 230.988 86.3706 247.077 82.6257 258.962L88.0132 261.227C88.8188 260.347 107.188 228.75 107.225 226.578Z" fill="#A0B5BF"/>
<path d="M86.5149 270.645C86.8603 269.865 86.7998 269.073 86.5423 268.749C86.2847 268.425 86.2963 266.879 86.3842 264.645C86.4243 263.624 84.777 262.641 83.2964 263.806C82.8159 264.184 82.4251 264.396 82.1119 264.252C81.8494 264.131 81.7405 263.53 81.3599 263.737C81.0239 263.919 80.6725 264.625 80.4081 265.122C79.9526 265.979 79.5039 266.846 79.0519 267.708C78.9519 267.899 78.8486 268.099 78.7607 268.302L86.0432 271.364C86.2402 271.153 86.3998 270.91 86.5149 270.645Z" fill="#A0B5BF"/>
<path fill-rule="evenodd" clip-rule="evenodd" d="M131.388 188.865C131.137 176.248 136.193 167.519 142.359 161.128C144.767 158.632 147.688 155.709 147.058 152.252C146.524 149.316 143.632 147.564 140.983 146.341C136.405 144.261 131.666 142.559 126.811 141.254C123.907 140.454 116.453 136.215 113.435 137.029C105.305 139.222 106.536 154.625 104.29 161.623C102.486 167.245 98.2122 184.882 98.2669 185.294L130.412 195.726C132.19 194.47 131.445 191.719 131.388 188.865Z" fill="#B17F83"/>
<path d="M137.26 137.17C135.902 133.38 132.349 131.729 130.402 132.101C129.696 138.427 129.58 138.808 126.528 141.629C125.627 145.006 134.527 148.279 135.924 146.958C135.939 146.442 137.962 139.129 137.26 137.17Z" fill="#F4A086"/>
<path fill-rule="evenodd" clip-rule="evenodd" d="M141.871 128.885C142.377 129.508 142.864 130.241 142.818 131.051C142.729 131.667 142.483 132.25 142.105 132.744C141.673 133.417 141.242 134.089 140.81 134.761C140.389 133.832 140.346 132.777 140.242 131.758C140.137 130.738 139.938 129.67 139.285 128.895C138.88 128.415 138.281 127.989 138.279 127.354C138.278 126.441 139.261 126.25 139.816 126.754C140.553 127.412 141.24 128.124 141.871 128.885Z" fill="#222B56"/>
<path d="M132.196 128.017C134.523 125.167 139.126 125.776 140.727 129.384C142.193 132.688 140.391 139.572 139.045 140.986C136.689 143.459 131.845 140.48 131.198 138.579C130.249 135.794 130.239 130.414 132.196 128.017Z" fill="#F7B690"/>
<path fill-rule="evenodd" clip-rule="evenodd" d="M133.374 128.986C133.506 129.516 132.167 136.494 131.981 136.411C131.318 136.114 130.504 134.132 129.241 134.181C128.838 134.197 128.278 134.455 128.277 133.624C128.275 128.361 128.069 128.626 128.989 128.161C131.017 127.137 133.14 128.041 133.374 128.986Z" fill="#222B56"/>
<path d="M128.146 133.355C128.054 134.21 128.29 135.068 128.806 135.756C130.268 137.678 131.819 135.149 131.501 133.549C131.122 131.642 128.401 131.05 128.146 133.355Z" fill="#F7B690"/>
<path fill-rule="evenodd" clip-rule="evenodd" d="M139.58 129.826C139.456 130.285 139.194 130.79 138.735 130.856C138.256 130.926 133.892 127.169 133.615 127.135C133.337 127.101 133.655 129.054 133.347 129.263C133.083 129.443 132.734 129.307 132.442 129.183C131.155 128.637 129.74 128.687 128.348 128.749C128.28 128.225 128.366 127.693 128.596 127.217C128.818 126.858 129.096 126.537 129.419 126.265C130.8 125.02 132.557 124.093 134.393 124.158C135.491 124.224 136.568 124.496 137.566 124.96C141.445 126.654 139.769 129.127 139.58 129.826Z" fill="#222B56"/>
<path d="M118.124 158.463L106.922 159.538C106.923 164.63 107.284 169.716 108.004 174.758L117.36 173.794C117.447 168.71 117.712 163.656 118.124 158.463Z" fill="#F7B690"/>
<path fill-rule="evenodd" clip-rule="evenodd" d="M119.035 150.833C119.502 146.44 122.813 139.979 118.071 137.885C113.697 135.954 109.631 138.97 108.746 143.234C107.518 149.289 106.907 155.453 106.922 161.632L119.146 161.113C119.398 157.937 118.681 154.153 119.035 150.833Z" fill="#B17F83"/>
<path d="M117.409 171.581L108.004 174.758C108.51 175.846 117.694 191.716 122.319 197.34C123.09 198.278 124.349 199.282 125.336 198.591C126.152 198.02 126.198 196.71 125.809 195.778C122.532 187.886 119.727 179.806 117.409 171.581Z" fill="#F7B690"/>
<path fill-rule="evenodd" clip-rule="evenodd" d="M128.466 129.142C128.239 129.167 128.023 129.255 127.842 129.395C127.662 129.536 127.523 129.724 127.443 129.938C127.395 129.385 127.483 128.829 127.701 128.319C127.918 127.809 128.258 127.36 128.69 127.012C128.145 127.087 127.73 126.407 127.848 125.855C128.018 125.316 128.389 124.864 128.884 124.593C130.405 123.583 132.234 123.144 134.047 123.356C134.081 123.119 134.114 122.881 134.148 122.644C135.25 122.899 136.248 123.484 137.008 124.321C137.041 124.112 137.074 123.902 137.107 123.692C137.894 124.185 138.681 124.677 139.468 125.169C139.438 125.136 139.418 125.095 139.409 125.051C139.4 125.007 139.402 124.962 139.416 124.92C139.43 124.877 139.455 124.839 139.489 124.81C139.522 124.78 139.562 124.759 139.606 124.75C140.45 125.444 141.148 126.299 141.66 127.264C142.173 128.229 142.49 129.287 142.593 130.375C141.65 129.242 140.452 128.348 139.098 127.767C137.09 126.911 134.813 126.788 132.908 125.711C133.171 126.816 132.091 128.012 131 127.825C131.187 127.63 131.374 127.435 131.561 127.24L128.466 129.142Z" fill="#222B56"/>
<path d="M127.939 193.507C128.75 193.698 129.376 194.34 129.955 194.954C130.795 195.844 131.634 196.734 132.473 197.624C132.811 197.982 133.174 198.476 132.971 198.928C132.788 199.335 132.219 199.412 131.834 199.202C131.466 198.952 131.172 198.608 130.982 198.205C130.934 198.562 130.758 198.888 130.486 199.124C130.215 199.36 129.867 199.488 129.508 199.486C129.181 199.118 128.854 198.751 128.527 198.384C127.9 199.183 126.731 199.159 125.737 199.065C124.12 198.91 122.117 198.376 123.281 196.452C124.129 195.05 126.192 193.097 127.939 193.507Z" fill="#F7B690"/>
<path d="M230.23 199.241H243.074L249.496 184.663H236.652L230.23 199.241Z" fill="#616D7D"/>
<path d="M231.674 199.241H244.518L250.94 184.663H238.096L231.674 199.241Z" fill="#7590A2"/>
<path d="M229.194 197.339H253.848C253.973 197.339 254.096 197.364 254.211 197.411C254.327 197.459 254.431 197.529 254.519 197.617C254.608 197.706 254.678 197.811 254.725 197.926C254.773 198.041 254.798 198.165 254.798 198.29C254.798 198.415 254.773 198.538 254.725 198.654C254.678 198.769 254.608 198.874 254.519 198.962C254.431 199.051 254.327 199.121 254.211 199.168C254.096 199.216 253.973 199.241 253.848 199.241H229.194C229.069 199.241 228.946 199.216 228.83 199.168C228.715 199.121 228.61 199.051 228.522 198.962C228.434 198.874 228.364 198.769 228.316 198.654C228.269 198.538 228.244 198.415 228.244 198.29C228.244 198.038 228.344 197.796 228.522 197.617C228.7 197.439 228.942 197.339 229.194 197.339Z" fill="#758798"/>
<path d="M267.046 189.612C269.419 189.612 271.077 187.679 270.742 185.303L265.165 145.812C264.974 144.634 264.378 143.56 263.482 142.773C262.585 141.987 261.444 141.537 260.252 141.502H209.533C207.16 141.502 205.502 143.435 205.837 145.812L211.413 185.303C211.605 186.48 212.2 187.555 213.097 188.341C213.993 189.127 215.135 189.577 216.326 189.612H267.046Z" fill="#616D7D"/>
<path d="M269.393 189.612C271.766 189.612 273.424 187.679 273.089 185.303L267.512 145.812C267.32 144.634 266.725 143.56 265.829 142.773C264.932 141.987 263.79 141.537 262.599 141.502H211.88C209.507 141.502 207.849 143.435 208.184 145.812L213.76 185.303C213.952 186.48 214.547 187.555 215.444 188.341C216.34 189.127 217.482 189.577 218.673 189.612H269.393Z" fill="#758798"/>
<path d="M268.945 186.438C269.259 186.447 269.572 186.386 269.86 186.258C270.148 186.131 270.404 185.94 270.609 185.701C270.814 185.462 270.963 185.18 271.046 184.876C271.128 184.571 271.141 184.252 271.085 183.942L265.893 147.172C265.782 146.49 265.438 145.867 264.919 145.412C264.399 144.956 263.738 144.696 263.047 144.676H212.328C212.013 144.667 211.7 144.728 211.412 144.856C211.124 144.983 210.869 145.174 210.663 145.413C210.458 145.652 210.309 145.934 210.227 146.238C210.145 146.543 210.131 146.862 210.188 147.172L215.38 183.942C215.49 184.625 215.835 185.247 216.354 185.703C216.873 186.158 217.535 186.418 218.225 186.438H268.945Z" fill="#F7F6F0"/>
<path d="M213.461 153.421H264.323C264.44 153.424 264.556 153.401 264.662 153.354C264.769 153.307 264.864 153.236 264.939 153.148C265.015 153.059 265.07 152.954 265.1 152.842C265.131 152.729 265.135 152.611 265.114 152.496L264.777 150.15C264.735 149.898 264.607 149.667 264.414 149.499C264.222 149.33 263.976 149.234 263.721 149.226H212.858C212.742 149.223 212.626 149.245 212.519 149.293C212.413 149.34 212.318 149.41 212.242 149.499C212.166 149.588 212.111 149.692 212.081 149.805C212.051 149.918 212.046 150.036 212.068 150.15L212.405 152.496C212.446 152.749 212.575 152.98 212.767 153.148C212.96 153.317 213.205 153.413 213.461 153.421Z" fill="#BCCACE"/>
<path d="M261.105 178.218H267.828C267.952 178.222 268.075 178.198 268.188 178.147C268.302 178.097 268.402 178.022 268.483 177.928C268.564 177.833 268.622 177.722 268.654 177.602C268.687 177.482 268.692 177.357 268.669 177.235L265.639 156.152C265.595 155.883 265.459 155.638 265.254 155.459C265.049 155.279 264.788 155.177 264.515 155.169H257.793C257.669 155.165 257.545 155.189 257.432 155.239C257.318 155.29 257.218 155.365 257.137 155.459C257.056 155.553 256.998 155.665 256.966 155.785C256.934 155.905 256.929 156.03 256.951 156.152L259.981 177.235C260.025 177.504 260.161 177.749 260.367 177.928C260.572 178.108 260.833 178.21 261.105 178.218Z" fill="#BCCACE"/>
<path d="M216.262 171.519H234.135C234.259 171.522 234.383 171.498 234.496 171.448C234.609 171.397 234.71 171.322 234.791 171.228C234.872 171.134 234.93 171.022 234.962 170.903C234.994 170.783 234.999 170.657 234.977 170.535L232.91 156.152C232.866 155.883 232.729 155.638 232.524 155.459C232.319 155.279 232.058 155.177 231.786 155.169H213.912C213.788 155.165 213.665 155.189 213.551 155.239C213.438 155.29 213.337 155.365 213.257 155.459C213.176 155.553 213.117 155.665 213.085 155.785C213.053 155.905 213.048 156.03 213.071 156.152L215.138 170.535C215.182 170.804 215.318 171.049 215.523 171.229C215.728 171.408 215.989 171.511 216.262 171.519Z" fill="#BCCACE"/>
<path d="M215.632 173.977C215.548 173.394 215.89 172.921 216.396 172.921H234.404C234.676 172.947 234.931 173.066 235.125 173.259C235.32 173.451 235.442 173.705 235.471 173.977L236.608 181.888H216.769L215.632 173.977Z" fill="#BCCACE"/>
<path d="M236.735 166.588C236.651 166.006 236.993 165.533 237.499 165.533H244.355C244.627 165.559 244.882 165.678 245.077 165.87C245.271 166.063 245.393 166.316 245.423 166.588L247.621 181.888H238.933L236.735 166.588Z" fill="#BCCACE"/>
<path d="M260.485 180.743C260.401 180.16 260.743 179.688 261.249 179.688H268.106C268.378 179.714 268.633 179.833 268.827 180.025C269.022 180.217 269.144 180.471 269.173 180.743L269.338 181.888H260.65L260.485 180.743Z" fill="#BCCACE"/>
<path d="M249.246 170.179H255.969C256.093 170.182 256.216 170.158 256.33 170.108C256.443 170.058 256.544 169.982 256.625 169.888C256.705 169.794 256.764 169.683 256.796 169.563C256.828 169.443 256.833 169.317 256.81 169.195L254.936 156.152C254.892 155.883 254.755 155.638 254.55 155.459C254.345 155.279 254.084 155.176 253.812 155.169H247.089C246.965 155.165 246.842 155.189 246.729 155.239C246.615 155.29 246.515 155.365 246.434 155.459C246.353 155.553 246.295 155.665 246.263 155.785C246.23 155.905 246.225 156.03 246.248 156.152L248.122 169.195C248.167 169.464 248.303 169.709 248.508 169.889C248.713 170.068 248.974 170.171 249.246 170.179Z" fill="#BCCACE"/>
<path d="M243.782 155.169L244.927 163.137C245.011 163.72 244.668 164.193 244.163 164.193H237.306C237.034 164.167 236.779 164.048 236.585 163.856C236.39 163.663 236.268 163.41 236.239 163.137L235.094 155.169H243.782Z" fill="#BCCACE"/>
<path d="M248.298 172.574C248.214 171.991 248.556 171.519 249.062 171.519H255.918C256.191 171.545 256.446 171.664 256.64 171.856C256.835 172.048 256.957 172.302 256.986 172.574L258.324 181.888H249.637L248.298 172.574Z" fill="#BCCACE"/>
<path d="M261.163 161.156H265.196L264.528 156.509H260.496L261.163 161.156Z" fill="#979DFE"/>
<path d="M258.878 162.506L258.992 163.304H265.504L265.39 162.506H258.878ZM265.605 164.003H259.093L259.207 164.801H265.72L265.605 164.003ZM265.82 165.5H259.308L259.422 166.298H265.935L265.82 165.5ZM266.035 166.997H259.523L259.638 167.795H266.15L266.035 166.997ZM266.25 168.494H263.069L263.183 169.292H266.365L266.25 168.494Z" fill="#F7F6F0"/>
<path fill-rule="evenodd" clip-rule="evenodd" d="M250.46 161.156H254.493L253.825 156.509H249.792L250.46 161.156Z" fill="#FDD247"/>
<path d="M248.174 162.506L248.289 163.304H254.801L254.687 162.506H248.174ZM254.902 164.003H248.39L248.504 164.801H255.016L254.902 164.003ZM255.117 165.5H248.605L248.719 166.298H255.232L255.117 165.5ZM255.332 166.997H248.82L248.934 167.795H255.447L255.332 166.997ZM255.547 168.494H252.366L252.48 169.292H255.662L255.547 168.494Z" fill="#F7F6F0"/>
<path d="M240.937 171.52H244.969L244.301 166.873H240.269L240.937 171.52Z" fill="#70A0FE"/>
<path d="M238.651 172.87L238.765 173.668H245.277L245.163 172.87H238.651ZM245.378 174.367H238.866L238.98 175.165H245.493L245.378 174.367ZM245.593 175.864H239.081L239.196 176.662H245.708L245.593 175.864ZM245.808 177.361H239.296L239.411 178.159H245.923L245.808 177.361ZM246.023 178.858H242.842L242.957 179.656H246.138L246.023 178.858Z" fill="#F7F6F0"/>
<path d="M236.211 155.894L236.326 156.692H242.838L242.723 155.894H236.211ZM242.938 157.391H236.426L236.541 158.189H243.053L242.938 157.391ZM243.153 158.888H240.129L240.244 159.686H243.268L243.153 158.888Z" fill="#F7F6F0"/>
<path d="M215.268 161.156H232.414L231.746 156.509H214.6L215.268 161.156Z" fill="#70A0FE"/>
<path d="M215.462 162.506L215.576 163.304H232.722L232.608 162.506H215.462ZM232.823 164.003H222.652L222.767 164.801H232.937L232.823 164.003Z" fill="#F7F6F0"/>
<path fill-rule="evenodd" clip-rule="evenodd" d="M252.819 177.568H256.851L256.183 172.921H252.151L252.819 177.568Z" fill="#818BEA"/>
<path d="M250.533 178.919L250.648 179.717H257.16L257.045 178.919H250.533ZM257.26 180.416H253.073L253.188 181.214H257.375L257.26 180.416Z" fill="#F7F6F0"/>
<path fill-rule="evenodd" clip-rule="evenodd" d="M263.204 175.353H267.236L266.568 170.706H262.536L263.204 175.353Z" fill="#66BCD5"/>
<path d="M260.918 176.703L261.032 177.501H267.545L267.43 176.703H260.918Z" fill="#F7F6F0"/>
<path d="M323.471 177.969L323.468 178.003C323.108 177.945 322.74 177.962 322.387 178.053C322.034 178.143 321.703 178.306 321.416 178.531C321.128 178.755 320.89 179.036 320.715 179.357C320.541 179.678 320.435 180.031 320.403 180.395L315.867 228.127C315.825 228.599 315.608 229.037 315.258 229.356C314.908 229.674 314.452 229.85 313.979 229.848H285.29C284.58 229.848 283.899 230.131 283.397 230.633C282.895 231.136 282.613 231.818 282.613 232.528C282.613 233.239 282.895 233.921 283.397 234.423C283.899 234.926 284.58 235.208 285.29 235.208H313.979C315.026 235.208 316.06 234.98 317.01 234.541C317.96 234.102 318.803 233.462 319.482 232.665C321.06 232.782 327.172 233.306 327.172 233.306L333.436 231.311L339.127 177.969H323.471Z" fill="#B164A5"/>
<path d="M330.039 229.849C330.512 229.85 330.968 229.674 331.317 229.356C331.667 229.037 331.884 228.599 331.927 228.127L336.462 180.395C336.525 179.731 336.833 179.115 337.326 178.666C337.819 178.218 338.461 177.969 339.127 177.969C339.499 177.969 339.868 178.047 340.209 178.198C340.55 178.349 340.856 178.57 341.107 178.846C341.357 179.122 341.548 179.448 341.666 179.802C341.784 180.156 341.826 180.531 341.791 180.902L337.256 228.627C337.088 230.427 336.255 232.099 334.92 233.316C333.585 234.533 331.844 235.208 330.039 235.208H301.349C300.998 235.208 300.65 235.139 300.325 235.004C300 234.869 299.705 234.672 299.457 234.423C299.208 234.174 299.011 233.879 298.877 233.554C298.742 233.229 298.673 232.88 298.673 232.528C298.673 232.176 298.742 231.828 298.877 231.503C299.011 231.178 299.208 230.882 299.457 230.633C299.705 230.385 300 230.187 300.325 230.052C300.65 229.918 300.998 229.849 301.349 229.849H330.039Z" fill="#C67DBD"/>
<path d="M309.448 275.711H313.801V235.208H309.448V275.711Z" fill="#BABAD3"/>
<path d="M327.135 275.711C327.135 274.556 326.676 273.447 325.86 272.63C325.044 271.813 323.937 271.354 322.783 271.354H300.466C299.312 271.354 298.205 271.813 297.389 272.63C296.573 273.447 296.114 274.556 296.114 275.711H327.135Z" fill="#4B4B6D"/>
<path d="M309.638 239.376H313.611C314.278 239.376 314.935 239.208 315.521 238.888C316.107 238.568 316.603 238.105 316.964 237.543L318.464 235.208H304.785L306.285 237.543C306.646 238.105 307.142 238.568 307.728 238.888C308.314 239.208 308.971 239.376 309.638 239.376Z" fill="#4B4B6D"/>
<path d="M273.714 195.688C275.818 194.695 287.878 193.008 290.01 192.078C292.948 190.796 295.174 187.341 296.617 184.477C297.388 182.88 298.078 181.245 298.685 179.579L307.698 184.347C306.479 186.442 305.118 188.45 303.626 190.358C301.335 193.284 298.68 196.012 295.404 197.764C291.99 199.591 277.862 199.812 274.039 199.207C270.958 198.567 271.611 196.681 273.714 195.688Z" fill="#F4A086"/>
<path d="M305.046 169.783C307.426 168.493 312.309 168.767 312.545 172.199C312.684 174.219 311.525 176.425 310.758 178.24C309.901 180.267 308.92 182.239 307.82 184.144C307.781 184.213 307.738 184.279 307.698 184.347L297.767 180.201C299.949 177.449 301.993 171.438 305.046 169.783Z" fill="#858BED"/>
<path d="M265.049 194.932C264.224 195.661 263.719 196.686 263.643 197.785C263.619 198.873 264.506 201.054 265.313 200.325C265.981 199.723 266.147 198.716 267.045 198.743C267.943 198.77 268.748 199.267 269.582 199.599C272.046 200.579 279.508 199.25 276.333 195.344C273.901 192.352 267.704 192.4 265.049 194.932Z" fill="#F4A086"/>
<path d="M248.552 268.889C248.043 269.655 247.362 270.51 246.445 270.488C244.863 270.451 244.748 268.19 245.144 266.668C245.572 265.026 245.999 263.384 246.426 261.742L251.396 263.196C250.854 265.261 249.515 267.442 248.552 268.889Z" fill="#F4A086"/>
<path fill-rule="evenodd" clip-rule="evenodd" d="M261.082 221.348C265.081 216.926 290.077 211.429 301.832 207.828C310.61 205.139 319.643 203.627 320.98 215.498C321.232 218.058 320.766 220.638 319.634 222.948C318.502 225.257 316.749 227.205 314.573 228.572C309.801 231.506 303.802 231.231 298.214 230.861C287.561 230.155 281.028 229.722 270.375 229.016C269.356 242.975 257.508 247.972 252.203 263.433L244.234 261.806C249.066 254.527 259.096 223.896 261.082 221.348Z" fill="#0A3C5F"/>
<path fill-rule="evenodd" clip-rule="evenodd" d="M322.971 228.572C318.199 231.506 312.2 231.231 306.612 230.861C295.581 230.13 284.549 229.399 273.517 228.667C271.756 228.551 269.78 228.326 268.682 226.943C267.399 225.328 268.02 222.804 269.481 221.348C270.941 219.891 272.995 219.239 274.966 218.635C286.721 215.032 298.475 211.43 310.23 207.828C319.008 205.139 328.042 203.627 329.379 215.498C329.631 218.058 329.164 220.638 328.032 222.948C326.901 225.257 325.148 227.205 322.971 228.572Z" fill="#0A3C5F"/>
<path d="M322.736 178.681C322.134 183.176 320.41 187.534 320.482 192.069C320.531 194.344 321.029 196.588 321.948 198.67C322.867 200.752 324.189 202.631 325.838 204.199C327.875 206.116 330.671 208.292 329.942 210.994C329.286 213.424 326.251 214.144 323.752 214.429C318.304 215.048 312.087 215.432 308.079 211.685C305.625 209.391 304.563 205.998 303.782 202.728C302.397 196.931 301.588 191.012 301.364 185.055C301.174 179.987 301.512 174.584 304.422 170.432C307.321 166.295 310.575 163.553 315.32 165.011C320.714 170.309 323.332 174.223 322.736 178.681Z" fill="#979DFE"/>
<path fill-rule="evenodd" clip-rule="evenodd" d="M250.802 265.432C250.493 265.975 249.067 266.228 248.479 266.252C248.014 266.27 245.887 265.3 245.428 265.459C245.097 265.573 243.863 270.018 242.33 270.961C240.798 271.904 239.098 272.424 237.468 273.125C236.882 273.347 236.339 273.671 235.865 274.082C235.407 274.518 235.085 275.146 235.185 275.697C235.197 275.744 235.213 275.79 235.232 275.835H245.257C245.548 275.493 245.811 275.121 246.066 274.755C246.983 273.441 247.9 272.127 248.816 270.813C249.105 272.249 249.355 273.932 249.632 275.835H250.752C251.11 274.305 252.098 267.022 250.802 265.432Z" fill="#979DFE"/>
<path d="M273.162 268.889C272.967 269.655 272.66 270.51 271.928 270.488C270.665 270.451 269.961 268.19 269.862 266.668C269.755 265.026 269.648 263.384 269.541 261.742L273.869 263.196C274 265.261 273.532 267.442 273.162 268.889Z" fill="#F4A086"/>
<path fill-rule="evenodd" clip-rule="evenodd" d="M267.95 225.02C268.881 218.848 278.285 220.65 279.216 225.086C282.196 239.045 274.578 247.972 274.573 263.433L267.822 261.806C269.596 254.83 267.255 229.627 267.95 225.02Z" fill="#0A3C5F"/>
<path fill-rule="evenodd" clip-rule="evenodd" d="M274.086 265.432C273.777 265.975 272.351 266.228 271.763 266.252C271.298 266.27 269.171 265.3 268.711 265.459C268.38 265.573 267.146 270.018 265.614 270.961C264.082 271.904 262.382 272.424 260.752 273.125C260.166 273.347 259.623 273.671 259.149 274.082C258.691 274.518 258.369 275.146 258.469 275.697C258.481 275.744 258.497 275.79 258.516 275.835H268.541C268.832 275.493 269.095 275.121 269.35 274.755C270.267 273.441 271.183 272.127 272.1 270.813C272.389 272.249 272.639 273.932 272.916 275.835H274.036C274.394 274.305 275.382 267.022 274.086 265.432Z" fill="#979DFE"/>
<path d="M279.454 195.152C281.558 194.159 293.618 193.008 295.75 192.078C298.687 190.796 300.914 187.341 302.357 184.477C303.128 182.88 303.818 181.245 304.425 179.579L313.438 184.347C312.219 186.442 310.858 188.45 309.366 190.358C307.074 193.284 304.419 196.012 301.144 197.764C297.73 199.591 283.602 199.276 279.778 198.671C276.697 198.031 277.35 196.145 279.454 195.152Z" fill="#F7B690"/>
<path d="M306.052 175.594C307.115 173.283 308.551 170.995 310.786 169.783C313.165 168.493 318.049 168.767 318.284 172.199C318.423 174.219 317.265 176.425 316.497 178.24C315.64 180.267 314.659 182.239 313.56 184.144C313.52 184.213 313.477 184.279 313.438 184.347L303.506 180.201C304.02 178.86 305.452 176.898 306.052 175.594Z" fill="#979DFE"/>
<path d="M270.829 190.97C269.806 191.376 268.984 192.168 268.54 193.176C268.149 194.192 268.244 196.545 269.251 196.133C270.083 195.794 270.581 194.903 271.416 195.233C272.251 195.564 272.84 196.304 273.513 196.9C275.499 198.658 282.969 199.941 281.305 195.188C280.031 191.548 274.184 189.489 270.829 190.97Z" fill="#F7B690"/>
<path d="M314.4 154.667C313.98 153.875 309.375 156.251 309.102 156.82C308.828 157.389 308.538 163.83 307.553 167.85C307.341 168.718 315.93 166.061 315.32 165.011C314.331 163.308 313.32 156.812 314.4 154.667Z" fill="#F4A086"/>
<path d="M301.127 148.862C302.717 142.256 311.743 143.649 313.887 144.308C316.031 144.967 316.085 148.003 316.292 150.238C316.381 151.623 315.957 152.993 315.101 154.085C314.312 155.138 310.879 156.724 310.685 156.766C309.411 158.964 307.34 161.479 305.234 161.448C304.285 161.434 303.425 160.825 302.867 160.056C302.35 159.258 301.959 158.384 301.708 157.466C300.786 154.666 300.437 151.729 301.127 148.862Z" fill="#F7B690"/>
<path fill-rule="evenodd" clip-rule="evenodd" d="M316.749 152.701C317.568 151.769 318.107 150.623 318.303 149.397C318.439 147.928 318.045 146.459 317.191 145.256C315.737 143.093 311.983 140.301 308.95 140.24C305.709 140.174 300.144 143.405 300.672 147.419C300.83 148.62 301.489 148.629 302.637 149.012C304.149 149.518 306.178 149.867 307.432 150.853C308.931 152.031 308.265 154.873 311.335 155.797C312.327 156.095 313.347 157.85 314.006 159.215C314.79 158.323 315.989 153.621 316.749 152.701Z" fill="#222B56"/>
<path fill-rule="evenodd" clip-rule="evenodd" d="M319.619 143.982C321.273 143.546 323.132 143.599 324.579 144.514C325.467 145.125 326.204 145.933 326.73 146.875C328.229 149.356 328.911 152.246 328.68 155.136C328.244 160.414 324.789 165.255 325.171 170.537C325.199 171.309 325.395 172.066 325.747 172.754C325.926 173.096 326.177 173.395 326.484 173.628C326.791 173.862 327.145 174.025 327.522 174.106C326.226 174.376 324.881 174.307 323.618 173.907C322.356 173.506 321.217 172.788 320.312 171.82C319.115 170.51 318.413 168.819 317.934 167.111C316.764 162.916 316.798 158.477 318.033 154.302C318.321 153.332 318.677 152.363 318.709 151.351C318.741 150.353 318.392 149.267 317.522 148.701C316.831 148.251 315.558 148.357 315.378 147.365C315.022 145.408 318.303 144.33 319.619 143.982Z" fill="#222B56"/>
<path d="M312.667 153.208C312.82 153.368 312.922 153.569 312.961 153.787C313.04 154.125 313.051 154.474 312.993 154.816C312.935 155.157 312.809 155.483 312.623 155.775C312.437 156.067 312.195 156.319 311.91 156.516C311.625 156.713 311.304 156.85 310.965 156.921C310.7 156.996 310.415 156.968 310.169 156.843C309.366 156.353 309.773 154.645 310.159 153.984C310.56 153.297 311.983 152.57 312.667 153.208Z" fill="#F7B690"/>
<path d="M261.805 203.298L259.808 203.484L266.506 275.942L268.503 275.756L261.805 203.298Z" fill="#D0D9DF"/>
<path d="M140.897 203.298L134.205 275.757L136.203 275.942L142.894 203.483L140.897 203.298Z" fill="#D0D9DF"/>
<path d="M123.998 203.391H278.708C278.98 203.391 279.249 203.337 279.501 203.233C279.752 203.128 279.981 202.976 280.173 202.783C280.365 202.59 280.518 202.362 280.622 202.11C280.726 201.858 280.78 201.588 280.78 201.316C280.78 200.765 280.562 200.238 280.173 199.849C279.784 199.459 279.257 199.241 278.708 199.241H123.998C123.448 199.241 122.921 199.459 122.532 199.849C122.144 200.238 121.925 200.765 121.925 201.316C121.925 201.588 121.979 201.858 122.083 202.11C122.187 202.362 122.34 202.59 122.532 202.783C122.725 202.976 122.953 203.128 123.204 203.233C123.456 203.337 123.725 203.391 123.998 203.391Z" fill="#62C1C5"/>
<path d="M79.9901 177.969L79.9928 178.003C80.3529 177.945 80.721 177.962 81.0742 178.053C81.4274 178.143 81.7581 178.306 82.0457 178.531C82.3333 178.755 82.5717 179.036 82.7459 179.357C82.9201 179.678 83.0265 180.031 83.0583 180.395L87.5941 228.127C87.6364 228.599 87.8538 229.037 88.2033 229.356C88.5528 229.674 89.0091 229.85 89.4819 229.848H118.171C118.881 229.848 119.562 230.131 120.064 230.633C120.566 231.136 120.848 231.818 120.848 232.528C120.848 233.239 120.566 233.921 120.064 234.423C119.562 234.926 118.881 235.208 118.171 235.208H89.482C88.4356 235.208 87.4018 234.98 86.4517 234.541C85.5017 234.102 84.6581 233.462 83.9792 232.665C82.4014 232.782 76.289 233.306 76.289 233.306L70.0257 231.311L64.3347 177.969H79.9901Z" fill="#6370C7"/>
<path d="M73.4224 229.849C72.9497 229.85 72.4934 229.674 72.1439 229.356C71.7944 229.037 71.577 228.599 71.5347 228.127L66.9989 180.395C66.9359 179.731 66.6279 179.115 66.1353 178.666C65.6426 178.218 65.0006 177.969 64.3347 177.969C63.9619 177.969 63.5932 178.047 63.2522 178.198C62.9113 178.349 62.6056 178.57 62.3548 178.846C62.1039 179.122 61.9135 179.448 61.7957 179.802C61.6779 180.156 61.6352 180.531 61.6705 180.902L66.2049 228.627C66.3732 230.427 67.2064 232.099 68.5414 233.316C69.8763 234.533 71.617 235.208 73.4226 235.208H102.112C102.463 235.208 102.812 235.139 103.136 235.004C103.461 234.869 103.756 234.672 104.005 234.423C104.253 234.174 104.45 233.879 104.585 233.554C104.719 233.229 104.788 232.88 104.788 232.528C104.788 231.818 104.506 231.136 104.005 230.633C103.503 230.131 102.822 229.849 102.112 229.849H73.4224Z" fill="#828FEB"/>
<path d="M94.013 235.208H89.6608V275.711H94.013V235.208Z" fill="#BABAD3"/>
<path d="M76.3264 275.711C76.3264 274.556 76.785 273.447 77.6012 272.63C78.4174 271.813 79.5244 271.354 80.6786 271.354H102.995C103.567 271.354 104.133 271.467 104.661 271.686C105.189 271.905 105.669 272.226 106.073 272.63C106.477 273.035 106.797 273.515 107.016 274.044C107.235 274.573 107.347 275.139 107.347 275.711H76.3264Z" fill="#4B4B6D"/>
<path d="M93.8234 239.376H89.8504C89.183 239.376 88.5262 239.208 87.9403 238.888C87.3545 238.568 86.8583 238.105 86.4973 237.543L84.9977 235.208H98.6761L97.1765 237.543C96.8155 238.105 96.3193 238.568 95.7335 238.888C95.1476 239.208 94.4909 239.376 93.8234 239.376Z" fill="#4B4B6D"/>
<path d="M129.747 195.688C127.643 194.695 115.583 193.008 113.451 192.078C110.514 190.796 108.287 187.341 106.844 184.477C106.073 182.88 105.383 181.245 104.776 179.579L95.7634 184.347C96.9824 186.442 98.343 188.45 99.8355 190.358C102.127 193.284 104.782 196.012 108.057 197.764C111.471 199.591 125.599 199.812 129.423 199.207C132.504 198.567 131.851 196.681 129.747 195.688Z" fill="#F4A086"/>
<path fill-rule="evenodd" clip-rule="evenodd" d="M98.4153 169.783C96.0356 168.493 91.1525 168.767 90.9167 172.199C90.7779 174.219 91.9363 176.425 92.7038 178.24C93.5607 180.267 94.5417 182.239 95.6414 184.144C95.6809 184.213 95.7236 184.279 95.7634 184.347L105.695 180.201C103.513 177.449 101.468 171.438 98.4153 169.783Z" fill="#FDD247"/>
<path d="M138.412 194.932C139.237 195.661 139.742 196.686 139.819 197.785C139.842 198.873 138.956 201.054 138.148 200.325C137.481 199.723 137.314 198.716 136.416 198.743C135.518 198.77 134.714 199.267 133.879 199.599C131.415 200.579 123.953 199.25 127.128 195.344C129.56 192.352 135.758 192.4 138.412 194.932Z" fill="#F4A086"/>
<path d="M154.909 268.889C155.419 269.655 156.1 270.51 157.016 270.488C158.598 270.451 158.713 268.19 158.317 266.668C157.89 265.026 157.462 263.384 157.035 261.742L152.066 263.196C152.608 265.261 153.946 267.442 154.909 268.889Z" fill="#F4A086"/>
<path fill-rule="evenodd" clip-rule="evenodd" d="M142.379 221.348C138.381 216.926 113.385 211.429 101.63 207.828C92.8512 205.139 83.8178 203.627 82.4811 215.498C82.2291 218.058 82.6952 220.638 83.8272 222.948C84.9591 225.257 86.712 227.205 88.8888 228.572C93.6607 231.506 99.6595 231.231 105.247 230.861C115.9 230.155 122.433 229.722 133.087 229.016C134.105 242.975 145.954 247.972 151.258 263.433L159.227 261.806C154.396 254.527 144.366 223.896 142.379 221.348Z" fill="#0A3C5F"/>
<path fill-rule="evenodd" clip-rule="evenodd" d="M80.4905 228.572C85.2624 231.506 91.2612 231.231 96.8489 230.861C107.881 230.13 118.912 229.399 129.944 228.667C131.705 228.551 133.681 228.326 134.779 226.943C136.062 225.328 135.441 222.804 133.981 221.348C132.521 219.891 130.466 219.239 128.495 218.635C116.741 215.032 104.986 211.43 93.2313 207.828C84.4529 205.139 75.4196 203.627 74.0828 215.498C73.8308 218.058 74.297 220.638 75.4289 222.948C76.5609 225.257 78.3137 227.205 80.4905 228.572Z" fill="#0A3C5F"/>
<path fill-rule="evenodd" clip-rule="evenodd" d="M80.7257 178.681C81.3271 183.176 83.0517 187.534 82.9789 192.069C82.9306 194.344 82.4324 196.588 81.5132 198.67C80.5941 200.752 79.2721 202.631 77.6237 204.199C75.5867 206.116 72.7901 208.292 73.5194 210.994C74.1755 213.424 77.2108 214.144 79.7094 214.429C85.1577 215.048 91.3742 215.432 95.3821 211.685C97.8365 209.391 98.8985 205.998 99.6796 202.728C101.064 196.931 101.874 191.012 102.097 185.055C102.287 179.987 101.949 174.584 99.0392 170.432C96.1399 166.295 92.8861 163.553 88.1417 165.011C82.747 170.309 80.1292 174.223 80.7257 178.681Z" fill="#FDD247"/>
<path fill-rule="evenodd" clip-rule="evenodd" d="M152.659 265.432C152.969 265.975 154.395 266.228 154.982 266.252C155.447 266.27 157.574 265.3 158.034 265.459C158.365 265.573 159.599 270.018 161.131 270.961C162.664 271.904 164.363 272.424 165.993 273.125C166.58 273.347 167.122 273.671 167.596 274.082C168.054 274.518 168.376 275.146 168.277 275.697C168.265 275.744 168.249 275.79 168.229 275.835H158.204C157.913 275.493 157.651 275.121 157.395 274.755C156.479 273.441 155.562 272.127 154.645 270.813C154.356 272.249 154.106 273.932 153.829 275.835H152.709C152.352 274.305 151.363 267.022 152.659 265.432Z" fill="#222B54"/>
<path d="M130.299 268.889C130.495 269.655 130.802 270.51 131.533 270.488C132.796 270.451 133.5 268.19 133.6 266.668C133.707 265.026 133.814 263.384 133.921 261.742L129.592 263.196C129.461 265.261 129.929 267.442 130.299 268.889Z" fill="#F4A086"/>
<path fill-rule="evenodd" clip-rule="evenodd" d="M135.511 225.02C134.58 218.848 125.176 220.65 124.245 225.086C121.265 239.045 128.884 247.972 128.889 263.433L135.639 261.806C133.866 254.83 136.206 229.627 135.511 225.02Z" fill="#0A3C5F"/>
<path fill-rule="evenodd" clip-rule="evenodd" d="M129.375 265.432C129.685 265.975 131.111 266.228 131.699 266.252C132.163 266.27 134.29 265.3 134.75 265.459C135.081 265.573 136.315 270.018 137.847 270.961C139.38 271.904 141.079 272.424 142.709 273.125C143.296 273.347 143.838 273.671 144.312 274.082C144.77 274.518 145.092 275.146 144.993 275.697C144.981 275.744 144.965 275.79 144.945 275.835H134.92C134.629 275.493 134.367 275.121 134.111 274.755C133.195 273.441 132.278 272.127 131.361 270.813C131.072 272.249 130.822 273.932 130.545 275.835H129.425C129.068 274.305 128.079 267.022 129.375 265.432Z" fill="#222B54"/>
<path d="M124.007 195.152C121.904 194.159 109.844 193.008 107.712 192.078C104.774 190.796 102.548 187.341 101.105 184.477C100.334 182.88 99.6434 181.245 99.0367 179.579L90.0237 184.347C91.2427 186.442 92.6032 188.45 94.0957 190.358C96.387 193.284 99.0419 196.012 102.317 197.764C105.732 199.591 119.86 199.276 123.683 198.671C126.764 198.031 126.111 196.145 124.007 195.152Z" fill="#F7B690"/>
<path fill-rule="evenodd" clip-rule="evenodd" d="M97.4098 175.594C96.3465 173.283 94.9104 170.995 92.6756 169.783C90.2959 168.493 85.4128 168.767 85.1769 172.199C85.0381 174.219 86.1966 176.425 86.9641 178.24C87.8209 180.267 88.802 182.239 89.9016 184.144C89.9411 184.213 89.9838 184.279 90.0237 184.347L99.9551 180.201C99.4414 178.86 98.0094 176.898 97.4098 175.594Z" fill="#FDD247"/>
<path d="M132.633 190.97C133.655 191.376 134.477 192.168 134.922 193.176C135.312 194.192 135.217 196.545 134.211 196.133C133.379 195.794 132.881 194.903 132.045 195.233C131.21 195.563 130.621 196.304 129.948 196.9C127.963 198.658 120.493 199.941 122.156 195.188C123.431 191.548 129.278 189.489 132.633 190.97Z" fill="#F7B690"/>
<path d="M89.0618 154.667C89.4815 153.875 94.086 156.251 94.3597 156.82C94.6334 157.389 94.9235 163.83 95.9078 167.85C96.1202 168.718 87.5317 166.061 88.1417 165.011C89.1307 163.308 90.1409 156.812 89.0618 154.667Z" fill="#F4A086"/>
<path d="M102.334 148.862C100.744 142.256 91.718 143.649 89.5744 144.308C87.4308 144.967 87.3758 148.003 87.1692 150.238C87.0805 151.623 87.5047 152.993 88.3607 154.085C89.1489 155.138 92.582 156.724 92.7762 156.766C94.0501 158.964 96.1213 161.479 98.2275 161.448C99.1762 161.434 100.037 160.825 100.594 160.056C101.112 159.258 101.503 158.384 101.754 157.466C102.676 154.666 103.025 151.729 102.334 148.862Z" fill="#F7B690"/>
<path d="M90.794 153.208C90.6412 153.368 90.539 153.569 90.5002 153.787C90.4213 154.125 90.4105 154.474 90.4685 154.816C90.5266 155.157 90.6523 155.483 90.8383 155.775C91.0243 156.067 91.2668 156.319 91.5515 156.516C91.8362 156.713 92.1573 156.85 92.496 156.921C92.7618 156.996 93.046 156.968 93.2922 156.843C94.0958 156.353 93.6881 154.645 93.302 153.984C92.9011 153.297 91.4785 152.57 90.794 153.208Z" fill="#F7B690"/>
<path fill-rule="evenodd" clip-rule="evenodd" d="M81.4413 149.153C82.6777 147.509 81.3187 140.24 94.5117 140.24C97.7527 140.24 103.318 143.405 102.789 147.419C102.631 148.62 101.972 148.629 100.825 149.012C99.3128 149.518 97.2837 149.867 96.0297 150.853C94.9142 151.729 91.1976 167.941 95.9117 171.482C84.7055 172.652 79.2932 172.742 77.8463 167.791C76.0062 161.493 77.4996 154.395 81.4413 149.153Z" fill="#222B56"/>
<path d="M144.852 196.475L127.52 197.862C127.213 197.887 126.926 198.026 126.717 198.253C126.509 198.48 126.392 198.777 126.392 199.085C126.392 199.411 126.522 199.723 126.751 199.953C126.981 200.183 127.293 200.312 127.618 200.312H144.95C145.111 200.312 145.27 200.28 145.419 200.219C145.567 200.157 145.702 200.067 145.816 199.953C145.93 199.839 146.02 199.703 146.082 199.555C146.143 199.406 146.175 199.246 146.175 199.085V197.697C146.175 197.528 146.14 197.361 146.072 197.205C146.004 197.05 145.905 196.911 145.781 196.796C145.656 196.681 145.51 196.593 145.35 196.538C145.19 196.483 145.021 196.461 144.852 196.475Z" fill="#A2D1EB"/>
<path d="M231.661 257.996C231.844 259.7 231.946 261.513 231.163 263.038C230.381 264.562 228.396 265.594 226.897 264.766C226.053 264.299 225.568 263.389 225.129 262.529C222.665 257.697 220.202 252.865 217.739 248.033C215.708 244.049 213.623 239.822 213.88 235.357C213.97 233.278 214.669 231.272 215.892 229.589C216.98 228.15 219.344 225.858 220.971 227.541C222.59 229.217 223.702 232.141 224.727 234.215C227.096 239.009 228.917 244.055 230.155 249.258C230.841 252.136 231.344 255.054 231.661 257.996Z" fill="#F7B690"/>
<path fill-rule="evenodd" clip-rule="evenodd" d="M213.9 236.305C214 233.992 214.778 231.759 216.138 229.887C217.349 228.285 218.057 224.261 219.867 226.134C221.669 227.999 224.829 232.726 225.97 235.034C227.468 238.073 228.77 241.205 229.868 244.411L218.058 250.144C215.842 245.789 213.619 241.174 213.9 236.305Z" fill="#FDD247"/>
<path d="M231.29 257.663C230.092 256.202 228.028 255.691 226.152 255.899C224.275 256.108 222.529 256.929 220.823 257.74C217.697 259.226 214.572 260.717 211.449 262.211C208.224 263.752 204.999 265.293 201.774 266.833C201.271 267.073 200.718 267.37 200.556 267.903C200.383 268.474 200.762 269.098 201.279 269.396C201.818 269.656 202.411 269.786 203.01 269.774C210.321 270.138 217.624 268.926 224.427 266.22C226.381 265.443 229.153 264.584 230.732 263.148C232.241 261.775 232.622 259.288 231.29 257.663Z" fill="#F7B690"/>
<path fill-rule="evenodd" clip-rule="evenodd" d="M211.037 268.552C207.443 268.025 190.384 268.025 186.789 268.552C182.319 269.207 182.992 274.777 183.555 278.11C184.17 281.746 184.922 285.651 187.591 288.192C190.198 290.674 207.629 290.674 210.236 288.192C212.905 285.651 213.657 281.746 214.271 278.11C214.835 274.777 215.507 269.207 211.037 268.552Z" fill="#222B54"/>
<path fill-rule="evenodd" clip-rule="evenodd" d="M148.44 283.826C146.564 285.898 145.34 289.296 146.966 291.449C148.344 293.273 186.859 289.685 192.555 289.685C196.602 284.52 196.442 276.677 186.071 271.391C183.853 270.26 181.416 271.449 179.005 271.957C172.028 273.426 153.101 278.68 148.44 283.826Z" fill="#222B54"/>
<path fill-rule="evenodd" clip-rule="evenodd" d="M231.721 247.019C234.504 246.777 237.576 247.86 238.931 250.306C240.039 252.306 239.802 254.834 238.868 256.921C237.935 259.008 236.387 260.749 234.864 262.453C212.841 287.085 212.484 288.2 208.803 289.189C202.528 290.875 194.952 289.163 200.514 274.737C201.41 272.411 224.808 247.622 231.721 247.019Z" fill="#222B54"/>
<path d="M212.124 297.394C213.59 296.537 216.497 292.754 219.9 287.77L213.495 285.511C211.401 292.95 210.587 298.292 212.124 297.394Z" fill="#F7B690"/>
<path fill-rule="evenodd" clip-rule="evenodd" d="M237.299 247.431C233.392 245.544 229.541 246.036 226.421 251.097C222.215 257.923 216.572 274.581 213.495 285.511L220.844 288.845C225.495 278.216 234.665 264.431 238.217 258.17C240.209 254.659 240.381 248.919 237.299 247.431Z" fill="#0A3C5F"/>
<path d="M192.696 290.443L189.516 296.395C194.267 296.709 198.09 296.763 199.701 296.094C201.322 295.422 198.086 293.05 192.696 290.443Z" fill="#F7B690"/>
<path fill-rule="evenodd" clip-rule="evenodd" d="M155.091 283.726C149.151 283.726 146.218 286.784 146.218 288.938C146.218 292.6 148.476 296.517 154.101 296.517C161.255 296.517 179.179 296.273 190.172 297.023L192.696 290.443C184.585 286.52 163.781 283.726 155.091 283.726Z" fill="#0A3C5F"/>
<path fill-rule="evenodd" clip-rule="evenodd" d="M202.053 295.26C201.837 295.124 200.201 292.708 199.133 292.281C198.513 292.032 197.677 291.639 197.012 291.964C196.259 292.333 196.225 293.381 195.778 294.012C195.438 294.488 194.985 294.873 194.461 295.132L193.422 293.734C189.744 295.435 192.665 299.716 188.976 301.478C188.085 301.904 187.113 302.202 186.349 302.828C185.585 303.454 185.101 304.596 185.61 305.443C185.808 305.756 186.104 305.993 186.452 306.118L198.337 300.345C198.337 300.345 198.408 297.937 198.068 297.666C198.472 297.829 199.418 298.27 199.849 298.276L202.053 295.26Z" fill="#0A3C5F"/>
<path fill-rule="evenodd" clip-rule="evenodd" d="M220.163 297.709C220.201 296.724 219.791 295.909 219.369 295.68C218.947 295.45 218.288 293.8 217.414 291.385C217.014 290.28 214.787 289.971 213.675 291.873C213.314 292.49 212.978 292.891 212.573 292.877C212.234 292.866 211.854 292.275 211.528 292.665C211.24 293.01 211.162 293.918 211.089 294.566C210.964 295.681 210.85 296.804 210.73 297.923C210.703 298.171 210.677 298.43 210.669 298.685H219.959C220.083 298.374 220.152 298.044 220.163 297.709Z" fill="#0A3C5F"/>
<path d="M166.166 257.996C165.983 259.7 165.881 261.513 166.663 263.038C167.446 264.562 169.431 265.594 170.93 264.766C171.774 264.299 172.259 263.389 172.698 262.529C175.161 257.697 177.625 252.865 180.088 248.033C182.119 244.049 184.204 239.822 183.946 235.357C183.857 233.278 183.157 231.272 181.935 229.589C180.847 228.15 178.483 225.858 176.856 227.541C175.236 229.217 174.124 232.141 173.099 234.215C170.731 239.009 168.91 244.055 167.671 249.258C166.986 252.136 166.483 255.054 166.166 257.996Z" fill="#F7B690"/>
<path fill-rule="evenodd" clip-rule="evenodd" d="M183.944 236.305C183.844 233.992 183.066 231.759 181.706 229.887C180.495 228.285 179.787 224.261 177.977 226.134C176.175 227.999 173.015 232.726 171.874 235.034C170.376 238.073 169.074 241.205 167.976 244.411L179.786 250.144C182.002 245.789 184.225 241.174 183.944 236.305Z" fill="#FDD247"/>
<path d="M166.851 258.507C168.049 257.046 170.113 256.534 171.99 256.743C173.867 256.952 175.613 257.772 177.318 258.583C180.445 260.07 183.57 261.561 186.693 263.055C189.918 264.596 193.143 266.136 196.368 267.677C196.87 267.917 197.423 268.214 197.585 268.747C197.759 269.318 197.379 269.941 196.863 270.24C196.323 270.5 195.73 270.629 195.132 270.618C187.821 270.982 180.517 269.77 173.714 267.064C171.761 266.287 168.988 265.428 167.41 263.991C165.901 262.618 165.519 260.131 166.851 258.507Z" fill="#F7B690"/>
<path fill-rule="evenodd" clip-rule="evenodd" d="M220.348 226.667C219.198 225.272 217.465 224.511 215.768 223.888C210.782 222.058 199.345 217.268 198.913 217.276C198.482 217.268 187.044 222.058 182.059 223.888C180.362 224.511 178.629 225.272 177.478 226.667C175.943 228.528 175.743 231.202 176.295 233.552C176.847 235.901 178.051 238.034 179.102 240.207C180.413 242.919 181.499 245.733 182.35 248.623C183.891 253.849 184.663 259.273 184.641 264.722C184.634 266.389 183.749 269.21 184.261 270.784C184.904 272.76 188.307 273.208 190.026 273.429C192.972 273.808 195.945 273.936 198.913 273.811C201.881 273.936 204.854 273.808 207.801 273.429C209.52 273.208 212.923 272.76 213.566 270.784C214.078 269.21 213.193 266.389 213.186 264.722C213.164 259.273 213.936 253.849 215.477 248.623C216.328 245.733 217.414 242.919 218.725 240.207C219.776 238.034 220.98 235.901 221.532 233.552C222.084 231.202 221.884 228.528 220.348 226.667Z" fill="#FDD247"/>
<path d="M202.673 216.694C202.208 215.196 201.958 212.395 201.033 211.398C200.478 210.8 197.58 210.8 197.025 211.398C196.1 212.395 195.85 215.196 195.385 216.694C194.864 218.372 194.411 220.384 194.955 222.044C195.092 222.531 195.346 222.976 195.695 223.341C196.045 223.707 196.479 223.98 196.958 224.138C197.64 224.334 200.418 224.334 201.1 224.138C201.58 223.98 202.013 223.707 202.363 223.341C202.712 222.976 202.966 222.531 203.104 222.044C203.647 220.384 203.194 218.372 202.673 216.694Z" fill="#F4A086"/>
<path d="M205.167 204.078C204.234 201.356 193.824 201.356 192.891 204.078C192.168 206.301 192.022 208.671 192.466 210.966C192.841 213.039 193.692 214.997 194.951 216.685C195.782 217.787 196.863 219.412 198.073 219.96H199.985C201.195 219.412 202.276 217.787 203.107 216.685C204.367 214.997 205.217 213.039 205.592 210.966C206.036 208.671 205.89 206.301 205.167 204.078Z" fill="#F7B690"/>
<path fill-rule="evenodd" clip-rule="evenodd" d="M204.853 211.296C204.982 210.652 205.265 210.047 205.39 209.402C205.515 208.758 205.745 208.017 205.277 207.557C204.851 209.531 204.016 211.482 203.369 213.395C203.258 213.82 203.053 214.214 202.769 214.549C202.361 214.903 201.854 215.122 201.317 215.177C200.737 215.279 199.206 214.626 199.029 214.636C198.852 214.626 197.321 215.279 196.741 215.177C196.204 215.122 195.697 214.903 195.29 214.549C195.006 214.214 194.8 213.82 194.689 213.395C194.042 211.481 193.503 209.532 193.076 207.557C192.609 208.017 192.543 208.758 192.668 209.402C192.793 210.047 193.076 210.652 193.205 211.296C193.215 211.347 193.224 211.398 193.232 211.449C193.31 211.876 193.266 212.316 193.105 212.719C193.007 212.869 192.941 213.038 192.912 213.215C192.928 213.417 192.964 213.616 193.021 213.81C193.193 214.684 193.444 215.541 193.772 216.369C194.099 217.198 194.498 217.997 194.965 218.755C195.199 219.135 195.449 219.504 195.714 219.862C195.825 220.012 196.347 220.86 196.521 220.86L198.555 221.442H199.503L201.537 220.86C201.711 220.86 202.233 220.012 202.344 219.862C202.609 219.504 202.859 219.135 203.093 218.755C203.56 217.997 203.959 217.198 204.287 216.369C204.614 215.541 204.865 214.684 205.037 213.81C205.094 213.616 205.13 213.417 205.146 213.215C205.117 213.038 205.051 212.869 204.953 212.719C204.792 212.316 204.748 211.876 204.826 211.449C204.834 211.398 204.843 211.347 204.853 211.296Z" fill="#0A3C5F"/>
<path fill-rule="evenodd" clip-rule="evenodd" d="M209.223 198.44C208.605 197.619 207.734 197.024 206.745 196.747C205.756 196.471 204.703 196.528 203.75 196.91C202.962 197.251 202.255 197.824 201.421 197.998C200.447 198.202 199.456 197.835 198.527 197.461C197.599 197.086 196.624 196.692 195.642 196.841C194.659 196.991 193.701 197.904 193.828 198.957C193.156 198.708 192.422 198.677 191.73 198.865C191.038 199.054 190.422 199.453 189.968 200.009C189.508 200.603 189.222 201.313 189.141 202.061C189.061 202.808 189.188 203.563 189.511 204.242C189.911 205.048 190.581 205.692 190.874 206.549C191.208 207.529 190.823 209.881 191.989 210.331C192.89 210.679 193.391 203.51 195.917 203.329C196.578 204.028 197.45 204.491 198.399 204.647C199.347 204.803 200.321 204.643 201.171 204.192C201.801 203.84 202.47 203.308 203.148 203.537C203.648 203.662 204.101 203.932 204.45 204.312C205.154 205.287 204.948 209.724 205.92 210.457C206.439 208.875 206.647 207.207 206.531 205.546C206.973 205.561 207.413 205.484 207.824 205.319C209.017 204.83 209.908 205.372 210.154 204.031C210.4 202.69 210.024 199.505 209.223 198.44Z" fill="#0A3C5F"/>
<path d="M191.291 210.79C191.006 210.335 190.87 209.802 190.902 209.265C190.971 208.733 191.412 208.227 191.911 208.289C192.067 208.32 192.214 208.387 192.34 208.484C192.466 208.582 192.568 208.707 192.638 208.851C192.783 209.146 192.885 209.461 192.94 209.786C193.064 210.349 193.187 210.911 193.311 211.474C193.415 211.947 193.477 212.548 193.102 212.823C192.416 213.326 191.564 211.297 191.291 210.79Z" fill="#F7B690"/>
<path d="M206.687 210.79C206.973 210.335 207.109 209.802 207.077 209.265C207.007 208.733 206.566 208.227 206.067 208.289C205.911 208.32 205.764 208.387 205.638 208.484C205.512 208.582 205.41 208.707 205.341 208.851C205.195 209.146 205.093 209.461 205.038 209.786C204.915 210.349 204.791 210.911 204.667 211.474C204.563 211.947 204.501 212.548 204.876 212.823C205.562 213.326 206.414 211.297 206.687 210.79Z" fill="#F7B690"/>
<path d="M214.397 271.398H182.826C182.113 271.398 181.427 271.13 180.903 270.647C180.379 270.164 180.055 269.502 179.995 268.792L178.356 249.258C178.324 248.866 178.372 248.471 178.5 248.099C178.627 247.727 178.83 247.385 179.096 247.095C179.362 246.806 179.685 246.574 180.045 246.416C180.405 246.258 180.794 246.176 181.187 246.176H216.035C216.428 246.176 216.817 246.258 217.177 246.416C217.537 246.574 217.86 246.806 218.126 247.095C218.392 247.385 218.595 247.727 218.723 248.099C218.85 248.471 218.899 248.866 218.866 249.258L217.227 268.792C217.167 269.502 216.843 270.165 216.319 270.647C215.795 271.13 215.109 271.398 214.397 271.398Z" fill="#A2D1EB"/>
<path d="M178.426 250.094C178.577 249.475 178.931 248.924 179.432 248.531C179.932 248.137 180.55 247.923 181.187 247.923H216.035C216.672 247.923 217.29 248.137 217.79 248.531C218.291 248.924 218.645 249.475 218.796 250.094L218.866 249.258C218.899 248.866 218.85 248.471 218.723 248.099C218.595 247.727 218.392 247.385 218.126 247.095C217.86 246.806 217.537 246.574 217.177 246.416C216.817 246.258 216.428 246.176 216.035 246.176H181.187C180.794 246.176 180.405 246.258 180.045 246.416C179.685 246.574 179.362 246.806 179.096 247.095C178.83 247.385 178.627 247.727 178.5 248.099C178.372 248.471 178.324 248.866 178.356 249.258L178.426 250.094Z" fill="#3C79A6"/>
<defs>
<linearGradient id="paint0_linear_1317_12172" x1="104.851" y1="92.2615" x2="257.957" y2="357.674" gradientUnits="userSpaceOnUse">
<stop offset="0.00562" stop-color="#FDF3FF"/>
<stop offset="0.44944" stop-color="#D8E4FF"/>
<stop offset="0.70812" stop-color="#CEDCFF"/>
<stop offset="1" stop-color="#C3D4FF"/>
</linearGradient>
<linearGradient id="paint1_linear_1317_12172" x1="302.79" y1="153.059" x2="287.871" y2="130.504" gradientUnits="userSpaceOnUse">
<stop stop-color="#AEC7F3"/>
<stop offset="0.80605" stop-color="#81A4D7"/>
</linearGradient>
<linearGradient id="paint2_linear_1317_12172" x1="274.593" y1="130.255" x2="246.021" y2="123.316" gradientUnits="userSpaceOnUse">
<stop stop-color="#D0FCFF"/>
<stop offset="1" stop-color="#8CCCE5"/>
</linearGradient>
<linearGradient id="paint3_linear_1317_12172" x1="266.414" y1="177.204" x2="306.609" y2="76.3743" gradientUnits="userSpaceOnUse">
<stop stop-color="#C48DD4"/>
<stop offset="1" stop-color="#A95CDA"/>
</linearGradient>
<linearGradient id="paint4_linear_1317_12172" x1="117.85" y1="176.988" x2="92.9762" y2="165.111" gradientUnits="userSpaceOnUse">
<stop stop-color="#AEC7F3"/>
<stop offset="0.80605" stop-color="#81A4D7"/>
</linearGradient>
<linearGradient id="paint5_linear_1317_12172" x1="82.2091" y1="172.163" x2="54.6992" y2="180.736" gradientUnits="userSpaceOnUse">
<stop stop-color="#D0FCFF"/>
<stop offset="1" stop-color="#8CCCE5"/>
</linearGradient>
<linearGradient id="paint6_linear_1317_12172" x1="99.2949" y1="217.052" x2="81.5434" y2="108.633" gradientUnits="userSpaceOnUse">
<stop stop-color="#C48DD4"/>
<stop offset="1" stop-color="#A95CDA"/>
</linearGradient>
<linearGradient id="paint7_linear_1317_12172" x1="54.2656" y1="243.148" x2="94.6768" y2="247.184" gradientUnits="userSpaceOnUse">
<stop offset="0.00562" stop-color="#FDF3FF"/>
<stop offset="0.44944" stop-color="#D8E4FF"/>
<stop offset="0.70812" stop-color="#CEDCFF"/>
<stop offset="1" stop-color="#C3D4FF"/>
</linearGradient>
<linearGradient id="paint8_linear_1317_12172" x1="91.3673" y1="222.568" x2="56.4143" y2="222.568" gradientUnits="userSpaceOnUse">
<stop stop-color="#C3D4FF"/>
<stop offset="0.55056" stop-color="#D8E4FF"/>
<stop offset="0.99438" stop-color="#FDF3FF"/>
</linearGradient>
</defs>
</svg>
