<svg width="97" height="96" viewBox="0 0 97 96" fill="none" xmlns="http://www.w3.org/2000/svg">
<path d="M77.75 0H19.25C8.89466 0 0.5 8.39466 0.5 18.75V77.25C0.5 87.6053 8.89466 96 19.25 96H77.75C88.1053 96 96.5 87.6053 96.5 77.25V18.75C96.5 8.39466 88.1053 0 77.75 0Z" fill="url(#paint0_linear_1317_10458)"/>
<path d="M48.9547 54.5969L29.2095 48.5197V58.6696C29.2095 63.362 38.0525 67.1663 48.9605 67.1663C59.8685 67.1663 68.7125 63.362 68.7125 58.6696C68.7125 58.6321 68.7003 58.5946 68.6996 58.5595V48.5197L48.9547 54.5969Z" fill="white"/>
<path d="M15.8599 41.5327L22.9138 44.056L23.5149 42.7687L26.1064 42.5484L26.4759 42.9327L24.2522 43.4602L23.928 44.4194C23.928 44.4194 18.9051 54.9194 19.6427 60.0556C19.6427 60.0556 22.7777 61.9255 25.9112 60.0556L26.7439 46.0119V44.8428L31.4085 43.7905L31.079 44.6024L27.6013 45.7334L29.2099 46.3081L48.9549 52.3837L68.6998 46.3064L82.0498 41.5319L48.9549 28.8003L15.8599 41.5327Z" fill="white"/>
<defs>
<linearGradient id="paint0_linear_1317_10458" x1="48.5" y1="0" x2="48.5" y2="96" gradientUnits="userSpaceOnUse">
<stop stop-color="#FEAE07"/>
<stop offset="1" stop-color="#FD2959"/>
</linearGradient>
</defs>
</svg>
