<svg width="313" height="248" viewBox="0 0 313 248" fill="none" xmlns="http://www.w3.org/2000/svg">
<path d="M132.692 244.986C132.694 245.248 132.644 245.507 132.545 245.749C132.446 245.991 132.299 246.211 132.114 246.396C131.929 246.581 131.709 246.727 131.466 246.826C131.224 246.925 130.964 246.975 130.702 246.972H5.38344C4.02318 246.968 2.71977 246.427 1.75792 245.467C0.796071 244.507 0.253957 243.205 0.25 241.847V223.14C0.253957 221.782 0.796071 220.481 1.75792 219.52C2.71977 218.56 4.02318 218.019 5.38344 218.015H130.702C131.229 218.018 131.734 218.228 132.106 218.6C132.479 218.971 132.689 219.475 132.692 220.001C132.694 220.263 132.644 220.522 132.545 220.764C132.446 221.006 132.299 221.226 132.114 221.41C131.929 221.595 131.709 221.742 131.466 221.841C131.224 221.94 130.964 221.989 130.702 221.987H5.38344C5.23158 221.986 5.08109 222.016 4.94066 222.073C4.80023 222.131 4.67264 222.216 4.56525 222.323C4.45787 222.431 4.37282 222.558 4.31501 222.698C4.2572 222.838 4.22778 222.989 4.22844 223.14V241.847C4.22778 241.999 4.2572 242.149 4.31501 242.289C4.37282 242.429 4.45787 242.557 4.56525 242.664C4.67264 242.771 4.80023 242.856 4.94066 242.914C5.08109 242.972 5.23158 243.001 5.38344 243H130.702C131.229 243.003 131.734 243.213 132.106 243.585C132.479 243.957 132.689 244.46 132.692 244.986Z" fill="#FF9A05"/>
<path d="M129.483 221.987H5.38312C5.23129 221.986 5.08083 222.016 4.94044 222.074C4.80004 222.131 4.67249 222.216 4.56514 222.323C4.45779 222.431 4.37277 222.558 4.31498 222.698C4.25719 222.838 4.22777 222.989 4.22843 223.14V241.847C4.22777 241.999 4.25719 242.149 4.315 242.289C4.37281 242.429 4.45787 242.557 4.56525 242.664C4.67263 242.771 4.80022 242.856 4.94065 242.914C5.08108 242.972 5.23157 243.001 5.38343 243H129.483C126.403 236.017 126.403 229.034 129.483 221.987H129.483Z" fill="#F0F4F9"/>
<path d="M123.452 228.009H10.1959C10.1285 228.009 10.0617 227.996 9.99945 227.97C9.93716 227.944 9.88056 227.907 9.83288 227.859C9.7852 227.812 9.74738 227.755 9.72158 227.693C9.69578 227.631 9.6825 227.564 9.6825 227.497C9.6825 227.429 9.69578 227.363 9.72158 227.3C9.74738 227.238 9.7852 227.182 9.83288 227.134C9.88056 227.087 9.93716 227.049 9.99945 227.023C10.0617 226.997 10.1285 226.984 10.1959 226.984H123.452C123.519 226.984 123.586 226.997 123.648 227.023C123.71 227.049 123.767 227.087 123.815 227.134C123.862 227.182 123.9 227.238 123.926 227.3C123.952 227.363 123.965 227.429 123.965 227.497C123.965 227.564 123.952 227.631 123.926 227.693C123.9 227.755 123.862 227.812 123.815 227.859C123.767 227.907 123.71 227.944 123.648 227.97C123.586 227.996 123.519 228.009 123.452 228.009ZM123.452 233.006H10.1959C10.1275 233.008 10.0593 232.996 9.9956 232.971C9.93184 232.946 9.87375 232.908 9.82472 232.861C9.7757 232.813 9.73674 232.756 9.71014 232.693C9.68354 232.63 9.66983 232.562 9.66983 232.494C9.66983 232.425 9.68354 232.358 9.71014 232.295C9.73674 232.232 9.7757 232.175 9.82472 232.127C9.87375 232.079 9.93184 232.042 9.9956 232.017C10.0593 231.992 10.1275 231.98 10.1959 231.981H123.452C123.52 231.98 123.588 231.992 123.652 232.017C123.716 232.042 123.774 232.079 123.823 232.127C123.872 232.175 123.911 232.232 123.937 232.295C123.964 232.358 123.978 232.425 123.978 232.494C123.978 232.562 123.964 232.63 123.937 232.693C123.911 232.756 123.872 232.813 123.823 232.861C123.774 232.908 123.716 232.946 123.652 232.971C123.588 232.996 123.52 233.008 123.452 233.006ZM123.452 238.003H10.1959C10.1275 238.005 10.0593 237.993 9.9956 237.968C9.93184 237.943 9.87375 237.905 9.82472 237.858C9.7757 237.81 9.73674 237.753 9.71014 237.69C9.68354 237.627 9.66983 237.559 9.66983 237.491C9.66983 237.422 9.68354 237.355 9.71014 237.292C9.73674 237.229 9.7757 237.172 9.82472 237.124C9.87375 237.076 9.93184 237.039 9.9956 237.014C10.0593 236.989 10.1275 236.977 10.1959 236.978H123.452C123.519 236.977 123.586 236.99 123.649 237.015C123.712 237.041 123.769 237.078 123.817 237.126C123.865 237.174 123.902 237.231 123.928 237.293C123.953 237.356 123.966 237.423 123.965 237.491C123.956 237.624 123.899 237.749 123.805 237.843C123.71 237.937 123.585 237.994 123.452 238.003Z" fill="#DDE3EA"/>
<path d="M132.692 216.029C132.694 216.291 132.644 216.55 132.545 216.792C132.446 217.034 132.299 217.254 132.114 217.438C131.929 217.623 131.709 217.769 131.466 217.868C131.224 217.967 130.964 218.017 130.702 218.015H5.38344C4.02324 218.011 2.71987 217.47 1.75803 216.51C0.79619 215.549 0.25404 214.248 0.25 212.89V194.183C0.25404 192.825 0.79619 191.524 1.75803 190.563C2.71987 189.603 4.02324 189.062 5.38344 189.058H130.702C131.229 189.06 131.733 189.271 132.106 189.642C132.478 190.014 132.689 190.518 132.692 191.044C132.694 191.305 132.644 191.565 132.545 191.807C132.446 192.048 132.299 192.268 132.114 192.453C131.929 192.638 131.709 192.784 131.466 192.883C131.224 192.982 130.964 193.032 130.702 193.03H5.38344C5.23158 193.029 5.08109 193.058 4.94066 193.116C4.80023 193.174 4.67264 193.259 4.56525 193.366C4.45787 193.473 4.37282 193.601 4.31501 193.741C4.2572 193.881 4.22778 194.031 4.22844 194.183V212.89C4.22778 213.041 4.2572 213.192 4.31501 213.332C4.37282 213.472 4.45787 213.599 4.56525 213.707C4.67264 213.814 4.80023 213.899 4.94066 213.956C5.08109 214.014 5.23158 214.044 5.38344 214.043H130.702C131.229 214.045 131.734 214.256 132.106 214.627C132.479 214.999 132.689 215.503 132.692 216.029Z" fill="#9859CD"/>
<path d="M129.483 193.03H5.38312C5.23131 193.029 5.08088 193.059 4.94051 193.117C4.80014 193.174 4.6726 193.259 4.56525 193.366C4.4579 193.473 4.37288 193.601 4.31507 193.741C4.25726 193.881 4.22781 194.031 4.22843 194.183V212.89C4.22777 213.042 4.25719 213.192 4.315 213.332C4.37281 213.472 4.45787 213.6 4.56525 213.707C4.67263 213.814 4.80022 213.899 4.94065 213.957C5.08108 214.015 5.23157 214.044 5.38343 214.043H129.483C126.403 206.996 126.403 200.013 129.483 193.03H129.483Z" fill="#F0F4F9"/>
<path d="M123.452 199.052H10.1959C10.1275 199.054 10.0593 199.042 9.9956 199.017C9.93184 198.992 9.87375 198.954 9.82472 198.906C9.7757 198.859 9.73674 198.802 9.71014 198.739C9.68354 198.676 9.66983 198.608 9.66983 198.539C9.66983 198.471 9.68354 198.403 9.71014 198.34C9.73674 198.277 9.7757 198.22 9.82472 198.173C9.87375 198.125 9.93184 198.087 9.9956 198.062C10.0593 198.037 10.1275 198.025 10.1959 198.027H123.452C123.519 198.026 123.586 198.039 123.649 198.064C123.712 198.089 123.769 198.127 123.817 198.175C123.865 198.223 123.902 198.28 123.928 198.342C123.953 198.405 123.966 198.472 123.965 198.539C123.956 198.672 123.899 198.798 123.805 198.892C123.71 198.986 123.585 199.043 123.452 199.052ZM123.452 203.985H10.1959C10.1275 203.987 10.0593 203.975 9.9956 203.95C9.93184 203.925 9.87375 203.887 9.82472 203.839C9.7757 203.792 9.73674 203.735 9.71014 203.672C9.68354 203.609 9.66983 203.541 9.66983 203.473C9.66983 203.404 9.68354 203.336 9.71014 203.273C9.73674 203.21 9.7757 203.153 9.82472 203.106C9.87375 203.058 9.93184 203.02 9.9956 202.995C10.0593 202.97 10.1275 202.958 10.1959 202.96H123.452C123.52 202.958 123.588 202.97 123.652 202.995C123.716 203.02 123.774 203.058 123.823 203.106C123.872 203.153 123.911 203.21 123.937 203.273C123.964 203.336 123.978 203.404 123.978 203.473C123.978 203.541 123.964 203.609 123.937 203.672C123.911 203.735 123.872 203.792 123.823 203.839C123.774 203.887 123.716 203.925 123.652 203.95C123.588 203.975 123.52 203.987 123.452 203.985ZM123.452 208.982H10.1959C10.1275 208.984 10.0593 208.972 9.9956 208.947C9.93184 208.922 9.87375 208.884 9.82472 208.836C9.7757 208.789 9.73674 208.732 9.71014 208.669C9.68354 208.606 9.66983 208.538 9.66983 208.47C9.66983 208.401 9.68354 208.333 9.71014 208.27C9.73674 208.207 9.7757 208.15 9.82472 208.103C9.87375 208.055 9.93184 208.017 9.9956 207.992C10.0593 207.967 10.1275 207.955 10.1959 207.957H123.452C123.519 207.956 123.586 207.969 123.649 207.994C123.712 208.019 123.769 208.057 123.817 208.105C123.865 208.153 123.902 208.21 123.928 208.272C123.953 208.335 123.966 208.402 123.965 208.469C123.956 208.602 123.899 208.728 123.805 208.822C123.71 208.916 123.585 208.973 123.452 208.982Z" fill="#DDE3EA"/>
<path d="M93.4853 71.691C89.7634 53.4328 79.625 40.2995 66.2141 33.7646C52.8031 27.2298 36.1837 27.3583 19.5003 35.7508C27.0078 72.2676 60.1181 88.3478 93.4853 71.691Z" fill="#199180"/>
<path d="M89.3784 69.9616L25.0828 38.5694C25.0188 38.5694 25.0188 38.5051 25.0188 38.4412C25.0188 38.3772 25.0828 38.3772 25.1469 38.3772L89.5069 69.5126C89.5373 69.5241 89.5649 69.5418 89.5881 69.5645C89.6113 69.5873 89.6295 69.6146 89.6415 69.6447C89.6536 69.6748 89.6592 69.7072 89.6581 69.7396C89.657 69.772 89.6491 69.8038 89.635 69.8331C89.635 69.961 89.5069 70.0253 89.3788 69.961L89.3784 69.9616Z" fill="white"/>
<path d="M52.354 51.7031C50.4306 51.6991 48.5207 52.0241 46.7072 52.664C45.8026 52.9824 44.9232 53.3678 44.0762 53.8172C43.257 54.2765 42.4836 54.8128 41.7662 55.4187C41.7368 55.4405 41.7033 55.4563 41.6677 55.465C41.6321 55.4738 41.5951 55.4754 41.5588 55.4697C41.5226 55.464 41.4879 55.4511 41.4567 55.4319C41.4255 55.4127 41.3984 55.3874 41.3771 55.3576C41.3558 55.3278 41.3407 55.2941 41.3326 55.2583C41.3245 55.2226 41.3236 55.1857 41.33 55.1496C41.3363 55.1135 41.3498 55.0791 41.3697 55.0483C41.3896 55.0176 41.4154 54.991 41.4456 54.9703C42.2163 54.3613 43.0563 53.8452 43.9481 53.4328C44.8124 53.0078 45.7147 52.6646 46.6431 52.4075C48.5002 51.8861 50.4257 51.6485 52.354 51.7027V51.7031ZM71.8609 61.2487C70.6233 59.7695 69.6271 58.1047 68.9091 56.3157C68.5435 55.4261 68.2642 54.5035 68.075 53.5607C67.9047 52.6078 67.7975 51.6448 67.754 50.6778C67.754 50.6098 67.7811 50.5447 67.8292 50.4966C67.8774 50.4485 67.9427 50.4215 68.0108 50.4215C68.0789 50.4215 68.1441 50.4485 68.1923 50.4966C68.2404 50.5447 68.2675 50.6098 68.2675 50.6778C68.2357 51.6216 68.3002 52.5661 68.46 53.4967C68.5966 54.4375 68.8332 55.361 69.1659 56.2517C69.8857 58.0074 70.7891 59.6823 71.8609 61.2487ZM78.7269 64.516C76.8034 64.512 74.8935 64.837 73.08 65.4769C72.1754 65.7953 71.296 66.1807 70.449 66.6301C69.6299 67.0895 68.8564 67.6257 68.139 68.2316C68.0794 68.2724 68.0062 68.2882 67.935 68.2757C67.8638 68.2631 67.8004 68.2232 67.7584 68.1645C67.7164 68.1057 67.6992 68.0329 67.7104 67.9616C67.7216 67.8903 67.7604 67.8263 67.8184 67.7832C68.5891 67.1742 69.4291 66.6581 70.3209 66.2457C71.1852 65.8208 72.0875 65.4775 73.0159 65.2205C74.873 64.6991 76.7985 64.4616 78.7269 64.516C78.7269 64.516 78.7269 64.4517 78.7269 64.516ZM42.4081 46.8979C41.1705 45.4189 40.1743 43.7542 39.4562 41.9652C39.0905 41.0756 38.8111 40.1531 38.6219 39.2103C38.4517 38.2574 38.3446 37.2943 38.3012 36.3274C38.3012 36.2594 38.3283 36.1942 38.3764 36.1461C38.4246 36.0981 38.4899 36.0711 38.558 36.0711C38.626 36.0711 38.6913 36.0981 38.7395 36.1461C38.7876 36.1942 38.8147 36.2594 38.8147 36.3274C38.7829 37.2711 38.8474 38.2156 39.0072 39.1463C39.1438 40.0871 39.3804 41.0106 39.7131 41.9013C40.3677 43.6868 41.2753 45.3695 42.4081 46.8979C42.4722 46.8979 42.4722 46.834 42.4081 46.8979Z" fill="white"/>
<path d="M93.4853 71.691C100.48 54.3937 99.2603 37.8649 91.6884 25.052C84.1166 12.2391 70.1925 3.20578 51.6481 0.96344C37.6597 35.5586 56.3966 67.2066 93.4853 71.691Z" fill="#2AB19F"/>
<path d="M90.9828 67.9754L54.7281 6.40908C54.7281 6.34512 54.7281 6.28116 54.7922 6.28116C54.8562 6.28116 54.9206 6.28116 54.9206 6.34512L91.4319 67.719C91.4963 67.8472 91.4962 67.9754 91.3678 68.0394C91.2394 68.1033 91.0469 68.1033 90.9828 67.9754Z" fill="white"/>
<path d="M70.1925 32.4193C68.5802 31.4048 66.8296 30.6281 64.995 30.113C64.0744 29.844 63.1281 29.6723 62.1715 29.6007C61.2319 29.4938 60.282 29.5153 59.3481 29.6646C59.28 29.6646 59.2147 29.6376 59.1666 29.5895C59.1184 29.5415 59.0914 29.4763 59.0914 29.4083C59.0914 29.3403 59.1184 29.2751 59.1666 29.2271C59.2147 29.179 59.28 29.152 59.3481 29.152C60.3318 29.0773 61.3205 29.0988 62.3 29.2163C63.2609 29.3309 64.2072 29.5456 65.1234 29.8568C66.9652 30.3706 68.6876 31.2413 70.1925 32.4193ZM81.2294 51.0622C81.0262 49.1383 81.1127 47.1948 81.4859 45.2964C81.6662 44.3514 81.9459 43.4279 82.3203 42.5415C82.666 41.637 83.1184 40.7768 83.6678 39.979C83.7319 39.8511 83.9241 39.8511 84.0528 39.9151C84.1816 39.979 84.1809 40.1712 84.1169 40.2995C83.5851 41.0739 83.1132 41.8876 82.7053 42.7337C82.3104 43.5961 82.0092 44.4982 81.8069 45.4247C81.3474 47.2882 81.1743 49.2107 81.2934 51.1262C81.2934 51.0622 81.2934 51.1262 81.2294 51.0622ZM85.1437 57.597C83.5313 56.5825 81.7807 55.8056 79.9459 55.2904C79.0253 55.0215 78.079 54.8498 77.1225 54.7781C76.1829 54.6713 75.2331 54.6928 74.2994 54.8421C74.2313 54.8421 74.166 54.8151 74.1178 54.767C74.0697 54.7189 74.0426 54.6538 74.0426 54.5858C74.0426 54.5178 74.0697 54.4526 74.1178 54.4045C74.166 54.3565 74.2313 54.3295 74.2994 54.3295C75.283 54.2548 76.2715 54.2763 77.2509 54.3937C78.2119 54.5084 79.1582 54.723 80.0744 55.0343C81.8894 55.6148 83.6004 56.4798 85.1434 57.5967L85.1437 57.597ZM64.5459 22.8736C64.3427 20.9497 64.4291 19.0063 64.8022 17.1079C64.9824 16.1628 65.2621 15.2394 65.6366 14.3529C65.9823 13.4484 66.4346 12.5882 66.9841 11.7905C67.0484 11.6625 67.2409 11.6625 67.3691 11.7265C67.4972 11.7905 67.4972 11.9826 67.4334 12.1109C66.9015 12.8854 66.4295 13.6993 66.0216 14.5454C65.6268 15.4077 65.3257 16.3098 65.1234 17.2361C64.664 19.0998 64.4908 21.0223 64.61 22.9379C64.61 22.8736 64.61 22.8736 64.5456 22.8736H64.5459Z" fill="white"/>
<path d="M93.4212 71.6271C79.3044 59.3904 63.1981 55.1625 48.6322 58.1736C34.0662 61.1848 20.9759 71.4349 12.8269 88.2199C41.0606 112.629 77.1869 105.197 93.4212 71.6271Z" fill="#48DBC5"/>
<path d="M89.0578 72.7802L18.9869 87.1307C18.9228 87.1307 18.8587 87.1307 18.8587 87.0667C18.8587 87.0027 18.8587 86.9388 18.9228 86.9388L88.9294 72.3319C88.9955 72.3307 89.0607 72.3481 89.1174 72.382C89.1742 72.416 89.2202 72.4652 89.2503 72.5241C89.3144 72.652 89.1859 72.7802 89.0578 72.7802Z" fill="white"/>
<path d="M48.6322 80.9166C47.1199 82.0943 45.7995 83.499 44.7181 85.0805C44.1723 85.8688 43.6997 86.7052 43.3062 87.5793C42.9399 88.4525 42.6397 89.352 42.4081 90.27C42.3899 90.3367 42.3463 90.3936 42.2865 90.4286C42.2268 90.4635 42.1557 90.4737 42.0885 90.4569C42.0214 90.4401 41.9634 90.3977 41.9272 90.3388C41.891 90.2799 41.8793 90.2092 41.8947 90.1418C42.1409 89.1906 42.4849 88.2674 42.9213 87.3868C43.3365 86.5111 43.8305 85.6749 44.3972 84.8883C45.5983 83.3571 47.0264 82.0178 48.6322 80.9166C48.6322 80.8523 48.5681 80.8523 48.6322 80.9166ZM69.8719 76.5601C67.9751 76.1423 66.156 75.4288 64.4816 74.446C63.6505 73.9494 62.857 73.3927 62.1075 72.7802C61.3593 72.1401 60.6719 71.4324 60.0541 70.6661C60.0175 70.6048 60.0039 70.5326 60.0156 70.4622C60.0273 70.3919 60.0637 70.3279 60.1181 70.2817C60.2466 70.1538 60.375 70.2178 60.5031 70.3457C61.054 71.1084 61.6772 71.8164 62.3641 72.4598C63.0687 73.0912 63.8194 73.6694 64.61 74.1895C66.2223 75.2041 67.9729 75.9809 69.8075 76.4961C69.9356 76.4961 69.9356 76.4962 69.8716 76.5601C69.9359 76.4958 69.9359 76.5601 69.8716 76.5601H69.8719ZM77.315 75.0223C75.8026 76.2002 74.4823 77.6051 73.4009 79.1868C72.8551 79.975 72.3826 80.8113 71.9891 81.6853C71.6227 82.5586 71.3225 83.458 71.0909 84.376C71.0724 84.4424 71.0287 84.4989 70.9692 84.5335C70.9096 84.5682 70.8388 84.5782 70.7719 84.5616C70.7049 84.5449 70.6472 84.5028 70.6109 84.4443C70.5746 84.3857 70.5626 84.3153 70.5775 84.2481C70.8237 83.2969 71.1677 82.3737 71.6041 81.4931C72.0193 80.6175 72.5133 79.7812 73.08 78.9947C74.3634 77.4571 75.7109 76.0475 77.315 75.0226V75.0223ZM37.7878 83.1586C35.8911 82.7407 34.0722 82.0273 32.3978 81.0445C31.5667 80.548 30.7733 79.9914 30.0237 79.379C29.2757 78.7389 28.5884 78.0312 27.9706 77.2649C27.9485 77.2356 27.9324 77.2021 27.9234 77.1664C27.9144 77.1308 27.9127 77.0937 27.9183 77.0574C27.9238 77.0211 27.9366 76.9862 27.9559 76.9549C27.9752 76.9236 28.0005 76.8964 28.0305 76.875C28.0604 76.8537 28.0944 76.8385 28.1303 76.8304C28.1662 76.8223 28.2034 76.8215 28.2396 76.8279C28.2758 76.8344 28.3104 76.8481 28.3413 76.8681C28.3722 76.8881 28.3987 76.9141 28.4194 76.9445C28.9702 77.7072 29.5934 78.4152 30.2803 79.0586C30.9849 79.69 31.7356 80.2682 32.5262 80.7883C34.1386 81.8028 35.8891 82.5795 37.7238 83.0946C37.7878 83.0946 37.7878 83.0946 37.7878 83.1586Z" fill="white"/>
<path fill-rule="evenodd" clip-rule="evenodd" d="M228.109 16.083V231.917C228.101 235.925 226.504 239.766 223.665 242.6C220.827 245.434 216.979 247.029 212.965 247.037H99.3887C95.3746 247.029 91.527 245.434 88.6886 242.6C85.8502 239.766 84.2523 235.925 84.245 231.917V16.083C84.2523 12.0753 85.8502 8.23382 88.6886 5.39995C91.527 2.56608 95.3746 0.97078 99.3887 0.96344H212.965C216.979 0.97078 220.827 2.56608 223.665 5.39995C226.504 8.23382 228.101 12.0753 228.109 16.083Z" fill="#5B6F8B"/>
<path fill-rule="evenodd" clip-rule="evenodd" d="M222.398 16.083V231.917C222.383 234.41 221.384 236.797 219.619 238.56C217.853 240.323 215.462 241.32 212.965 241.335H99.3887C96.8916 241.32 94.5011 240.323 92.7353 238.56C90.9696 236.797 89.9711 234.41 89.9562 231.917V16.083C89.9711 13.5899 90.9696 11.2031 92.7353 9.44012C94.5011 7.67717 96.8916 6.68015 99.3887 6.66525H123.002C123.876 6.67221 124.725 6.95478 125.428 7.47257C126.131 7.99036 126.652 8.71685 126.917 9.54813V11.1499C126.924 12.235 127.359 13.2734 128.128 14.0407C128.896 14.8079 129.936 15.2423 131.023 15.2499H181.331C182.417 15.2423 183.458 14.8079 184.226 14.0407C184.994 13.2734 185.43 12.235 185.437 11.1499V9.54844C185.702 8.71715 186.223 7.99067 186.926 7.47288C187.629 6.9551 188.478 6.67252 189.352 6.66556H212.965C215.462 6.68038 217.853 7.67732 219.618 9.44021C221.384 11.2031 222.383 13.5899 222.398 16.083Z" fill="white"/>
<path fill-rule="evenodd" clip-rule="evenodd" d="M167.599 9.67636C168.024 9.67636 168.432 9.50761 168.733 9.20724C169.034 8.90688 169.203 8.49949 169.203 8.07471C169.203 7.64992 169.034 7.24253 168.733 6.94217C168.432 6.6418 168.024 6.47305 167.599 6.47305H138.146C137.72 6.47305 137.312 6.6418 137.011 6.94217C136.71 7.24253 136.541 7.64992 136.541 8.07471C136.541 8.49949 136.71 8.90688 137.011 9.20724C137.312 9.50761 137.72 9.67636 138.146 9.67636H167.599ZM172.925 6.47305C172.499 6.47305 172.091 6.6418 171.79 6.94217C171.489 7.24253 171.32 7.64992 171.32 8.07471C171.32 8.49949 171.489 8.90688 171.79 9.20724C172.091 9.50761 172.499 9.67636 172.925 9.67636H174.272C174.698 9.67636 175.106 9.50761 175.407 9.20724C175.707 8.90688 175.876 8.49949 175.876 8.07471C175.876 7.64992 175.707 7.24253 175.407 6.94217C175.106 6.6418 174.698 6.47305 174.272 6.47305H172.925Z" fill="white"/>
<path fill-rule="evenodd" clip-rule="evenodd" d="M216.366 28.1271V133.578C216.361 134.783 215.88 135.937 215.026 136.789C214.173 137.641 213.017 138.122 211.81 138.126H101.185C99.9784 138.122 98.8222 137.641 97.9688 136.789C97.1153 135.937 96.6339 134.783 96.6294 133.577V28.1274C96.634 26.9224 97.1155 25.7681 97.969 24.916C98.8224 24.064 99.9787 23.5833 101.186 23.5788H211.81C213.017 23.5833 214.173 24.064 215.027 24.916C215.88 25.7681 216.362 26.9224 216.366 28.1274L216.366 28.1271Z" fill="#3D84F2"/>
<path d="M158.102 94.6264L185.886 80.4039V104.684C185.886 111.86 127.109 111.86 127.109 104.684V81.0445L154.444 94.6904C155.009 94.9461 155.622 95.0772 156.241 95.0748C156.89 95.0864 157.53 94.932 158.102 94.6264Z" fill="white"/>
<path d="M198.977 70.41L194.292 72.7802V104.492H195.383C195.565 104.498 195.739 104.564 195.879 104.68C196.018 104.796 196.115 104.956 196.153 105.133L197.565 111.539C197.59 111.646 197.591 111.757 197.567 111.864C197.543 111.971 197.496 112.071 197.428 112.157C197.36 112.243 197.274 112.313 197.175 112.361C197.077 112.41 196.969 112.435 196.859 112.436H189.673C189.56 112.437 189.448 112.413 189.346 112.367C189.243 112.32 189.152 112.252 189.079 112.166C189.006 112.081 188.952 111.98 188.921 111.872C188.891 111.764 188.884 111.65 188.902 111.539L190.314 105.133C190.354 104.957 190.451 104.798 190.59 104.682C190.73 104.567 190.903 104.5 191.084 104.492H192.175V73.8694L185.951 77.0724L157.011 91.8715C156.774 91.9977 156.51 92.0637 156.241 92.0637C155.973 92.0637 155.708 91.9977 155.471 91.8715L127.109 77.6493L114.019 71.1145C113.734 70.9752 113.495 70.7576 113.331 70.4872C113.166 70.2169 113.082 69.9051 113.088 69.5886C113.095 69.2722 113.192 68.9642 113.369 68.7011C113.545 68.438 113.793 68.2307 114.083 68.1037L156.049 49.5247C156.261 49.4297 156.49 49.3806 156.723 49.3806C156.955 49.3806 157.184 49.4297 157.396 49.5247L198.913 67.3989C199.203 67.5259 199.451 67.7332 199.627 67.9963C199.803 68.2594 199.901 68.5674 199.907 68.8838C199.914 69.2003 199.83 69.5121 199.665 69.7824C199.5 70.0528 199.261 70.2704 198.977 70.4097V70.41Z" fill="white"/>
<path d="M105.549 152.028L98.6188 156.897C98.4343 157.029 98.2166 157.107 97.9901 157.122C97.7637 157.137 97.5375 157.089 97.3373 156.982C97.137 156.875 96.9706 156.715 96.8569 156.519C96.7432 156.323 96.6867 156.099 96.6938 155.872V146.135C96.69 145.909 96.7486 145.687 96.863 145.493C96.9774 145.299 97.1433 145.14 97.3424 145.034C97.5414 144.928 97.7659 144.879 97.9911 144.892C98.2163 144.906 98.4335 144.981 98.6188 145.109L105.549 149.978C105.712 150.095 105.846 150.248 105.938 150.427C106.03 150.605 106.078 150.803 106.078 151.003C106.078 151.204 106.03 151.402 105.938 151.58C105.846 151.758 105.712 151.912 105.549 152.028ZM216.366 151.004C216.373 151.266 216.276 151.521 216.095 151.713C215.915 151.905 215.667 152.018 215.403 152.028H111.709C111.582 152.031 111.455 152.007 111.338 151.96C111.22 151.912 111.113 151.842 111.023 151.752C110.933 151.662 110.862 151.555 110.815 151.438C110.767 151.32 110.744 151.194 110.746 151.067C110.752 150.814 110.856 150.573 111.035 150.395C111.214 150.216 111.455 150.112 111.709 150.106H215.403C215.917 149.978 216.366 150.427 216.366 151.003V151.004Z" fill="#C8E1FF"/>
<path d="M168.754 159.716C173.573 159.716 177.481 155.815 177.481 151.003C177.481 146.191 173.573 142.29 168.754 142.29C163.934 142.29 160.027 146.191 160.027 151.003C160.027 155.815 163.934 159.716 168.754 159.716Z" fill="white"/>
<path d="M168.754 155.936C171.483 155.936 173.695 153.728 173.695 151.003C173.695 148.279 171.483 146.07 168.754 146.07C166.025 146.07 163.813 148.279 163.813 151.003C163.813 153.728 166.025 155.936 168.754 155.936Z" fill="#C8E1FF"/>
<path fill-rule="evenodd" clip-rule="evenodd" d="M199.811 171.824V191.941C199.81 192.756 199.486 193.538 198.908 194.115C198.331 194.692 197.547 195.016 196.731 195.016H115.623C114.806 195.016 114.023 194.692 113.445 194.115C112.868 193.538 112.543 192.756 112.543 191.941V171.824C112.543 171.009 112.868 170.227 113.445 169.65C114.023 169.073 114.806 168.749 115.623 168.749H196.731C197.547 168.749 198.331 169.073 198.908 169.65C199.486 170.227 199.81 171.009 199.811 171.824Z" fill="#FA5814"/>
<path d="M123.965 186.431C123.901 186.367 123.901 186.303 123.901 186.175V177.59C123.901 177.462 123.901 177.398 123.965 177.334C124.029 177.271 124.093 177.27 124.221 177.27H125.441C125.569 177.27 125.633 177.27 125.698 177.334C125.762 177.398 125.762 177.462 125.762 177.59V184.958H129.997C130.125 184.958 130.189 184.958 130.253 185.022C130.317 185.086 130.318 185.15 130.318 185.278V186.239C130.327 186.329 130.304 186.42 130.253 186.495C130.189 186.559 130.125 186.559 129.997 186.559H124.222C124.172 186.558 124.123 186.546 124.079 186.524C124.034 186.502 123.996 186.47 123.965 186.431ZM131.665 186.431C131.601 186.367 131.601 186.303 131.601 186.175V177.59C131.601 177.462 131.601 177.398 131.665 177.334C131.729 177.271 131.793 177.27 131.922 177.27H137.761C137.889 177.27 137.953 177.27 138.018 177.334C138.082 177.398 138.082 177.462 138.082 177.59V178.487C138.082 178.615 138.082 178.679 138.018 178.743C137.953 178.807 137.889 178.807 137.761 178.807H133.398V181.114H137.44C137.568 181.114 137.632 181.114 137.697 181.178C137.761 181.242 137.761 181.306 137.761 181.434V182.267C137.761 182.395 137.761 182.459 137.697 182.523C137.632 182.587 137.568 182.587 137.44 182.587H133.398V185.022H137.889C138.018 185.022 138.082 185.022 138.146 185.086C138.21 185.15 138.21 185.214 138.21 185.342V186.239C138.21 186.367 138.21 186.431 138.146 186.495C138.082 186.559 138.018 186.559 137.889 186.559H131.922C131.825 186.543 131.736 186.499 131.665 186.431H131.665ZM139.108 186.495C139.084 186.47 139.066 186.44 139.054 186.406C139.043 186.373 139.04 186.338 139.044 186.303V186.175L142.253 177.59C142.286 177.497 142.346 177.417 142.427 177.36C142.507 177.302 142.603 177.271 142.702 177.27H144.178C144.278 177.262 144.379 177.289 144.461 177.348C144.543 177.406 144.602 177.492 144.627 177.59L147.835 186.175V186.303C147.84 186.338 147.837 186.373 147.826 186.406C147.814 186.44 147.796 186.47 147.771 186.495C147.746 186.52 147.716 186.538 147.682 186.55C147.649 186.561 147.614 186.564 147.579 186.559H146.423C146.339 186.57 146.254 186.55 146.183 186.503C146.112 186.456 146.061 186.385 146.038 186.303L145.397 184.702H141.482L140.841 186.303C140.819 186.385 140.767 186.456 140.697 186.503C140.626 186.55 140.54 186.57 140.456 186.559H139.301C139.237 186.559 139.173 186.495 139.108 186.495ZM141.932 183.164H144.948L143.472 179.064L141.932 183.164ZM149.183 186.431C149.118 186.367 149.118 186.303 149.118 186.175V177.59C149.118 177.462 149.118 177.398 149.183 177.334C149.247 177.271 149.311 177.27 149.439 177.27H152.904C153.823 177.22 154.731 177.492 155.471 178.039C156.113 178.551 156.369 179.256 156.369 180.217C156.407 180.786 156.249 181.351 155.92 181.819C155.598 182.26 155.151 182.595 154.637 182.78L156.562 186.175C156.569 186.223 156.591 186.268 156.626 186.303C156.631 186.338 156.628 186.373 156.617 186.406C156.605 186.44 156.587 186.47 156.562 186.495C156.537 186.52 156.507 186.538 156.473 186.55C156.44 186.561 156.405 186.564 156.37 186.559H155.15C155.031 186.557 154.917 186.511 154.829 186.431C154.75 186.358 154.685 186.271 154.637 186.175L152.904 183.036H151.108V186.239C151.117 186.329 151.094 186.42 151.043 186.495C150.979 186.559 150.915 186.559 150.787 186.559H149.439C149.343 186.543 149.254 186.499 149.183 186.431ZM152.84 181.498C153.27 181.517 153.695 181.405 154.059 181.178C154.308 180.894 154.444 180.53 154.444 180.153C154.444 179.776 154.308 179.412 154.059 179.128C153.892 178.985 153.699 178.878 153.489 178.812C153.28 178.746 153.059 178.723 152.84 178.744H150.979V181.562H152.84V181.498ZM158.166 186.431C158.102 186.367 158.102 186.303 158.102 186.175V177.59C158.102 177.462 158.102 177.398 158.166 177.334C158.231 177.271 158.294 177.27 158.422 177.27H159.449C159.534 177.259 159.619 177.279 159.69 177.326C159.761 177.373 159.812 177.444 159.834 177.526L163.62 183.42V177.654C163.62 177.526 163.62 177.462 163.684 177.398C163.748 177.334 163.813 177.334 163.941 177.334H165.096C165.224 177.334 165.289 177.334 165.353 177.398C165.417 177.462 165.417 177.526 165.417 177.654V186.303C165.417 186.431 165.417 186.495 165.353 186.559C165.289 186.623 165.225 186.623 165.096 186.623H164.069C163.985 186.634 163.899 186.614 163.829 186.567C163.758 186.52 163.707 186.449 163.684 186.367L159.899 180.601V186.303C159.908 186.393 159.885 186.484 159.834 186.559C159.77 186.623 159.706 186.623 159.578 186.623H158.423C158.326 186.575 158.239 186.51 158.166 186.431ZM167.599 186.431C167.535 186.367 167.535 186.303 167.535 186.175V177.59C167.535 177.462 167.535 177.398 167.599 177.334C167.663 177.271 167.727 177.27 167.855 177.27H169.139C169.267 177.27 169.331 177.27 169.395 177.334C169.459 177.398 169.46 177.462 169.46 177.59V186.239C169.469 186.329 169.446 186.42 169.395 186.495C169.331 186.559 169.267 186.559 169.139 186.559H167.855C167.806 186.558 167.757 186.546 167.713 186.524C167.668 186.502 167.629 186.47 167.599 186.431ZM171.577 186.431C171.513 186.367 171.513 186.303 171.513 186.175V177.59C171.513 177.462 171.513 177.398 171.577 177.334C171.642 177.271 171.705 177.27 171.834 177.27H172.86C172.945 177.259 173.03 177.279 173.101 177.326C173.172 177.373 173.223 177.444 173.245 177.526L177.031 183.42V177.655C177.031 177.527 177.031 177.462 177.096 177.398C177.16 177.334 177.224 177.334 177.352 177.334H178.507C178.635 177.334 178.7 177.334 178.764 177.398C178.828 177.462 178.828 177.526 178.828 177.655V186.303C178.828 186.431 178.828 186.495 178.764 186.559C178.699 186.623 178.636 186.624 178.507 186.624H177.481C177.396 186.635 177.311 186.615 177.24 186.568C177.169 186.52 177.118 186.449 177.096 186.367L173.31 180.601V186.303C173.319 186.394 173.296 186.484 173.245 186.559C173.181 186.624 173.117 186.624 172.989 186.624H171.834C171.737 186.576 171.65 186.511 171.577 186.432V186.431ZM181.651 185.726C180.946 185.086 180.625 184.253 180.561 183.1V180.665C180.625 179.576 180.946 178.679 181.651 178.103C182.437 177.437 183.446 177.094 184.475 177.142C185.207 177.109 185.936 177.263 186.592 177.59C187.114 177.825 187.575 178.176 187.94 178.615C188.227 178.956 188.386 179.387 188.389 179.832C188.394 179.867 188.391 179.903 188.38 179.936C188.369 179.97 188.35 180 188.325 180.025C188.3 180.05 188.27 180.068 188.236 180.08C188.203 180.091 188.167 180.094 188.132 180.089H186.721C186.686 180.093 186.65 180.09 186.617 180.078C186.584 180.067 186.553 180.049 186.528 180.025C186.471 179.972 186.427 179.906 186.4 179.832C186.266 179.501 186.044 179.213 185.758 178.999C185.437 178.744 185.052 178.679 184.475 178.679C183.936 178.661 183.41 178.844 182.999 179.192C182.634 179.622 182.43 180.166 182.422 180.729V183.036C182.402 183.328 182.444 183.621 182.543 183.897C182.643 184.172 182.798 184.424 182.999 184.637C183.41 184.985 183.936 185.168 184.475 185.15C185.033 185.168 185.579 184.986 186.015 184.637C186.4 184.317 186.592 183.804 186.592 183.1V182.715H184.988C184.898 182.725 184.807 182.702 184.731 182.651C184.667 182.587 184.667 182.523 184.667 182.395V181.69C184.658 181.6 184.68 181.509 184.731 181.434C184.796 181.37 184.86 181.37 184.988 181.37H188.197C188.325 181.37 188.389 181.37 188.453 181.434C188.517 181.498 188.517 181.562 188.517 181.69V183.1C188.515 183.774 188.338 184.436 188.004 185.022C187.682 185.588 187.187 186.037 186.592 186.303C185.936 186.63 185.207 186.785 184.475 186.752C183.32 186.687 182.357 186.367 181.651 185.726Z" fill="white"/>
<path d="M207.318 208.918C207.326 209.171 207.278 209.422 207.178 209.654C207.078 209.886 206.929 210.094 206.741 210.263C206.563 210.457 206.344 210.609 206.1 210.709C205.855 210.809 205.592 210.853 205.329 210.84H107.025C106.515 210.838 106.026 210.635 105.665 210.275C105.305 209.915 105.101 209.427 105.1 208.918C105.093 208.665 105.141 208.414 105.241 208.182C105.34 207.95 105.489 207.742 105.677 207.573C105.856 207.379 106.075 207.227 106.319 207.127C106.563 207.027 106.826 206.983 107.089 206.996H205.394C205.648 206.991 205.9 207.038 206.136 207.133C206.372 207.228 206.586 207.369 206.765 207.548C206.945 207.728 207.087 207.942 207.182 208.177C207.277 208.412 207.323 208.664 207.319 208.918H207.318ZM188.389 221.09C188.396 221.343 188.348 221.594 188.249 221.826C188.149 222.059 188 222.267 187.812 222.436C187.633 222.63 187.414 222.782 187.17 222.882C186.926 222.981 186.663 223.026 186.4 223.012H125.954C125.444 223.011 124.955 222.808 124.595 222.448C124.234 222.088 124.031 221.6 124.029 221.09C124.022 220.838 124.07 220.586 124.17 220.354C124.269 220.122 124.418 219.914 124.607 219.745C124.785 219.551 125.004 219.399 125.248 219.299C125.492 219.199 125.755 219.155 126.018 219.168H186.464C186.718 219.163 186.971 219.21 187.206 219.305C187.442 219.4 187.656 219.541 187.836 219.721C188.016 219.9 188.157 220.114 188.252 220.349C188.347 220.584 188.394 220.836 188.389 221.09Z" fill="#F0F4F9"/>
<path d="M249.541 245.435C249.605 245.947 249.669 246.396 249.733 246.652C249.766 246.745 249.827 246.825 249.907 246.883C249.988 246.94 250.084 246.971 250.182 246.972H271.55C271.621 246.975 271.693 246.961 271.757 246.931C271.822 246.901 271.879 246.856 271.923 246.799C271.967 246.743 271.997 246.677 272.01 246.607C272.023 246.537 272.019 246.464 271.999 246.396L271.165 242.936L268.534 231.789L260.064 232.686C260.064 232.686 260.706 237.683 254.032 239.605C249.926 240.822 249.412 243.641 249.541 245.435Z" fill="#292561"/>
<path d="M257.626 237.939C260.449 235.697 260.128 232.75 260.128 232.75L268.598 231.853L270.01 237.939H257.626Z" fill="#191937"/>
<path d="M280.212 245.435C280.277 245.947 280.341 246.396 280.405 246.652C280.438 246.745 280.499 246.825 280.579 246.883C280.66 246.94 280.756 246.971 280.854 246.972H302.222C302.293 246.975 302.364 246.961 302.429 246.931C302.494 246.901 302.551 246.856 302.595 246.799C302.639 246.743 302.669 246.677 302.682 246.607C302.695 246.537 302.692 246.464 302.671 246.396L301.837 242.936L299.206 231.789L290.736 232.686C290.736 232.686 291.378 237.683 284.704 239.605C280.597 240.822 280.084 243.641 280.212 245.435Z" fill="#292561"/>
<path d="M288.298 237.939C291.121 235.697 290.8 232.75 290.8 232.75L299.27 231.853L300.682 237.939H288.298Z" fill="#191937"/>
<path d="M247.872 234.159H277.902C278.352 231.789 278.223 228.458 277.774 224.806C277.71 224.486 277.71 224.165 277.646 223.845C277.077 219.811 276.285 215.811 275.272 211.865C275.272 211.801 275.207 211.737 275.207 211.673C275.152 211.345 275.066 211.023 274.951 210.712C273.411 203.536 274.181 193.478 275.015 186.175L275.207 184.637C275.272 184.317 275.272 183.933 275.336 183.612C277.068 170.607 280.405 155.552 283.677 142.995C283.742 142.675 283.87 142.29 283.934 141.97C285.025 137.806 285.731 135.371 285.731 135.371C283.228 135.244 295.292 135.884 258.588 133.898C258.588 133.898 257.818 138.383 256.727 145.622C256.649 145.958 256.606 146.302 256.599 146.647C253.326 167.404 247.937 205.33 247.68 226.407V227.433C247.68 229.867 247.744 232.174 247.872 234.159Z" fill="#464AE4"/>
<path d="M269.689 184.125C270.074 188.353 269.882 192.581 270.523 196.81C271.037 200.077 272.192 203.408 274.245 205.971C274.048 203.435 273.983 200.89 274.053 198.347C274.044 198.004 274.065 197.661 274.117 197.322C274.245 193.798 274.566 190.019 275.015 186.175C273.283 177.59 272.641 169.134 272.32 160.421C272.192 156.385 272.063 152.413 271.935 148.377C271.871 145.366 272.32 138.831 272.577 135.82C268.855 140.817 265.839 150.427 265.583 156.705C265.198 165.995 268.855 174.899 269.689 184.125Z" fill="#2624BD"/>
<path d="M271.807 171.696C271.915 171.681 272.022 171.66 272.127 171.632L271.935 170.671C271.807 170.671 271.742 170.735 271.614 170.735C267.058 171.44 262.374 172.209 257.69 172.593C255.893 172.721 254.225 172.785 252.749 172.785C252.685 173.106 252.685 173.426 252.621 173.746C254.161 173.746 255.893 173.682 257.754 173.554C262.567 173.17 267.251 172.465 271.807 171.696ZM270.202 144.981C270.192 144.638 270.213 144.295 270.267 143.956C266.16 144.597 261.989 145.238 257.754 145.558C257.433 145.558 257.112 145.622 256.792 145.622C256.713 145.958 256.67 146.302 256.663 146.647C257.048 146.647 257.433 146.583 257.882 146.583C262.053 146.198 266.16 145.622 270.202 144.981ZM257.818 160.036C261.989 159.716 266.16 159.075 270.267 158.435C270.267 158.114 270.202 157.794 270.202 157.474C266.16 158.114 261.925 158.755 257.754 159.075C256.663 159.14 255.701 159.204 254.738 159.204C254.674 159.524 254.674 159.844 254.61 160.165C255.637 160.165 256.727 160.101 257.818 160.037V160.036ZM271.807 185.214C272.769 185.086 273.796 184.894 274.758 184.765L274.566 183.804C273.603 183.932 272.641 184.125 271.678 184.253C267.122 184.958 262.438 185.726 257.754 186.111C255.535 186.309 253.305 186.351 251.081 186.239C251.017 186.559 251.017 186.88 250.952 187.2C253.241 187.313 255.535 187.27 257.818 187.072C262.567 186.687 267.251 185.919 271.807 185.214ZM249.476 200.589C252.272 200.847 255.086 200.847 257.882 200.589C262.631 200.205 267.315 199.501 271.871 198.731L274.181 198.347C274.172 198.004 274.194 197.661 274.245 197.322L271.742 197.707C267.187 198.411 262.567 199.18 257.818 199.565C255.086 199.822 252.336 199.822 249.605 199.565C249.534 199.902 249.491 200.245 249.477 200.589H249.476ZM248.321 213.915C251.017 214.299 254.096 214.363 257.882 214.043C262.631 213.659 267.315 212.954 271.871 212.185C273.026 211.993 274.117 211.801 275.272 211.673C275.216 211.345 275.13 211.023 275.015 210.712C273.924 210.904 272.769 211.032 271.678 211.224C267.122 211.929 262.502 212.698 257.754 213.082C254.032 213.338 250.952 213.338 248.321 212.954V213.915ZM247.68 227.369C250.503 227.817 253.776 227.945 257.818 227.625C262.567 227.24 267.251 226.536 271.807 225.767C273.732 225.447 275.657 225.126 277.582 224.87H277.774C277.71 224.55 277.71 224.229 277.646 223.909H277.453C275.528 224.165 273.603 224.486 271.678 224.806C267.122 225.511 262.502 226.28 257.754 226.664C253.711 226.984 250.439 226.92 247.68 226.407V227.368V227.369Z" fill="#2624BD"/>
<path d="M271.422 168.109C273.026 175.54 278.673 205.01 282.33 223.268L282.523 224.229C283.613 229.547 284.319 233.262 284.576 234.031C284.583 234.08 284.605 234.125 284.64 234.159H310.949C311.49 232.678 311.919 231.157 312.232 229.611L312.425 228.458C313.002 224.678 312.874 220.386 311.526 215.516C310.319 211.366 308.549 207.4 306.265 203.728C305.558 202.575 304.853 200.718 304.019 198.347L303.634 197.194C301.195 189.506 298.564 177.783 296.96 169.902C296.704 168.685 295.292 161.83 293.623 152.285C292.982 148.633 292.405 145.302 291.955 142.611C291.881 142.295 291.838 141.974 291.827 141.65C291.121 137.55 290.736 134.987 290.736 134.987L271.999 122.943C271.999 122.943 271.358 127.748 270.78 134.539C270.074 144.276 269.433 158.563 271.422 168.109H271.422Z" fill="#464AE4"/>
<path d="M270.203 144.981L271.807 144.725C273.732 144.405 275.657 144.084 277.582 143.828C279.443 143.572 281.496 143.315 283.742 143.059C286.512 142.765 289.298 142.637 292.084 142.675C292.01 142.359 291.967 142.038 291.955 141.714C289.32 141.709 286.685 141.838 284.063 142.098C281.752 142.29 279.507 142.611 277.517 142.867C275.592 143.123 273.668 143.444 271.743 143.764C271.293 143.828 270.78 143.892 270.331 143.956C270.267 144.277 270.267 144.597 270.203 144.981ZM270.203 157.474C270.192 157.796 270.213 158.117 270.267 158.435C270.78 158.371 271.293 158.243 271.807 158.179C273.732 157.858 275.657 157.538 277.582 157.282C278.416 157.154 279.378 157.026 280.277 156.897C284.512 156.385 289.453 155.936 294.329 156.192C294.265 155.872 294.201 155.552 294.137 155.168C289.388 154.911 284.576 155.36 280.469 155.872C279.378 156 278.352 156.128 277.389 156.321C275.464 156.577 273.539 156.897 271.614 157.218C271.229 157.282 270.716 157.41 270.203 157.474ZM271.999 170.671L272.192 171.632C273.924 171.376 275.721 171.056 277.453 170.799H277.646C283.1 170.031 290.223 169.198 297.089 169.967C297.019 169.626 296.955 169.284 296.896 168.941C290.094 168.237 283.1 169.005 277.71 169.838H277.517C275.657 170.095 273.796 170.415 271.999 170.671V170.671ZM274.566 183.804L274.758 184.765C274.902 184.713 275.055 184.691 275.208 184.701C275.978 184.573 276.812 184.445 277.582 184.317C283.164 183.484 290.479 182.715 297.474 183.484C298.372 183.612 299.271 183.74 300.104 183.868C300.04 183.548 299.912 183.164 299.848 182.844C299.078 182.716 298.372 182.587 297.602 182.523C290.479 181.69 283.1 182.523 277.453 183.356C276.748 183.484 276.042 183.548 275.336 183.676C275.143 183.741 274.822 183.741 274.566 183.804H274.566ZM277.132 196.938L277.325 197.899C277.416 197.908 277.506 197.886 277.582 197.835C283.164 197.002 290.479 196.233 297.474 197.002C299.716 197.233 301.929 197.684 304.083 198.347L303.698 197.194C301.697 196.647 299.66 196.24 297.602 195.977C290.479 195.144 283.1 195.977 277.453 196.81C277.389 196.874 277.261 196.874 277.132 196.938ZM279.699 210.071L279.892 211.032C285.089 210.327 291.378 209.815 297.474 210.519C303.313 211.224 308.318 213.018 311.526 215.516C311.406 214.996 311.256 214.482 311.077 213.979C307.74 211.737 302.992 210.199 297.602 209.559C291.378 208.854 285.025 209.366 279.699 210.071H279.699ZM282.33 223.268L282.522 224.229C287.143 223.717 292.404 223.461 297.538 224.037C303.762 224.742 309.152 226.792 312.296 229.611L312.489 228.458C309.152 225.703 303.826 223.781 297.666 223.076C292.404 222.436 287.014 222.756 282.33 223.268Z" fill="#2624BD"/>
<path d="M262.952 117.562C262.952 117.562 257.433 125.249 251.851 127.363C250.375 127.94 248.899 128.132 247.551 127.684C240.814 125.698 238.247 105.261 238.247 105.261L242.033 103.339L249.027 113.077C254.867 94.37 260.449 93.2808 260.449 93.2808L261.219 100.264L262.952 117.562Z" fill="#FF9A05"/>
<path d="M262.952 117.562C262.952 117.562 257.433 125.249 251.851 127.363C251.561 127.023 251.353 126.621 251.242 126.188C251.13 125.755 251.119 125.303 251.209 124.865C251.594 123.263 253.262 122.43 254.353 121.149C255.38 119.868 255.765 118.138 255.765 116.536C255.765 114.871 255.38 113.269 255.187 111.668C254.974 110.011 254.888 108.34 254.931 106.671C254.957 103.68 255.478 100.715 256.471 97.8937C256.792 96.9327 257.626 96.0997 258.717 96.5484C259.872 96.9967 260.513 98.4703 260.898 99.5592C260.962 99.8156 261.091 100.008 261.155 100.264L262.952 117.562Z" fill="#EC8400"/>
<path d="M291.827 138.19C291.827 140.176 282.138 141.073 272.962 140.945C271.807 140.945 270.652 140.881 269.561 140.881C266.81 140.798 264.066 140.541 261.348 140.112C258.845 139.664 257.241 139.023 257.241 138.254C258.396 126.402 252.236 102.955 258.203 94.6904C260.77 91.1027 280.79 89.7574 287.977 94.306C288.041 94.306 288.041 94.37 288.105 94.37C288.346 94.5045 288.563 94.6777 288.747 94.8826C289.389 95.4343 289.913 96.1098 290.287 96.8685C295.292 106.478 291.827 138.19 291.827 138.19Z" fill="#FF9A05"/>
<path d="M291.827 138.19C291.827 140.176 282.137 141.073 272.962 140.945C271.807 140.945 270.652 140.881 269.561 140.881C266.81 140.798 264.066 140.541 261.348 140.112C261.711 139.629 262.199 139.253 262.759 139.023C263.722 138.575 264.748 138.447 265.583 137.87C266.866 136.973 267.379 135.308 267.636 133.77C267.892 132.232 267.957 130.567 268.662 129.221C269.817 126.979 272.32 125.826 274.758 125.313C277.197 124.801 279.763 124.865 282.137 124.16C283.998 123.648 285.923 122.559 286.501 120.701C287.207 118.586 285.923 116.344 284.961 114.294C283.635 111.376 282.913 108.222 282.835 105.018C282.758 101.815 283.328 98.6296 284.512 95.6514C286.116 96.8045 288.234 96.7402 290.287 96.8685C295.292 106.478 291.827 138.19 291.827 138.19Z" fill="#EC8400"/>
<path d="M278.48 85.9136L278.159 91.6154C278.159 93.3451 268.919 93.3451 268.919 91.6154V87.0027C268.919 87.0027 265.005 87.9637 263.016 85.9775C261.54 84.5039 259.872 66.8223 267.7 65.4127C277.582 63.619 283.228 70.2175 283.806 72.8445C284.319 75.4709 278.48 85.9136 278.48 85.9136Z" fill="#FFD1C4"/>
<path d="M278.48 85.9136C277.325 82.9664 280.213 81.6853 281.496 79.6352C281.56 79.5712 281.56 79.443 281.624 79.379C281.752 78.8025 281.688 77.713 281.111 77.2007C280.948 77.054 280.746 76.9578 280.53 76.9237C280.314 76.8895 280.092 76.919 279.892 77.0085C278.031 77.585 279.122 78.8025 278.608 79.0583C277.967 79.443 274.63 74.7661 278.352 71.6271C278.352 71.6271 259.423 72.652 259.23 64.6439C259.038 56.6358 267.572 53.9454 271.614 56.1875C274.951 58.0454 276.234 60.6079 279.122 61.8893C279.821 62.1872 280.554 62.4022 281.303 62.5298C281.496 62.5298 281.624 62.5941 281.817 62.5941C286.116 63.4268 287.528 65.9253 285.089 69.2568C285.025 69.2568 292.212 72.652 278.48 85.9136Z" fill="#292561"/>
<path d="M233.948 92.8325L233.884 92.9607L233.819 92.8325H233.948Z" fill="black"/>
<path d="M252.621 114.55L241.84 114.038C241.632 114.041 241.429 113.973 241.266 113.845C241.102 113.717 240.988 113.536 240.942 113.333L235.68 95.0748C235.635 94.9202 235.627 94.757 235.658 94.5989C235.689 94.4408 235.758 94.2925 235.859 94.1667C235.96 94.0409 236.09 93.9413 236.237 93.8763C236.385 93.8113 236.546 93.7829 236.707 93.7934L247.487 94.2421C247.701 94.2471 247.907 94.3173 248.079 94.4433C248.251 94.5692 248.381 94.7449 248.45 94.9466L253.712 113.333C253.743 113.489 253.737 113.649 253.696 113.802C253.654 113.955 253.577 114.096 253.471 114.215C253.365 114.333 253.233 114.425 253.086 114.483C252.938 114.541 252.779 114.564 252.621 114.55Z" fill="#5B6F8B"/>
<path d="M271.55 127.363C271.55 127.363 261.027 122.431 261.412 129.093C261.861 135.756 272.577 131.592 272.577 131.592L271.55 127.363Z" fill="#FFD1C4"/>
<path d="M286.244 93.2808C297.345 97.7655 307.227 129.35 296.254 132.617C290.736 134.282 271.614 131.912 271.614 131.912L270.138 126.338L290.608 122.302C290.672 122.302 279.186 99.9436 286.244 93.2808Z" fill="#FF9A05"/>
<path d="M242.033 104.492C242.149 104.997 242.163 105.521 242.074 106.031C241.984 106.542 241.793 107.029 241.512 107.465C241.231 107.901 240.866 108.276 240.437 108.569C240.009 108.862 239.526 109.066 239.017 109.169C236.964 109.553 235.423 101.673 237.477 101.289C237.987 101.198 238.51 101.209 239.016 101.322C239.522 101.434 240 101.645 240.424 101.943C240.847 102.241 241.207 102.619 241.484 103.057C241.76 103.494 241.946 103.982 242.033 104.492Z" fill="#FFD1C4"/>
</svg>
