<svg width="298" height="206" viewBox="0 0 298 206" fill="none" xmlns="http://www.w3.org/2000/svg">
<path d="M82.1197 132.963C118.655 132.963 148.272 103.345 148.272 66.81C148.272 30.275 118.655 0.657501 82.1197 0.657501C45.5847 0.657501 15.9672 30.275 15.9672 66.81C15.9672 103.345 45.5847 132.963 82.1197 132.963Z" fill="#E9F4F7"/>
<path d="M197.035 187.17C233.57 187.17 263.187 157.552 263.187 121.017C263.187 84.482 233.57 54.8645 197.035 54.8645C160.5 54.8645 130.882 84.482 130.882 121.017C130.882 157.552 160.5 187.17 197.035 187.17Z" fill="#FEF6E7"/>
<path d="M84.7047 12.5646C39.2144 12.5646 2.33722 49.4418 2.33722 94.9321C2.33722 140.422 39.2144 177.3 84.7047 177.3C130.195 177.3 167.072 140.422 167.072 94.9321C167.072 49.4418 130.195 12.5646 84.7047 12.5646ZM84.7047 13.5046C129.676 13.5046 166.132 49.9609 166.132 94.9321C166.132 139.903 129.676 176.36 84.7047 176.36C39.7336 176.36 3.27722 139.903 3.27722 94.9321C3.27722 49.9609 39.7336 13.5046 84.7047 13.5046Z" fill="#F0DECF"/>
<path d="M20.3089 183.645L2.07543 196.818C-0.0286354 198.338 -0.502023 201.276 1.01809 203.38C1.90175 204.603 3.31892 205.327 4.82785 205.327H266.507C269.102 205.327 271.207 203.223 271.207 200.627C271.207 199.184 270.543 197.82 269.407 196.929L252.471 183.645H20.3089Z" fill="#E9F4F7"/>
<path d="M162.372 183.162C162.632 183.162 162.842 183.373 162.842 183.632C162.842 183.88 162.651 184.083 162.407 184.101L162.372 184.102L3.74726 184.115C3.48768 184.115 3.27722 183.904 3.27722 183.645C3.27722 183.397 3.46892 183.194 3.71211 183.176L3.74719 183.175L162.372 183.162Z" fill="#2E363A"/>
<path fill-rule="evenodd" clip-rule="evenodd" d="M88.1486 77.5002L123.127 80.7557C138.143 90.7543 146.704 97.6615 148.812 101.477C151.974 107.201 150.071 134.593 148.812 147.211L149.005 147.363C151.154 149.077 151.973 150.56 151.462 151.812L151.439 151.867C150.578 153.818 154.302 152.824 154.872 153.969C155.436 155.101 155.842 158.586 158.139 158.664L158.217 158.665C159.795 158.665 184.146 162.529 231.268 170.258V183.398L146.823 183.554C142.922 183.561 139.156 182.139 136.234 179.561L136.111 179.452V183.398L47.0709 183.399L46.2953 183.642C41.9175 185.008 38.7438 185.837 37.4763 185.837C30.5149 185.837 26.1305 176.035 27.7805 170.758C29.4305 165.481 45.1729 98.871 51.0884 95.2003C54.9927 92.7776 67.1393 86.9707 87.5282 77.7797L88.1486 77.5002Z" fill="#4757A4"/>
<path fill-rule="evenodd" clip-rule="evenodd" d="M89.5236 78.8127C89.725 79.1459 89.6182 79.5793 89.2849 79.7807L86.1155 81.7008L84.3745 82.7603L82.0452 84.1864L79.0995 86.0122L79.0485 86.0421C79.0193 86.0584 78.998 86.0685 78.9736 86.078L78.8825 86.1097L78.8622 86.115L78.8395 86.1191C78.806 86.124 78.7566 86.1269 78.6526 86.1329L78.5861 86.1259C78.5477 86.1212 78.5193 86.1155 78.4874 86.1038L78.4608 86.0929L78.2305 86.188L77.9162 86.3245C76.8944 86.7772 75.156 87.6234 72.5688 88.939L71.1789 89.6489C65.8722 92.3685 62.9335 93.9437 59.7566 95.8325C58.641 96.4958 57.7324 97.2236 57.0469 98.0396C53.7647 101.947 51.3751 107.328 49.1902 114.859L48.9936 115.544L48.8053 116.213L48.6161 116.899C48.3148 118.001 48.003 119.189 47.6478 120.578L46.6157 124.645L46.3351 125.734C46.2722 125.976 46.2114 126.209 46.1509 126.438L46.0343 126.877L45.908 127.347L45.7847 127.799C45.7033 128.095 45.6235 128.381 45.5447 128.658L44.9546 130.721L44.4672 132.433L44.0194 134.015C40.513 146.445 38.8277 153.419 37.5115 161.52C36.12 170.085 35.6394 178.027 36.1753 185.721C35.6788 185.632 35.1981 185.492 34.7346 185.309C34.2537 177.776 34.7274 170.011 36.0578 161.679L36.1197 161.294C37.5592 152.434 39.4313 144.934 43.5975 130.338L44.1304 128.476C44.3216 127.809 44.5181 127.094 44.7295 126.297L45.0497 125.074L46.2229 120.459C46.8365 118.054 47.3202 116.244 47.836 114.466L47.9837 113.962C50.1797 106.52 52.606 101.134 55.9673 97.1326C56.7647 96.1834 57.7939 95.3591 59.036 94.6206L59.6279 94.2707L60.4057 93.8171C63.0604 92.2815 65.8016 90.8234 70.1396 88.5973L71.9249 87.6846L73.2717 87.0035L74.247 86.5161C76.0132 85.639 77.1925 85.0867 77.8765 84.8082L78.02 84.7504L78.1491 84.7001L78.2748 84.6539C78.4729 84.5842 78.6171 84.5505 78.7492 84.5515L78.7775 84.5523L80.0403 83.7666L82.0741 82.5141L85.0901 80.674C86.1247 80.0451 87.2748 79.3482 88.5556 78.574C88.8888 78.3726 89.3222 78.4795 89.5236 78.8127ZM92.8797 81.5464C93.0921 81.8727 92.9997 82.3094 92.6733 82.5218L92.2433 82.8006L91.3084 83.4019L90.1634 84.1326C84.9428 87.4536 76.5951 92.6418 74.4922 94.0124L74.3008 94.138C72.7154 95.188 71.3015 96.1761 69.9349 97.1952C66.158 100.012 62.5151 103.243 57.9203 107.898C56.4744 109.362 54.8638 112.843 53.2234 117.721C52.122 120.995 51.1961 124.269 50.2539 127.943L50.1492 128.353C48.3094 135.574 45.1474 153.148 44.3694 160.246L44.1969 161.874L46.4986 161.208L49.2643 160.417L50.6612 160.02L59.615 157.49L62.8696 156.564C69.0545 154.796 72.9547 153.627 77.4021 152.206L78.0143 152.01L78.5146 151.846L78.8809 151.723C82.1634 150.611 85.0947 149.331 90.3598 146.828L92.5375 145.79L93.7315 145.225L94.5945 144.821C99.1625 142.691 102.039 141.522 105.444 140.474C105.816 140.359 106.211 140.568 106.325 140.94C106.44 141.312 106.231 141.707 105.859 141.821L105.472 141.942L105.074 142.068L104.675 142.198C101.358 143.291 98.2906 144.618 93.132 147.069L90.5835 148.283C85.0531 150.906 82.0972 152.169 78.4495 153.351L77.4623 153.667L76.2751 154.043C71.0498 155.69 66.1372 157.117 56.6913 159.782L48.8269 162.007L47.0135 162.527L45.295 163.023C45.0081 163.107 44.7188 163.191 44.424 163.277C44.2972 163.314 44.1684 163.313 44.0493 163.282L43.7566 166.117L43.4895 168.761C43.4155 169.501 43.3451 170.215 43.2781 170.902L46.3079 169.835L51.3598 168.04L53.1501 167.412L54.2618 167.026C55.469 166.611 56.5212 166.259 57.6674 165.885L58.473 165.624L59.1729 165.403L59.7809 165.214C60.9713 164.849 62.2699 164.47 64.0567 163.962L67.707 162.929C72.998 161.424 75.6653 160.574 78.781 159.343L79.5982 159.018L80.2024 158.775C85.0115 156.83 89.2918 154.888 97.2164 151.129L103.627 148.082C106.176 146.876 107.879 146.083 109.861 145.179C110.215 145.018 110.633 145.174 110.795 145.528C110.956 145.883 110.8 146.301 110.446 146.462L108.521 147.346L107.018 148.045L105.512 148.752C104.688 149.14 103.781 149.569 102.736 150.066L97.8499 152.389C89.1724 156.506 84.8412 158.455 79.4227 160.606L78.777 160.859L78.4031 161.003L77.907 161.19C75.3052 162.163 72.7104 162.97 68.2829 164.231L64.2963 165.36L62.6696 165.826L62.0796 165.998C60.6813 166.408 59.5869 166.744 58.4056 167.127L57.2269 167.513L56.1172 167.884L55.552 168.075C54.1026 168.568 52.4979 169.131 50.2316 169.935L44.727 171.889L43.7462 172.232C43.5423 172.303 43.3279 172.275 43.1554 172.173L42.9591 174.257L42.8341 175.629C42.5909 178.34 42.4261 180.449 42.3335 182.003L42.302 182.563L42.2815 182.978L42.2672 183.311L42.2748 183.313C42.3005 183.32 42.328 183.329 42.3613 183.342L42.4826 183.392L42.6357 183.537L42.6921 183.593C42.771 183.676 42.7799 183.709 42.805 183.801L42.8292 183.926C42.835 183.959 42.836 183.973 42.8357 183.994L42.8354 184.012C42.8354 184.038 42.8343 184.062 42.8322 184.088L42.8283 184.129C42.8237 184.172 42.8162 184.229 42.8052 184.306L42.7402 184.707L42.3025 184.83C41.8003 184.97 41.3281 185.097 40.8878 185.209C40.8792 185.161 40.872 185.109 40.8658 185.053L40.8581 184.974L40.8513 184.885L40.8456 184.785C40.819 184.244 40.8424 183.348 40.9197 182.026L40.9637 181.316C41.2103 177.541 41.8154 171.012 42.8474 161.226L42.9444 160.309C43.6884 153.288 46.9078 135.364 48.7828 128.005L48.9939 127.182C49.9078 123.643 50.8136 120.463 51.8869 117.271L52.07 116.732L52.2573 116.191L52.3854 115.828C53.9218 111.503 55.4271 108.416 56.9168 106.907L57.3561 106.463L57.797 106.021L58.2401 105.58C62.2762 101.573 65.626 98.6495 69.092 96.0649C70.3941 95.094 71.7368 94.1517 73.2231 93.1612L73.5223 92.9625C75.5788 91.6005 87.3566 84.299 91.9043 81.3399C92.2307 81.1276 92.6674 81.22 92.8797 81.5464ZM59.3425 180.588C59.7291 180.635 60.0042 180.986 59.9572 181.373L59.7106 183.398H58.2901L58.5575 181.203C58.6046 180.816 58.956 180.541 59.3425 180.588ZM65.5003 178.109L65.5417 178.111C65.9298 178.143 66.2191 178.482 66.1879 178.871L65.8239 183.398H64.4092L64.7824 178.758C64.8125 178.383 65.1297 178.101 65.5003 178.109ZM70.2118 177.512L70.2532 177.514C70.6413 177.545 70.9306 177.885 70.8994 178.273L70.487 183.398H69.0723L69.4939 178.16C69.524 177.786 69.8412 177.504 70.2118 177.512ZM76.9333 174.285L76.9747 174.287C77.3628 174.319 77.6516 174.659 77.6198 175.047L76.9544 183.178C76.948 183.256 76.929 183.33 76.8997 183.399H75.6039C75.5598 183.296 75.5394 183.182 75.5491 183.063L76.2145 174.932C76.2452 174.558 76.5627 174.276 76.9333 174.285ZM91.2217 169.92L91.2631 169.921C91.6521 169.938 91.9532 170.268 91.9357 170.657L91.3621 183.398H89.9507L90.5271 170.593C90.544 170.218 90.851 169.925 91.2217 169.92ZM112.65 163.268C113.039 163.281 113.344 163.606 113.332 163.996L112.725 182.761C112.715 183.055 112.527 183.301 112.267 183.398H111.773C111.497 183.295 111.305 183.025 111.315 182.715L111.922 163.95C111.934 163.575 112.238 163.277 112.608 163.268H112.65ZM84.9606 171.558C85.339 171.65 85.5714 172.031 85.4797 172.409L84.7989 175.191L84.7546 175.383C84.665 175.778 84.6167 176.044 84.5827 176.332L84.5665 176.486L84.4145 178.871L84.3496 179.835C84.2866 180.754 84.2146 181.747 84.1402 182.661C84.1086 183.049 83.7684 183.338 83.3803 183.307C82.9923 183.275 82.7033 182.935 82.7349 182.547L82.8212 181.439L82.8913 180.478C83.0408 178.372 83.1563 176.412 83.1651 176.325L83.1825 176.166C83.2254 175.802 83.2873 175.469 83.4011 174.976L83.5294 174.443L84.1094 172.077C84.2011 171.699 84.5822 171.467 84.9606 171.558ZM106.809 165.359C107.194 165.414 107.462 165.772 107.406 166.157L107.124 168.075L106.054 175.143L106.036 175.274L106.011 175.497L105.994 175.661L105.972 175.896C105.942 176.242 105.918 176.622 105.894 177.126L105.676 182.456C105.66 182.845 105.331 183.147 104.942 183.13C104.553 183.113 104.251 182.784 104.268 182.395L104.466 177.496L104.486 177.052L104.51 176.575L104.526 176.323C104.549 175.959 104.576 175.653 104.609 175.344L104.641 175.07L104.686 174.755L104.826 173.821C105.109 171.957 105.637 168.538 106.01 165.956C106.066 165.57 106.424 165.303 106.809 165.359ZM97.7886 167.882L97.83 167.884C98.2185 167.91 98.5124 168.246 98.4864 168.634L97.5731 182.297C97.5471 182.686 97.2111 182.98 96.8226 182.954C96.4341 182.928 96.1402 182.592 96.1662 182.203L97.0796 168.54C97.1046 168.166 97.4179 167.879 97.7886 167.882ZM114.449 157.006C114.603 157.363 114.438 157.778 114.08 157.932L113.66 158.113L111.838 158.91L107.381 160.898C100.5 163.958 96.8408 165.412 92.4299 166.688L90.5555 167.228C89.7646 167.455 88.9323 167.692 88.0298 167.948L81.0744 169.919L77.8774 170.832C71.8877 172.55 68.1666 173.676 63.8931 175.069L62.9995 175.362L62.0959 175.662C55.5048 177.865 49.6751 180.121 44.1899 182.643C43.8362 182.806 43.4175 182.651 43.2548 182.297C43.0921 181.944 43.247 181.525 43.6007 181.362C49.5101 178.644 55.8082 176.237 63.0051 173.876L64.2918 173.457C68.9958 171.936 73.2376 170.68 80.9061 168.501L88.1293 166.454L90.523 165.77L91.6318 165.451L92.3108 165.254L92.7047 165.138C96.7584 163.926 100.35 162.483 106.84 159.595L111.383 157.57L112.206 157.208L112.885 156.912L113.523 156.637C113.881 156.483 114.295 156.648 114.449 157.006ZM118.957 158.784L118.999 158.786C119.387 158.81 119.683 159.144 119.659 159.533L119.298 165.329L119.256 166.082L119.228 166.643L119.214 166.972C119.203 167.238 119.195 167.488 119.19 167.743L119.182 168.17L119.157 175.619L119.144 177.864C119.138 178.805 119.132 179.743 119.124 180.642C119.12 181.031 118.802 181.344 118.413 181.341C118.023 181.337 117.71 181.019 117.714 180.63L117.747 175.52C117.766 171.641 117.77 168.248 117.773 168.09L117.782 167.618L117.792 167.278L117.809 166.813C117.821 166.532 117.835 166.233 117.854 165.893L117.935 164.532L118.252 159.446C118.275 159.071 118.587 158.783 118.957 158.784ZM160.284 161.961C160.519 162.272 160.457 162.714 160.146 162.948L159.838 163.182L159.633 163.339L159.328 163.576C156.438 165.841 154.019 168.235 149.728 172.87L147.516 175.267L146.76 176.08C144.833 178.146 143.577 179.431 142.092 180.845C141.81 181.113 141.364 181.102 141.095 180.82C140.827 180.538 140.838 180.092 141.12 179.824L141.606 179.357L142.026 178.948L142.277 178.702C143.559 177.434 144.859 176.064 146.848 173.913L148.7 171.906C153.441 166.784 155.936 164.355 159.297 161.822C159.608 161.588 160.05 161.65 160.284 161.961ZM166.503 176.318C166.581 176.7 166.335 177.072 165.953 177.15C164.574 177.431 163.478 177.963 162.135 178.927L161.933 179.074L161.616 179.314L160.824 179.923C160.306 180.323 159.803 180.715 159.685 180.805C159.374 181.04 158.932 180.979 158.697 180.669C158.462 180.359 158.522 179.916 158.833 179.681L160.604 178.313L161.019 177.997L161.168 177.886C162.724 176.75 164.023 176.104 165.671 175.768C166.053 175.69 166.425 175.937 166.503 176.318ZM170.283 163.531C170.441 163.887 170.28 164.304 169.924 164.461C159.308 169.16 152.687 173.616 147.136 180.536C146.893 180.839 146.449 180.888 146.145 180.645C145.841 180.401 145.793 179.957 146.036 179.653C151.751 172.529 158.549 167.954 169.353 163.172C169.709 163.014 170.125 163.175 170.283 163.531ZM167.598 171.837C167.713 172.209 167.503 172.603 167.131 172.717C164.14 173.634 161.523 174.932 158.348 176.958L157.892 177.251L157.499 177.508L157.091 177.777C156.766 177.992 156.423 178.223 156.049 178.475L153.587 180.152C153.266 180.371 152.827 180.288 152.608 179.966C152.389 179.644 152.472 179.206 152.794 178.987L155.108 177.41L155.581 177.09L156.215 176.666L156.723 176.33C156.943 176.186 157.157 176.047 157.368 175.911L157.804 175.633C160.983 173.621 163.659 172.307 166.718 171.369C167.09 171.255 167.484 171.464 167.598 171.837ZM132.442 157.534C132.831 157.546 133.136 157.871 133.124 158.26L132.459 179.38C132.447 179.769 132.122 180.075 131.732 180.062C131.343 180.05 131.038 179.725 131.05 179.336L131.715 158.216C131.727 157.841 132.03 157.543 132.4 157.534H132.442ZM125.432 157.957C125.821 157.967 126.129 158.29 126.12 158.679L125.648 178.701C125.639 179.091 125.316 179.399 124.926 179.39C124.537 179.38 124.229 179.057 124.238 178.668L124.71 158.646C124.72 158.257 125.043 157.949 125.432 157.957ZM111.228 151.019C111.366 151.383 111.183 151.79 110.818 151.928L109.771 152.326C103.458 154.742 97.7523 157.171 87.9168 161.538L82.0206 164.16L80.5183 164.826L79.5663 165.246L78.1937 165.849C63.5688 172.262 54.3287 175.791 43.6704 178.741C43.2951 178.845 42.9067 178.625 42.8028 178.25C42.699 177.875 42.919 177.486 43.2942 177.383C54.4245 174.302 64.0159 170.577 79.9516 163.535L88.6226 159.683L91.1225 158.578L92.4639 157.989C99.8265 154.759 104.741 152.721 110.319 150.609C110.683 150.471 111.09 150.655 111.228 151.019ZM152.688 155.663C153.053 155.797 153.242 156.202 153.108 156.567L152.405 158.539L152.353 158.681C152.144 159.232 151.953 159.66 151.72 160.079C151.238 160.946 150.566 161.784 149.394 162.977L149.305 163.066C148.977 163.383 148.646 163.604 148.029 163.957L147.609 164.194L147.395 164.32C146.953 164.584 146.726 164.761 146.519 165.001L146.439 165.096L146.359 165.194L146.281 165.293C145.949 165.725 145.66 166.216 145.192 167.099L144.907 167.637L144.746 167.938L144.63 168.149C144.313 168.722 144.076 169.096 143.773 169.497L143.564 169.77L143.158 170.294L142.845 170.695C141.401 172.53 140.589 173.39 139.997 173.637L139.96 173.651L139.239 175.123C139.067 175.472 138.644 175.615 138.295 175.443C137.946 175.27 137.802 174.848 137.975 174.499L138.801 172.815L138.855 172.711C138.905 172.62 138.946 172.556 139.01 172.488C139.153 172.333 139.358 172.232 139.585 172.246L139.604 172.247L139.676 172.185L139.749 172.118L139.831 172.039L139.922 171.948L140.041 171.825L140.181 171.676L140.282 171.564C140.821 170.968 141.56 170.064 142.526 168.807L142.684 168.599C142.985 168.194 143.227 167.789 143.622 167.051L144.008 166.322L144.177 166.008L144.296 165.791C144.702 165.06 144.999 164.613 145.402 164.138L145.45 164.081C145.846 163.622 146.223 163.358 147.051 162.89L147.311 162.742L147.461 162.657L147.61 162.568C147.964 162.356 148.169 162.206 148.357 162.02L148.388 161.989C149.478 160.879 150.077 160.133 150.487 159.394C150.668 159.069 150.822 158.73 150.991 158.293L151.061 158.109L151.784 156.084C151.917 155.718 152.322 155.53 152.688 155.663ZM126.109 85.392L126.423 85.6781L126.801 86.0302L127.099 86.3124L127.647 86.8324L128.07 87.2292L128.254 87.3987C128.757 87.8605 129.121 88.1702 129.532 88.4855L129.851 88.7271L130.115 88.923L130.285 89.0478C131.137 89.6702 132.019 90.27 133.387 91.1685L135.453 92.5182L136.223 93.0255L136.678 93.3287C139.141 94.9764 140.528 96.031 142.055 97.441C144.949 100.112 146.469 104.681 147.052 110.863L147.079 111.165L147.106 111.466L147.13 111.764C147.332 114.298 147.367 116.719 147.32 120.436L147.289 122.93L147.288 123.452L147.29 123.777C147.291 123.879 147.293 123.977 147.295 124.076L147.353 126.303L147.392 127.858L147.416 128.883C147.621 137.72 147.693 145.497 147.62 152.984C147.615 153.488 147.429 153.865 147.04 154.379L146.861 154.612C146.578 154.974 146.32 155.256 145.845 155.729L145.298 156.27L145.15 156.418C144.511 157.064 144.206 157.443 143.943 157.931L143.811 158.181L143.746 158.308L143.678 158.444C143.297 159.21 143.023 159.931 142.525 161.384L142.36 161.866C141.297 164.994 140.5 166.485 138.649 168.097C138.455 168.266 138.178 168.34 137.899 168.231C137.708 168.156 137.597 168.037 137.517 167.895C137.493 167.852 137.475 167.812 137.459 167.77L137.437 167.707L137.411 167.62L137.403 167.603C137.274 167.291 137.385 166.927 137.672 166.742L137.709 166.719C137.832 166.65 137.967 166.622 138.098 166.63L138.157 166.636L138.174 166.62C139.432 165.4 140.084 164.132 140.929 161.693L141.305 160.594L141.486 160.078L141.579 159.818C141.957 158.772 142.229 158.153 142.65 157.36L142.701 157.264C143.089 156.543 143.509 156.054 144.454 155.121L144.838 154.742L145.036 154.543C145.301 154.274 145.481 154.077 145.65 153.869L145.868 153.592L145.945 153.49C146.135 153.232 146.209 153.079 146.21 152.97L146.221 151.718L146.227 150.864L146.233 149.578C146.261 142.554 146.165 135.179 145.957 126.841L145.882 123.911L145.878 123.465L145.881 122.74C145.883 122.43 145.888 122.058 145.894 121.591L145.912 120.206L145.921 119.346L145.927 118.461C145.939 115.523 145.872 113.431 145.662 111.149L145.648 110.995C145.095 105.129 143.672 100.853 141.099 98.4769L140.876 98.2726L140.631 98.0526L140.471 97.9109C138.999 96.6199 137.473 95.5302 134.669 93.6896L132.605 92.3418L131.939 91.9022L131.522 91.6246C130.451 90.9082 129.692 90.3725 128.863 89.7484L128.673 89.6038L128.481 89.4546L128.356 89.3545L128.168 89.2011C127.771 88.8711 127.357 88.4963 126.772 87.9452L125.716 86.9461L125.499 86.7439L125.278 86.5414C125.241 86.5082 125.204 86.4748 125.166 86.4408C124.877 86.1806 124.853 85.7348 125.113 85.4452C125.373 85.1556 125.819 85.1317 126.109 85.392ZM91.753 142.6C91.9016 142.96 91.7303 143.372 91.3704 143.521L90.5501 143.86L88.7704 144.599L87.6458 145.067C86.1599 145.688 84.7236 146.293 83.276 146.907L77.338 149.435C74.0738 150.818 72.5132 151.417 70.8002 151.917L70.4254 152.025L70.1585 152.098L69.7527 152.206C68.518 152.526 67.0849 152.823 64.3166 153.352L59.0005 154.362L57.1015 154.728C53.7544 155.375 51.0254 155.924 46.9108 156.776C46.5296 156.855 46.1565 156.609 46.0776 156.228C45.9987 155.847 46.2438 155.474 46.6251 155.395L48.9697 154.912L51.1353 154.47L52.9136 154.113C55.0755 153.682 57.1462 153.28 59.755 152.783L64.6024 151.862L65.587 151.671C67.9087 151.216 69.0484 150.954 70.2581 150.606L70.6398 150.494L70.9575 150.397L71.2771 150.295C72.5635 149.878 73.9675 149.326 76.3398 148.326L82.3513 145.767L84.221 144.976L85.3461 144.502L86.7611 143.909C88.0691 143.362 89.4122 142.804 90.8324 142.218C91.1923 142.069 91.6045 142.24 91.753 142.6ZM95.207 84.3677C95.4833 84.642 95.4848 85.0884 95.2104 85.3647L94.7881 85.7914L94.143 86.4488L93.8133 86.7871C93.2592 87.357 92.6808 87.9583 92.0606 88.6084L90.7432 89.996L87.2645 93.6867C82.1196 99.1312 78.9673 102.257 75.3958 105.294L74.7665 105.823L72.3407 107.826C71.0534 108.883 69.8357 109.879 69.6326 110.048C64.9938 113.909 62.2539 116.797 59.7383 120.876C57.1194 125.123 55.3663 130.075 54.3067 135.808C53.4309 140.545 53.0449 145.613 52.9633 151.839C52.9582 152.228 52.6384 152.54 52.2491 152.535C51.8598 152.529 51.5483 152.21 51.5531 151.82C51.6359 145.522 52.0276 140.38 52.9202 135.551C54.0095 129.658 55.82 124.544 58.5381 120.136C61.1101 115.966 63.9037 113 68.5282 109.133L72.4697 105.894L73.6862 104.888L74.2158 104.445L74.7118 104.024L75.0575 103.726L75.4015 103.428C78.6438 100.597 81.7209 97.5082 86.5779 92.36L89.8133 88.9272L90.3598 88.3504C91.8155 86.8167 93.0349 85.5544 94.21 84.3711C94.4844 84.0948 94.9307 84.0933 95.207 84.3677ZM95.4509 91.0743C95.707 91.3676 95.6769 91.8129 95.3836 92.0691L90.5257 96.2998L89.8357 96.9048L88.7937 97.8243L88.4008 98.1732C87.6273 98.8617 86.9251 99.4954 86.2511 100.114L86.0832 100.268C79.9963 105.871 75.8245 110.692 71.8152 117.116C70.5268 119.181 69.5039 121.409 68.6179 123.98L68.5267 124.247C67.885 126.146 67.4282 127.797 66.6473 130.932L65.9682 133.669L65.7596 134.496L65.6272 135.012C65.4713 135.613 65.3334 136.125 65.1707 136.71C65.0034 137.312 64.8366 137.887 64.6669 138.444L64.5206 138.917L64.3815 139.359L64.2063 139.903C63.7348 141.351 63.2167 142.798 62.376 145.051L60.8759 149.056L60.6604 149.641L60.4078 150.336C60.3798 150.414 60.3516 150.492 60.323 150.571C60.1913 150.938 59.7875 151.128 59.4211 150.996C59.0547 150.865 58.8644 150.461 58.9961 150.094L59.2544 149.381L59.4924 148.732L59.7042 148.161L61.1065 144.42L61.5246 143.292L61.7262 142.742C62.3099 141.142 62.7098 139.975 63.1101 138.703L63.2349 138.303C63.4021 137.764 63.5661 137.208 63.7301 136.626L63.9503 135.831L64.126 135.178C64.3406 134.368 64.5662 133.472 64.9333 131.988L65.3628 130.256L65.6537 129.105C66.1946 126.99 66.5911 125.599 67.0879 124.103L67.1909 123.796C68.1308 121.014 69.224 118.605 70.619 116.37C74.6469 109.916 78.8408 105.045 84.8823 99.4579L85.1283 99.231C86.3827 98.0763 87.7205 96.8823 89.4201 95.3937L94.4562 91.007C94.7494 90.7509 95.1948 90.781 95.4509 91.0743ZM96.975 93.253C97.3109 93.4499 97.4236 93.8818 97.2268 94.2177L94.8853 98.2252L93.6133 100.417C93.188 101.153 92.8243 101.785 92.5194 102.319L92.0729 103.104L91.8299 103.537L91.7656 103.659L91.7176 103.747L91.6702 103.831L91.6368 103.884L91.6025 103.93C91.5894 103.946 91.5766 103.958 91.5127 104.021L91.4772 104.048L91.4274 104.083L91.3496 104.124L91.2247 104.168L91.0257 104.187L91.0133 104.183L90.7397 104.561L90.3141 105.158L89.9449 105.685C89.6857 106.056 89.4002 106.469 89.0879 106.924L88.386 107.952C88.0211 108.489 87.636 109.132 87.2316 109.876C86.5878 111.061 85.9091 112.472 85.1689 114.142L84.9377 114.667L84.6091 115.436L82.3891 120.724C82.0085 121.625 81.7023 122.338 81.5706 122.615L81.4526 122.856L81.3661 123.029C80.9906 123.775 80.5991 124.47 79.9493 125.559L78.9704 127.188L78.6767 127.682C77.9354 128.938 77.5186 129.716 77.1028 130.634L76.8837 131.123L76.6955 131.548L76.505 131.984C75.2893 134.782 74.5056 136.945 73.8714 139.181L73.8271 139.338C73.6299 140.043 73.4416 140.772 73.2399 141.607L73.0914 142.232L71.8427 147.706C71.7546 148.085 71.3758 148.321 70.9965 148.233C70.6172 148.145 70.3811 147.766 70.4692 147.387L71.7541 141.759L71.8696 141.275L71.9713 140.858C72.1394 140.177 72.301 139.559 72.4694 138.958L72.5609 138.635C73.2857 136.111 74.203 133.662 75.6884 130.341L75.784 130.128C76.2922 128.998 76.7812 128.102 77.766 126.455L78.7314 124.848L78.9402 124.497L79.1546 124.132C79.6078 123.355 79.9131 122.792 80.2222 122.163L80.3159 121.97L80.3914 121.804L80.5444 121.456C81.2804 119.759 83.1308 115.277 83.6912 113.998L83.8809 113.568L84.0682 113.148C84.7503 111.629 85.384 110.323 85.9927 109.203C86.4179 108.42 86.8263 107.738 87.2199 107.159L87.9204 106.133L88.3634 105.49C89.683 103.581 90.4592 102.533 90.8055 102.175C90.8748 102.103 90.9375 102.046 91.0056 101.998C91.0305 101.981 91.056 101.965 91.0827 101.95L91.1172 101.931L92.2035 100.039L93.0439 98.5874C93.7087 97.442 94.4917 96.099 95.4005 94.546L96.0103 93.5048C96.2071 93.1689 96.639 93.0562 96.975 93.253ZM99.5489 95.3249C99.909 95.4313 100.12 95.7998 100.036 96.1608L98.5678 101.254L97.9503 103.367L97.6907 104.242C97.6684 104.316 97.6469 104.388 97.6262 104.456L97.5319 104.767C96.5205 108.073 95.6025 110.689 94.683 112.765C93.1206 116.293 91.521 119.268 89.2471 123.019L88.8548 123.662L85.3312 129.355C83.9357 131.634 82.7587 133.641 81.5854 135.77L81.3281 136.24L81.1469 136.577C80.3582 138.055 79.7031 139.47 78.4868 142.233L77.8021 143.788L77.5255 144.41L77.2548 145.011C77.1255 145.296 77.0018 145.565 76.8686 145.851C76.7043 146.204 76.2849 146.357 75.9319 146.192C75.5789 146.028 75.426 145.609 75.5903 145.256L75.9176 144.545L76.2278 143.858L76.9023 142.334L77.5818 140.792L77.9796 139.9L78.2732 139.25C78.9568 137.749 79.4642 136.719 80.0757 135.592L80.1811 135.398C81.3043 133.348 82.4207 131.427 83.7141 129.298L84.3597 128.243L87.5788 123.046L87.7146 122.824C90.1357 118.863 91.7854 115.826 93.3938 112.194C94.2453 110.272 95.1054 107.843 96.0483 104.795L96.2625 104.095C96.525 103.226 96.9343 101.825 97.3416 100.42L98.673 95.8011C98.7834 95.4277 99.1755 95.2145 99.5489 95.3249ZM103.563 99.1889C103.931 99.3171 104.125 99.7191 103.996 100.087L102.417 104.602L100.936 108.814L100.125 111.108C99.2962 113.447 98.5324 115.587 97.8223 117.561L96.5586 121.055L96.4101 121.462L93.4981 129.395L93.2547 130.073C92.5669 132.017 92.1721 133.438 89.6904 142.313C89.5855 142.688 89.1965 142.907 88.8215 142.802C88.4466 142.697 88.2276 142.308 88.3325 141.933L89.9525 136.149C91.0995 132.074 91.4351 130.979 91.9711 129.474L92.5358 127.92L94.97 121.295L95.7387 119.181L96.6608 116.624L97.5444 114.156C99.0075 110.058 100.688 105.292 102.665 99.6224C102.793 99.2547 103.195 99.0607 103.563 99.1889ZM110.133 97.5063C110.505 97.6206 110.714 98.015 110.6 98.3872L109.548 101.831L109.54 101.863L109.55 101.891C109.574 101.967 109.59 102.051 109.6 102.154L109.605 102.218L109.608 102.292L109.609 102.369L109.608 102.451C109.577 103.85 108.773 108.194 106.716 117.482L106.229 119.669L105.965 120.826C105.404 123.26 104.816 125.601 103.856 129.263L102.065 136.051L101.754 137.244L101.471 138.34C101.409 138.581 101.347 138.824 101.284 139.073C101.188 139.45 100.804 139.678 100.427 139.582C100.05 139.486 99.8216 139.102 99.9176 138.725L100.404 136.834L100.904 134.92L102.268 129.758L102.745 127.937L103.068 126.695C103.837 123.717 104.339 121.649 104.868 119.293L105.332 117.209L105.75 115.309L106.106 113.673C107.613 106.703 108.204 103.346 108.201 102.404L108.199 102.327L108.187 102.306C108.091 102.113 108.087 101.928 108.138 101.684L108.182 101.473C108.223 101.318 108.392 100.77 109.252 97.9731C109.366 97.6009 109.761 97.3919 110.133 97.5063ZM115.835 103.026C116.213 103.12 116.442 103.503 116.348 103.881L115.157 108.662L114.82 110.042C114.31 112.157 114.194 112.814 114.061 113.869L113.944 114.841C113.842 115.74 113.433 119.389 113.196 121.357L113.009 122.889L112.803 124.534L112.666 125.609C112.245 128.893 111.732 132.697 111.094 137.229C111.039 137.615 110.683 137.883 110.297 137.829C109.912 137.775 109.643 137.418 109.697 137.033L110.097 134.169L110.487 131.332L110.777 129.179C111.095 126.794 111.37 124.658 111.609 122.717L111.871 120.555L112.284 116.974C112.432 115.668 112.551 114.609 112.566 114.48L112.678 113.566C112.896 111.864 113.102 111.059 114.98 103.539C115.074 103.161 115.457 102.932 115.835 103.026ZM120.31 97.8472C120.685 97.8615 120.98 98.1664 120.988 98.537L120.988 98.5693L120.741 104.792L120.567 109.533C120.533 110.521 120.508 111.317 120.499 111.761L120.496 111.989C120.487 113.291 120.677 122.518 120.741 126.632C120.747 127.021 120.437 127.342 120.047 127.348C119.658 127.354 119.338 127.043 119.331 126.654L119.118 114.671C119.1 113.562 119.088 112.687 119.086 112.213L119.086 111.98C119.091 111.176 119.224 107.547 119.351 104.254L119.579 98.5251C119.593 98.136 119.921 97.8325 120.31 97.8472ZM128.44 92.2684C129.659 93.9306 130.83 95.3434 132.156 96.7967L132.436 97.1008L133.229 97.9432L135.011 99.8274C135.151 99.9769 135.277 100.112 135.383 100.227L135.601 100.464C138.777 103.985 140.306 107.263 141.511 114.101C141.579 114.484 141.323 114.85 140.939 114.917C140.556 114.985 140.19 114.729 140.122 114.345L140.053 113.954L139.984 113.583L139.913 113.212C138.813 107.524 137.43 104.653 134.732 101.607L134.554 101.408C134.029 100.826 131.851 98.5479 131.33 97.9818C129.882 96.4102 128.62 94.8972 127.303 93.1023C127.073 92.7883 127.141 92.3471 127.455 92.1169C127.769 91.8866 128.21 91.9544 128.44 92.2684ZM125.484 94.8341L126.54 113.127C126.562 113.516 126.265 113.849 125.877 113.872C125.488 113.894 125.154 113.597 125.132 113.209L124.076 94.9153C124.053 94.5266 124.35 94.1933 124.739 94.1709C125.128 94.1484 125.461 94.4454 125.484 94.8341ZM129.367 98.9149L133.371 112.613C133.48 112.986 133.266 113.378 132.892 113.487C132.518 113.596 132.127 113.382 132.017 113.008L128.014 99.3104C127.905 98.9367 128.119 98.5452 128.493 98.4359C128.867 98.3267 129.258 98.5411 129.367 98.9149Z" fill="#5463AC"/>
<path opacity="0.5" fill-rule="evenodd" clip-rule="evenodd" d="M104.562 93.7397L115.523 100.54L122.422 92.5657L117.643 89.1361L114.811 93.7397L109.929 89.1361L108.396 88.5475L104.562 93.7397Z" fill="#21396E"/>
<path opacity="0.5" fill-rule="evenodd" clip-rule="evenodd" d="M140.353 147.352C141.692 167.459 147.103 178.362 156.586 180.063H136.279L137.527 155.62L140.353 147.352Z" fill="#21396E"/>
<path opacity="0.5" fill-rule="evenodd" clip-rule="evenodd" d="M122.856 155.62C124.116 161.869 121.333 165.957 114.507 167.882C104.267 170.77 93.3826 183.645 78.8959 183.645C69.2381 183.645 58.7576 183.634 47.4544 183.613C55.3945 181.244 63.8846 178.513 72.9246 175.419C81.9647 172.325 95.4338 167.541 113.332 161.067C114.592 160.23 115.271 159.369 115.368 158.483C115.466 157.597 115.514 157.154 115.514 157.154C117.357 156.575 118.739 156.19 119.66 155.997C120.582 155.805 121.647 155.679 122.856 155.62Z" fill="#21396E"/>
<path opacity="0.5" fill-rule="evenodd" clip-rule="evenodd" d="M80.0206 112.597L81.4854 144.637L66.1902 148.824L80.0206 112.597Z" fill="#21396E"/>
<path fill-rule="evenodd" clip-rule="evenodd" d="M121.446 120.9H142.361L139.824 153.965C139.767 154.712 139.271 155.354 138.563 155.598C137.183 156.075 134.963 156.313 131.904 156.313L131.561 156.312C128.678 156.295 126.572 156.057 125.244 155.598C124.536 155.354 124.04 154.712 123.983 153.965L121.446 120.9Z" fill="#E2E0E0"/>
<path fill-rule="evenodd" clip-rule="evenodd" d="M142.361 120.9L139.824 153.965C139.767 154.712 139.272 155.354 138.563 155.598C137.183 156.075 134.963 156.313 131.904 156.313C129.68 156.313 129.395 144.538 131.05 120.989L142.361 120.9Z" fill="white"/>
<path fill-rule="evenodd" clip-rule="evenodd" d="M121.952 117.375H141.692C142.471 117.375 143.102 118.006 143.102 118.785V120.9H120.542V118.785C120.542 118.006 121.173 117.375 121.952 117.375Z" fill="#80424C"/>
<path fill-rule="evenodd" clip-rule="evenodd" d="M124.266 113.85H139.306C140.085 113.85 140.716 114.481 140.716 115.26V117.375H122.856V115.26C122.856 114.481 123.487 113.85 124.266 113.85Z" fill="#80424C"/>
<path fill-rule="evenodd" clip-rule="evenodd" d="M133.666 117.375H141.656C142.435 117.375 143.066 118.006 143.066 118.785V120.9H132.256V118.785C132.256 118.006 132.887 117.375 133.666 117.375Z" fill="#8E545E"/>
<path fill-rule="evenodd" clip-rule="evenodd" d="M136.016 113.85H139.306C140.085 113.85 140.716 114.481 140.716 115.26V117.375H134.606V115.26C134.606 114.481 135.237 113.85 136.016 113.85Z" fill="#8E545E"/>
<path d="M140.716 116.905C140.976 116.905 141.186 117.115 141.186 117.375C141.186 117.622 140.994 117.825 140.751 117.843L140.716 117.845H127.167C126.907 117.845 126.697 117.634 126.697 117.375C126.697 117.127 126.888 116.924 127.132 116.906L127.167 116.905H140.716Z" fill="#5F2932"/>
<path d="M143.022 120.312C143.281 120.312 143.492 120.522 143.492 120.782C143.492 121.03 143.3 121.233 143.057 121.251L143.022 121.252H123.362C123.103 121.252 122.892 121.042 122.892 120.782C122.892 120.534 123.084 120.331 123.327 120.313L123.362 120.312H143.022Z" fill="#5F2932"/>
<path fill-rule="evenodd" clip-rule="evenodd" d="M120.412 72.0959C120.095 74.1318 119.937 75.9332 119.937 77.5002L119.185 85.716L115.18 93.5936L106.754 90.3809L93.2219 78.0869L90.7311 72.6034C95.9495 63.1982 99.0566 54.9219 100.053 47.7744L113.889 45.2764L122.468 62.2002L120.412 72.0959Z" fill="#FDB4A3"/>
<path fill-rule="evenodd" clip-rule="evenodd" d="M100.957 50.301C101.17 61.3844 103.335 67.8723 107.45 69.7648C113.623 72.6034 125.087 76.5758 127.234 72.6034C129.382 68.631 133.983 59.1849 135.747 53.7726C136.922 50.1644 138.411 45.5107 140.213 39.8115C142.639 32.6152 139.809 27.9643 131.724 25.8587C123.64 23.7532 113.083 22.7143 100.053 22.7422L103.257 41.5329C101.679 39.4045 99.5931 38.3403 96.9984 38.3403C93.1064 38.3403 90.9702 48.0354 94.9623 49.1682C97.6237 49.9234 99.6218 50.301 100.957 50.301Z" fill="#FDB4A3"/>
<path d="M119.226 61.1494C119.432 60.9916 119.727 61.0308 119.885 61.2369C121.844 63.7959 124.242 64.8292 127.14 64.3765C127.397 64.3364 127.637 64.5119 127.677 64.7683C127.717 65.0248 127.542 65.2652 127.285 65.3052C124.037 65.8126 121.301 64.6337 119.138 61.8083C118.981 61.6022 119.02 61.3072 119.226 61.1494Z" fill="#583E40"/>
<path fill-rule="evenodd" clip-rule="evenodd" d="M99.8842 50.1394C101.517 50.9105 102.142 52.6031 101.76 55.2169L101.742 55.3346C101.114 59.3558 103.119 65.2153 104.356 67.4901C105.18 69.0067 110.407 71.1015 120.037 73.7746L114.566 74.5629C111.935 74.9421 110.109 77.3822 110.488 80.0131C110.514 80.1912 110.55 80.3675 110.595 80.5415L110.631 80.6715C111.637 84.128 115.11 85.7165 115.179 93.3601L115.18 93.5936L106.754 90.3809L93.2219 78.0869L90.7311 72.6034C95.3279 64.3185 98.2864 56.9095 99.6068 50.3765L99.8842 50.1394Z" fill="#F69883"/>
<path fill-rule="evenodd" clip-rule="evenodd" d="M105.662 91.2981L115.576 100.54L121.583 90.2466L117.323 87.1747L114.799 91.2981L110.447 87.1747L109.08 86.6476L105.662 91.2981Z" fill="#D8D8D8"/>
<path fill-rule="evenodd" clip-rule="evenodd" d="M142.557 125.42C143.947 125.976 144.07 126.645 144.07 127.254C144.07 127.864 141.867 129.415 140.503 129.803C139.138 130.191 132.477 136.835 132.477 136.835L132.755 136.675C137.264 134.082 139.98 132.878 140.902 133.062C142.314 133.343 143.246 135.558 142.057 136.604L141.967 136.682C141.402 137.162 140.403 137.87 138.971 138.805L138.907 138.846L138.944 138.826C140.419 138.002 141.378 137.757 141.822 138.089C142.789 138.814 143.403 140.166 143.403 140.801C143.403 141.225 142.779 141.844 141.531 142.658C142.705 143.901 142.495 145.202 140.902 146.562L140.752 146.688C138.184 148.811 130.214 153.885 128.546 154.624C127.06 155.283 120.99 155.312 115.514 157.154C116.34 152.792 115.267 147.127 112.294 140.158L112.099 139.707C111.945 139.353 111.742 139.034 111.502 138.754L111.722 138.681C113.595 138.061 114.621 137.571 114.8 137.212C115.155 136.499 116.206 130.483 116.845 130.191L116.88 130.174C117.358 129.931 119.019 128.671 121.864 126.394L122.53 135.306L126.212 133.102C130.511 130.519 133.173 128.883 134.198 128.193L134.311 128.116C136.06 126.915 141.167 124.864 142.557 125.42ZM138.862 138.876L138.906 138.846L138.86 138.873C138.211 139.239 137.465 139.715 136.622 140.299L137.186 139.946C137.797 139.562 138.356 139.205 138.862 138.876Z" fill="#FDB4A3"/>
<path d="M79.8236 111.832C79.9145 111.589 80.1853 111.466 80.4284 111.557C80.66 111.643 80.7829 111.893 80.7156 112.127L80.704 112.162L67.208 148.247L67.2617 148.236C70.6058 147.568 83.4217 144.044 105.358 137.751L107.483 137.141C109.524 136.555 111.684 137.573 112.53 139.52C116.047 147.608 117.081 154.019 115.597 158.765C115.141 160.223 114.036 161.388 112.604 161.92C67.7353 178.569 47.5197 185.042 42.008 185.042C41.7484 185.042 41.538 184.832 41.538 184.572C41.538 184.313 41.7484 184.102 42.008 184.102C47.3479 184.102 67.5857 177.622 112.277 161.038C113.436 160.608 114.331 159.665 114.7 158.485C116.103 153.996 115.104 147.795 111.668 139.895C111.01 138.38 109.33 137.589 107.743 138.045L103.164 139.358C79.9627 146.002 67.8867 149.278 66.4959 149.294C66.1775 149.297 65.9514 148.991 66.0394 148.692L66.0505 148.659L79.8236 111.832Z" fill="#21396E"/>
<path d="M66.3838 148.366C66.6365 148.307 66.8893 148.464 66.9484 148.717C67.0048 148.958 66.8642 149.199 66.6315 149.272L66.5977 149.281L48.6258 153.481C48.373 153.54 48.1202 153.383 48.0612 153.13C48.0048 152.889 48.1453 152.647 48.378 152.575L48.4119 152.565L66.3838 148.366Z" fill="#21396E"/>
<path d="M137.553 157.674C137.801 157.688 137.993 157.89 137.997 158.134L137.996 158.169L136.58 183.424C136.565 183.683 136.344 183.882 136.084 183.867C135.837 183.853 135.645 183.65 135.641 183.407L135.641 183.371L137.058 158.117C137.072 157.869 137.275 157.677 137.518 157.673L137.553 157.674Z" fill="#21396E"/>
<path fill-rule="evenodd" clip-rule="evenodd" d="M110.447 87.1021C106.365 90.0985 104.496 94.029 104.841 98.8935C94.6102 88.7495 88.817 81.9374 87.4619 78.4571C88.6445 74.8778 89.7343 72.9266 90.7311 72.6034L110.447 87.1021Z" fill="white"/>
<path fill-rule="evenodd" clip-rule="evenodd" d="M117.323 87.1747C120.279 90.1531 121.757 93.4421 121.757 97.042C123.464 93.9975 123.917 88.5275 123.116 80.632L119.99 77.3608L118.795 80.632L117.323 87.1747Z" fill="white"/>
<path d="M130.27 48.5629L130.305 48.5645C130.564 48.5861 130.756 48.8133 130.735 49.072C130.505 51.8214 130.491 53.9174 130.61 56.316L130.65 57.0407C130.667 57.3341 130.694 57.802 130.702 57.9512L130.716 58.2246C130.725 58.424 130.732 58.594 130.734 58.7489L130.736 58.8782L130.738 59.1377L130.52 59.2777C128.364 60.6598 126.337 60.4304 124.594 58.6029C124.415 58.4151 124.422 58.1175 124.61 57.9384C124.797 57.7592 125.095 57.7662 125.274 57.9541C126.618 59.3631 128.048 59.6011 129.692 58.6792L129.791 58.6221L129.784 58.4227C129.782 58.3725 129.78 58.3201 129.777 58.2654L129.698 56.8697C129.549 54.2158 129.549 51.9813 129.798 48.9939C129.818 48.7469 130.026 48.5606 130.27 48.5629Z" fill="#2E363A"/>
<path fill-rule="evenodd" clip-rule="evenodd" d="M118.953 40.4548L119.339 40.2386L119.718 40.0286C123.506 37.9496 125.776 37.198 126.529 37.7738C127.847 38.7821 126.456 41.3912 123.481 41.6648C122.081 41.7936 120.707 41.7516 119.359 41.5387L119.135 41.5016C118.828 41.4487 118.622 41.1569 118.675 40.85C118.704 40.6832 118.806 40.5381 118.953 40.4548Z" fill="#2E363A"/>
<path fill-rule="evenodd" clip-rule="evenodd" d="M140.756 44.1852L140.496 43.911L140.309 43.7151C137.702 41.0077 136.009 39.7874 135.228 40.0542C133.873 40.5173 134.324 42.9723 136.703 43.9701C137.822 44.4397 138.966 44.7656 140.133 44.9476L140.328 44.9766C140.595 45.0145 140.842 44.8345 140.88 44.5747C140.901 44.4335 140.856 44.2905 140.756 44.1852Z" fill="#2E363A"/>
<path fill-rule="evenodd" clip-rule="evenodd" d="M94.8038 64.7052C94.7066 59.8932 92.9535 54.033 89.5444 47.1248C84.4308 36.7624 85.414 18.6303 99.5293 15.5181C103.192 7.96783 109.733 5.58085 119.153 8.3571L119.713 8.52271C128.778 11.2117 133.769 13.1243 134.685 14.2603L134.847 13.7924C135.535 11.7874 135.879 10.6008 135.879 10.2325C135.879 9.6385 143.476 15.1909 144.609 18.9662L145.752 17.3482C151.53 23.5207 150.848 31.167 143.704 40.2871L138.543 45.0925L140.196 39.7485L140.119 39.6826C139.418 39.0716 138.291 37.6818 136.739 35.5132C134.431 35.4722 132.551 35.0374 131.098 34.2089L130.577 34.1357C126.584 33.5615 123.983 32.8722 122.774 32.0679C119.277 37.3992 115.36 40.0328 111.023 39.9689L108.852 46.6186C108.197 48.6252 106.208 49.8771 104.122 49.6087L104.039 49.5971L103.257 41.5329C100.806 38.9207 98.2568 38.3259 95.611 39.7485C91.6422 41.8823 91.6422 50.1394 99.8842 50.1394L98.329 56.7622L94.8038 64.7052Z" fill="#2E363A"/>
<path fill-rule="evenodd" clip-rule="evenodd" d="M123.996 48.5707C124.635 48.6834 125.29 47.9977 125.459 47.039C125.628 46.0804 125.247 45.212 124.608 45.0993C123.969 44.9866 123.314 45.6724 123.145 46.631C122.976 47.5896 123.357 48.458 123.996 48.5707Z" fill="#2E363A"/>
<path fill-rule="evenodd" clip-rule="evenodd" d="M134.571 50.4507C135.21 50.5634 135.865 49.8777 136.034 48.919C136.203 47.9604 135.822 47.092 135.183 46.9793C134.544 46.8666 133.889 47.5524 133.72 48.511C133.551 49.4696 133.932 50.338 134.571 50.4507Z" fill="#2E363A"/>
<path fill-rule="evenodd" clip-rule="evenodd" d="M194.005 119.255H281.968C283.266 119.255 284.318 120.307 284.318 121.605C284.318 121.907 284.26 122.206 284.146 122.487L258.017 187.02H162.607L188.559 122.925C189.457 120.706 191.611 119.255 194.005 119.255Z" fill="#B6D4E5"/>
<path fill-rule="evenodd" clip-rule="evenodd" d="M117.957 180.205H172.242V187.02H123.832C120.588 187.02 117.957 184.39 117.957 181.145V180.205Z" fill="#B6D4E5"/>
<path d="M96.6625 42.5586C97.8137 41.4074 99.6802 41.4074 100.831 42.5586C101.015 42.7422 101.015 43.0398 100.831 43.2233C100.648 43.4069 100.35 43.4069 100.167 43.2233C99.3826 42.4392 98.1113 42.4392 97.3272 43.2233C96.5431 44.0074 96.5431 45.2788 97.3272 46.0629C97.5107 46.2464 97.5107 46.544 97.3272 46.7276C97.1437 46.9111 96.8461 46.9111 96.6625 46.7276C95.5113 45.5763 95.5113 43.7099 96.6625 42.5586Z" fill="#583E40"/>
<path fill-rule="evenodd" clip-rule="evenodd" d="M198.94 119.332H286.903C288.201 119.332 289.253 120.385 289.253 121.682C289.253 121.985 289.195 122.284 289.081 122.564L264.973 182.107C263.752 185.124 260.822 187.098 257.567 187.098H171.029C169.731 187.098 168.679 186.046 168.679 184.748C168.679 184.446 168.737 184.146 168.851 183.866L193.494 123.003C194.392 120.784 196.546 119.332 198.94 119.332Z" fill="#E9F0F6"/>
<path d="M150.298 111.527C150.557 111.516 150.777 111.716 150.789 111.975L150.812 112.516C151.164 121.044 150.708 132.045 149.445 145.523L149.306 146.98L149.382 147.033C151.178 148.305 152.093 149.569 152.062 150.854L152.06 150.926C151.931 153.46 149.879 157.126 146.003 160.644C145.811 160.819 145.514 160.805 145.339 160.612C145.165 160.42 145.179 160.123 145.371 159.948C149.076 156.585 151.006 153.138 151.121 150.878C151.17 149.907 150.339 148.803 148.55 147.601C148.407 147.505 148.328 147.338 148.344 147.166L148.469 145.866C149.785 131.944 150.245 120.66 149.85 112.018C149.838 111.759 150.038 111.539 150.298 111.527Z" fill="#21396E"/>
<path d="M150.935 152.995C152.299 152.946 153.432 153.043 154.339 153.289C155.842 153.698 156.43 155.274 156.43 158.143C156.43 158.94 155.978 159.746 155.137 160.661C154.744 161.088 154.303 161.505 153.665 162.067L152.817 162.808C151.047 164.364 150.576 164.901 150.652 165.29L150.66 165.322C150.729 165.572 150.583 165.831 150.333 165.901C150.083 165.97 149.823 165.824 149.754 165.574C149.581 164.952 149.905 164.324 150.619 163.558C150.884 163.275 151.203 162.972 151.62 162.601L151.907 162.348L152.762 161.607C153.535 160.936 154.026 160.48 154.445 160.025C155.141 159.268 155.49 158.645 155.49 158.143C155.49 155.659 155.041 154.454 154.092 154.196C153.287 153.978 152.245 153.889 150.969 153.934C150.709 153.943 150.492 153.74 150.482 153.481C150.473 153.222 150.676 153.004 150.935 152.995Z" fill="#21396E"/>
<path d="M156.124 158.055C156.173 157.8 156.419 157.633 156.674 157.681L157.229 157.787C162.105 158.708 166.161 159.359 169.397 159.741C169.655 159.771 169.839 160.005 169.809 160.263C169.779 160.52 169.545 160.705 169.287 160.674C165.904 160.276 161.642 159.586 156.498 158.605C156.243 158.556 156.075 158.31 156.124 158.055Z" fill="#21396E"/>
<path d="M101.692 54.8673C101.95 54.8396 102.182 55.0263 102.21 55.2844L102.261 55.7539C103.113 63.3564 104.497 67.765 106.285 68.8977C108.229 70.1285 111.346 71.2276 115.626 72.1824C115.879 72.2389 116.039 72.4901 115.982 72.7434C115.926 72.9968 115.674 73.1563 115.421 73.0998C111.044 72.1235 107.835 70.9917 105.782 69.6918C103.611 68.3169 102.154 63.5769 101.275 55.3847C101.247 55.1266 101.434 54.895 101.692 54.8673Z" fill="#583E40"/>
<path fill-rule="evenodd" clip-rule="evenodd" d="M227.236 159.753C230.811 159.753 234.234 156.859 234.881 153.29C235.528 149.721 233.154 146.828 229.579 146.828C226.004 146.828 222.581 149.721 221.934 153.29C221.286 156.859 223.66 159.753 227.236 159.753Z" fill="#B6D4E5"/>
<path fill-rule="evenodd" clip-rule="evenodd" d="M124.836 139.539L125.132 139.738C128.142 141.786 129.35 143.505 129.35 147.352C129.35 149.997 130.87 151.74 130.079 153.795L129.655 154.039C129.173 154.313 128.791 154.516 128.546 154.624C127.06 155.283 120.99 155.312 115.514 157.154C116.34 152.792 115.267 147.127 112.294 140.158L112.099 139.707C111.945 139.353 111.742 139.034 111.502 138.754L111.722 138.681L112.037 138.575C113.711 138.005 114.631 137.55 114.8 137.212C115.155 136.499 116.206 130.483 116.845 130.191L116.88 130.174L116.922 130.152C117.448 129.862 119.096 128.609 121.864 126.394L122.53 135.306C122.036 136.743 122.804 138.155 124.836 139.539Z" fill="#F69883"/>
<path d="M130.059 130.22C130.28 130.084 130.57 130.152 130.706 130.372C130.836 130.582 130.781 130.854 130.586 130.998L130.555 131.019L120.79 137.073C120.569 137.21 120.28 137.142 120.143 136.921C120.013 136.712 120.068 136.44 120.263 136.296L120.295 136.274L130.059 130.22Z" fill="#583E40"/>
<path d="M139.016 138.203C139.239 138.07 139.528 138.143 139.661 138.366C139.787 138.578 139.727 138.848 139.53 138.989L139.498 139.01L134.182 142.178C133.959 142.311 133.671 142.238 133.538 142.015C133.411 141.803 133.471 141.532 133.668 141.391L133.701 141.37L139.016 138.203Z" fill="#583E40"/>
<path d="M141.298 142.415C141.526 142.291 141.811 142.376 141.935 142.604C142.053 142.821 141.982 143.09 141.778 143.222L141.746 143.241L137.216 145.7C136.988 145.823 136.703 145.739 136.579 145.511C136.461 145.293 136.532 145.024 136.736 144.892L136.768 144.873L141.298 142.415Z" fill="#583E40"/>
<path d="M138.701 133.224C138.934 133.11 139.215 133.207 139.329 133.441C139.437 133.663 139.354 133.929 139.145 134.052L139.112 134.069L130.513 138.259C130.279 138.372 129.998 138.275 129.884 138.042C129.776 137.82 129.859 137.554 130.069 137.431L130.101 137.413L138.701 133.224Z" fill="#583E40"/>
<path d="M90.5824 72.1576C90.8287 72.0754 91.0949 72.2084 91.177 72.4547C91.2591 72.7009 91.1261 72.9671 90.8799 73.0492C89.39 73.5463 88.3992 74.9881 87.9233 77.45C87.8741 77.7049 87.6275 77.8716 87.3727 77.8223C87.1178 77.773 86.9511 77.5265 87.0004 77.2716C87.5347 74.5075 88.7234 72.7777 90.5824 72.1576Z" fill="#D8D8D8"/>
<path d="M206.67 124.973C204.156 124.973 201.39 126.757 200.492 128.959L200.47 129.015C199.793 130.744 200.477 132.237 202.099 132.753L202.12 132.759L202.111 132.766C200.141 134.187 198.621 135.997 197.84 137.914C197.815 137.975 197.791 138.037 197.767 138.098L197.737 138.177L197.705 138.266L197.677 138.347L197.654 138.414L197.613 138.537L197.573 138.667L197.538 138.788L197.503 138.918L197.479 139.01L197.452 139.123L197.433 139.207L197.416 139.287C197.102 140.808 197.336 142.198 198.065 143.308L198.081 143.332L198.064 143.333C195.656 143.5 193.117 145.215 192.265 147.306C191.367 149.508 192.678 151.293 195.193 151.293C197.708 151.293 200.473 149.508 201.371 147.306L201.398 147.238C201.619 146.668 201.696 146.117 201.631 145.614L201.701 145.63C202.31 145.764 202.964 145.832 203.656 145.832L203.751 145.831C205.154 145.819 206.621 145.528 208.059 144.991L208.136 144.962L208.125 144.98C207.988 145.205 207.872 145.435 207.777 145.668C206.879 147.87 208.19 149.654 210.705 149.654C213.219 149.654 215.985 147.87 216.883 145.668C217.78 143.467 216.469 141.682 213.955 141.682L213.869 141.683C213.668 141.686 213.464 141.7 213.258 141.726L213.314 141.672C214.484 140.53 215.384 139.246 215.927 137.914L215.973 137.799C216.048 137.608 216.114 137.418 216.173 137.229L216.201 137.134L216.26 137.152C216.63 137.258 217.041 137.313 217.482 137.313C219.996 137.313 222.762 135.529 223.66 133.327C224.557 131.126 223.246 129.341 220.731 129.341L220.668 129.341C218.723 129.365 216.598 130.454 215.342 132.014L215.331 132.027L215.294 131.985L215.249 131.935L215.153 131.832L215.073 131.751L214.984 131.665L214.912 131.597L214.833 131.528L214.752 131.459L214.679 131.399L214.577 131.318L214.503 131.263L214.417 131.201L214.352 131.156L214.307 131.125L214.228 131.074L214.131 131.012L214.029 130.951L214.008 130.938L213.904 130.879L213.832 130.84L213.717 130.779L213.589 130.716L213.512 130.679L213.405 130.631C213.36 130.611 213.318 130.593 213.274 130.575L213.153 130.526L213.03 130.479L212.921 130.44L212.836 130.411L212.702 130.367L212.566 130.326L212.509 130.31L212.393 130.278L212.263 130.245L212.209 130.231L212.064 130.198L211.928 130.169L211.799 130.144L211.672 130.122L211.523 130.098L211.405 130.081L211.281 130.065L211.198 130.056L211.134 130.049L211.01 130.037L210.926 130.029L210.834 130.022L210.688 130.013L210.577 130.007L210.489 130.003L210.419 130.001L210.294 129.998L210.19 129.997L210.118 129.996L209.983 129.997L209.854 129.999C209.596 130.006 209.335 130.021 209.074 130.046L208.977 130.056L208.978 130.054C209.236 129.701 209.445 129.333 209.598 128.959C210.496 126.757 209.185 124.973 206.67 124.973Z" fill="#B6D4E5"/>
<path d="M206.999 124.973C209.366 124.973 210.599 126.631 209.754 128.677C209.562 129.141 209.276 129.594 208.911 130.018C208.769 130.183 208.86 130.354 209.074 130.325C209.556 130.258 210.035 130.222 210.506 130.216L210.643 130.215L210.713 130.215L210.818 130.217L210.944 130.22L211.012 130.222L211.101 130.226L211.212 130.231L211.359 130.241L211.449 130.248L211.533 130.255L211.658 130.267L211.72 130.274L211.804 130.283L211.928 130.299L212.045 130.316L212.194 130.339L212.321 130.361L212.451 130.386L212.585 130.414L212.732 130.447L212.784 130.46L212.915 130.493L213.031 130.524L213.086 130.54L213.223 130.581L213.357 130.624L213.441 130.652L213.55 130.691L213.673 130.738L213.796 130.787C213.837 130.804 213.88 130.822 213.923 130.84L214.031 130.889L214.107 130.924L214.236 130.987L214.351 131.047L214.422 131.085L214.527 131.144L214.65 131.217L214.747 131.277L214.826 131.329L214.869 131.358L214.935 131.403L215.021 131.464L215.094 131.518L215.197 131.598L215.27 131.657L215.35 131.725L215.429 131.794L215.501 131.86L215.591 131.945L215.67 132.024L215.767 132.128L215.775 132.137C215.871 132.241 215.961 132.35 216.047 132.461C216.141 132.586 216.413 132.525 216.532 132.353C217.676 130.709 219.875 129.531 221.861 129.531C224.228 129.531 225.461 131.19 224.616 133.235C223.771 135.281 221.167 136.939 218.801 136.939C218.229 136.939 217.714 136.843 217.274 136.657C217.114 136.59 216.855 136.726 216.812 136.901C216.721 137.27 216.598 137.645 216.442 138.022C215.82 139.527 214.731 140.969 213.303 142.211C213.099 142.388 213.199 142.61 213.457 142.552C213.875 142.458 214.291 142.41 214.695 142.41C217.062 142.41 218.295 144.068 217.45 146.114C216.605 148.16 214.001 149.818 211.635 149.818C209.268 149.818 208.035 148.16 208.88 146.114C209.039 145.729 209.262 145.352 209.542 144.993C209.698 144.793 209.518 144.621 209.265 144.729C207.582 145.445 205.837 145.829 204.185 145.829C203.264 145.829 202.409 145.709 201.641 145.476C201.432 145.412 201.14 145.638 201.2 145.817C201.398 146.41 201.352 147.101 201.054 147.823C200.209 149.869 197.605 151.528 195.238 151.528C192.872 151.528 191.638 149.869 192.483 147.823C193.328 145.778 195.932 144.119 198.299 144.119C198.379 144.119 198.458 144.121 198.535 144.125C198.777 144.137 199.013 143.876 198.893 143.731C197.925 142.562 197.592 141.012 197.972 139.298L197.991 139.214L198.018 139.103L198.041 139.013L198.077 138.884L198.112 138.765L198.152 138.637L198.192 138.515L198.215 138.449L198.243 138.37L198.276 138.282L198.306 138.202C198.329 138.143 198.353 138.083 198.378 138.022C199.211 136.007 200.879 134.113 203.039 132.675C203.232 132.546 203.244 132.333 203.059 132.296C201.257 131.929 200.461 130.427 201.184 128.677C202.029 126.631 204.633 124.973 206.999 124.973Z" fill="white"/>
<path fill-rule="evenodd" clip-rule="evenodd" d="M204.415 144.478C208.63 144.478 213.268 141.532 214.773 137.898C216.278 134.263 214.081 131.318 209.865 131.318C205.649 131.318 201.011 134.263 199.506 137.898C198.001 141.532 200.199 144.478 204.415 144.478Z" fill="#719CFD"/>
<path fill-rule="evenodd" clip-rule="evenodd" d="M210.025 131.552C211.918 131.552 213.397 132.15 214.307 133.138C214.232 133.432 214.131 133.733 214.004 134.039C212.516 137.598 207.941 140.482 203.784 140.482C201.892 140.482 200.412 139.884 199.502 138.897C199.577 138.602 199.678 138.302 199.806 137.996C201.293 134.437 205.868 131.552 210.025 131.552Z" fill="#B9CDFF"/>
<path fill-rule="evenodd" clip-rule="evenodd" d="M211.792 148.473C213.32 148.473 215 147.368 215.545 146.005C216.091 144.642 215.295 143.538 213.767 143.538C212.24 143.538 210.559 144.642 210.014 146.005C209.469 147.368 210.265 148.473 211.792 148.473Z" fill="#F6BE67"/>
<path fill-rule="evenodd" clip-rule="evenodd" d="M204.507 131.318C206.035 131.318 207.715 130.213 208.26 128.85C208.806 127.487 208.01 126.383 206.482 126.383C204.955 126.383 203.274 127.487 202.729 128.85C202.184 130.213 202.98 131.318 204.507 131.318Z" fill="#3CB49F"/>
<path fill-rule="evenodd" clip-rule="evenodd" d="M195.577 149.883C197.105 149.883 198.785 148.778 199.33 147.415C199.876 146.052 199.08 144.948 197.552 144.948C196.025 144.948 194.344 146.052 193.799 147.415C193.254 148.778 194.05 149.883 195.577 149.883Z" fill="#4757A4"/>
<path fill-rule="evenodd" clip-rule="evenodd" d="M219.312 135.547C220.84 135.547 222.52 134.443 223.065 133.08C223.611 131.717 222.815 130.612 221.287 130.612C219.76 130.612 218.079 131.717 217.534 133.08C216.989 134.443 217.785 135.547 219.312 135.547Z" fill="#E9525B"/>
<path d="M101.287 16.0333C101.353 15.7821 101.609 15.6313 101.86 15.6965C110.642 17.977 116.681 22.5966 119.937 29.5457C120.047 29.7808 119.946 30.0606 119.711 30.1707C119.476 30.2809 119.196 30.1796 119.086 29.9446C115.955 23.2624 110.147 18.8196 101.624 16.6064C101.373 16.5411 101.222 16.2846 101.287 16.0333Z" fill="white"/>
<path d="M208.135 157.872C208.952 157.872 209.537 158.221 209.783 158.765C210.451 158.239 211.288 157.895 212.082 157.874L212.161 157.872H218.537L216.162 163.677C215.857 164.421 215.203 165.084 214.432 165.51C214.84 165.923 214.958 166.556 214.69 167.271L214.662 167.343L212.286 173.147H205.91C205.093 173.147 204.508 172.799 204.262 172.255C203.593 172.781 202.757 173.125 201.963 173.146L201.883 173.147H195.507L197.883 167.343C198.187 166.599 198.842 165.936 199.613 165.51C199.204 165.097 199.086 164.464 199.355 163.749L199.383 163.677L201.758 157.872H208.135Z" fill="#B6D4E5"/>
<path d="M209.075 157.872C209.892 157.872 210.477 158.221 210.723 158.765C211.391 158.239 212.228 157.895 213.022 157.874L213.101 157.872H219.477L217.102 163.677C216.797 164.421 216.143 165.084 215.372 165.51C215.78 165.923 215.898 166.556 215.63 167.271L215.602 167.343L213.226 173.147H206.85C206.033 173.147 205.448 172.799 205.202 172.255C204.533 172.781 203.697 173.125 202.903 173.146L202.823 173.147H196.447L198.823 167.343C199.127 166.599 199.782 165.936 200.553 165.51C200.144 165.097 200.026 164.464 200.295 163.749L200.323 163.677L202.698 157.872H209.075Z" fill="white"/>
<path d="M213.512 165.863H208.172L206.182 170.644C205.884 171.362 206.276 171.947 207.061 171.972L207.113 171.973H212.453L214.442 167.191C214.741 166.473 214.348 165.888 213.563 165.863L213.512 165.863Z" fill="#229581"/>
<path d="M207.022 165.863H201.797C201.012 165.863 200.141 166.432 199.824 167.144L199.804 167.191L197.857 171.973H203.083L203.134 171.972C203.905 171.948 204.746 171.387 205.055 170.691L205.075 170.644L207.022 165.863Z" fill="#229581"/>
<path d="M217.832 159.048H212.607C211.822 159.048 210.951 159.617 210.634 160.329L210.614 160.376L208.667 165.158H213.893L213.944 165.157C214.715 165.133 215.556 164.572 215.865 163.876L215.885 163.829L217.832 159.048Z" fill="#229581"/>
<path d="M208.577 159.048H203.237L201.247 163.829C200.949 164.547 201.341 165.132 202.126 165.157L202.178 165.158H207.518L209.507 160.376L209.526 160.329C209.789 159.633 209.396 159.072 208.628 159.048L208.577 159.048Z" fill="#229581"/>
<path d="M275.138 135.267C274.418 134.066 272.47 134.066 270.785 135.268L270.734 135.305C269.887 135.924 269.256 136.749 268.959 137.579L268.944 137.621L266.043 138.514L266.027 138.475C265.741 137.761 265.042 137.324 264.089 137.324L264.019 137.325C263.926 137.327 263.831 137.333 263.736 137.343L263.689 137.349L263.38 132.69L263.412 132.664C264.891 131.455 265.542 129.666 264.865 128.536C264.146 127.335 262.197 127.335 260.513 128.537L260.444 128.587C260.308 128.687 260.177 128.793 260.052 128.904L260.022 128.931L257.262 128.587L257.275 128.539C257.654 127.053 256.831 125.912 255.285 125.913C253.585 125.913 251.654 127.291 250.972 128.99C250.29 130.69 251.114 132.068 252.814 132.067L252.868 132.067C253.86 132.05 254.951 131.565 255.818 130.794L255.871 130.747L258.61 131.088L258.602 131.117C258.424 131.777 258.474 132.401 258.766 132.889L258.788 132.925C259.205 133.585 260.016 133.88 260.969 133.767L261.015 133.761L261.323 138.397L261.304 138.412C260.62 138.96 260.074 139.66 259.776 140.402L259.756 140.451C259.312 141.604 259.56 142.624 260.341 143.135L260.374 143.156L259.045 146.004L259.039 146.006C258.6 146.159 258.16 146.387 257.745 146.684C256.061 147.886 255.279 149.834 255.998 151.036C256.718 152.237 258.666 152.237 260.351 151.035C262.035 149.833 262.817 147.884 262.098 146.683L262.071 146.64C261.891 146.358 261.637 146.141 261.326 145.995L261.271 145.971L262.486 143.367L262.494 143.365C263.838 143.028 265.162 141.974 265.797 140.7L265.832 140.628L269.049 139.638L269.038 139.62C269.758 140.822 271.706 140.821 273.391 139.619C275.075 138.417 275.857 136.469 275.138 135.267Z" fill="#B6D4E5"/>
<path d="M275.608 135.267C274.888 134.066 272.94 134.066 271.255 135.268L271.204 135.305C270.357 135.924 269.726 136.749 269.429 137.579L269.414 137.621L266.512 138.514L266.497 138.475C266.211 137.761 265.512 137.324 264.559 137.324L264.489 137.325C264.396 137.327 264.301 137.333 264.206 137.343L264.159 137.349L263.85 132.69L263.882 132.664C265.361 131.455 266.012 129.666 265.335 128.536C264.616 127.335 262.667 127.335 260.983 128.537L260.914 128.587C260.778 128.687 260.647 128.793 260.522 128.904L260.492 128.931L257.732 128.587L257.745 128.539C258.124 127.053 257.301 125.912 255.755 125.913C254.055 125.913 252.124 127.291 251.442 128.99C250.76 130.69 251.584 132.068 253.284 132.067L253.338 132.067C254.33 132.05 255.421 131.565 256.288 130.794L256.341 130.747L259.08 131.088L259.072 131.117C258.894 131.777 258.944 132.401 259.236 132.889L259.258 132.925C259.675 133.585 260.486 133.88 261.439 133.767L261.485 133.761L261.793 138.397L261.774 138.412C261.09 138.96 260.544 139.66 260.246 140.402L260.226 140.451C259.782 141.604 260.03 142.624 260.811 143.135L260.844 143.156L259.515 146.004L259.509 146.006C259.07 146.159 258.63 146.387 258.215 146.684C256.531 147.886 255.749 149.834 256.468 151.036C257.188 152.237 259.136 152.237 260.821 151.035C262.505 149.833 263.287 147.884 262.568 146.683L262.541 146.64C262.361 146.358 262.107 146.141 261.796 145.995L261.741 145.971L262.956 143.367L262.964 143.365C264.308 143.028 265.632 141.974 266.267 140.7L266.302 140.628L269.519 139.638L269.508 139.62C270.228 140.822 272.176 140.821 273.861 139.619C275.545 138.417 276.327 136.469 275.608 135.267Z" fill="white"/>
<path d="M272.111 137.436C272.353 137.362 272.54 137.473 272.529 137.685C272.519 137.889 272.328 138.112 272.097 138.194L272.073 138.202L263.135 140.952C262.919 141.018 262.743 140.936 262.72 140.76L262.718 140.74L262.052 130.726L253.393 129.645C253.188 129.619 253.108 129.43 253.207 129.216L253.218 129.193C253.33 128.978 253.582 128.823 253.79 128.836L253.812 128.838L262.685 129.946C262.809 129.961 262.893 130.039 262.909 130.154L262.912 130.177L263.57 140.063L272.111 137.436Z" fill="#B9CDFF"/>
<path d="M263.344 140.163C263.554 140.177 263.647 140.357 263.56 140.571L263.549 140.595L259.96 148.289C259.856 148.513 259.595 148.682 259.377 148.668C259.166 148.653 259.073 148.473 259.16 148.26L259.171 148.236L262.76 140.542C262.864 140.318 263.126 140.148 263.344 140.163Z" fill="#B9CDFF"/>
<path fill-rule="evenodd" clip-rule="evenodd" d="M259.927 132.398C260.484 133.327 261.99 133.327 263.292 132.398C264.594 131.469 265.198 129.963 264.642 129.034C264.085 128.105 262.579 128.105 261.277 129.034C259.976 129.963 259.371 131.469 259.927 132.398Z" fill="#719CFD"/>
<path fill-rule="evenodd" clip-rule="evenodd" d="M262.181 128.624C260.752 129.644 260.088 131.297 260.699 132.316C260.939 132.718 261.342 132.962 261.829 133.047C261.01 133.202 260.279 132.985 259.927 132.398C259.371 131.469 259.976 129.963 261.277 129.034C261.65 128.768 262.039 128.578 262.419 128.465C262.339 128.515 262.259 128.568 262.181 128.624Z" fill="#547ACE"/>
<path fill-rule="evenodd" clip-rule="evenodd" d="M262.981 130.717C262.894 131.367 263.129 131.82 263.506 131.729C263.883 131.638 264.259 131.037 264.346 130.387C264.433 129.737 264.197 129.284 263.82 129.375C263.443 129.466 263.067 130.067 262.981 130.717Z" fill="#B9CDFF"/>
<path fill-rule="evenodd" clip-rule="evenodd" d="M270.192 139.126C270.749 140.055 272.255 140.055 273.557 139.126C274.859 138.197 275.463 136.691 274.907 135.762C274.35 134.833 272.844 134.833 271.542 135.762C270.241 136.691 269.636 138.197 270.192 139.126Z" fill="#3CB49F"/>
<path fill-rule="evenodd" clip-rule="evenodd" d="M272.446 135.352C271.017 136.371 270.353 138.025 270.964 139.044C271.204 139.446 271.607 139.689 272.094 139.775C271.275 139.929 270.544 139.713 270.192 139.126C269.636 138.197 270.241 136.691 271.542 135.762C271.915 135.496 272.305 135.306 272.684 135.193C272.604 135.242 272.524 135.296 272.446 135.352Z" fill="#229581"/>
<path fill-rule="evenodd" clip-rule="evenodd" d="M273.246 137.445C273.159 138.095 273.394 138.548 273.771 138.457C274.149 138.366 274.524 137.765 274.611 137.115C274.698 136.465 274.462 136.012 274.085 136.103C273.708 136.194 273.332 136.795 273.246 137.445Z" fill="#50C4B0"/>
<path fill-rule="evenodd" clip-rule="evenodd" d="M257.164 150.532C257.72 151.461 259.226 151.461 260.528 150.532C261.83 149.603 262.434 148.097 261.878 147.168C261.322 146.239 259.816 146.239 258.514 147.168C257.212 148.097 256.608 149.603 257.164 150.532Z" fill="#F6BE67"/>
<path fill-rule="evenodd" clip-rule="evenodd" d="M259.417 146.758C257.988 147.778 257.325 149.431 257.935 150.45C258.176 150.852 258.578 151.095 259.065 151.181C258.246 151.335 257.515 151.119 257.164 150.532C256.608 149.603 257.212 148.097 258.514 147.168C258.887 146.902 259.276 146.712 259.655 146.599C259.575 146.648 259.496 146.702 259.417 146.758Z" fill="#D19C49"/>
<path fill-rule="evenodd" clip-rule="evenodd" d="M260.217 148.851C260.13 149.501 260.366 149.954 260.743 149.863C261.12 149.772 261.496 149.171 261.583 148.521C261.669 147.871 261.434 147.418 261.057 147.509C260.68 147.6 260.304 148.201 260.217 148.851Z" fill="#F9D8A4"/>
<path fill-rule="evenodd" clip-rule="evenodd" d="M253.57 131.372C254.883 131.372 256.376 130.307 256.903 128.993C257.43 127.68 256.793 126.615 255.479 126.615C254.165 126.615 252.672 127.68 252.145 128.994C251.618 130.307 252.256 131.372 253.57 131.372Z" fill="#F6BE67"/>
<path fill-rule="evenodd" clip-rule="evenodd" d="M252.703 128.181C252.125 129.623 252.825 130.792 254.267 130.792C254.835 130.792 255.433 130.611 255.986 130.302C255.301 130.947 254.4 131.372 253.57 131.372C252.256 131.372 251.618 130.307 252.145 128.994C252.296 128.618 252.526 128.262 252.808 127.946C252.77 128.023 252.735 128.102 252.703 128.181Z" fill="#D19C49"/>
<path fill-rule="evenodd" clip-rule="evenodd" d="M255.215 128.502C255.662 128.838 256.268 128.864 256.566 128.558C256.865 128.253 256.744 127.733 256.296 127.396C255.849 127.06 255.244 127.035 254.945 127.34C254.646 127.645 254.767 128.165 255.215 128.502Z" fill="#F9D8A4"/>
<path fill-rule="evenodd" clip-rule="evenodd" d="M262.368 142.777C263.682 142.777 265.174 141.712 265.702 140.398C266.229 139.084 265.591 138.019 264.277 138.02C262.963 138.02 261.471 139.085 260.944 140.399C260.417 141.712 261.054 142.777 262.368 142.777Z" fill="#E9525B"/>
<path fill-rule="evenodd" clip-rule="evenodd" d="M261.502 139.586C260.923 141.028 261.623 142.197 263.065 142.197C263.633 142.197 264.232 142.016 264.784 141.707C264.1 142.352 263.198 142.777 262.368 142.777C261.054 142.777 260.417 141.712 260.944 140.399C261.095 140.022 261.325 139.667 261.607 139.351C261.569 139.428 261.534 139.507 261.502 139.586Z" fill="#CB3E47"/>
<path fill-rule="evenodd" clip-rule="evenodd" d="M264.013 139.907C264.461 140.243 265.066 140.268 265.365 139.963C265.664 139.658 265.543 139.138 265.095 138.801C264.647 138.465 264.042 138.44 263.743 138.745C263.445 139.05 263.565 139.57 264.013 139.907Z" fill="#E98086"/>
<path d="M263.892 34.4975H157.672V107.817H263.892V34.4975ZM262.952 35.4375V106.877H158.612V35.4375H262.952Z" fill="#F0DECF"/>
<path d="M262.963 46.365V47.305H170.344V46.365H262.963Z" fill="#F0DECF"/>
<path fill-rule="evenodd" clip-rule="evenodd" d="M205.025 52.5925H286.335C292.629 52.5925 297.732 57.6953 297.732 63.99C297.732 70.2847 292.629 75.3875 286.335 75.3875H205.025C198.73 75.3875 193.627 70.2847 193.627 63.99C193.627 57.6953 198.73 52.5925 205.025 52.5925Z" fill="#E9525B"/>
<path fill-rule="evenodd" clip-rule="evenodd" d="M186.46 80.0875H267.77C274.064 80.0875 279.167 85.1904 279.167 91.485C279.167 97.7797 274.064 102.883 267.77 102.883H186.46C180.165 102.883 175.062 97.7797 175.062 91.485C175.062 85.1904 180.165 80.0875 186.46 80.0875Z" fill="#F6BE67"/>
<path d="M260.225 95.5975C260.464 95.5975 260.655 95.5258 260.799 95.3823C260.943 95.2389 261.054 94.9819 261.133 94.6115C261.166 94.4517 261.206 94.2211 261.25 93.9196C261.295 93.6182 261.336 93.373 261.374 93.1842C261.411 92.9953 261.475 92.7574 261.564 92.4705C261.777 91.8205 262.012 91.2702 262.268 90.8199C262.524 90.3696 262.772 89.9928 263.013 89.6895C263.254 89.3863 263.469 89.1093 263.657 88.8587C263.846 88.6081 263.94 88.4066 263.94 88.254C263.94 88.0035 263.86 87.8237 263.699 87.7147C263.539 87.6058 263.279 87.5513 262.92 87.5513H259.188C258.893 87.5513 258.663 87.5876 258.499 87.6603C258.334 87.7329 258.252 87.8945 258.252 88.1451C258.252 88.3812 258.33 88.5546 258.485 88.6653C258.64 88.7761 258.874 88.8315 259.188 88.8315H262.186C261.716 89.4126 261.309 89.9964 260.967 90.5829C260.626 91.1695 260.341 91.7415 260.113 92.2989C259.885 92.8564 259.721 93.3349 259.62 93.7344C259.519 94.1339 259.468 94.4499 259.468 94.6823C259.468 94.9837 259.537 95.2116 259.676 95.366C259.814 95.5203 259.997 95.5975 260.225 95.5975ZM265.016 95.5975C265.252 95.5975 265.458 95.5253 265.633 95.381C265.808 95.2366 265.896 95.0379 265.896 94.7849C265.896 94.5639 265.808 94.3759 265.633 94.2208C265.458 94.0658 265.246 93.9883 264.998 93.9883C264.75 93.9883 264.541 94.0667 264.372 94.2235C264.203 94.3803 264.118 94.5674 264.118 94.7849C264.118 95.0415 264.207 95.2411 264.384 95.3836C264.561 95.5262 264.772 95.5975 265.016 95.5975ZM269.196 95.5975C269.797 95.5975 270.32 95.4915 270.764 95.2795C271.207 95.0674 271.544 94.7741 271.773 94.3994C272.003 94.0247 272.117 93.607 272.117 93.1464C272.117 92.8321 272.064 92.546 271.956 92.2883C271.849 92.0306 271.69 91.8039 271.48 91.6084C271.269 91.4128 271.004 91.2547 270.685 91.1341C271.061 90.9549 271.344 90.7246 271.533 90.4432C271.723 90.1617 271.818 89.8418 271.818 89.4836C271.818 89.2021 271.764 88.9362 271.655 88.6858C271.546 88.4353 271.378 88.2105 271.153 88.0113C270.927 87.8121 270.645 87.6558 270.307 87.5425C269.968 87.4292 269.575 87.3725 269.128 87.3725C268.598 87.3725 268.134 87.4694 267.737 87.6631C267.341 87.8569 267.04 88.1155 266.835 88.439C266.63 88.7625 266.528 89.1071 266.528 89.4726C266.528 90.2293 266.913 90.7831 267.684 91.1341C266.729 91.4996 266.251 92.1741 266.251 93.1574C266.251 93.618 266.364 94.0338 266.59 94.4049C266.815 94.7759 267.15 95.0674 267.594 95.2795C268.037 95.4915 268.571 95.5975 269.196 95.5975ZM269.19 90.7698C268.849 90.7698 268.57 90.6622 268.353 90.4471C268.137 90.232 268.029 89.9626 268.029 89.639C268.029 89.2887 268.134 89.0022 268.345 88.7794C268.556 88.5567 268.834 88.4453 269.179 88.4453C269.406 88.4453 269.608 88.4967 269.784 88.5995C269.96 88.7023 270.097 88.8432 270.194 89.0222C270.291 89.2011 270.34 89.4029 270.34 89.6275C270.34 89.7951 270.312 89.9483 270.257 90.0873C270.202 90.2263 270.124 90.3462 270.023 90.4471C269.922 90.548 269.801 90.627 269.66 90.6841C269.519 90.7412 269.362 90.7698 269.19 90.7698ZM269.095 94.5247C268.829 94.5247 268.589 94.4651 268.373 94.3459C268.157 94.2267 267.986 94.058 267.861 93.8397C267.736 93.6215 267.673 93.3693 267.673 93.0832C267.673 92.6358 267.806 92.2873 268.072 92.0379C268.338 91.7885 268.668 91.6638 269.061 91.6638C269.338 91.6638 269.589 91.7207 269.812 91.8344C270.036 91.9481 270.209 92.1113 270.332 92.324C270.456 92.5367 270.517 92.7861 270.517 93.0722C270.517 93.3583 270.456 93.6114 270.332 93.8315C270.209 94.0515 270.04 94.2221 269.824 94.3431C269.608 94.4642 269.365 94.5247 269.095 94.5247Z" fill="white"/>
<path d="M205.025 54.4725C199.768 54.4725 195.507 58.7336 195.507 63.99C195.507 69.2464 199.768 73.5075 205.025 73.5075C210.281 73.5075 214.542 69.2464 214.542 63.99C214.542 58.7336 210.281 54.4725 205.025 54.4725ZM205.025 55.4125C209.762 55.4125 213.602 59.2528 213.602 63.99C213.602 68.7272 209.762 72.5675 205.025 72.5675C200.287 72.5675 196.447 68.7272 196.447 63.99C196.447 59.2528 200.287 55.4125 205.025 55.4125Z" fill="white"/>
<path d="M186.46 81.9675C181.203 81.9675 176.942 86.2286 176.942 91.485C176.942 96.7414 181.203 101.002 186.46 101.002C191.716 101.002 195.977 96.7414 195.977 91.485C195.977 86.2286 191.716 81.9675 186.46 81.9675ZM186.46 82.9075C191.197 82.9075 195.037 86.7478 195.037 91.485C195.037 96.2222 191.197 100.062 186.46 100.062C181.722 100.062 177.882 96.2222 177.882 91.485C177.882 86.7478 181.722 82.9075 186.46 82.9075Z" fill="white"/>
<path d="M186.567 93.2475C189.497 93.2475 192.141 94.8632 193.503 97.3932L193.553 97.4885L193.708 97.7856L193.478 98.0288C191.692 99.9143 189.216 101.003 186.567 101.003C183.962 101.003 181.524 99.9503 179.746 98.1226L179.656 98.029L179.426 97.7858L179.58 97.4887C180.926 94.904 183.6 93.2475 186.567 93.2475ZM186.567 94.1875C184.134 94.1875 181.926 95.4514 180.676 97.4627L180.619 97.556L180.578 97.6256L180.598 97.6449C182.124 99.1253 184.147 99.9958 186.314 100.059L186.441 100.062L186.567 100.063C188.787 100.063 190.871 99.2151 192.447 97.7296L192.555 97.6256L192.511 97.5509C191.309 95.55 189.168 94.2659 186.787 94.191L186.676 94.1883L186.567 94.1875ZM186.567 85.2575C188.579 85.2575 190.209 86.8883 190.209 88.9C190.209 90.9117 188.579 92.5425 186.567 92.5425C184.555 92.5425 182.924 90.9117 182.924 88.9C182.924 86.8883 184.555 85.2575 186.567 85.2575ZM186.567 86.1975C185.074 86.1975 183.864 87.4075 183.864 88.9C183.864 90.3926 185.074 91.6025 186.567 91.6025C188.059 91.6025 189.269 90.3926 189.269 88.9C189.269 87.4075 188.059 86.1975 186.567 86.1975Z" fill="white"/>
<path d="M205.025 65.7525C207.955 65.7525 210.599 67.3682 211.961 69.8982L212.011 69.9935L212.166 70.2906L211.936 70.5338C210.15 72.4193 207.674 73.5075 205.025 73.5075C202.42 73.5075 199.982 72.4553 198.204 70.6276L198.114 70.534L197.884 70.2908L198.038 69.9937C199.384 67.409 202.057 65.7525 205.025 65.7525ZM205.025 66.6925C202.592 66.6925 200.384 67.9564 199.134 69.9677L199.077 70.061L199.036 70.1308L199.056 70.1499C200.582 71.6303 202.605 72.5008 204.772 72.5638L204.899 72.5666L205.025 72.5675C207.245 72.5675 209.329 71.7201 210.905 70.2346L210.994 70.1498L211.013 70.1303L210.969 70.0559C209.767 68.055 207.626 66.7709 205.245 66.696L205.133 66.6934L205.025 66.6925ZM205.025 57.7625C207.036 57.7625 208.667 59.3933 208.667 61.405C208.667 63.4167 207.036 65.0475 205.025 65.0475C203.013 65.0475 201.382 63.4167 201.382 61.405C201.382 59.3933 203.013 57.7625 205.025 57.7625ZM205.025 58.7025C203.532 58.7025 202.322 59.9125 202.322 61.405C202.322 62.8976 203.532 64.1075 205.025 64.1075C206.517 64.1075 207.727 62.8976 207.727 61.405C207.727 59.9125 206.517 58.7025 205.025 58.7025Z" fill="white"/>
<path d="M266.947 56.5875H221.592C219.775 56.5875 218.302 58.0605 218.302 59.8775C218.302 61.6945 219.775 63.1675 221.592 63.1675H266.947C268.764 63.1675 270.237 61.6945 270.237 59.8775C270.237 58.0605 268.764 56.5875 266.947 56.5875ZM221.592 57.5275H266.947C268.245 57.5275 269.297 58.5796 269.297 59.8775C269.297 61.1754 268.245 62.2275 266.947 62.2275H221.592C220.294 62.2275 219.242 61.1754 219.242 59.8775C219.242 58.5796 220.294 57.5275 221.592 57.5275Z" fill="white"/>
<path d="M248.382 84.0825H203.027C201.21 84.0825 199.737 85.5555 199.737 87.3725C199.737 89.1895 201.21 90.6625 203.027 90.6625H248.382C250.199 90.6625 251.672 89.1895 251.672 87.3725C251.672 85.5555 250.199 84.0825 248.382 84.0825ZM203.027 85.0225H248.382C249.68 85.0225 250.732 86.0747 250.732 87.3725C250.732 88.6704 249.68 89.7225 248.382 89.7225H203.027C201.729 89.7225 200.677 88.6704 200.677 87.3725C200.677 86.0747 201.729 85.0225 203.027 85.0225Z" fill="white"/>
<path d="M246.199 94.07C246.459 94.07 246.669 94.2804 246.669 94.54C246.669 94.7878 246.477 94.9908 246.234 95.0087L246.199 95.01H200.207C199.948 95.01 199.737 94.7996 199.737 94.54C199.737 94.2922 199.929 94.0892 200.172 94.0713L200.207 94.07H246.199Z" fill="white"/>
<path d="M232.099 97.83C232.359 97.83 232.569 98.0404 232.569 98.3C232.569 98.5478 232.377 98.7508 232.134 98.7687L232.099 98.77H200.207C199.948 98.77 199.737 98.5596 199.737 98.3C199.737 98.0522 199.929 97.8492 200.172 97.8313L200.207 97.83H232.099Z" fill="white"/>
<path d="M264.764 66.575C265.024 66.575 265.234 66.7854 265.234 67.045C265.234 67.2928 265.042 67.4958 264.799 67.5137L264.764 67.515H218.772C218.513 67.515 218.302 67.3046 218.302 67.045C218.302 66.7972 218.494 66.5942 218.737 66.5763L218.772 66.575H264.764Z" fill="white"/>
<path d="M250.664 70.335C250.924 70.335 251.134 70.5454 251.134 70.805C251.134 71.0528 250.942 71.2558 250.699 71.2737L250.664 71.275H218.772C218.513 71.275 218.302 71.0646 218.302 70.805C218.302 70.5572 218.494 70.3543 218.737 70.3363L218.772 70.335H250.664Z" fill="white"/>
<path d="M279.672 68.1025C280.256 68.1025 280.762 67.9965 281.193 67.7845C281.623 67.5724 281.949 67.2791 282.172 66.9044C282.394 66.5297 282.505 66.1121 282.505 65.6515C282.505 65.3371 282.453 65.051 282.35 64.7933C282.246 64.5356 282.092 64.3089 281.887 64.1134C281.683 63.9178 281.426 63.7597 281.116 63.6391C281.481 63.4599 281.755 63.2297 281.939 62.9482C282.123 62.6667 282.216 62.3468 282.216 61.9886C282.216 61.7071 282.163 61.4412 282.057 61.1908C281.951 60.9404 281.789 60.7155 281.57 60.5163C281.351 60.3171 281.078 60.1608 280.75 60.0475C280.422 59.9342 280.041 59.8775 279.607 59.8775C279.092 59.8775 278.643 59.9744 278.258 60.1681C277.874 60.3619 277.582 60.6205 277.383 60.944C277.185 61.2675 277.085 61.6121 277.085 61.9776C277.085 62.7343 277.459 63.2881 278.206 63.6391C277.28 64.0046 276.817 64.6791 276.817 65.6624C276.817 66.123 276.927 66.5388 277.145 66.9099C277.364 67.2809 277.689 67.5724 278.119 67.7845C278.549 67.9965 279.067 68.1025 279.672 68.1025ZM279.756 63.2748C279.415 63.2748 279.136 63.1672 278.919 62.9521C278.703 62.737 278.595 62.4676 278.595 62.144C278.595 61.7937 278.7 61.5072 278.911 61.2844C279.122 61.0617 279.4 60.9503 279.745 60.9503C279.972 60.9503 280.174 61.0017 280.35 61.1045C280.526 61.2073 280.663 61.3482 280.76 61.5272C280.857 61.7061 280.906 61.9079 280.906 62.1325C280.906 62.3001 280.878 62.4533 280.823 62.5923C280.768 62.7313 280.69 62.8512 280.589 62.9521C280.488 63.053 280.367 63.132 280.226 63.1891C280.085 63.2462 279.928 63.2748 279.756 63.2748ZM279.661 67.0297C279.429 67.0297 279.218 66.9701 279.029 66.8509C278.84 66.7317 278.691 66.563 278.581 66.3447C278.472 66.1265 278.417 65.8743 278.417 65.5882C278.417 65.1408 278.533 64.7923 278.766 64.5429C278.999 64.2935 279.287 64.1688 279.631 64.1688C279.874 64.1688 280.093 64.2257 280.289 64.3394C280.484 64.4531 280.636 64.6163 280.744 64.829C280.852 65.0417 280.906 65.2911 280.906 65.5772C280.906 65.8633 280.852 66.1164 280.744 66.3365C280.636 66.5565 280.487 66.7271 280.299 66.8481C280.11 66.9692 279.897 67.0297 279.661 67.0297ZM283.669 68.1025C283.881 68.1025 284.067 68.0303 284.224 67.886C284.382 67.7416 284.461 67.5429 284.461 67.2899C284.461 67.0689 284.382 66.8809 284.224 66.7258C284.067 66.5708 283.876 66.4933 283.653 66.4933C283.43 66.4933 283.242 66.5717 283.089 66.7285C282.937 66.8853 282.861 67.0724 282.861 67.2899C282.861 67.5465 282.941 67.7461 283.1 67.8887C283.26 68.0312 283.449 68.1025 283.669 68.1025ZM287.749 68.1025C288.186 68.1025 288.585 68.0339 288.946 67.8966C289.307 67.7593 289.619 67.569 289.882 67.3256C290.145 67.0822 290.344 66.8049 290.479 66.4937C290.615 66.1826 290.682 65.8605 290.682 65.5274C290.682 65.2492 290.632 64.9902 290.532 64.7505C290.432 64.5107 290.283 64.292 290.085 64.0943C289.887 63.8967 289.643 63.721 289.355 63.5672C289.655 63.3183 289.885 63.063 290.046 62.8013C290.207 62.5396 290.288 62.2257 290.288 61.8596C290.288 61.5814 290.232 61.3215 290.121 61.08C290.01 60.8384 289.845 60.6261 289.627 60.443C289.408 60.26 289.151 60.12 288.855 60.023C288.558 59.926 288.231 59.8775 287.871 59.8775C287.46 59.8775 287.088 59.9352 286.755 60.0505C286.422 60.1658 286.143 60.3186 285.919 60.5089C285.695 60.6993 285.525 60.8997 285.408 61.1102C285.291 61.3206 285.233 61.521 285.233 61.7114C285.233 61.909 285.295 62.0674 285.419 62.1863C285.543 62.3053 285.679 62.3648 285.827 62.3648C285.953 62.3648 286.064 62.3428 286.161 62.2989C286.257 62.255 286.323 62.1946 286.361 62.1177C286.423 61.9749 286.493 61.823 286.569 61.662C286.645 61.5009 286.725 61.3691 286.81 61.2666C286.896 61.1641 287.011 61.0818 287.158 61.0196C287.304 60.9573 287.49 60.9262 287.716 60.9262C288.049 60.9262 288.314 61.0278 288.51 61.2309C288.707 61.4341 288.805 61.6766 288.805 61.9585C288.805 62.3282 288.682 62.6118 288.435 62.8095C288.189 63.0072 287.896 63.106 287.555 63.106H287.327C287.064 63.106 286.866 63.16 286.733 63.268C286.599 63.376 286.533 63.5178 286.533 63.6935C286.533 63.8729 286.588 64.0129 286.699 64.1135C286.81 64.2142 286.968 64.2645 287.172 64.2645C287.216 64.2645 287.316 64.2572 287.471 64.2426C287.627 64.2279 287.742 64.2206 287.816 64.2206C288.238 64.2206 288.568 64.3423 288.805 64.5857C289.042 64.8292 289.16 65.165 289.16 65.5933C289.16 65.8824 289.091 66.1368 288.952 66.3565C288.813 66.5761 288.637 66.7417 288.424 66.8534C288.211 66.965 287.99 67.0208 287.76 67.0208C287.36 67.0208 287.05 66.8973 286.83 66.6502C286.61 66.4031 286.403 66.0252 286.211 65.5164C286.181 65.4322 286.118 65.3599 286.022 65.2995C285.925 65.2391 285.825 65.2089 285.722 65.2089C285.514 65.2089 285.341 65.2739 285.202 65.4038C285.063 65.5338 284.994 65.7049 284.994 65.9172C284.994 66.0819 285.052 66.2906 285.169 66.5432C285.286 66.7957 285.458 67.0401 285.686 67.2762C285.913 67.5123 286.203 67.709 286.555 67.8664C286.907 68.0238 287.305 68.1025 287.749 68.1025Z" fill="white"/>
<path d="M166.775 21.5201C164.374 21.5201 162.428 23.4666 162.428 25.8676C162.428 28.2687 164.374 30.2151 166.775 30.2151C169.176 30.2151 171.123 28.2687 171.123 25.8676C171.123 23.4666 169.176 21.5201 166.775 21.5201ZM166.775 22.4601C168.657 22.4601 170.183 23.9857 170.183 25.8676C170.183 27.7496 168.657 29.2751 166.775 29.2751C164.893 29.2751 163.368 27.7496 163.368 25.8676C163.368 23.9857 164.893 22.4601 166.775 22.4601Z" fill="#F0DECF"/>
<path d="M182.873 21.9901H174.883V29.9801H182.873V21.9901ZM181.932 22.9301V29.0401H175.822V22.9301H181.932Z" fill="#F0DECF"/>
<path d="M197.097 29.0401V29.9801H187.091V29.0401H197.097Z" fill="#F0DECF"/>
</svg>
