<svg width="16" height="16" viewBox="0 0 16 16" fill="none" xmlns="http://www.w3.org/2000/svg">
<path d="M3.33339 11.8666C3.40006 11.8666 3.40006 11.8666 3.46672 11.8666L4.93339 11.6C5.60006 11.4667 6.20006 11.1333 6.66672 10.6667L12.7334 4.66665C13.1334 4.33332 13.3334 3.79998 13.3334 3.26665C13.3334 2.73332 13.1334 2.26665 12.7334 1.86665C12.0001 1.13332 10.7334 1.13332 9.93339 1.86665L3.86672 7.79998C3.40006 8.26665 3.06672 8.86665 2.93339 9.53332L2.66672 11.0667C2.60006 11.2667 2.66672 11.5333 2.86672 11.6667C3.00006 11.8 3.13339 11.8666 3.33339 11.8666ZM10.8667 2.86665C11.0001 2.73332 11.2001 2.66665 11.3334 2.66665C11.5334 2.66665 11.6667 2.73332 11.8001 2.86665C11.9334 2.99998 12.0001 3.13332 12.0001 3.26665C12.0001 3.33332 12.0001 3.53332 11.8001 3.73332L11.5334 3.99998L10.6001 3.13332L10.8667 2.86665ZM4.26672 9.86665C4.33339 9.46665 4.53339 9.13332 4.86672 8.79998L9.66672 4.06665L10.6001 4.93332L5.80006 9.66665C5.53339 9.93332 5.13339 10.1333 4.73339 10.2L4.20006 10.3333L4.26672 9.86665ZM12.6667 12.6667H3.33339C2.93339 12.6667 2.66672 12.9333 2.66672 13.3333C2.66672 13.7333 2.93339 14 3.33339 14H12.6667C13.0667 14 13.3334 13.7333 13.3334 13.3333C13.3334 12.9333 13.0667 12.6667 12.6667 12.6667Z" fill="black"/>
</svg>
