<svg width="24" height="24" viewBox="0 0 24 24" fill="none" xmlns="http://www.w3.org/2000/svg">
<path d="M20.7975 7.96503L13.185 2.88753C12.8344 2.65279 12.422 2.52747 12 2.52747C11.5781 2.52747 11.1656 2.65279 10.815 2.88753L3.20252 7.96503C2.90725 8.15928 2.66537 8.42443 2.49898 8.73625C2.33259 9.04806 2.24699 9.39661 2.25002 9.75003V19.8C2.25002 20.895 3.29252 21.75 4.62002 21.75H19.38C20.7075 21.75 21.75 20.895 21.75 19.8V9.75003C21.753 9.39661 21.6674 9.04806 21.5011 8.73625C21.3347 8.42443 21.0928 8.15928 20.7975 7.96503ZM13.5 20.25H10.5V15.6075C10.5 15.4464 10.564 15.2919 10.6779 15.178C10.7919 15.064 10.9464 15 11.1075 15H12.8925C13.0536 15 13.2082 15.064 13.3221 15.178C13.436 15.2919 13.5 15.4464 13.5 15.6075V20.25ZM20.25 19.8C20.25 19.98 19.905 20.25 19.38 20.25H15V15.6075C15 15.0486 14.778 14.5125 14.3827 14.1173C13.9875 13.7221 13.4515 13.5 12.8925 13.5H11.1075C10.5486 13.5 10.0125 13.7221 9.61729 14.1173C9.22206 14.5125 9.00002 15.0486 9.00002 15.6075V20.25H4.62002C4.09502 20.25 3.75002 19.98 3.75002 19.8V9.75003C3.74827 9.64538 3.7736 9.54206 3.82353 9.45008C3.87346 9.3581 3.94631 9.28058 4.03502 9.22503L11.6475 4.13253C11.7524 4.06411 11.8748 4.02769 12 4.02769C12.1252 4.02769 12.2477 4.06411 12.3525 4.13253L19.9725 9.21753C20.0599 9.27569 20.1312 9.35501 20.1797 9.44811C20.2282 9.54121 20.2524 9.64507 20.25 9.75003V19.8Z" fill="#21334F"/>
</svg>
