<svg width="16" height="16" viewBox="0 0 16 16" fill="none" xmlns="http://www.w3.org/2000/svg">
<path d="M13.8524 2.71855C11.7215 2.71855 10.2887 2.30982 9.38836 1.89964C8.488 1.48946 8.11709 1.07637 8.11127 1.0691C8.09714 1.0537 8.08009 1.04128 8.06112 1.03254C8.04214 1.0238 8.02161 1.01892 8.00073 1.01819C7.97974 1.01829 7.95901 1.02289 7.93994 1.03167C7.92087 1.04045 7.90391 1.05321 7.89018 1.0691C7.87564 1.0851 6.41236 2.71855 2.14764 2.71855C2.10906 2.71855 2.07206 2.73388 2.04478 2.76115C2.01751 2.78843 2.00218 2.82543 2.00218 2.86401V6.70255C2.00218 9.39928 3.55855 13.184 7.94545 14.9702C7.96294 14.9776 7.98172 14.9816 8.00073 14.9818C8.01927 14.9816 8.03757 14.9777 8.05455 14.9702C12.4415 13.184 13.9978 9.39928 13.9978 6.70255V2.86401C13.9978 2.84491 13.9941 2.82599 13.9867 2.80834C13.9794 2.7907 13.9687 2.77466 13.9552 2.76115C13.9417 2.74765 13.9257 2.73693 13.908 2.72962C13.8904 2.72231 13.8715 2.71855 13.8524 2.71855ZM8.00073 13.3731C4.61455 11.968 3.41018 9.04001 3.41018 6.94982V3.98982C6.33818 3.95928 7.63709 3.0051 8.00073 2.67346C8.36436 3.0051 9.66182 3.95928 12.5898 3.98982V6.94982C12.5898 9.04001 11.3869 11.968 8.00073 13.3731Z" fill="#14A800"/>
<path d="M11.2618 6.15562C11.2569 6.24419 11.2342 6.33087 11.1953 6.41055C11.1563 6.49024 11.1018 6.56133 11.0349 6.61962L7.74328 9.61307C7.61409 9.72756 7.44603 9.78832 7.2735 9.78291C7.10097 9.7775 6.93704 9.70633 6.81528 9.58398L4.93455 7.71344C4.84022 7.61905 4.77599 7.49882 4.74997 7.36794C4.72395 7.23705 4.73731 7.1014 4.78837 6.97811C4.83943 6.85482 4.92589 6.74943 5.03683 6.67527C5.14777 6.60111 5.2782 6.56149 5.41164 6.56144H5.4131C5.50207 6.5614 5.59017 6.57899 5.6723 6.6132C5.75444 6.6474 5.82899 6.69754 5.89164 6.76071L7.32291 8.17889L10.1389 5.60726C10.2391 5.51856 10.3634 5.46158 10.4959 5.44355C10.6285 5.42551 10.7635 5.44723 10.8837 5.50595C11.004 5.56466 11.1041 5.65774 11.1714 5.77339C11.2387 5.88905 11.2702 6.02207 11.2618 6.15562Z" fill="#14A800"/>
</svg>
