<svg width="65" height="64" viewBox="0 0 65 64" fill="none" xmlns="http://www.w3.org/2000/svg">
<path d="M32.5 0C26.171 0 19.9841 1.87677 14.7218 5.39297C9.45939 8.90917 5.35787 13.9069 2.93587 19.7541C0.513865 25.6014 -0.119842 32.0355 1.11489 38.2429C2.34961 44.4503 5.39732 50.1521 9.87259 54.6274C14.3479 59.1027 20.0497 62.1504 26.2571 63.3851C32.4645 64.6198 38.8986 63.9861 44.7459 61.5641C50.5931 59.1421 55.5908 55.0406 59.107 49.7782C62.6232 44.5159 64.5 38.329 64.5 32C64.5 23.5131 61.1286 15.3737 55.1274 9.37258C49.1263 3.37142 40.9869 0 32.5 0ZM47.5933 25.5733L32.5 40.64C31 42.1381 28.9667 42.9796 26.8467 42.9796C24.7267 42.9796 22.6933 42.1381 21.1933 40.64L17.4067 36.88C17.158 36.6314 16.9608 36.3362 16.8263 36.0113C16.6917 35.6865 16.6224 35.3383 16.6224 34.9867C16.6224 34.635 16.6917 34.2868 16.8263 33.962C16.9608 33.6371 17.158 33.342 17.4067 33.0933C17.6553 32.8447 17.9505 32.6475 18.2753 32.5129C18.6002 32.3783 18.9484 32.3091 19.3 32.3091C19.6516 32.3091 19.9998 32.3783 20.3247 32.5129C20.6495 32.6475 20.9447 32.8447 21.1933 33.0933L24.9533 36.88C25.2012 37.1299 25.4962 37.3283 25.8211 37.4637C26.1461 37.5991 26.4946 37.6688 26.8467 37.6688C27.1987 37.6688 27.5473 37.5991 27.8722 37.4637C28.1972 37.3283 28.4921 37.1299 28.74 36.88L43.8067 21.7867C44.0553 21.538 44.3505 21.3408 44.6753 21.2062C45.0002 21.0717 45.3484 21.0024 45.7 21.0024C46.0516 21.0024 46.3998 21.0717 46.7247 21.2062C47.0495 21.3408 47.3447 21.538 47.5933 21.7867C47.842 22.0353 48.0392 22.3305 48.1738 22.6553C48.3083 22.9802 48.3776 23.3284 48.3776 23.68C48.3776 24.0316 48.3083 24.3798 48.1738 24.7047C48.0392 25.0295 47.842 25.3247 47.5933 25.5733Z" fill="#14A800"/>
</svg>
