<svg width="25" height="24" viewBox="0 0 25 24" fill="none" xmlns="http://www.w3.org/2000/svg">
<path d="M19.4652 12.7911C21.1356 12.7963 22.4898 14.1745 22.5 15.8797V18.9019C22.4899 20.6086 21.1371 21.9897 19.4652 22H16.5046C14.8343 21.9896 13.4842 20.6071 13.4791 18.9019V15.8797C13.4791 14.1739 14.8337 12.7911 16.5046 12.7911H19.4652ZM6.75058 12.7911C7.06143 12.7571 7.36401 12.9073 7.52984 13.1778C7.69568 13.4484 7.69568 13.7918 7.52984 14.0624C7.36401 14.3329 7.06143 14.4831 6.75058 14.4491H5.5348C4.75932 14.4491 4.12923 15.0881 4.12413 15.8797V18.8641C4.14385 19.6493 4.76544 20.2797 5.5348 20.2947H8.51392C8.8872 20.2972 9.24604 20.1476 9.51086 19.879C9.77568 19.6104 9.9246 19.2451 9.92459 18.8641V14.3828L9.91193 14.2713C9.89793 13.9748 10.0401 13.6893 10.2904 13.5273C10.5719 13.345 10.9337 13.3558 11.2044 13.5544C11.4751 13.753 11.6004 14.0996 11.5209 14.4301V18.8925C11.5209 20.6035 10.1622 21.9905 8.48608 21.9905H5.5348C3.87322 21.9553 2.53447 20.5887 2.5 18.8925V15.8797C2.5 15.0589 2.82003 14.2719 3.38943 13.6924C3.95884 13.1129 4.73078 12.7886 5.5348 12.7911H6.75058ZM19.4652 14.4491H16.5046C15.7307 14.4491 15.1032 15.0896 15.1032 15.8797V18.9019C15.1008 19.2821 15.2476 19.6475 15.511 19.9163C15.7743 20.1852 16.1322 20.3351 16.5046 20.3326H19.4652C19.8376 20.3351 20.1955 20.1852 20.4589 19.9163C20.7222 19.6475 20.8691 19.2821 20.8666 18.9019V15.8797C20.8666 15.5003 20.7189 15.1364 20.4561 14.8681C20.1933 14.5998 19.8369 14.4491 19.4652 14.4491ZM19.4652 2C21.1232 2.04019 22.4564 3.40542 22.4907 5.09806V8.11085C22.5006 8.93001 22.1913 9.71963 21.6309 10.306C21.0704 10.8923 20.3048 11.2273 19.5023 11.2373H18.2773C17.8622 11.192 17.5475 10.8344 17.5475 10.4083C17.5475 9.98224 17.8622 9.6247 18.2773 9.57935H19.4652C19.841 9.57686 20.2002 9.42142 20.4633 9.14752C20.7264 8.87362 20.8715 8.50389 20.8666 8.12032V5.09806C20.8566 4.31222 20.235 3.67766 19.4652 3.66746H16.5046C15.7307 3.66746 15.1032 4.30796 15.1032 5.09806V9.61724L15.0936 9.72116C15.0306 10.129 14.6826 10.437 14.268 10.432C14.0522 10.4271 13.8473 10.3341 13.699 10.1739C13.5508 10.0137 13.4716 9.79958 13.4791 9.57935V5.09806C13.4767 4.27727 13.7943 3.48924 14.362 2.90797C14.9296 2.3267 15.7006 2 16.5046 2H19.4652ZM8.49536 2C10.1693 2.0052 11.5251 3.38921 11.5302 5.09806V8.12032C11.5302 8.94111 11.2101 9.72814 10.6407 10.3076C10.0713 10.8871 9.29939 11.2114 8.49536 11.2089H5.5348C3.86445 11.2037 2.51018 9.82547 2.5 8.12032V5.09806C2.51013 3.39135 3.86294 2.01034 5.5348 2H8.49536ZM8.49536 3.66746H5.5348C5.15833 3.65982 4.79469 3.80716 4.52582 4.07629C4.25696 4.34541 4.10549 4.71366 4.10557 5.09806V8.12032C4.09791 8.50962 4.24603 8.88529 4.51574 9.16062C4.78546 9.43595 5.15345 9.58716 5.5348 9.57935H8.49536C8.87112 9.57686 9.23038 9.42142 9.49346 9.14752C9.75654 8.87362 9.9017 8.50389 9.89675 8.12032V5.09806C9.89169 4.31011 9.26722 3.67262 8.49536 3.66746Z" fill="#21334F"/>
</svg>
