<svg width="337" height="253" viewBox="0 0 337 253" fill="none" xmlns="http://www.w3.org/2000/svg">
<g opacity="0.3">
<path opacity="0.8" d="M291.191 120.343C288.447 280.565 48.5391 280.531 45.8088 120.343C48.5631 -39.875 288.461 -39.8578 291.191 120.343Z" fill="#9DDAE9"/>
<path opacity="0.6" d="M144.411 170.816C142.796 264.688 2.23754 264.688 0.63916 170.813C2.25126 76.9382 142.809 76.9519 144.411 170.816ZM192.589 170.816C194.204 264.694 334.762 264.677 336.361 170.816C334.749 76.9382 194.191 76.9519 192.589 170.816Z" fill="#9DDAE9"/>
<path opacity="0.5" d="M237.858 98.1028C238.962 162.422 335.27 162.412 336.361 98.1028C335.256 33.7838 238.956 33.7941 237.858 98.1028ZM99.1419 98.1028C98.0374 162.422 1.7299 162.412 0.63916 98.1028C1.74362 33.7838 98.0443 33.7941 99.1419 98.1028Z" fill="#9DDAE9"/>
</g>
<g opacity="0.8">
<path opacity="0.8" d="M182.906 13.9425L183.139 21.3366C183.15 21.6558 183.262 21.9633 183.459 22.2147C183.655 22.4661 183.927 22.6485 184.233 22.7356L191.385 24.7981C191.691 24.8858 191.961 25.0687 192.157 25.3205C192.353 25.5723 192.464 25.8799 192.474 26.1989C192.484 26.518 192.392 26.8319 192.212 27.0954C192.033 27.3589 191.774 27.5584 191.474 27.665L184.47 30.1709C184.17 30.2772 183.911 30.4763 183.731 30.7395C183.551 31.0027 183.459 31.3164 183.468 31.6353L183.702 39.0294C183.709 39.3494 183.616 39.6636 183.435 39.9274C183.254 40.1912 182.994 40.3911 182.694 40.4988C182.393 40.6065 182.066 40.6165 181.759 40.5274C181.452 40.4382 181.182 40.2544 180.985 40.0022L176.42 34.1584C176.223 33.9048 175.951 33.7202 175.643 33.6312C175.334 33.5423 175.006 33.5536 174.705 33.6634L167.697 36.1694C167.398 36.2803 167.071 36.2931 166.764 36.2057C166.457 36.1183 166.185 35.9353 165.989 35.6832C165.792 35.4311 165.68 35.1229 165.67 34.8031C165.66 34.4833 165.751 34.1685 165.931 33.9041L170.112 27.7853C170.293 27.5225 170.385 27.2086 170.375 26.8894C170.365 26.5702 170.254 26.2626 170.057 26.0116L165.492 20.1678C165.298 19.9147 165.189 19.6066 165.18 19.2876C165.172 18.9687 165.264 18.6552 165.444 18.3921C165.624 18.1289 165.883 17.9295 166.183 17.8225C166.483 17.7154 166.809 17.7061 167.114 17.7959L174.266 19.8584C174.573 19.9481 174.901 19.9383 175.203 19.8302C175.505 19.7222 175.765 19.5216 175.946 19.2569L180.127 13.1416C180.307 12.8748 180.566 12.6719 180.868 12.562C181.17 12.4521 181.499 12.4408 181.807 12.5297C182.116 12.6187 182.388 12.8033 182.586 13.0571C182.783 13.311 182.895 13.6209 182.906 13.9425Z" fill="url(#paint0_linear_1317_12391)"/>
<path opacity="0.8" d="M213.591 34.6191L212.404 39.5931C212.352 39.8076 212.369 40.0332 212.455 40.2368C212.54 40.4404 212.688 40.6112 212.877 40.7241L217.264 43.3985C217.459 43.5088 217.613 43.68 217.702 43.8859C217.791 44.0918 217.811 44.3212 217.758 44.5394C217.706 44.7575 217.583 44.9524 217.41 45.0946C217.236 45.2367 217.022 45.3183 216.798 45.3269L211.653 45.7256C211.432 45.7424 211.223 45.8285 211.054 45.9717C210.885 46.115 210.766 46.3079 210.713 46.5231L209.509 51.4938C209.457 51.7093 209.338 51.9028 209.169 52.0466C209.001 52.1903 208.791 52.277 208.57 52.2942C208.35 52.3113 208.129 52.2581 207.94 52.1421C207.752 52.0262 207.604 51.8534 207.52 51.6485L205.544 46.9253C205.459 46.7208 205.312 46.5485 205.123 46.433C204.935 46.3175 204.715 46.2648 204.494 46.2825L199.349 46.6813C199.127 46.708 198.902 46.6612 198.708 46.5479C198.515 46.4347 198.363 46.2612 198.277 46.0538C198.191 45.8465 198.175 45.6166 198.231 45.3992C198.287 45.1817 198.412 44.9886 198.588 44.8491L202.502 41.5285C202.67 41.387 202.789 41.1953 202.841 40.9812C202.893 40.7672 202.875 40.5422 202.79 40.3391L200.821 35.6125C200.737 35.4075 200.72 35.181 200.772 34.9657C200.825 34.7503 200.944 34.5572 201.113 34.414C201.281 34.2708 201.491 34.1848 201.712 34.1686C201.932 34.1523 202.152 34.2065 202.34 34.3235L206.731 36.9978C206.919 37.1135 207.14 37.1665 207.36 37.1492C207.581 37.1319 207.79 37.0452 207.959 36.9016L211.876 33.581C212.043 33.4324 212.254 33.3414 212.476 33.3211C212.699 33.3008 212.923 33.3524 213.114 33.4683C213.305 33.5842 213.455 33.7583 213.541 33.9653C213.626 34.1723 213.644 34.4014 213.591 34.6191Z" fill="url(#paint1_linear_1317_12391)"/>
<path opacity="0.8" d="M144.857 16.3247L146.723 19.9375C146.804 20.0942 146.933 20.2211 147.091 20.3001C147.248 20.3791 147.427 20.4062 147.601 20.3775L151.665 19.7381C151.838 19.7094 152.015 19.7364 152.172 19.8151C152.328 19.8939 152.456 20.0203 152.536 20.1763C152.616 20.3322 152.644 20.5096 152.617 20.6829C152.59 20.8562 152.509 21.0165 152.386 21.1406L149.477 24.0212C149.353 24.1444 149.271 24.3042 149.243 24.4772C149.215 24.6503 149.243 24.8277 149.323 24.9838L151.189 28.6069C151.267 28.7643 151.294 28.9425 151.266 29.1161C151.237 29.2897 151.154 29.4499 151.03 29.5737C150.905 29.6976 150.744 29.7788 150.571 29.8058C150.398 29.8328 150.22 29.8042 150.064 29.7241L146.397 27.8816C146.239 27.8025 146.061 27.7749 145.887 27.8026C145.713 27.8304 145.552 27.9121 145.426 28.0363L142.518 30.9375C142.394 31.0633 142.233 31.1466 142.059 31.1755C141.885 31.2045 141.706 31.1776 141.549 31.0987C141.391 31.0198 141.262 30.8929 141.18 30.7361C141.099 30.5794 141.068 30.4008 141.094 30.2259L141.739 26.2041C141.767 26.0309 141.738 25.8534 141.658 25.6975C141.578 25.5416 141.45 25.4156 141.293 25.3378L137.63 23.4816C137.473 23.4027 137.344 23.2755 137.264 23.1186C137.184 22.9617 137.156 22.7832 137.184 22.6092C137.212 22.4351 137.294 22.2745 137.419 22.1507C137.545 22.0269 137.706 21.9464 137.88 21.9209L141.941 21.2816C142.113 21.2531 142.271 21.1714 142.394 21.0481C142.517 20.9249 142.599 20.7661 142.627 20.5941L143.272 16.5756C143.298 16.398 143.38 16.2334 143.506 16.1058C143.632 15.9782 143.796 15.8942 143.972 15.8662C144.149 15.8382 144.331 15.8676 144.49 15.95C144.649 16.0325 144.777 16.1638 144.857 16.3247Z" fill="url(#paint2_linear_1317_12391)"/>
</g>
<path opacity="0.5" d="M301.927 242.811C308.626 256.152 28.3605 256.152 35.073 242.811C28.3777 229.47 308.643 229.47 301.927 242.811Z" fill="#9DD9E2"/>
<g opacity="0.5">
<g style="mix-blend-mode:multiply">
<path d="M281.635 242.811C287.394 248.892 49.5887 248.892 55.3648 242.811C49.6058 236.73 287.411 236.73 281.635 242.811Z" fill="#9DD9E2"/>
</g>
</g>
<path d="M139.273 83.27C150.654 92.1216 154.845 73.1019 157.452 65.3331C158.663 61.6928 159.812 58.0284 160.827 54.3331C158.959 54.3147 157.101 54.0442 155.305 53.5287C153.044 58.1384 146.26 71.7475 143.903 76.6631C143.063 76.7009 142.092 79.6537 142.01 79.8325L141.369 80.0628C140.696 81.0597 139.983 82.1562 139.273 83.27Z" fill="url(#paint3_linear_1317_12391)"/>
<path d="M156.797 51.9853C156.769 50.9501 156.683 49.9172 156.539 48.8916C156.351 47.9669 157.373 44.7116 158.09 43.316C158.807 41.9203 159.235 43.0925 158.834 44.385C158.433 45.6775 158.021 47.135 158.021 47.135L158.416 51.2256L156.797 51.9853Z" fill="url(#paint4_linear_1317_12391)"/>
<path d="M157.483 51.3666C157.769 50.364 157.998 49.346 158.169 48.3175C158.261 47.3791 160.203 44.5638 161.3 43.4397C162.398 42.3156 162.463 43.56 161.695 44.6806C160.926 45.8013 160.11 47.0594 160.11 47.0594L159.28 51.0813L157.483 51.3666Z" fill="url(#paint5_linear_1317_12391)"/>
<path d="M158.313 52.1263C158.727 51.3156 159.095 50.4824 159.417 49.6307C159.661 48.8469 161.818 46.7672 162.94 45.9938C164.061 45.2203 163.917 46.2963 163.063 47.1213C162.209 47.9463 161.293 48.8847 161.293 48.8847L159.887 52.1882L158.313 52.1263Z" fill="url(#paint6_linear_1317_12391)"/>
<path d="M156.838 49.4038C156.766 51.9097 153.113 48.2316 152.516 48.6578C151.727 48.7403 151.631 48.8469 151.772 49.17C151.912 49.4931 153.086 49.3591 153.435 50.4625C153.785 51.5659 154.996 52.1813 155.061 53.3844C156.841 56.3063 164.459 56.0484 159.52 50.0913L156.838 49.4038Z" fill="url(#paint7_linear_1317_12391)"/>
<path d="M157.147 52.0541L159.301 51.5316C160.158 50.1738 162.179 49.1253 164.079 48.4791C165.29 48.1078 164.854 49.0119 163.873 49.5103C163.039 50.0844 161.386 50.2631 161.592 51.5728C161.829 56.54 158.303 53.5734 157.147 52.0541Z" fill="url(#paint8_linear_1317_12391)"/>
<path d="M121.231 92.95C124.915 93.8059 127.508 91.7469 129.268 89.7394C133.229 85.2156 137.102 80.7091 141.636 76.5222C142.847 75.7075 143.859 73.6622 145.389 74.0678C145.389 74.0678 149.031 74.9856 152.232 80.3309C152.232 80.3309 152.695 81.0459 151.439 82.2525C146.925 87.6941 134.56 97.1163 134.169 104.067C134.567 105.992 128.595 104.201 128.108 103.868C125.313 101.956 121.231 92.95 121.231 92.95Z" fill="url(#paint9_linear_1317_12391)"/>
<path d="M81.9954 88.1856C81.3951 92.6922 78.8501 99.5294 73.3724 98.1544C60.2286 94.796 48.1893 87.5428 36.3284 81.2075C37.9999 79.5244 39.4364 77.6222 40.5987 75.5528C46.8104 77.7116 65.2604 83.9816 71.8323 86.3225C72.6281 85.611 76.1747 87.4191 76.4114 87.5016L77.2003 87.1406C78.7095 87.4603 80.349 87.8075 81.9954 88.1856Z" fill="url(#paint10_linear_1317_12391)"/>
<path d="M37.8478 75.4978C36.9336 74.5312 36.0736 73.5144 35.2719 72.4522C34.6065 71.4484 30.7374 69.41 28.8304 68.7878C26.9233 68.1656 27.5887 69.6094 29.1219 70.4206C30.6551 71.2319 32.329 72.1875 32.329 72.1875L35.6664 76.2437L37.8478 75.4978Z" fill="url(#paint11_linear_1317_12391)"/>
<path d="M36.6679 75.5528C35.508 74.8956 34.3858 74.1737 33.3065 73.3906C32.3736 72.6241 28.0723 71.8059 26.0624 71.7681C24.0524 71.7303 25.126 72.9163 26.841 73.2428C28.556 73.5694 30.4288 73.9819 30.4288 73.9819L34.8192 76.8831L36.6679 75.5528Z" fill="url(#paint12_linear_1317_12391)"/>
<path d="M36.6062 76.9794C35.4986 76.616 34.4119 76.1914 33.3512 75.7075C32.4216 75.2091 28.5972 75.2469 26.8719 75.5563C25.1466 75.8656 26.2648 76.7009 27.7808 76.6872C29.2969 76.6734 30.9776 76.7078 30.9776 76.7078L35.2377 78.4266L36.6062 76.9794Z" fill="url(#paint13_linear_1317_12391)"/>
<path d="M35.4846 73.1947C37.8135 75.3981 37.7998 68.8084 38.7259 68.6641C39.5148 68.0316 39.6966 68.0453 39.8613 68.4647C40.0259 68.8841 38.8323 69.8053 39.5183 71.115C40.2043 72.4247 39.6589 74.0678 40.6845 75.2125C41.7135 79.4441 34.5859 86.0097 33.6873 76.1956L35.4846 73.1947Z" fill="url(#paint14_linear_1317_12391)"/>
<path d="M37.5973 75.8725L35.1758 77.3231C33.1692 76.8591 30.3738 77.7081 28.0894 78.8184C26.6556 79.5644 27.8699 79.9941 29.2041 79.5678C30.4767 79.3478 32.1368 78.0312 33.1315 79.3959C37.4121 84.1122 37.9232 78.2787 37.5973 75.8725Z" fill="url(#paint15_linear_1317_12391)"/>
<path d="M100.191 59.1938C100.191 59.1938 98.1677 69.3481 105.82 74.47C113.472 79.5919 103.141 58.7985 103.141 58.7985L100.191 59.1938Z" fill="url(#paint16_linear_1317_12391)"/>
<path d="M84.3141 200.874C84.3141 200.874 82.8803 207.343 86.5367 211.606C81.6524 213.699 73.5953 197.78 74.103 192.751C81.6695 190.881 83.9539 193.875 84.3141 200.874Z" fill="url(#paint17_linear_1317_12391)"/>
<path d="M88.5124 199.403C88.5124 199.403 84.6913 200.87 84.2592 200.434C83.827 199.997 81.059 195.937 81.6352 193.074L85.0652 192.528L89.0029 196.653L88.5124 199.403Z" fill="url(#paint18_linear_1317_12391)"/>
<path d="M117.314 72.4419C117.314 72.4419 119.029 84.6725 124.25 83.9644C124.25 83.9644 120.274 92.4 111.634 85.4666C111.634 85.4666 110.8 79.066 108.098 74.7141L117.314 72.4419Z" fill="url(#paint19_linear_1317_12391)"/>
<path d="M122.644 56.4953C122.644 56.4953 122.161 62.2703 123.882 66.2578C125.549 69.7435 124.99 77.9866 119.883 80.1281C117.187 80.2141 109.154 80.0422 106.105 75.24C106.105 75.24 105.11 72.5313 104.39 70.8469C103.669 69.1625 101.011 68.8188 101.522 65.6906C102.033 62.5625 103.669 64.1506 103.669 64.1506C103.669 64.1506 103.508 61.851 103.522 59.895C103.536 57.9391 122.644 56.4953 122.644 56.4953Z" fill="url(#paint20_linear_1317_12391)"/>
<path d="M129.655 190.259C112.059 195.46 88.5124 199.403 88.5124 199.403C86.9269 197.356 85.7517 195.022 85.0515 192.528C85.0515 192.528 98.9327 188.2 109.662 180.293C120.391 172.387 130.465 172.645 130.465 172.645C132.825 169.895 127.172 157.31 122.788 146.4C128.784 155.911 147.508 173.938 145.57 178.554C145.57 178.561 137.091 181.06 129.655 190.259Z" fill="url(#paint21_linear_1317_12391)"/>
<path d="M145.354 184.013C141.983 186.165 136.265 188.296 129.727 190.252C137.136 181.033 145.605 178.506 145.605 178.506C148.479 172.521 119.88 150.047 122.195 141.632L118.604 129.707C121.691 124.049 137.699 121.925 137.699 121.925L144.418 125.218L147.574 131.062L144.96 140.477C144.96 140.477 157.785 176.065 145.354 184.013Z" fill="url(#paint22_linear_1317_12391)"/>
<path d="M163.283 184.759C153.929 196.133 114.134 216.906 114.134 216.906C111.988 215.454 110.14 213.602 108.691 211.451C108.413 212.07 123.409 200.038 129.727 190.245C136.265 188.289 141.983 186.158 145.354 184.006C157.785 176.058 144.96 140.453 144.96 140.453L147.577 131.044C148.633 132.914 148.496 132.574 149.031 135.692C150.616 151.106 172.513 171.102 163.283 184.759Z" fill="url(#paint23_linear_1317_12391)"/>
<path d="M109.919 218.89C109.919 218.89 111.133 225.421 116.168 227.913C112.491 231.736 98.8332 220.193 97.3274 215.363C103.563 210.719 106.846 212.592 109.919 218.89Z" fill="url(#paint24_linear_1317_12391)"/>
<path d="M114.553 216.583L109.919 218.89C109.919 218.89 105.388 216.363 104.702 212.84L109.123 211.121L114.553 216.583Z" fill="url(#paint25_linear_1317_12391)"/>
<path d="M132.591 108.058C135.394 118.535 139.942 132.168 144.137 136.153C145.72 135.195 147.185 134.053 148.5 132.749C144.469 125.015 140.741 106.088 139.4 98.1544C138.535 93.2628 136.594 89.9044 134.279 86.7419C133.964 86.3297 133.513 86.0434 133.006 85.9341C127.573 84.6003 123.341 84.1775 120.847 82.4966C126.932 87.4294 129.96 94.9713 132.591 108.058Z" fill="url(#paint26_linear_1317_12391)"/>
<path d="M111.634 85.4666C111.773 85.575 111.919 85.6749 112.07 85.7656C113.843 87.6116 125.639 88.3644 120.833 82.4863C131.49 88.141 134.608 127.469 144.157 136.153C140.722 138.278 136.957 139.815 133.017 140.7C125.934 128.219 124.627 95.3631 111.634 85.4666Z" fill="url(#paint27_linear_1317_12391)"/>
<path d="M133 140.7C129.493 141.497 125.903 141.867 122.308 141.804C121.965 141.271 121.581 140.68 121.224 140.123C120.703 139.291 120.168 138.438 119.643 137.593C112.478 125.496 102.493 108.818 101.464 95.3597C101.464 95.3597 107.528 86.7178 111.651 85.4734C125.834 97.8347 124.551 124.413 133 140.7Z" fill="url(#paint28_linear_1317_12391)"/>
<path style="mix-blend-mode:multiply" opacity="0.6" d="M148.287 132C147.67 134.296 146.716 134.516 144.833 135.688C138.316 139.948 130.273 141.986 122.514 141.714C121.636 141.408 121.114 139.93 120.658 139.195C119.943 138.033 119.231 136.87 118.525 135.706C116.148 131.794 113.874 127.834 111.733 123.781C110.066 120.625 108.447 117.367 106.986 114.101C106.928 112.148 107.175 110.622 108.108 110.663C108.571 110.688 109.26 111.626 110.128 113.145C112.186 116.298 128.76 112.688 135.912 109.409C135.74 110.052 122.878 116.019 118.419 116.167C117.71 116.262 117.034 116.527 116.449 116.938C115.864 117.35 115.386 117.897 115.055 118.532C114.725 119.168 114.552 119.874 114.551 120.591C114.55 121.307 114.722 122.014 115.05 122.65C118.967 130.082 123.968 138.198 128.911 138.04C136.519 137.947 144.905 135.891 148.287 132Z" fill="url(#paint29_linear_1317_12391)"/>
<path d="M103.436 49.6238C109.048 44.3609 115.342 47.5888 121.046 50.2528C123.155 50.6413 124.321 48.8778 123.91 47.0869C123.471 45.1722 121.749 43.2678 121.749 43.2678C128.002 47.795 127.58 51.7619 126.373 55.4331C122.538 64.4394 108.818 60.5241 108.317 59.6853C109.003 61.1222 108.358 71.4313 103.659 64.1541C98.7028 58.9531 98.7165 53.5219 103.436 49.6238Z" fill="url(#paint30_linear_1317_12391)"/>
<path style="mix-blend-mode:multiply" opacity="0.6" d="M120.285 106.136L118.913 108.505L124.634 111.65C123.286 98.3125 111.469 84.8203 111.638 85.4666C111.638 85.4666 112.101 91.1178 110.574 94.7478C110.571 94.7513 118.724 102.29 120.285 106.136Z" fill="url(#paint31_linear_1317_12391)"/>
<path style="mix-blend-mode:multiply" opacity="0.6" d="M130.396 98.8178C130.859 101.159 131.621 104.418 132.591 108.058L134.951 104.603L132.042 100.908L131.892 90.0866C131.823 90.0419 120.916 82.5241 120.844 82.4966C121.187 82.7819 128.434 88.8938 130.396 98.8178Z" fill="url(#paint32_linear_1317_12391)"/>
<path d="M105.625 90.1794C103.371 93.3075 99.3958 92.8331 96.151 91.8981C88.8486 89.7909 81.6318 87.6563 74.175 86.2297C72.731 86.185 69.62 84.7206 68.8963 86.0716C68.8963 86.0716 66.7319 89.2375 68.8963 96.58C68.8963 96.58 69.1569 97.5872 71.2698 98.0272C81.0933 101.121 97.2864 102.135 104.987 109.323C106.383 111.502 109.679 106.023 109.789 105.39C110.348 101.75 105.625 90.1794 105.625 90.1794Z" fill="url(#paint33_linear_1317_12391)"/>
<path d="M243.236 87.9175C239.899 89.045 239.017 96.8069 232.802 93.9263C228.686 91.1763 227.657 96.996 221.847 94.7513C216.036 92.5066 220.039 91.2072 215.1 90.0728C210.161 88.9384 211.56 86.4909 211.56 86.4909C213.426 83.0844 214.867 82.5619 212.304 76.1303C209.036 67.9353 215.419 69.1591 217.679 64.9447C219.94 60.7303 225.331 57.8978 227.383 60.8472C231.752 52.7416 237.71 58.7847 240.945 66.5947C242.454 69.3653 244.8 71.5447 246.213 74.3772C248.24 78.4609 247.956 85.6625 243.236 87.9175Z" fill="url(#paint34_linear_1317_12391)"/>
<path d="M220.005 83.1875C220.005 83.1875 217.381 94.2631 213.553 94.4247C213.553 94.4247 216.794 101.836 225.047 95.5213C225.047 95.5213 225.97 89.5366 228.597 85.5113L220.005 83.1875Z" fill="url(#paint35_linear_1317_12391)"/>
<path d="M220.091 69.2038C220.187 75.735 212.04 80.7916 218.118 89.2925C218.118 89.2925 227.722 91.8019 231.907 87.4913C231.907 87.4913 233.207 85.3738 234.119 84.071C235.032 82.7681 237.44 82.8919 237.464 80.1831C237.488 77.4744 235.793 78.5572 235.793 78.5572C235.793 78.5572 236.291 76.6528 236.582 75.0063C236.874 73.3597 220.091 69.2038 220.091 69.2038Z" fill="url(#paint36_linear_1317_12391)"/>
<path d="M220.091 69.2038C220.091 69.2038 220.639 80.1041 236.212 78.8494C251.784 77.5947 230.065 68.6228 230.065 68.6228L220.091 69.2038Z" fill="url(#paint37_linear_1317_12391)"/>
<path d="M186.357 68.3203C186.357 68.3203 182.669 70.1594 181.181 69.5888L180.872 68.4922C180.855 68.4166 180.831 68.341 180.81 68.2653C182.741 68.3203 186.158 67.5434 185.955 67.5125C186.093 67.7841 186.209 68.0178 186.357 68.3203Z" fill="url(#paint38_linear_1317_12391)"/>
<path d="M184.573 66.0756C184.599 65.1048 184.679 64.1362 184.813 63.1744C184.988 62.315 184.034 59.2763 183.366 57.9734C182.697 56.6706 182.295 57.7672 182.68 58.9703C183.064 60.1735 183.438 61.5244 183.438 61.5244L183.067 65.34L184.573 66.0756Z" fill="url(#paint39_linear_1317_12391)"/>
<path d="M183.935 65.4981C183.673 64.5629 183.464 63.6138 183.307 62.6553C183.221 61.7822 181.41 59.1559 180.388 58.1075C179.366 57.0591 179.304 58.2209 180.021 59.2625C180.738 60.3041 181.5 61.4831 181.5 61.4831L182.275 65.2369L183.935 65.4981Z" fill="url(#paint40_linear_1317_12391)"/>
<path d="M183.156 66.2097C182.77 65.4539 182.427 64.677 182.127 63.8825C181.901 63.1503 179.898 61.2116 178.841 60.4897C177.785 59.7678 177.933 60.7716 178.725 61.5416C179.517 62.3116 180.378 63.1881 180.378 63.1881L181.688 66.2819L183.156 66.2097Z" fill="url(#paint41_linear_1317_12391)"/>
<path d="M184.539 63.6694C184.607 66.0069 188.013 62.5763 188.572 62.9819C189.31 63.0575 189.395 63.1572 189.258 63.4597C189.121 63.7622 188.034 63.635 187.708 64.6628C187.382 65.6906 186.25 66.2716 186.188 67.3922C184.532 70.1182 177.425 69.8741 182.045 64.3191L184.539 63.6694Z" fill="url(#paint42_linear_1317_12391)"/>
<path d="M184.247 66.1444L182.237 65.6563C181.438 64.3878 179.555 63.4047 177.778 62.8066C176.646 62.4628 177.054 63.305 177.967 63.7656C178.745 64.3019 180.289 64.4531 180.097 65.6872C179.877 70.3244 183.17 67.5572 184.247 66.1444Z" fill="url(#paint43_linear_1317_12391)"/>
<path d="M217.751 104.294C217.751 104.294 213.941 112.695 211.334 114.469C210.881 114.778 205.311 116.449 205.681 114.654C206.23 112.032 201.428 106.607 201.428 106.607C197.483 102.465 193.319 98.5359 189.632 94.1531C187.835 91.6162 187.444 88.5603 186.408 85.6934C184.532 80.3688 182.738 75.0166 181.184 69.5888C182.673 70.1594 186.36 68.3203 186.36 68.3203C190.294 74.6934 192.877 82.0944 197.573 87.8934C202.032 92.1663 206.185 96.6453 210.264 101.3C211.896 103.17 214.314 105.091 217.751 104.294Z" fill="url(#paint44_linear_1317_12391)"/>
<path d="M293.465 92.4447C292.992 92.7197 292.515 92.9878 292.038 93.2594C290.385 91.6849 289.21 89.6748 288.646 87.4603C288.944 87.3606 289.205 87.2644 289.479 87.1716C289.294 87.0444 291.637 90.75 293.465 92.4447Z" fill="url(#paint45_linear_1317_12391)"/>
<path d="M292.038 87.1132C292.891 86.2111 293.692 85.262 294.439 84.2703C295.06 83.3319 298.669 81.4344 300.452 80.8535C302.236 80.2725 301.608 81.6166 300.178 82.3728C298.747 83.1291 297.183 84.0091 297.183 84.0091L294.069 87.7903L292.038 87.1132Z" fill="url(#paint46_linear_1317_12391)"/>
<path d="M293.136 87.1613C294.219 86.5478 295.266 85.8741 296.274 85.1434C297.145 84.4319 301.159 83.6688 303.031 83.6309C304.904 83.5931 303.913 84.7034 302.321 85.0059C300.73 85.3084 298.974 85.6934 298.974 85.6934L294.878 88.3988L293.136 87.1613Z" fill="url(#paint47_linear_1317_12391)"/>
<path d="M293.198 88.495C294.231 88.1578 295.244 87.763 296.233 87.3125C297.101 86.8484 300.665 86.8828 302.277 87.1716C303.889 87.4603 302.843 88.2372 301.43 88.2269C300.016 88.2166 298.445 88.2441 298.445 88.2441L294.473 89.8631L293.198 88.495Z" fill="url(#paint48_linear_1317_12391)"/>
<path d="M294.24 84.9613C292.069 87.0238 292.083 80.8706 291.218 80.7331C290.481 80.1453 290.313 80.1591 290.158 80.5475C290.004 80.9359 291.112 81.7987 290.474 83.0225C289.836 84.2462 290.34 85.7725 289.383 86.845C288.419 90.7913 295.074 96.9169 295.9 87.7628L294.24 84.9613Z" fill="url(#paint49_linear_1317_12391)"/>
<path d="M292.272 87.4603L294.532 88.8147C296.401 88.3781 298.991 89.1585 301.142 90.2103C302.479 90.8978 301.344 91.3035 300.113 90.8978C298.922 90.6916 297.369 89.4644 296.446 90.7397C292.447 95.1466 291.98 89.7188 292.272 87.4603Z" fill="url(#paint50_linear_1317_12391)"/>
<path d="M252.192 202.744C252.192 202.744 253.53 208.78 250.134 212.754C254.693 214.71 262.208 199.86 261.734 195.168C254.658 193.421 252.535 196.223 252.192 202.744Z" fill="url(#paint51_linear_1317_12391)"/>
<path d="M248.275 201.372C248.275 201.372 251.835 202.747 252.24 202.342C252.645 201.936 255.228 198.144 254.689 195.467L251.506 194.961L247.833 198.811L248.275 201.372Z" fill="url(#paint52_linear_1317_12391)"/>
<path d="M209.893 192.844C226.306 197.694 248.275 201.376 248.275 201.376C249.754 199.466 250.851 197.288 251.506 194.961C251.506 194.961 238.551 190.926 228.546 183.563C218.54 176.199 209.135 176.426 209.135 176.426C206.937 173.879 212.222 162.123 216.297 151.944C210.703 160.817 193.237 177.633 195.031 181.94C195.045 181.93 202.954 184.25 209.893 192.844Z" fill="url(#paint53_linear_1317_12391)"/>
<path d="M178.522 187.712C187.248 198.32 224.371 217.707 224.371 217.707C226.374 216.352 228.097 214.624 229.448 212.616C229.708 213.194 215.728 201.96 209.825 192.833C203.726 191.012 198.392 189.025 195.247 187.014C183.654 179.599 195.614 146.386 195.614 146.386L195.172 134.575L194.753 134.461C193.525 136.758 192.215 139.298 191.827 141.89C190.359 156.289 169.913 174.969 178.522 187.712Z" fill="url(#paint54_linear_1317_12391)"/>
<path d="M195.254 187C198.399 189.011 203.733 190.998 209.831 192.82C202.92 184.226 195.021 181.861 195.021 181.861C192.963 176.705 213.076 159.981 217.069 149.755C217.442 146.666 218.061 143.611 218.921 140.621L220.204 136.355C217.333 131.075 202.392 129.095 202.392 129.095C196.146 132.351 194.472 131.23 194.259 139.346C195.847 153.185 183.249 176.718 195.254 187Z" fill="url(#paint55_linear_1317_12391)"/>
<path d="M228.305 219.55C228.305 219.55 227.17 225.627 222.474 227.968C225.904 231.533 238.65 220.749 240.053 216.26C234.232 211.922 231.169 213.675 228.305 219.55Z" fill="url(#paint56_linear_1317_12391)"/>
<path d="M223.98 217.398L228.305 219.55C228.305 219.55 232.518 217.192 233.166 213.905L229.05 212.293L223.98 217.398Z" fill="url(#paint57_linear_1317_12391)"/>
<path d="M262.482 96.4631L261.94 96.6522L261.964 96.4253C262.137 96.3961 262.315 96.4091 262.482 96.4631Z" fill="url(#paint58_linear_1317_12391)"/>
<path d="M292.038 93.2594C288.039 95.0022 281.683 99.0447 277.485 101.035C265.888 107.498 252.912 110.124 240.132 113.183C240.132 113.149 231.104 115.833 229.42 118.666C228.113 120.698 225.04 115.572 224.961 114.995C224.44 111.499 228.823 100.829 228.823 100.805C230.936 103.74 234.654 103.269 237.662 102.41C245.49 100.148 253.279 98.0375 261.302 96.5663C270.614 94.3732 279.512 90.286 288.66 87.4638C289.22 89.6754 290.391 91.6841 292.038 93.2594Z" fill="url(#paint59_linear_1317_12391)"/>
<path d="M233.125 111.612C229.842 122.134 224.303 132.22 218.575 141.584C217.021 141.625 215.549 141.584 214.146 141.488C201.493 140.594 194.911 134.613 194.753 134.458C196.633 130.928 198.132 122.959 198.886 117.958C199.754 114.283 197.94 110.657 198.886 106.982C199.572 104.067 202.08 102.644 203.719 100.42C204.988 98.8144 206.22 97.1713 207.571 95.6588C208.47 94.9197 210.36 94.6447 211.546 94.4694C213.111 94.1806 215.193 93.9091 216.434 92.8503C216.191 93.1459 214.332 95.5041 217.12 96.2878C221.984 97.4703 224.821 95.1672 224.821 95.1672C228.336 96.1778 233.053 101.698 234.459 103.376C234.527 105.796 234.013 108.598 233.125 111.612Z" fill="url(#paint60_linear_1317_12391)"/>
<path style="mix-blend-mode:multiply" opacity="0.5" d="M261.089 107.955C249.983 111.757 242.663 110.77 231.276 116.947C227.904 125.51 223.387 133.791 218.585 141.584C217.031 141.625 215.56 141.584 214.157 141.488C201.503 140.594 194.921 134.613 194.763 134.458C201.867 137.641 212.62 142.99 219.71 137.297C222.454 134.203 224.392 129.102 223.232 124.977C222.145 120.918 207.489 121.54 203.043 115.589C203.043 115.589 210.346 118.683 216.794 119.45C220.735 119.91 222.567 116.459 225.51 114.579C236.311 108.728 249.585 111.877 261.089 107.955Z" fill="url(#paint61_linear_1317_12391)"/>
<g opacity="0.6">
<g opacity="0.8">
<path opacity="0.8" d="M297.811 226.411C300.212 224.692 305.103 224.318 303.21 219.986C302.558 218.488 301.086 217.446 299.505 216.982C296.916 216.064 294.319 217.563 291.85 216.755C287.946 213.166 300.167 209.268 294.278 204.665C292.83 203.534 290.989 202.771 289.877 201.262C288.389 199.244 288.848 196.683 287.854 194.521C286.859 192.359 285.182 194.831 285.363 196.388C285.525 197.763 286.351 198.993 286.632 200.358C287.812 205.992 280.489 208.182 281.909 210.217C284.002 211.743 287.682 211.592 288.629 214.479C289.212 217.889 286.44 220.595 289.678 223.939C291.829 225.864 292.577 226.208 292.155 229.13C292.422 230.663 295.859 232.079 296.271 230.178L298.593 233.245L299.186 232.141L296.73 228.443C296.909 227.659 297.18 226.841 297.811 226.411ZM295.753 224.558C295.71 225.208 295.574 225.848 295.352 226.459C297.221 220.031 291.122 222.41 290.097 217.577C289.219 214.644 290.097 211.588 289.816 208.608C289.49 205.057 287.758 201.792 287.415 198.241C287.939 201.699 289.682 204.854 290.114 208.333C290.495 211.454 289.521 214.665 290.481 217.721C291.105 221.396 296.202 220.43 295.753 224.558Z" fill="#6AAE80"/>
</g>
<g opacity="0.8">
<path opacity="0.8" d="M319.763 210.973C318.926 211.564 318.446 212.537 317.664 213.201C314.463 215.951 310.224 211.949 309.432 213.586C309.236 215.483 310.756 217.814 309.24 219.471C307.281 221.011 304.328 220.282 303.477 223.486C303.09 225.5 303.042 226.236 301.045 226.923C300.133 227.666 300.572 230.385 301.947 229.983L300.843 232.574H301.786L303.254 229.67C306.3 228.553 308.516 234.482 311.256 230.918C311.984 229.965 312.097 228.638 311.788 227.446C311.394 225.428 309.425 224.276 308.993 222.368C309.833 218.56 317.074 225.16 317.808 219.698C317.989 218.357 317.777 216.886 318.336 215.628C319.077 213.947 320.922 213.352 321.951 211.936C322.98 210.519 320.692 210.306 319.763 210.973ZM319.077 213.183C317.125 214.758 315.757 216.965 313.668 218.378C311.802 219.656 309.428 220.148 307.837 221.815C305.436 224.087 308.886 227.315 304.022 228.078C308.855 227.119 305.086 223.847 307.795 221.523C309.38 219.911 311.692 219.412 313.534 218.182C315.719 216.724 317.183 214.431 319.365 212.957L319.077 213.183Z" fill="#6AAE80"/>
</g>
<path d="M307.703 188.891C303.278 187.653 298.785 184.766 297.907 180.276C297.502 178.162 297.962 175.931 297.375 173.862C296.71 171.524 292.858 169.012 292.707 172.645C293.794 182.425 296.024 181.992 289.52 190.898C283.23 200.949 306.67 200.179 299.066 207.618C293.695 209.375 286.063 211.063 285.806 218.02C285.693 227.463 296.665 220.529 300.064 226.332L298.747 233.063L300.243 234.29L301.752 228.553C303.467 231.028 307.552 226.985 307.027 224.644C306.835 223.733 306.105 223.028 305.772 222.159C304.671 217.594 310.574 214.844 307.072 208.22C304.228 204.095 301.306 201.001 305.614 196.532C307.758 194.167 314.175 190.654 307.703 188.891ZM303.127 209.602C301.817 215.404 295.259 214.998 300.864 222.695C294.84 215.098 301.55 215.043 302.678 209.536C302.904 207.587 302.493 205.597 301.889 203.744C300.562 199.963 298.209 196.563 297.375 192.607C296.298 187.694 296.748 182.59 295.544 177.702C297.221 183.202 296.535 189.186 298.449 194.638C300.212 199.526 303.817 204.146 303.127 209.602Z" fill="#6AAE80"/>
<path d="M307.847 235.273C307.113 247.459 288.893 243.478 293.352 232.124H307.171C307.622 233.112 307.853 234.187 307.847 235.273Z" fill="#4D896C"/>
</g>
<g opacity="0.6">
<g opacity="0.8">
<path opacity="0.8" d="M41.782 226.827C44.1384 225.16 48.8889 224.788 47.047 220.567C46.409 219.103 44.989 218.089 43.4352 217.638C40.9142 216.745 38.3794 218.202 35.9715 217.418C32.1711 213.919 44.0801 210.121 38.3417 205.635C36.9319 204.531 35.1346 203.789 34.0507 202.317C32.5999 200.351 33.056 197.849 32.0785 195.748C31.1009 193.648 29.4751 196.047 29.6535 197.567C29.8078 198.914 30.6139 200.107 30.8883 201.434C32.0373 206.934 24.9029 209.062 26.2852 211.059C28.3432 212.547 31.9139 212.41 32.8331 215.212C33.3956 218.525 30.7134 221.207 33.8621 224.434C35.9578 226.311 36.685 226.645 36.2631 229.491C36.5238 230.986 39.8749 232.365 40.2831 230.522L42.5469 233.506L43.1231 232.433L40.7221 228.831C40.9245 228.044 41.1851 227.246 41.782 226.827ZM39.7891 225.022C39.746 225.655 39.6144 226.279 39.3981 226.875C41.2194 220.608 35.2821 222.925 34.2737 218.216C33.4196 215.363 34.2737 212.372 34.0027 209.474C33.7009 206.016 31.9859 202.837 31.6429 199.375C32.154 202.747 33.8484 205.82 34.2737 209.213C34.6441 212.255 33.694 215.383 34.6167 218.364C35.265 221.939 40.235 221 39.7891 225.022Z" fill="#6AAE80"/>
</g>
<g opacity="0.8">
<path opacity="0.8" d="M63.1782 211.784C62.3618 212.358 61.8954 213.304 61.1202 213.95C57.9989 216.631 53.8692 212.733 53.0871 214.328C52.895 216.178 54.3768 218.453 52.8985 220.065C50.9983 221.55 48.0965 220.88 47.2801 223.977C46.9063 225.94 46.8582 226.658 44.91 227.332C44.0216 228.058 44.4538 230.708 45.7915 230.316L44.7145 232.843H45.6372L47.064 230.01C50.0344 228.92 52.1919 234.688 54.8639 231.227C55.5739 230.295 55.6836 229.003 55.3818 227.841C54.9976 225.878 53.0768 224.747 52.6584 222.894C53.4781 219.182 60.5474 225.613 61.2505 220.292C61.4255 218.982 61.2197 217.542 61.7616 216.325C62.4853 214.686 64.2861 214.105 65.2842 212.726C66.2823 211.348 64.1009 211.131 63.1782 211.784ZM62.4922 213.936C60.592 215.469 59.2543 217.611 57.2203 218.996C55.4504 220.213 53.2106 220.691 51.6602 222.231C49.1049 224.417 52.6275 227.731 47.8221 228.456C52.5315 227.521 48.8511 224.331 51.4956 222.066C53.0391 220.495 55.2926 220.003 57.0865 218.811C59.2165 217.391 60.6434 215.157 62.7666 213.72L62.4922 213.936Z" fill="#6AAE80"/>
</g>
<path d="M51.4408 190.262C47.1293 189.052 42.7355 186.233 41.8952 181.864C41.5007 179.802 41.9466 177.629 41.3738 175.612C40.729 173.336 36.9731 170.885 36.8256 174.426C37.8855 183.958 40.0567 183.535 33.7386 192.218C27.6058 202.015 50.4702 201.259 43.0408 208.512C37.8135 210.231 30.3669 211.87 30.1234 218.649C30.0136 227.855 40.7084 221.097 44.0183 226.748L42.7287 233.303L44.1898 234.499L45.6579 228.907C47.342 231.313 51.3139 227.384 50.8029 225.098C50.6108 224.211 49.9008 223.523 49.5784 222.674C48.5185 218.243 54.2569 215.552 50.8269 209.096C48.0589 205.068 45.2051 202.073 49.4069 197.715C51.4854 195.401 57.7486 191.981 51.4408 190.262ZM46.9818 210.447C45.6887 216.109 39.3192 215.724 44.7764 223.204C38.9111 215.806 45.4212 215.768 46.5428 210.382C46.7658 208.484 46.3644 206.542 45.7745 204.737C44.4814 201.056 42.1867 197.739 41.3772 193.882C40.3276 189.093 40.7633 184.119 39.5936 179.355C41.2263 184.731 40.5575 190.547 42.4234 195.855C44.1521 200.626 47.6541 205.129 46.9818 210.447Z" fill="#6AAE80"/>
<path d="M51.5815 235.469C50.8646 247.345 33.1041 243.468 37.4362 232.403H50.9092C51.3518 233.364 51.5812 234.41 51.5815 235.469Z" fill="#4D896C"/>
</g>
<g opacity="0.8">
<path d="M101.334 131.154C93.2251 125.17 82.9831 123.733 73.1905 122.512C66.3579 122.024 59.419 123.107 52.6688 121.481C41.3292 119.663 35.2752 111.684 26.8409 105.084L26.9849 104.806C31.8555 106.439 35.9544 109.77 40.1767 112.53C49.8287 118.968 61.7171 121.32 73.2179 121.509C83.333 120.821 95.3311 121.791 101.55 130.938L101.334 131.154ZM87.4936 142.594C79.8378 139.501 71.4309 140.467 63.4287 141.498C57.9407 142.498 52.6379 144.781 46.9647 144.877C37.8169 145.784 31.0289 140.618 23.1399 137.156L23.1982 136.909C28.6862 137.311 33.8312 140.281 39.0551 141.45C46.9681 143.234 55.3888 142.608 63.2503 140.7C71.0776 138.098 80.8634 136.424 87.6273 142.381L87.4936 142.594ZM94.9881 153.35C88.2619 152.522 81.6934 154.646 75.3754 156.747C71.0913 158.397 67.1434 160.916 62.5918 161.954C55.7592 164.144 48.9369 161.762 42.1661 160.679V160.497C46.6251 159.827 51.2659 161.012 55.67 160.927C62.3414 160.803 69.0196 158.916 75.1044 156.217C81.0246 153.086 88.5363 150.16 95.0567 153.175L94.9881 153.35Z" fill="#FFD35C"/>
</g>
<g opacity="0.8">
<path d="M233.327 143.193C240.029 135.682 249.76 132.193 259.093 129.003C265.679 127.136 272.696 126.782 278.966 123.846C289.651 119.776 293.993 110.681 300.85 102.534L300.654 102.293C296.223 104.885 292.903 108.979 289.335 112.54C281.217 120.808 270.066 125.527 258.849 128.054C248.81 129.456 237.261 132.832 233.063 143.052L233.327 143.193ZM249.225 151.573C256.085 146.998 264.509 146.218 272.549 145.599C278.126 145.461 283.789 146.63 289.356 145.558C298.504 144.581 304.084 138.143 311.088 133.145L310.982 132.914C305.69 134.423 301.272 138.38 296.398 140.587C289.02 143.945 280.651 145.056 272.563 144.777C264.365 143.828 254.442 144.179 249.05 151.388L249.225 151.573Z" fill="#FFD35C"/>
</g>
<path d="M251.369 165.234C257.766 163.02 264.639 163.721 271.263 164.45C275.804 165.168 280.212 166.801 284.866 166.856C292.007 167.568 298.171 163.814 304.561 161.336L304.517 161.157C300.013 161.435 295.732 163.563 291.407 164.402C284.856 165.688 277.917 165.244 271.4 163.876C264.948 162.054 256.994 160.782 251.249 165.079L251.369 165.234Z" fill="#FFD35C"/>
<defs>
<linearGradient id="paint0_linear_1317_12391" x1="183.428" y1="18.4288" x2="148.853" y2="56.9088" gradientUnits="userSpaceOnUse">
<stop stop-color="#FFD35C"/>
<stop offset="1" stop-color="#F26623"/>
</linearGradient>
<linearGradient id="paint1_linear_1317_12391" x1="214.302" y1="36.3211" x2="184.299" y2="55.985" gradientUnits="userSpaceOnUse">
<stop stop-color="#FFD35C"/>
<stop offset="1" stop-color="#F26623"/>
</linearGradient>
<linearGradient id="paint2_linear_1317_12391" x1="145.995" y1="18.6417" x2="137.861" y2="45.9354" gradientUnits="userSpaceOnUse">
<stop stop-color="#FFD35C"/>
<stop offset="1" stop-color="#F26623"/>
</linearGradient>
<linearGradient id="paint3_linear_1317_12391" x1="124.789" y1="99.0113" x2="160.257" y2="57.4262" gradientUnits="userSpaceOnUse">
<stop stop-color="#EF877E"/>
<stop offset="1" stop-color="#FABEB2"/>
</linearGradient>
<linearGradient id="paint4_linear_1317_12391" x1="117.833" y1="92.9466" x2="153.228" y2="51.4481" gradientUnits="userSpaceOnUse">
<stop stop-color="#EF877E"/>
<stop offset="1" stop-color="#FABEB2"/>
</linearGradient>
<linearGradient id="paint5_linear_1317_12391" x1="118.976" y1="94.0307" x2="154.423" y2="52.4721" gradientUnits="userSpaceOnUse">
<stop stop-color="#EF877E"/>
<stop offset="1" stop-color="#FABEB2"/>
</linearGradient>
<linearGradient id="paint6_linear_1317_12391" x1="120.327" y1="95.2425" x2="155.803" y2="53.6501" gradientUnits="userSpaceOnUse">
<stop stop-color="#EF877E"/>
<stop offset="1" stop-color="#FABEB2"/>
</linearGradient>
<linearGradient id="paint7_linear_1317_12391" x1="119.381" y1="93.2266" x2="154.329" y2="52.2547" gradientUnits="userSpaceOnUse">
<stop stop-color="#EF877E"/>
<stop offset="1" stop-color="#FABEB2"/>
</linearGradient>
<linearGradient id="paint8_linear_1317_12391" x1="121.003" y1="96.0422" x2="156.577" y2="54.3344" gradientUnits="userSpaceOnUse">
<stop stop-color="#EF877E"/>
<stop offset="1" stop-color="#FABEB2"/>
</linearGradient>
<linearGradient id="paint9_linear_1317_12391" x1="134.813" y1="86.4908" x2="155.459" y2="115.733" gradientUnits="userSpaceOnUse">
<stop stop-color="#044F8B"/>
<stop offset="1" stop-color="#5B2D0F"/>
</linearGradient>
<linearGradient id="paint10_linear_1317_12391" x1="626.968" y1="-121.543" x2="672.431" y2="-174.848" gradientUnits="userSpaceOnUse">
<stop stop-color="#EF877E"/>
<stop offset="1" stop-color="#FABEB2"/>
</linearGradient>
<linearGradient id="paint11_linear_1317_12391" x1="617.725" y1="-129.454" x2="663.174" y2="-182.74" gradientUnits="userSpaceOnUse">
<stop stop-color="#EF877E"/>
<stop offset="1" stop-color="#FABEB2"/>
</linearGradient>
<linearGradient id="paint12_linear_1317_12391" x1="619.233" y1="-128.146" x2="664.691" y2="-181.447" gradientUnits="userSpaceOnUse">
<stop stop-color="#EF877E"/>
<stop offset="1" stop-color="#FABEB2"/>
</linearGradient>
<linearGradient id="paint13_linear_1317_12391" x1="620.985" y1="-126.638" x2="666.45" y2="-179.946" gradientUnits="userSpaceOnUse">
<stop stop-color="#EF877E"/>
<stop offset="1" stop-color="#FABEB2"/>
</linearGradient>
<linearGradient id="paint14_linear_1317_12391" x1="619.816" y1="-129.209" x2="664.594" y2="-181.711" gradientUnits="userSpaceOnUse">
<stop stop-color="#EF877E"/>
<stop offset="1" stop-color="#FABEB2"/>
</linearGradient>
<linearGradient id="paint15_linear_1317_12391" x1="621.887" y1="-125.658" x2="667.44" y2="-179.066" gradientUnits="userSpaceOnUse">
<stop stop-color="#EF877E"/>
<stop offset="1" stop-color="#FABEB2"/>
</linearGradient>
<linearGradient id="paint16_linear_1317_12391" x1="104.654" y1="66.2215" x2="113.163" y2="40.7516" gradientUnits="userSpaceOnUse">
<stop stop-color="#5A1F0D"/>
<stop offset="1" stop-color="#B84726"/>
</linearGradient>
<linearGradient id="paint17_linear_1317_12391" x1="77.0416" y1="192.345" x2="86.5499" y2="212.606" gradientUnits="userSpaceOnUse">
<stop stop-color="#08738E"/>
<stop offset="1" stop-color="#0E496E"/>
</linearGradient>
<linearGradient id="paint18_linear_1317_12391" x1="91.3726" y1="200.956" x2="83.0715" y2="202.543" gradientUnits="userSpaceOnUse">
<stop stop-color="#EF877E"/>
<stop offset="1" stop-color="#FABEB2"/>
</linearGradient>
<linearGradient id="paint19_linear_1317_12391" x1="120.756" y1="74.3719" x2="127.775" y2="88.7766" gradientUnits="userSpaceOnUse">
<stop stop-color="#EF877E"/>
<stop offset="1" stop-color="#FABEB2"/>
</linearGradient>
<linearGradient id="paint20_linear_1317_12391" x1="107.963" y1="52.0384" x2="117.087" y2="73.5655" gradientUnits="userSpaceOnUse">
<stop stop-color="#EF877E"/>
<stop offset="1" stop-color="#FABEB2"/>
</linearGradient>
<linearGradient id="paint21_linear_1317_12391" x1="106.38" y1="205.655" x2="133.892" y2="166.207" gradientUnits="userSpaceOnUse">
<stop stop-color="#08738E"/>
<stop offset="1" stop-color="#0E496E"/>
</linearGradient>
<linearGradient id="paint22_linear_1317_12391" x1="764.232" y1="762.044" x2="833.747" y2="759.699" gradientUnits="userSpaceOnUse">
<stop stop-color="#08738E"/>
<stop offset="1" stop-color="#0E496E"/>
</linearGradient>
<linearGradient id="paint23_linear_1317_12391" x1="764.359" y1="765.808" x2="833.881" y2="763.466" gradientUnits="userSpaceOnUse">
<stop stop-color="#08738E"/>
<stop offset="1" stop-color="#0E496E"/>
</linearGradient>
<linearGradient id="paint24_linear_1317_12391" x1="101.274" y1="219.204" x2="118.026" y2="234.134" gradientUnits="userSpaceOnUse">
<stop stop-color="#08738E"/>
<stop offset="1" stop-color="#0E496E"/>
</linearGradient>
<linearGradient id="paint25_linear_1317_12391" x1="113.745" y1="219.291" x2="108.561" y2="221.271" gradientUnits="userSpaceOnUse">
<stop stop-color="#EF877E"/>
<stop offset="1" stop-color="#FABEB2"/>
</linearGradient>
<linearGradient id="paint26_linear_1317_12391" x1="129.099" y1="94.6915" x2="148.707" y2="176.649" gradientUnits="userSpaceOnUse">
<stop stop-color="#044F8B"/>
<stop offset="1" stop-color="#5B2D0F"/>
</linearGradient>
<linearGradient id="paint27_linear_1317_12391" x1="135.278" y1="159.813" x2="119.721" y2="83.0555" gradientUnits="userSpaceOnUse">
<stop stop-color="#4B73B9"/>
<stop offset="1" stop-color="#FFEAD0"/>
</linearGradient>
<linearGradient id="paint28_linear_1317_12391" x1="783.275" y1="-211.208" x2="830.667" y2="-144.066" gradientUnits="userSpaceOnUse">
<stop stop-color="#044F8B"/>
<stop offset="1" stop-color="#5B2D0F"/>
</linearGradient>
<linearGradient id="paint29_linear_1317_12391" x1="807.226" y1="-195.968" x2="775.362" y2="-169.542" gradientUnits="userSpaceOnUse">
<stop stop-color="#044F8B"/>
<stop offset="1" stop-color="#5B2D0F"/>
</linearGradient>
<linearGradient id="paint30_linear_1317_12391" x1="118.807" y1="62.1235" x2="111.898" y2="46.465" gradientUnits="userSpaceOnUse">
<stop stop-color="#5A1F0D"/>
<stop offset="1" stop-color="#B84726"/>
</linearGradient>
<linearGradient id="paint31_linear_1317_12391" x1="113.318" y1="96.6749" x2="133.587" y2="155.516" gradientUnits="userSpaceOnUse">
<stop stop-color="#044F8B"/>
<stop offset="1" stop-color="#5B2D0F"/>
</linearGradient>
<linearGradient id="paint32_linear_1317_12391" x1="126.002" y1="92.3459" x2="146.254" y2="151.138" gradientUnits="userSpaceOnUse">
<stop stop-color="#044F8B"/>
<stop offset="1" stop-color="#5B2D0F"/>
</linearGradient>
<linearGradient id="paint33_linear_1317_12391" x1="797.752" y1="-237.06" x2="827.08" y2="-195.507" gradientUnits="userSpaceOnUse">
<stop stop-color="#044F8B"/>
<stop offset="1" stop-color="#5B2D0F"/>
</linearGradient>
<linearGradient id="paint34_linear_1317_12391" x1="229.097" y1="78.4668" x2="234.226" y2="42.9157" gradientUnits="userSpaceOnUse">
<stop stop-color="#5A3512"/>
<stop offset="1" stop-color="#B84C26"/>
</linearGradient>
<linearGradient id="paint35_linear_1317_12391" x1="224.984" y1="86.8262" x2="221.016" y2="96.5012" gradientUnits="userSpaceOnUse">
<stop stop-color="#EF877E"/>
<stop offset="1" stop-color="#FABEB2"/>
</linearGradient>
<linearGradient id="paint36_linear_1317_12391" x1="234.742" y1="66.2144" x2="224.07" y2="83.5546" gradientUnits="userSpaceOnUse">
<stop stop-color="#EF877E"/>
<stop offset="1" stop-color="#FABEB2"/>
</linearGradient>
<linearGradient id="paint37_linear_1317_12391" x1="230.153" y1="78.599" x2="235.284" y2="43.0305" gradientUnits="userSpaceOnUse">
<stop stop-color="#5A3512"/>
<stop offset="1" stop-color="#B84C26"/>
</linearGradient>
<linearGradient id="paint38_linear_1317_12391" x1="555.904" y1="-82.9683" x2="561.359" y2="-89.3621" gradientUnits="userSpaceOnUse">
<stop stop-color="#EF877E"/>
<stop offset="1" stop-color="#FABEB2"/>
</linearGradient>
<linearGradient id="paint39_linear_1317_12391" x1="221.295" y1="106.755" x2="188.297" y2="67.824" gradientUnits="userSpaceOnUse">
<stop stop-color="#EF877E"/>
<stop offset="1" stop-color="#FABEB2"/>
</linearGradient>
<linearGradient id="paint40_linear_1317_12391" x1="220.222" y1="107.765" x2="187.176" y2="68.7813" gradientUnits="userSpaceOnUse">
<stop stop-color="#EF877E"/>
<stop offset="1" stop-color="#FABEB2"/>
</linearGradient>
<linearGradient id="paint41_linear_1317_12391" x1="218.956" y1="108.898" x2="185.88" y2="69.8756" gradientUnits="userSpaceOnUse">
<stop stop-color="#EF877E"/>
<stop offset="1" stop-color="#FABEB2"/>
</linearGradient>
<linearGradient id="paint42_linear_1317_12391" x1="219.845" y1="107.013" x2="187.263" y2="68.5757" gradientUnits="userSpaceOnUse">
<stop stop-color="#EF877E"/>
<stop offset="1" stop-color="#FABEB2"/>
</linearGradient>
<linearGradient id="paint43_linear_1317_12391" x1="218.316" y1="109.642" x2="185.152" y2="70.5179" gradientUnits="userSpaceOnUse">
<stop stop-color="#EF877E"/>
<stop offset="1" stop-color="#FABEB2"/>
</linearGradient>
<linearGradient id="paint44_linear_1317_12391" x1="213.807" y1="112.121" x2="191.483" y2="86.0647" gradientUnits="userSpaceOnUse">
<stop stop-color="#E65425"/>
<stop offset="1" stop-color="#F9A349"/>
</linearGradient>
<linearGradient id="paint45_linear_1317_12391" x1="494.948" y1="7.54521" x2="500.108" y2="1.49283" gradientUnits="userSpaceOnUse">
<stop stop-color="#EF877E"/>
<stop offset="1" stop-color="#FABEB2"/>
</linearGradient>
<linearGradient id="paint46_linear_1317_12391" x1="221.823" y1="90.9047" x2="287.022" y2="85.2026" gradientUnits="userSpaceOnUse">
<stop stop-color="#EF877E"/>
<stop offset="1" stop-color="#FABEB2"/>
</linearGradient>
<linearGradient id="paint47_linear_1317_12391" x1="221.97" y1="92.7644" x2="287.183" y2="87.0657" gradientUnits="userSpaceOnUse">
<stop stop-color="#EF877E"/>
<stop offset="1" stop-color="#FABEB2"/>
</linearGradient>
<linearGradient id="paint48_linear_1317_12391" x1="222.148" y1="94.9232" x2="287.372" y2="89.2211" gradientUnits="userSpaceOnUse">
<stop stop-color="#EF877E"/>
<stop offset="1" stop-color="#FABEB2"/>
</linearGradient>
<linearGradient id="paint49_linear_1317_12391" x1="223.054" y1="92.4413" x2="287.293" y2="86.8247" gradientUnits="userSpaceOnUse">
<stop stop-color="#EF877E"/>
<stop offset="1" stop-color="#FABEB2"/>
</linearGradient>
<linearGradient id="paint50_linear_1317_12391" x1="222.111" y1="96.171" x2="287.455" y2="90.4586" gradientUnits="userSpaceOnUse">
<stop stop-color="#EF877E"/>
<stop offset="1" stop-color="#FABEB2"/>
</linearGradient>
<linearGradient id="paint51_linear_1317_12391" x1="252.408" y1="198.485" x2="259.63" y2="209.708" gradientUnits="userSpaceOnUse">
<stop stop-color="#B96528"/>
<stop offset="1" stop-color="#5B2D0F"/>
</linearGradient>
<linearGradient id="paint52_linear_1317_12391" x1="247.724" y1="200.09" x2="255.445" y2="201.572" gradientUnits="userSpaceOnUse">
<stop stop-color="#EF877E"/>
<stop offset="1" stop-color="#FABEB2"/>
</linearGradient>
<linearGradient id="paint53_linear_1317_12391" x1="214.64" y1="150.401" x2="241.027" y2="266.347" gradientUnits="userSpaceOnUse">
<stop stop-color="#B96528"/>
<stop offset="1" stop-color="#5B2D0F"/>
</linearGradient>
<linearGradient id="paint54_linear_1317_12391" x1="196.835" y1="124.279" x2="202.068" y2="186.352" gradientUnits="userSpaceOnUse">
<stop stop-color="#B96528"/>
<stop offset="1" stop-color="#5B2D0F"/>
</linearGradient>
<linearGradient id="paint55_linear_1317_12391" x1="204.275" y1="152.738" x2="230.634" y2="268.581" gradientUnits="userSpaceOnUse">
<stop stop-color="#B96528"/>
<stop offset="1" stop-color="#5B2D0F"/>
</linearGradient>
<linearGradient id="paint56_linear_1317_12391" x1="226.635" y1="214.892" x2="233.877" y2="226.152" gradientUnits="userSpaceOnUse">
<stop stop-color="#B96528"/>
<stop offset="1" stop-color="#5B2D0F"/>
</linearGradient>
<linearGradient id="paint57_linear_1317_12391" x1="226.9" y1="217.143" x2="231.724" y2="218.984" gradientUnits="userSpaceOnUse">
<stop stop-color="#EF877E"/>
<stop offset="1" stop-color="#FABEB2"/>
</linearGradient>
<linearGradient id="paint58_linear_1317_12391" x1="261.967" y1="97.075" x2="262.219" y2="96.4601" gradientUnits="userSpaceOnUse">
<stop stop-color="#E65425"/>
<stop offset="1" stop-color="#F9A349"/>
</linearGradient>
<linearGradient id="paint59_linear_1317_12391" x1="230.13" y1="155.794" x2="254.192" y2="109.328" gradientUnits="userSpaceOnUse">
<stop stop-color="#E65425"/>
<stop offset="1" stop-color="#F9A349"/>
</linearGradient>
<linearGradient id="paint60_linear_1317_12391" x1="200.615" y1="140.491" x2="224.615" y2="94.134" gradientUnits="userSpaceOnUse">
<stop stop-color="#E65425"/>
<stop offset="1" stop-color="#F9A349"/>
</linearGradient>
<linearGradient id="paint61_linear_1317_12391" x1="214.709" y1="145.434" x2="239.817" y2="96.941" gradientUnits="userSpaceOnUse">
<stop stop-color="#E65425"/>
<stop offset="1" stop-color="#F9A349"/>
</linearGradient>
</defs>
</svg>
