<svg width="229" height="160" viewBox="0 0 229 160" fill="none" xmlns="http://www.w3.org/2000/svg">
<path d="M195.794 117.039L195.042 119.764C195.042 119.764 194.647 119.203 194.187 118.509C192.525 120.137 191.105 121.876 189.889 123.603C189.843 123.669 189.798 123.735 189.753 123.802C188.839 125.103 188.054 126.392 187.379 127.613C187.357 127.655 187.338 127.686 187.316 127.729C185.182 131.603 184.176 134.753 183.998 135.332C183.978 135.393 183.969 135.426 183.969 135.426C183.969 135.426 184.003 135.434 184.066 135.443C185.151 135.627 195.368 137.194 205.095 133.353C205.134 133.338 205.173 133.324 205.219 133.305C206.615 132.751 207.997 132.081 209.337 131.283L209.483 131.193C209.557 131.157 209.633 131.11 209.703 131.067C212.24 129.502 214.411 127.579 216.261 125.557C215.405 125.634 214.792 125.218 214.281 124.565C215.108 124.907 216.476 125.051 217.691 123.88C218.759 122.55 219.697 121.196 220.518 119.885C220.544 119.85 220.566 119.807 220.592 119.772C223.534 115.017 224.878 110.815 225.082 110.152C225.102 110.092 225.11 110.058 225.11 110.058C225.11 110.058 225.076 110.05 225.013 110.041C224.544 109.967 222.391 109.626 219.322 109.574C219.274 109.574 219.227 109.575 219.175 109.569C217.404 109.549 215.344 109.622 213.126 109.888C213.053 109.894 212.975 109.923 212.912 109.962C211.43 110.904 210.787 112.192 211.059 113.854C210.257 112.854 209.885 111.713 210.241 110.335C209.371 110.497 208.487 110.698 207.598 110.939C207.548 110.95 207.509 110.965 207.458 110.977C204.747 111.719 201.983 112.81 199.377 114.418C198.09 115.211 196.894 116.102 195.794 117.039ZM222.213 113.848C222.02 113.785 221.914 113.582 221.977 113.389C222.04 113.197 222.243 113.091 222.436 113.154C222.625 113.21 222.736 113.42 222.672 113.612C222.609 113.804 222.402 113.904 222.213 113.848ZM221.745 115.401C221.474 115.569 221.114 115.484 220.946 115.213C220.778 114.943 220.867 114.591 221.138 114.424C221.41 114.257 221.758 114.339 221.926 114.609C222.094 114.879 222.016 115.234 221.745 115.401ZM212.667 124.813C212.486 124.924 212.243 124.873 212.127 124.686C212.011 124.499 212.073 124.259 212.254 124.147C212.442 124.032 212.685 124.083 212.801 124.27C212.917 124.457 212.854 124.697 212.667 124.813ZM212.077 127.054C211.75 127.256 211.323 127.155 211.125 126.836C210.923 126.511 211.024 126.084 211.351 125.883C211.67 125.686 212.098 125.786 212.3 126.112C212.498 126.431 212.397 126.857 212.077 127.054ZM209.429 111.458C209.339 111.514 209.219 111.492 209.163 111.402C209.107 111.311 209.141 111.195 209.231 111.139C209.322 111.084 209.434 111.11 209.49 111.2C209.546 111.29 209.519 111.403 209.429 111.458ZM213.614 111.992C213.405 112.121 213.135 112.057 213.006 111.849C212.877 111.641 212.941 111.372 213.149 111.243C213.358 111.115 213.628 111.178 213.757 111.386C213.886 111.594 213.822 111.863 213.614 111.992ZM212.63 112.963C212.54 113.018 212.416 112.989 212.36 112.899C212.309 112.816 212.338 112.692 212.428 112.637C212.518 112.581 212.635 112.614 212.687 112.697C212.743 112.788 212.721 112.907 212.63 112.963Z" fill="#FF8CDD"/>
<path d="M206.529 116.188L204.391 113.98L204.304 114.072L206.503 116.348L205.479 122.087L199.667 125.671L200.754 119.165L200.635 119.142L199.521 125.76L189.448 131.972L189.889 123.603C189.844 123.669 189.798 123.736 189.753 123.802L189.471 129.112L187.379 127.614C187.357 127.656 187.338 127.687 187.316 127.729L189.463 129.27L189.316 132.053L183.935 135.371L184.004 135.482L191.825 130.66L195.669 131.729L195.705 131.602L191.971 130.57L197.379 127.235L202.317 128.905C202.964 129.933 204.309 132.085 205.095 133.353C205.134 133.338 205.173 133.324 205.219 133.305C204.385 131.96 202.951 129.664 202.514 128.975L209.337 131.283L209.483 131.193L197.525 127.145L208.314 120.492L211.774 122.335L211.83 122.224L208.439 120.415L213.014 117.594L220.518 119.885C220.544 119.85 220.566 119.808 220.592 119.772L216.859 118.634C218.16 117.957 220.014 116.995 220.135 116.959L220.119 116.902L220.126 116.898L220.183 116.882L220.146 116.837C220.108 116.822 220.07 116.807 216.682 118.58L213.16 117.504L225.082 110.152C225.102 110.092 225.11 110.058 225.11 110.058C225.11 110.058 225.076 110.05 225.013 110.041L215.656 115.811L219.322 109.574C219.275 109.575 219.227 109.575 219.175 109.569L215.42 115.957L205.625 121.997L207.599 110.939C207.548 110.951 207.509 110.966 207.459 110.977L206.529 116.188Z" fill="white"/>
<path d="M186.197 105.289L187.055 107.982C187.055 107.982 186.416 107.726 185.652 107.393C185.147 109.661 184.904 111.891 184.827 113.999C184.825 114.08 184.823 114.16 184.821 114.24C184.765 115.827 184.809 117.335 184.91 118.726C184.914 118.773 184.915 118.81 184.92 118.857C185.245 123.265 186.12 126.453 186.286 127.037C186.302 127.098 186.314 127.131 186.314 127.131C186.314 127.131 186.347 127.119 186.405 127.093C187.415 126.658 196.842 122.429 202.906 113.928C202.93 113.895 202.955 113.861 202.983 113.82C203.852 112.598 204.646 111.287 205.335 109.89L205.408 109.735C205.451 109.665 205.489 109.584 205.524 109.51C206.799 106.821 207.57 104.029 208.018 101.329C207.343 101.858 206.6 101.842 205.815 101.571C206.696 101.409 207.922 100.788 208.303 99.1462C208.473 97.451 208.521 95.8057 208.494 94.2605C208.496 94.2168 208.492 94.1693 208.494 94.1255C208.367 88.5398 207.201 84.2855 207.01 83.6188C206.994 83.5572 206.983 83.5247 206.983 83.5247C206.983 83.5247 206.95 83.5365 206.892 83.563C206.458 83.755 204.466 84.6375 201.863 86.259C201.823 86.2853 201.783 86.3117 201.736 86.3347C200.24 87.2792 198.551 88.4575 196.835 89.8845C196.778 89.9295 196.728 89.9962 196.697 90.0625C195.968 91.6572 196.131 93.0862 197.267 94.3333C196.048 93.9302 195.113 93.1743 194.659 91.8247C194.018 92.433 193.386 93.0813 192.772 93.7657C192.736 93.8028 192.711 93.8363 192.675 93.8735C190.806 95.9672 189.083 98.3823 187.773 101.146C187.126 102.509 186.609 103.905 186.197 105.289ZM206.62 88.2753C206.424 88.3272 206.224 88.2147 206.172 88.019C206.12 87.8233 206.233 87.624 206.429 87.5722C206.618 87.517 206.825 87.6325 206.877 87.8285C206.929 88.0243 206.809 88.2202 206.62 88.2753ZM207.075 89.833C206.939 90.1203 206.591 90.2447 206.302 90.109C206.014 89.9732 205.897 89.6293 206.033 89.342C206.169 89.0547 206.507 88.9342 206.795 89.07C207.083 89.2058 207.211 89.5457 207.075 89.833ZM204.596 102.655C204.505 102.846 204.273 102.935 204.074 102.841C203.874 102.747 203.796 102.512 203.887 102.32C203.981 102.122 204.213 102.033 204.412 102.127C204.612 102.221 204.69 102.456 204.596 102.655ZM205.325 104.855C205.161 105.201 204.747 105.349 204.407 105.189C204.06 105.025 203.912 104.613 204.076 104.267C204.237 103.928 204.65 103.78 204.998 103.944C205.338 104.104 205.486 104.516 205.325 104.855ZM194.591 93.2077C194.545 93.3035 194.433 93.3497 194.337 93.3045C194.241 93.2592 194.205 93.1433 194.251 93.0475C194.296 92.9518 194.405 92.9128 194.501 92.9582C194.597 93.0033 194.636 93.112 194.591 93.2077ZM198.393 91.3847C198.288 91.6057 198.027 91.699 197.805 91.5945C197.584 91.49 197.49 91.2295 197.595 91.0085C197.7 90.7873 197.961 90.6942 198.182 90.7987C198.404 90.9033 198.498 91.1637 198.393 91.3847ZM198.097 92.7327C198.052 92.8285 197.933 92.8712 197.836 92.8258C197.748 92.784 197.705 92.6648 197.75 92.569C197.795 92.4732 197.912 92.4378 198 92.4797C198.097 92.525 198.143 92.6368 198.097 92.7327Z" fill="#8667EB"/>
<path d="M194.739 98.7493L191.74 98.0573L191.718 98.1818L194.805 98.8973L197.077 104.268L194.158 110.428L191.519 104.38L191.406 104.426L194.084 110.583L189.024 121.26L184.826 113.999C184.824 114.08 184.822 114.16 184.82 114.24L187.482 118.848L184.909 118.726C184.914 118.773 184.915 118.81 184.919 118.857L187.562 118.985L188.958 121.4L186.254 127.103L186.373 127.159L190.302 118.869L194.111 117.681L194.071 117.554L190.375 118.715L193.092 112.982L198.146 111.704C199.251 112.215 201.552 113.291 202.905 113.928C202.93 113.895 202.955 113.861 202.983 113.821C201.549 113.145 199.092 111.996 198.35 111.655L205.334 109.89L205.408 109.735L193.166 112.827L198.586 101.392L202.494 101.061L202.481 100.937L198.649 101.259L200.947 96.4107L208.493 94.2607C208.496 94.217 208.491 94.1695 208.494 94.1257L204.741 95.1968C205.462 93.9232 206.493 92.1102 206.575 92.0137L206.53 91.9747L206.534 91.9672L206.573 91.9227L206.518 91.9057C206.478 91.9138 206.438 91.9218 204.563 95.2482L201.021 96.256L207.01 83.6192C206.994 83.5575 206.982 83.525 206.982 83.525C206.982 83.525 206.95 83.5368 206.892 83.5633L202.191 93.4813L201.862 86.2595C201.823 86.2858 201.783 86.3122 201.736 86.3352L202.072 93.7318L197.151 104.114L192.772 93.7663C192.736 93.8035 192.711 93.837 192.675 93.8742L194.739 98.7493Z" fill="white"/>
<path d="M29.6234 113.747C27.0166 112.14 24.2525 111.049 21.5414 110.306C21.4911 110.295 21.452 110.28 21.4017 110.268C20.5134 110.027 19.6287 109.826 18.7589 109.664C19.1147 111.043 18.7432 112.184 17.9406 113.184C18.2125 111.521 17.5696 110.234 16.0878 109.291C16.0253 109.253 15.9471 109.224 15.8743 109.217C13.6559 108.951 11.596 108.879 9.82532 108.898C9.77317 108.905 9.7257 108.904 9.67806 108.904C6.60858 108.956 4.45629 109.296 3.98709 109.371C3.92373 109.38 3.89014 109.388 3.89014 109.388C3.89014 109.388 3.89816 109.421 3.91822 109.482C4.12232 110.144 5.46624 114.346 8.40785 119.101C8.43392 119.137 8.45599 119.179 8.48206 119.214C9.3028 120.525 10.2405 121.88 11.309 123.21C12.5242 124.38 13.8915 124.237 14.7191 123.894C14.2083 124.547 13.5945 124.964 12.7388 124.886C14.5886 126.909 16.7596 128.832 19.297 130.397C19.3666 130.439 19.4429 130.486 19.5168 130.522L19.6628 130.612C21.0033 131.41 22.385 132.08 23.781 132.634C23.8269 132.653 23.866 132.667 23.905 132.682C33.6316 136.524 43.8488 134.957 44.9336 134.773C44.9968 134.764 45.0304 134.756 45.0304 134.756C45.0304 134.756 45.0224 134.722 45.0023 134.662C44.8235 134.082 43.8175 130.932 41.684 127.058C41.6622 127.016 41.6429 126.985 41.6211 126.943C40.9463 125.722 40.1605 124.432 39.2472 123.131C39.2019 123.065 39.1564 122.998 39.111 122.932C37.8949 121.205 36.4746 119.467 34.8129 117.838C34.3534 118.532 33.9576 119.093 33.9576 119.093L33.2065 116.368C32.1058 115.431 30.9095 114.54 29.6234 113.747ZM6.32743 112.942C6.26408 112.749 6.37507 112.54 6.56362 112.483C6.75652 112.42 6.95978 112.526 7.02313 112.719C7.08632 112.911 6.97984 113.114 6.78694 113.177C6.59839 113.233 6.39061 113.134 6.32743 112.942ZM7.07378 113.938C7.24144 113.668 7.59029 113.586 7.86142 113.753C8.13254 113.92 8.2218 114.272 8.05398 114.543C7.88632 114.813 7.52627 114.898 7.25514 114.731C6.98402 114.563 6.90629 114.209 7.07378 113.938ZM16.199 123.599C16.3151 123.412 16.5583 123.361 16.7459 123.477C16.9266 123.588 16.9893 123.828 16.8733 124.015C16.7573 124.202 16.514 124.254 16.3332 124.142C16.1455 124.027 16.0828 123.786 16.199 123.599ZM16.6999 125.441C16.9018 125.116 17.3294 125.015 17.6492 125.212C17.976 125.414 18.0768 125.84 17.8749 126.166C17.6769 126.485 17.2495 126.585 16.9227 126.384C16.603 126.187 16.5022 125.76 16.6999 125.441ZM19.5098 110.53C19.5658 110.439 19.6783 110.413 19.7684 110.469C19.8588 110.524 19.8924 110.641 19.8364 110.731C19.7806 110.821 19.6611 110.843 19.5707 110.788C19.4806 110.732 19.4541 110.619 19.5098 110.53ZM15.2428 110.716C15.3719 110.508 15.6418 110.444 15.8504 110.573C16.0589 110.701 16.1226 110.97 15.9937 111.178C15.8646 111.386 15.5945 111.45 15.3861 111.321C15.1775 111.193 15.1138 110.924 15.2428 110.716ZM16.313 112.027C16.3644 111.944 16.4813 111.91 16.5717 111.966C16.6621 112.022 16.6912 112.145 16.6396 112.228C16.5836 112.318 16.4601 112.347 16.3696 112.292C16.2794 112.236 16.257 112.117 16.313 112.027Z" fill="#FF8CDD"/>
<path d="M22.4709 115.517L24.6091 113.31L24.6962 113.402L22.4968 115.677L23.5215 121.416L29.3331 125L28.2459 118.494L28.3655 118.472L29.479 125.09L39.5522 131.301L39.111 122.932C39.1565 122.999 39.202 123.065 39.2473 123.131L39.5289 128.441L41.6212 126.943C41.6429 126.985 41.6623 127.016 41.6841 127.058L39.5366 128.599L39.6842 131.383L45.0648 134.7L44.9959 134.811L37.1752 129.989L33.331 131.058L33.2947 130.931L37.0291 129.899L31.6208 126.564L26.6832 128.234C26.0356 129.262 24.6915 131.414 23.9049 132.682C23.866 132.667 23.8267 132.653 23.7809 132.634C24.615 131.29 26.0492 128.993 26.486 128.304L19.6627 130.612L19.5168 130.522L31.4749 126.474L20.6858 119.821L17.2262 121.664L17.1702 121.553L20.5606 119.744L15.9863 116.923L8.48182 119.214C8.45574 119.179 8.43385 119.137 8.4076 119.101L12.1407 117.964C10.8405 117.286 8.98613 116.325 8.86461 116.288L8.88082 116.231L8.8738 116.227L8.81663 116.211L8.85374 116.167C8.89168 116.152 8.9298 116.137 12.318 117.91L15.8403 116.833L3.91797 109.482C3.89775 109.422 3.88989 109.388 3.88989 109.388C3.88989 109.388 3.92366 109.38 3.98684 109.371L13.3439 115.141L9.67782 108.904C9.72546 108.904 9.77309 108.905 9.82508 108.898L13.5802 115.286L23.3752 121.326L21.4016 110.269C21.4519 110.28 21.491 110.295 21.5413 110.307L22.4709 115.517Z" fill="white"/>
<path d="M100.22 61.8908L100.739 62.0973L100.468 62.4917C100.468 62.4917 101.118 62.0997 101.614 62.0945C102.018 62.0903 102.533 62.1575 102.533 62.1575L102.175 61.7755L102.507 61.5887C101.823 61.3765 101.052 61.5098 100.22 61.8908Z" fill="#B9A3FF"/>
<path d="M148.986 54.7148L149.504 54.9213L149.234 55.3157C149.234 55.3157 149.884 54.9236 150.379 54.9185C150.784 54.9143 151.298 54.9815 151.298 54.9815L150.941 54.5995L151.273 54.4127C150.588 54.2003 149.818 54.3338 148.986 54.7148Z" fill="#B9A3FF"/>
<path d="M47.5099 86.3705L47.656 86.9183L47.1841 86.9313C47.1841 86.9313 47.8803 87.2308 48.179 87.6335C48.4232 87.9627 48.6764 88.424 48.6764 88.424L48.7645 87.9038L49.1095 88.0648C48.8693 87.3775 48.3055 86.8255 47.5099 86.3705Z" fill="#FFB5E9"/>
<path d="M132.548 99.5002L132.694 100.048L132.222 100.061C132.222 100.061 132.918 100.361 133.217 100.763C133.461 101.092 133.715 101.554 133.715 101.554L133.803 101.033L134.148 101.194C133.907 100.507 133.344 99.9552 132.548 99.5002Z" fill="#FFB5E9"/>
<path d="M136.155 54.915L136.301 55.4628L135.829 55.4758C135.829 55.4758 136.526 55.7755 136.824 56.178C137.068 56.5071 137.322 56.9685 137.322 56.9685L137.41 56.4483L137.755 56.6093C137.514 55.922 136.951 55.37 136.155 54.915Z" fill="#FFB5E9"/>
<path d="M182.751 66.8832L183.299 66.7808L183.272 67.2615C183.272 67.2615 183.623 66.5793 184.042 66.3098C184.384 66.0893 184.856 65.871 184.856 65.871L184.355 65.7377L184.542 65.4007C183.85 65.5867 183.263 66.113 182.751 66.8832Z" fill="#FFB5E9"/>
<path d="M115.363 92.7962L115.91 92.694L115.883 93.1745C115.883 93.1745 116.235 92.4925 116.653 92.2228C116.995 92.0023 117.468 91.784 117.468 91.784L116.967 91.6507L117.153 91.3137C116.461 91.4997 115.874 92.026 115.363 92.7962Z" fill="#FFB5E9"/>
<path d="M59.9224 69.7935L60.47 69.6913L60.4429 70.1718C60.4429 70.1718 60.7942 69.4897 61.2128 69.2202C61.555 68.9997 62.0272 68.7813 62.0272 68.7813L61.5262 68.648L61.7126 68.311C61.0209 68.497 60.434 69.0233 59.9224 69.7935Z" fill="#FFB5E9"/>
<path d="M177.037 125.087L177.584 124.985L177.557 125.465C177.557 125.465 177.909 124.783 178.327 124.514C178.669 124.293 179.142 124.075 179.142 124.075L178.641 123.942L178.827 123.605C178.135 123.791 177.548 124.317 177.037 125.087Z" fill="#FFB5E9"/>
<path d="M156.269 125.523L156.816 125.421L156.789 125.901C156.789 125.901 157.141 125.219 157.559 124.95C157.901 124.729 158.374 124.511 158.374 124.511L157.873 124.377L158.059 124.04C157.367 124.226 156.78 124.753 156.269 125.523Z" fill="#FFB5E9"/>
<path d="M50.0363 53.2087L48.6389 52.2177L48.1829 54.0485L50.0363 53.2087Z" fill="#FFB5E9"/>
<path d="M59.3732 91.3892L57.9758 90.3982L57.5198 92.229L59.3732 91.3892Z" fill="#FFB5E9"/>
<path d="M53.4098 110.04L52.0124 109.049L51.5564 110.88L53.4098 110.04Z" fill="#FFB5E9"/>
<path d="M60.9507 58.5105L59.7708 57.6993L61.4084 57.172L60.9507 58.5105Z" fill="#B9A3FF"/>
<path d="M159.359 73.1885L158.179 72.3773L159.817 71.8502L159.359 73.1885Z" fill="#B9A3FF"/>
<path d="M193.126 115.211L191.947 114.4L193.584 113.873L193.126 115.211Z" fill="#B9A3FF"/>
<path d="M189.748 88.1115L189.608 89.5557L188.375 88.3365L189.748 88.1115Z" fill="#B9A3FF"/>
<path d="M157.561 105.887L157.421 107.331L156.188 106.112L157.561 105.887Z" fill="#B9A3FF"/>
<path d="M82.2112 100.669C82.2112 100.287 82.5154 99.9765 82.8907 99.9765C83.2659 99.9765 83.5702 100.287 83.5702 100.669C83.5702 101.052 83.2659 101.362 82.8907 101.362C82.5154 101.362 82.2112 101.052 82.2112 100.669Z" fill="#FFB5E9"/>
<path d="M93.8203 51.038C93.8203 50.6553 94.1245 50.345 94.4998 50.345C94.8751 50.345 95.1793 50.6552 95.1793 51.038C95.1793 51.4207 94.8751 51.731 94.4998 51.731C94.1245 51.7308 93.8203 51.4207 93.8203 51.038Z" fill="#FFB5E9"/>
<path d="M148.179 64.5535C148.179 64.1708 148.483 63.8607 148.858 63.8607C149.233 63.8607 149.538 64.1708 149.538 64.5535C149.538 64.9362 149.233 65.2465 148.858 65.2465C148.483 65.2465 148.179 64.9362 148.179 64.5535Z" fill="#FFB5E9"/>
<path d="M182.445 78.8312C182.445 78.4485 182.749 78.1383 183.125 78.1383C183.5 78.1383 183.804 78.4485 183.804 78.8312C183.804 79.2138 183.5 79.5242 183.125 79.5242C182.749 79.524 182.445 79.2138 182.445 78.8312Z" fill="#FFB5E9"/>
<path d="M172.757 104.367C172.757 103.984 173.062 103.674 173.437 103.674C173.812 103.674 174.116 103.984 174.116 104.367C174.116 104.749 173.812 105.06 173.437 105.06C173.062 105.06 172.757 104.749 172.757 104.367Z" fill="#FFB5E9"/>
<path d="M108.45 119.745L108.135 120.204L107.814 119.845C107.814 119.845 108.049 120.575 107.944 121.06C107.858 121.458 107.679 121.945 107.679 121.945L108.128 121.686L108.235 122.056C108.592 121.437 108.634 120.65 108.45 119.745Z" fill="#FFB5E9"/>
<path d="M124.99 108.809L124.676 109.267L124.354 108.908C124.354 108.908 124.589 109.638 124.484 110.124C124.399 110.521 124.22 111.009 124.22 111.009L124.669 110.75L124.776 111.12C125.133 110.5 125.175 109.714 124.99 108.809Z" fill="#FFB5E9"/>
<path d="M146.437 113.833L145.512 112.713L147.248 112.706L146.437 113.833Z" fill="#B9A3FF"/>
<path d="M47.467 67.618C47.467 67.2353 47.7713 66.9252 48.1465 66.9252C48.5218 66.9252 48.826 67.2353 48.826 67.618C48.826 68.0007 48.5218 68.311 48.1465 68.311C47.7713 68.3108 47.467 68.0007 47.467 67.618Z" fill="#B9A3FF"/>
<path d="M101.978 97.7477C101.978 97.365 102.282 97.0547 102.657 97.0547C103.033 97.0547 103.337 97.3648 103.337 97.7477C103.337 98.1303 103.033 98.4407 102.657 98.4407C102.282 98.4407 101.978 98.1305 101.978 97.7477Z" fill="#B9A3FF"/>
<path d="M170.196 89.374C170.196 88.9913 170.5 88.681 170.875 88.681C171.251 88.681 171.555 88.9912 171.555 89.374C171.555 89.7567 171.251 90.067 170.875 90.067C170.5 90.067 170.196 89.7568 170.196 89.374Z" fill="#B9A3FF"/>
<path d="M133.388 90.8612C133.388 90.4357 133.695 90.0907 134.074 90.0907C134.452 90.0907 134.759 90.4357 134.759 90.8612C134.759 91.2868 134.452 91.6318 134.074 91.6318C133.695 91.6317 133.388 91.2867 133.388 90.8612Z" fill="#B9A3FF"/>
<path d="M118.511 55.9417C118.511 55.5162 118.818 55.1712 119.197 55.1712C119.575 55.1712 119.882 55.5162 119.882 55.9417C119.882 56.3673 119.575 56.7123 119.197 56.7123C118.818 56.7123 118.511 56.3673 118.511 55.9417Z" fill="#B9A3FF"/>
<path d="M42.2419 103.674C42.2419 103.291 42.5462 102.981 42.9214 102.981C43.2967 102.981 43.6009 103.291 43.6009 103.674C43.6009 104.056 43.2967 104.367 42.9214 104.367C42.5462 104.367 42.2419 104.056 42.2419 103.674Z" fill="#B9A3FF"/>
<path d="M180.579 51.7342C180.579 51.3515 180.883 51.0412 181.259 51.0412C181.634 51.0412 181.938 51.3515 181.938 51.7342C181.938 52.1168 181.634 52.4272 181.259 52.4272C180.883 52.4272 180.579 52.117 180.579 51.7342Z" fill="#B9A3FF"/>
<path d="M147.591 92.816C147.896 93.1133 147.929 93.5733 147.664 93.8435C147.4 94.1137 146.938 94.0915 146.632 93.7943C146.327 93.497 146.294 93.037 146.559 92.7668C146.823 92.4965 147.285 92.5187 147.591 92.816Z" fill="#FFB5E9"/>
<path d="M159.539 89.7435L159.996 89.4232L160.18 89.8647C160.18 89.8647 160.206 89.1073 160.472 88.691C160.689 88.3507 161.027 87.9578 161.027 87.9578L160.51 88.0478L160.535 87.6683C159.983 88.124 159.674 88.8403 159.539 89.7435Z" fill="#FFB5E9"/>
<path d="M141.782 80.2042L141.531 79.695L141.992 79.5908C141.992 79.5908 141.251 79.4318 140.879 79.095C140.575 78.8195 140.237 78.416 140.237 78.416L140.252 78.9433L139.882 78.8523C140.252 79.48 140.912 79.9122 141.782 80.2042Z" fill="#FFB5E9"/>
<path d="M102.533 74.316L102.015 74.5225L101.948 74.0458C101.948 74.0458 101.737 74.783 101.379 75.1287C101.086 75.4113 100.665 75.717 100.665 75.717L101.183 75.7507L101.066 76.1173C101.708 75.8007 102.181 75.1705 102.533 74.316Z" fill="#FFB5E9"/>
<path d="M113.583 70.2523L114.898 70.8192L113.395 71.6538L113.583 70.2523Z" fill="#B9A3FF"/>
<path d="M128.108 73.0802C128.182 73.4555 127.945 73.8188 127.576 73.8915C127.208 73.9642 126.849 73.7188 126.775 73.3435C126.7 72.968 126.938 72.6048 127.306 72.532C127.674 72.4593 128.033 72.7047 128.108 73.0802Z" fill="#FFB5E9"/>
<path d="M100.978 88.7018C101.052 89.0772 100.814 89.4405 100.446 89.5133C100.078 89.586 99.7188 89.3407 99.6443 88.9653C99.5697 88.59 99.8076 88.2267 100.176 88.1538C100.544 88.0812 100.903 88.3265 100.978 88.7018Z" fill="#B9A3FF"/>
<path d="M67.0181 92.9267C67.0181 92.544 67.3223 92.2337 67.6976 92.2337C68.0728 92.2337 68.377 92.5438 68.377 92.9267C68.377 93.3093 68.0728 93.6197 67.6976 93.6197C67.3223 93.6195 67.0181 93.3093 67.0181 92.9267Z" fill="#B9A3FF"/>
<path d="M87.8754 79.6627L87.3264 79.5607L87.515 79.1213C87.515 79.1213 86.9534 79.632 86.4688 79.733C86.0724 79.8155 85.5549 79.8493 85.5549 79.8493L85.98 80.1547L85.6907 80.4023C86.4036 80.478 87.1334 80.1978 87.8754 79.6627Z" fill="#B9A3FF"/>
<path d="M41.2274 100.475C39.9178 97.7117 38.1944 95.2967 36.3251 93.2028C36.2893 93.1657 36.2644 93.1322 36.2287 93.095C35.615 92.4107 34.9824 91.7623 34.3413 91.154C33.8872 92.5037 32.9526 93.2595 31.7337 93.6627C32.8692 92.4155 33.0327 90.9865 32.3039 89.3918C32.2724 89.3255 32.2228 89.2588 32.1653 89.2138C30.4494 87.7868 28.7608 86.6083 27.2645 85.664C27.2173 85.641 27.1777 85.6147 27.1381 85.5883C24.5343 83.9668 22.5428 83.0843 22.1085 82.8923C22.0504 82.8657 22.0179 82.854 22.0179 82.854C22.0179 82.854 22.0062 82.8865 21.9902 82.9482C21.7998 83.6147 20.6339 87.869 20.5062 93.4548C20.5089 93.4987 20.5042 93.546 20.5069 93.5898C20.4798 95.135 20.5273 96.7803 20.6979 98.4755C21.0784 100.117 22.304 100.738 23.1854 100.9C22.4004 101.171 21.6579 101.187 20.9823 100.658C21.4302 103.359 22.202 106.15 23.4767 108.839C23.5117 108.913 23.5501 108.994 23.5924 109.064L23.6658 109.219C24.3548 110.616 25.1484 111.927 26.0171 113.15C26.0454 113.191 26.0705 113.224 26.095 113.257C32.1584 121.758 41.5853 125.988 42.596 126.422C42.6538 126.449 42.6866 126.46 42.6866 126.46C42.6866 126.46 42.6981 126.428 42.7145 126.366C42.8808 125.783 43.7562 122.594 44.0806 118.186C44.0855 118.139 44.0861 118.103 44.091 118.055C44.1913 116.665 44.2359 115.157 44.1798 113.569C44.1779 113.489 44.1761 113.409 44.1741 113.329C44.0967 111.22 43.8538 108.991 43.3487 106.723C42.5843 107.056 41.9461 107.312 41.9461 107.312L42.8032 104.618C42.3909 103.235 41.8737 101.838 41.2274 100.475ZM22.1231 87.158C22.1751 86.9622 22.3825 86.8465 22.5714 86.9017C22.7676 86.9535 22.8803 87.1527 22.8283 87.3485C22.7763 87.5442 22.5764 87.6565 22.3802 87.6048C22.1915 87.5495 22.0713 87.3537 22.1231 87.158ZM22.2052 88.3993C22.4935 88.2635 22.8308 88.3838 22.9671 88.6713C23.1033 88.9587 22.9859 89.3025 22.6976 89.4383C22.4096 89.574 22.0611 89.4497 21.9248 89.1623C21.7888 88.875 21.9172 88.5352 22.2052 88.3993ZM24.5876 101.456C24.7872 101.362 25.0192 101.451 25.1135 101.65C25.2043 101.841 25.126 102.076 24.9265 102.17C24.727 102.264 24.4949 102.175 24.4041 101.984C24.3098 101.785 24.3882 101.55 24.5876 101.456ZM24.0026 103.273C24.3498 103.109 24.7633 103.257 24.9239 103.596C25.0881 103.942 24.94 104.355 24.5928 104.518C24.2528 104.678 23.8393 104.531 23.6751 104.184C23.5145 103.845 23.6626 103.433 24.0026 103.273ZM34.4991 92.2875C34.5954 92.2422 34.704 92.2812 34.7493 92.3768C34.7948 92.4727 34.7595 92.5885 34.6633 92.6338C34.5673 92.679 34.4548 92.6328 34.4095 92.537C34.364 92.4413 34.4032 92.3328 34.4991 92.2875ZM30.8177 90.1282C31.0393 90.0237 31.3006 90.1168 31.4054 90.338C31.5102 90.559 31.4166 90.8195 31.1949 90.924C30.9731 91.0285 30.712 90.9352 30.6072 90.7142C30.5024 90.493 30.596 90.2327 30.8177 90.1282ZM30.9997 91.8092C31.0883 91.7675 31.2045 91.8027 31.2499 91.8985C31.2954 91.9943 31.2525 92.1137 31.1637 92.1553C31.0674 92.2007 30.9481 92.158 30.9026 92.0622C30.8573 91.9663 30.9036 91.8545 30.9997 91.8092Z" fill="#8667EB"/>
<path d="M34.2608 98.0787L37.2597 97.3867L37.2824 97.5112L34.1952 98.2267L31.9226 103.597L34.8423 109.757L37.4812 103.709L37.5937 103.756L34.9157 109.912L39.9763 120.589L44.1741 113.329C44.1761 113.409 44.1779 113.489 44.1798 113.57L41.5178 118.177L44.091 118.055C44.0862 118.103 44.0855 118.139 44.0806 118.186L41.4379 118.314L40.0425 120.729L42.7456 126.432L42.6272 126.488L38.6982 118.199L34.8894 117.01L34.9287 116.883L38.625 118.044L35.9079 112.311L30.8541 111.033C29.7494 111.545 27.4477 112.62 26.0952 113.258C26.0705 113.224 26.0454 113.191 26.0173 113.15C27.451 112.474 29.9079 111.326 30.6504 110.985L23.666 109.219L23.5926 109.064L35.8345 112.157L30.4142 100.721L26.5056 100.39L26.5191 100.267L30.3512 100.588L28.0531 95.7398L20.5067 93.5898C20.504 93.5462 20.5087 93.4987 20.506 93.4548L24.259 94.526C23.5379 93.2522 22.5071 91.4393 22.425 91.3428L22.4696 91.3038L22.4661 91.2963L22.4268 91.2518L22.4822 91.2348C22.5223 91.2428 22.5622 91.251 24.437 94.5773L27.9796 95.5852L21.9899 82.9483C22.0059 82.8867 22.0176 82.8542 22.0176 82.8542C22.0176 82.8542 22.0501 82.8658 22.1082 82.8925L26.8091 92.8105L27.1378 85.5887C27.1774 85.615 27.217 85.6413 27.2641 85.6643L26.9278 93.061L31.8487 103.443L36.2284 93.0955C36.2641 93.1327 36.289 93.1662 36.3248 93.2033L34.2608 98.0787Z" fill="white"/>
<path d="M167.176 56.9387C167.584 56.472 168.929 58.3963 169.162 58.2783C169.656 58.029 168.6 55.9828 169.019 55.7185C169.625 55.3358 170.144 58.0192 170.441 58.0125C170.925 58.0017 170.514 55.4502 171.206 55.7417C171.898 56.0332 171.073 58.7652 171.826 59.0628C172.579 59.3605 172.181 57.3862 172.974 57.6117C173.655 57.8055 173.032 59.3763 172.915 60.0838C172.782 60.8922 172.198 61.7922 172.024 61.9298L170.189 62.4345C169.504 62.3343 168.66 61.9278 168.198 60.7447C167.847 59.8433 166.376 59.0767 166.486 58.8158C166.715 58.2682 168.022 59.525 168.339 59.0993C168.522 58.8525 166.886 57.2703 167.176 56.9387Z" fill="#FFCCCC"/>
<path d="M186.49 83.1732C184.352 82.5867 180.743 80.1612 177.875 77.8422L172.239 61.6652C170.824 61.917 170.403 62.104 169.537 62.2455C169.537 62.2455 171.071 78.3307 172.434 80.4487C173.699 82.4143 181.885 90.6798 181.885 90.6798L186.49 83.1732Z" fill="#FFCCCC"/>
<path d="M175.473 85.1555C177.035 84.031 178.013 81.2438 180.477 79.397C182.358 80.9485 184.257 82.6332 185.939 82.7143L187.161 87.3292L182.088 91.1337C182.088 91.1337 181.308 91.6262 180.895 91.2372C180.482 90.848 175.473 85.1555 175.473 85.1555Z" fill="#FFD994"/>
<path d="M129.979 81.82C129.519 81.484 129.104 81.177 128.882 80.796C129.117 79.6578 130.04 77.7835 128.286 76.5245C127.464 75.9365 127.164 75.0857 127.039 74.1418C127.051 74.0653 127.061 73.9907 127.074 73.9098C127.317 72.3072 127.723 69.6248 125.87 67.9388C123.29 65.5912 120.409 67.2105 120.023 67.4458C117.723 65.797 114.797 67.5575 113.785 69.6567C113.065 71.1588 113.496 73.2053 113.077 74.8118C112.814 75.1362 112.478 75.4838 112.121 75.8473C111.356 76.6263 110.565 77.432 110.473 78.1145C110.376 78.8307 110.588 79.5942 110.759 80.2077C110.901 80.7205 111.036 81.2052 110.901 81.388C110.84 81.469 110.692 81.59 110.519 81.7302C109.825 82.2948 108.605 83.2893 108.886 84.9527C108.723 87.3123 111.963 88.1227 111.963 88.1227H128.286C128.286 88.1227 130.989 87.4495 131.334 85.5385C132.201 83.4448 131.032 82.5867 129.979 81.82ZM111.963 76.5247C109.855 78.0333 111.608 80.4295 111.395 81.3785C111.247 82.0578 110.235 82.1775 109.525 83.1413C109.858 82.6242 110.331 82.2368 110.692 81.9425C110.887 81.7842 111.041 81.6593 111.121 81.5505C111.336 81.2612 111.198 80.7642 111.023 80.1355C110.85 79.5152 110.655 78.812 110.745 78.1518C110.824 77.5588 111.583 76.7858 112.317 76.0388C112.493 75.8595 112.662 75.6845 112.825 75.512C112.633 75.8975 112.358 76.2415 111.963 76.5247ZM123.487 67.0162C124.195 67.1462 124.949 67.4707 125.686 68.1412C127.076 69.4055 127.108 71.3058 126.946 72.8098C126.91 71.7053 126.902 70.5783 126.458 69.657C125.906 68.5053 124.775 67.459 123.487 67.0162ZM128.847 81.3783C128.836 81.3242 128.832 81.2638 128.832 81.2007C129.091 81.5085 129.448 81.771 129.818 82.0405C130.669 82.6603 131.534 83.299 131.319 84.6208C130.869 82.1858 129.05 82.3078 128.847 81.3783Z" fill="#3B3B78"/>
<path d="M122.692 86.6582C122.576 86.8083 122.453 86.9517 122.336 87.0882C120.871 88.7333 119.392 88.8288 117.913 86.6582L118.481 83.2175L118.694 81.9273L121.836 81.9068L122.692 86.6582Z" fill="#F9CBCB"/>
<path d="M122.733 86.6582C122.617 86.8083 122.493 86.9517 122.377 87.0882C122.247 86.5762 121.754 84.8627 121.069 83.9888C120.515 83.2857 119.262 83.1902 118.522 83.2175L118.734 81.9273L121.877 81.9068L122.733 86.6582Z" fill="#EBB0B0"/>
<path d="M125.934 74.0745C125.856 74.5395 125.752 74.9785 125.597 75.3918L125.584 74.449V74.294C125.584 74.294 125.597 74.2812 125.623 74.2553C125.675 74.2295 125.778 74.1522 125.934 74.0745Z" fill="#F9CBCB"/>
<path d="M114.923 74.2942L114.91 74.6817L114.897 75.379C114.716 74.9787 114.587 74.5653 114.522 74.165C114.522 74.1262 114.535 74.0875 114.548 74.0617H114.561C114.651 74.1133 114.729 74.152 114.794 74.2037C114.872 74.2553 114.923 74.2942 114.923 74.2942Z" fill="#EBB0B0"/>
<path d="M125.759 75.7332C125.759 77.2055 125.28 78.6133 124.502 79.7368C123.466 81.2608 121.86 82.2812 120.15 82.2812C118.57 82.2812 116.704 81.0672 115.539 79.2977C114.839 78.2645 114.399 77.0247 114.399 75.733C114.399 72.2588 116.95 69.4433 120.072 69.4433C123.207 69.4435 125.759 72.259 125.759 75.7332Z" fill="#F9CBCB"/>
<path d="M114.807 76.6458C116.281 75.094 117.528 73.4477 117.574 71.3012C119.802 75.625 125.165 73.1158 125.401 78.1387C126.061 77.4273 126.167 74.574 125.874 73.2408C125.576 71.8855 121.304 69.2138 120.591 69.0628C119.877 68.912 117.326 69.4942 117.326 69.4942L115.175 70.3442L114.304 72.547C114.304 72.547 114.048 75.2137 114.807 76.6458Z" fill="#EBB0B0"/>
<path d="M114.898 75.379L114.846 77.7037C114.82 77.6908 114.807 77.6778 114.781 77.6778C114.781 77.6778 114.781 77.6778 114.781 77.665C114.652 77.6133 114.535 77.5617 114.419 77.51C111.763 76.128 112.67 74.2425 113.279 73.9325C113.732 73.713 114.224 73.8808 114.548 74.0617C114.535 74.0875 114.522 74.1262 114.522 74.165C114.587 74.5653 114.716 74.9787 114.898 75.379Z" fill="#F9CBCB"/>
<path d="M125.882 77.4197C125.804 77.4585 125.726 77.4844 125.635 77.523V77.3422L125.597 75.392C125.752 74.9787 125.856 74.5397 125.934 74.0747V74.0619C126.257 73.8939 126.775 73.7002 127.242 73.9327C127.863 74.2425 128.42 76.2702 125.882 77.4197Z" fill="#F9CBCB"/>
<path d="M114.565 76.3695C116.113 74.739 117.423 73.0093 117.471 70.7543C119.812 75.297 125.447 72.6607 125.695 77.938C126.388 77.1907 126.499 74.1928 126.191 72.7923C125.878 71.3685 121.391 68.5613 120.641 68.4028C119.891 68.2443 117.211 68.8558 117.211 68.8558L114.951 69.749L114.036 72.0633C114.036 72.0632 113.767 74.8647 114.565 76.3695Z" fill="#3B3B78"/>
<path d="M117.831 76.0857C117.792 76.0857 117.754 76.0947 117.718 76.108C117.711 76.0992 117.704 76.0907 117.694 76.085C117.688 76.082 117.682 76.0777 117.675 76.0735C117.672 76.07 117.668 76.0662 117.664 76.0623C117.661 76.0575 117.658 76.0525 117.656 76.0475C117.653 76.0403 117.651 76.0333 117.649 76.0258C117.647 76.015 117.642 76.0057 117.635 75.9977C117.629 75.9887 117.621 75.9815 117.611 75.9763C117.602 75.9703 117.591 75.967 117.58 75.9665C117.569 75.964 117.558 75.9645 117.547 75.968C117.527 75.9745 117.508 75.9868 117.498 76.0062C117.495 76.0128 117.492 76.0193 117.489 76.026C117.485 76.0407 117.485 76.0553 117.489 76.07C117.492 76.089 117.5 76.106 117.507 76.1235C117.512 76.1348 117.519 76.1453 117.526 76.1552C117.538 76.1703 117.549 76.185 117.564 76.197C117.567 76.1992 117.57 76.2005 117.572 76.2027C117.547 76.2292 117.523 76.2588 117.502 76.2923C117.499 76.2905 117.495 76.2877 117.491 76.2865C117.488 76.2857 117.485 76.2845 117.482 76.2835C117.472 76.279 117.463 76.2735 117.455 76.2675C117.448 76.2617 117.442 76.2555 117.436 76.2488C117.429 76.2387 117.422 76.2285 117.417 76.2172C117.42 76.2232 117.422 76.2292 117.425 76.2352C117.422 76.2243 117.417 76.215 117.41 76.207C117.404 76.198 117.397 76.1908 117.387 76.1857C117.377 76.1797 117.367 76.1763 117.356 76.1758C117.345 76.1733 117.334 76.1738 117.323 76.1773C117.302 76.1838 117.283 76.1963 117.273 76.2153C117.27 76.222 117.267 76.2285 117.264 76.2352C117.261 76.2498 117.261 76.2645 117.264 76.2792C117.273 76.299 117.281 76.3182 117.293 76.3357C117.306 76.353 117.319 76.3702 117.335 76.3843C117.366 76.4112 117.4 76.431 117.439 76.4432C117.426 76.4942 117.416 76.5478 117.416 76.6045C117.416 76.891 117.602 77.1233 117.831 77.1233C118.06 77.1233 118.246 76.891 118.246 76.6045C118.246 76.3178 118.06 76.0857 117.831 76.0857Z" fill="#3B3B78"/>
<path d="M123.005 76.1978C122.991 76.1835 122.967 76.1727 122.946 76.1735C122.925 76.1745 122.902 76.1815 122.887 76.1978C122.883 76.2035 122.879 76.209 122.874 76.2147C122.867 76.2273 122.863 76.241 122.863 76.2557C122.864 76.2505 122.865 76.2452 122.865 76.24C122.863 76.2555 122.858 76.2702 122.853 76.2847C122.847 76.2955 122.841 76.3057 122.834 76.3155C122.826 76.3247 122.818 76.3333 122.809 76.3413C122.802 76.346 122.795 76.3498 122.787 76.3538C122.771 76.3207 122.753 76.289 122.732 76.2612C122.734 76.2597 122.736 76.2592 122.738 76.2575C122.743 76.2533 122.747 76.249 122.751 76.2442C122.759 76.2345 122.767 76.2245 122.774 76.2137C122.783 76.1977 122.791 76.1793 122.796 76.1612C122.799 76.1487 122.801 76.1353 122.802 76.1225C122.803 76.1167 122.803 76.1107 122.803 76.1048C122.802 76.0918 122.8 76.0788 122.798 76.0662C122.797 76.0597 122.795 76.0535 122.792 76.0473C122.79 76.0365 122.785 76.0272 122.777 76.0192C122.772 76.0102 122.764 76.003 122.754 75.9978C122.736 75.9875 122.71 75.983 122.69 75.9895C122.67 75.996 122.651 76.0083 122.641 76.0275C122.631 76.0462 122.624 76.0707 122.632 76.0913C122.634 76.0953 122.634 76.0995 122.635 76.1035C122.636 76.1068 122.636 76.1102 122.635 76.1135C122.635 76.1172 122.634 76.121 122.632 76.1245C122.631 76.1273 122.629 76.13 122.628 76.1327C122.625 76.1352 122.623 76.1378 122.621 76.1402C122.616 76.1437 122.614 76.1493 122.611 76.154C122.557 76.1217 122.497 76.102 122.432 76.102C122.203 76.102 122.018 76.3305 122.018 76.6125C122.018 76.8945 122.203 77.123 122.432 77.123C122.661 77.123 122.847 76.8945 122.847 76.6125C122.847 76.5775 122.844 76.5435 122.838 76.5107C122.88 76.494 122.919 76.4707 122.948 76.4387C122.968 76.4163 122.987 76.3913 123 76.3638C123.007 76.3475 123.014 76.3307 123.019 76.3133C123.025 76.2948 123.027 76.2755 123.029 76.2563C123.031 76.2367 123.019 76.2113 123.005 76.1978Z" fill="#3B3B78"/>
<path d="M120.483 77.348C120.436 77.2248 120.388 77.1018 120.339 76.979C120.323 76.9373 120.284 76.9083 120.237 76.9212C120.197 76.932 120.163 76.9812 120.179 77.0232C120.221 77.1307 120.263 77.2383 120.305 77.346C120.325 77.3963 120.345 77.4467 120.364 77.4973C120.379 77.5393 120.396 77.584 120.396 77.6293C120.397 77.704 120.33 77.7288 120.265 77.7353C120.16 77.746 120.056 77.7235 119.954 77.7613C119.912 77.777 119.883 77.8173 119.896 77.8633C119.907 77.9037 119.956 77.9368 119.998 77.9212C120.105 77.8813 120.224 77.9142 120.335 77.8915C120.44 77.8702 120.535 77.7995 120.557 77.6907C120.58 77.5713 120.525 77.4565 120.483 77.348Z" fill="#F0B4B4"/>
<path d="M118.157 75.1233C117.867 74.9867 117.501 75.0513 117.285 75.292C117.213 75.3713 117.331 75.4888 117.402 75.4092C117.566 75.2263 117.849 75.1608 118.073 75.2665C118.114 75.2857 118.163 75.2777 118.187 75.2368C118.208 75.2007 118.198 75.1425 118.157 75.1233Z" fill="#3B3B78"/>
<path d="M122.991 75.5873C122.879 75.4818 122.76 75.3745 122.61 75.3282C122.455 75.2803 122.286 75.3162 122.166 75.4245C122.132 75.4545 122.135 75.5112 122.166 75.5417C122.199 75.5747 122.25 75.5717 122.283 75.5417C122.367 75.4663 122.484 75.4573 122.587 75.495C122.698 75.536 122.789 75.6245 122.874 75.7043C122.951 75.7778 123.069 75.6608 122.991 75.5873Z" fill="#3B3B78"/>
<path d="M117.739 76.246C117.632 76.246 117.632 76.4117 117.739 76.4117C117.846 76.4117 117.846 76.246 117.739 76.246Z" fill="white"/>
<path d="M122.33 76.3432C122.223 76.3432 122.223 76.5088 122.33 76.5088C122.437 76.509 122.437 76.3432 122.33 76.3432Z" fill="white"/>
<path d="M121.974 78.6825C121.599 79.083 121.08 79.3472 120.53 79.3948C119.959 79.4443 119.378 79.2687 118.93 78.9117C118.847 78.8457 118.729 78.9622 118.812 79.0289C119.293 79.4127 119.913 79.6145 120.53 79.5605C121.124 79.5087 121.685 79.2337 122.091 78.7997C122.164 78.7219 122.047 78.6044 121.974 78.6825Z" fill="#F09C9C"/>
<path d="M185.939 82.7143C186.038 82.842 186.143 82.964 186.242 83.08C187.488 84.479 188.745 84.5603 190.003 82.7143L189.52 79.7883L189.339 78.6912L186.667 78.6737L185.939 82.7143Z" fill="#F9CBCB"/>
<path d="M185.967 82.5565C186.188 82.3728 186.421 81.5583 187.003 80.8153C187.475 80.2175 188.968 80.2335 189.597 80.2568L189.346 78.6738H186.632L185.967 82.5565Z" fill="#F0B4B4"/>
<path d="M192.214 75.4485C192.348 75.4485 192.481 75.4373 192.604 75.4152C192.693 75.4152 192.782 75.404 192.861 75.3818C194.834 75.0372 194.957 73.4025 194.578 73.0023C194.076 72.4687 193.139 72.8133 193.139 72.8133L192.214 75.4485Z" fill="#F9CBCB"/>
<path d="M192.871 73.1008C192.871 76.0877 190.738 79.3753 188.171 79.3753C185.546 79.3753 183.1 76.0877 183.1 73.1008C183.1 70.114 185.287 67.6927 187.985 67.6927C190.683 67.6927 192.871 70.114 192.871 73.1008Z" fill="#F9CBCB"/>
<path d="M182.76 70.6923C182.23 70.6865 181.906 70.2987 181.387 70.0282C181.387 70.7982 181.8 71.6385 182.743 71.9502C182.678 72.2852 182.69 73.6722 183.238 74.7125C183.096 74.26 183.745 70.8687 184.682 69.8578C185.254 70.4338 184.912 71.862 184.912 71.862C186.627 70.6572 186.285 68.4472 186.285 68.4472C187.052 68.8057 186.922 70.0047 186.922 70.0047C187.553 69.5992 187.741 68.0887 187.741 68.0887C188.561 68.8763 187.741 71.0097 187.741 71.0097C189.828 70.1928 190.547 68.8528 190.547 68.8528C190.736 70.7218 192.734 73.2492 192.917 73.4783C192.917 73.4783 192.917 73.4725 192.923 73.4725C192.987 73.349 193.076 73.1903 193.164 73.0023C193.176 72.9848 193.182 72.9672 193.188 72.9495C193.701 71.8623 194.326 69.8522 192.787 68.136C192.475 66.314 191.29 65.4207 188.902 65.315C186.338 65.1973 184.694 67.5895 181.817 66.5903C181.817 66.5903 181.823 67.7423 182.766 68.1302C182.766 68.1302 181.387 68.1655 181.01 67.4015C181.01 67.401 181.187 69.846 182.76 70.6923Z" fill="#3B3B78"/>
<path d="M190.263 72.9423C190.303 72.9423 190.34 72.9513 190.376 72.9647C190.383 72.956 190.39 72.9473 190.4 72.9417C190.406 72.9387 190.412 72.9343 190.419 72.9302C190.422 72.9267 190.426 72.9228 190.43 72.919C190.433 72.9142 190.436 72.9092 190.438 72.9042C190.441 72.897 190.443 72.89 190.445 72.8825C190.447 72.8717 190.452 72.8623 190.46 72.8543C190.465 72.8453 190.473 72.8382 190.483 72.833C190.492 72.827 190.503 72.8237 190.514 72.8232C190.525 72.8207 190.536 72.8212 190.547 72.8247C190.567 72.8312 190.586 72.8437 190.596 72.8627C190.599 72.8693 190.602 72.8758 190.605 72.8825C190.609 72.8972 190.609 72.9118 190.605 72.9265C190.602 72.9455 190.594 72.9625 190.587 72.98C190.582 72.9913 190.576 73.0018 190.568 73.0117C190.556 73.0268 190.545 73.0415 190.53 73.0535C190.528 73.0557 190.525 73.0572 190.522 73.0592C190.548 73.0857 190.572 73.1153 190.592 73.1488C190.596 73.147 190.599 73.1442 190.603 73.143C190.606 73.1422 190.609 73.1408 190.612 73.14C190.622 73.1355 190.631 73.13 190.639 73.124C190.646 73.1182 190.652 73.112 190.658 73.1053C190.665 73.0952 190.672 73.085 190.677 73.0737C190.674 73.0797 190.672 73.0857 190.669 73.0917C190.672 73.0808 190.676 73.0715 190.684 73.0635C190.69 73.0545 190.698 73.0473 190.707 73.0422C190.717 73.0362 190.727 73.0328 190.738 73.0323C190.749 73.0298 190.76 73.0303 190.771 73.0338C190.791 73.0403 190.811 73.0527 190.821 73.072C190.824 73.0787 190.827 73.0852 190.829 73.0918C190.833 73.1065 190.833 73.1212 190.829 73.1358C190.821 73.1557 190.813 73.1748 190.801 73.1923C190.788 73.2097 190.775 73.2268 190.759 73.241C190.728 73.2678 190.693 73.2877 190.655 73.2998C190.668 73.3508 190.677 73.4045 190.677 73.461C190.677 73.7475 190.492 73.9798 190.263 73.9798C190.034 73.9798 189.848 73.7475 189.848 73.461C189.848 73.1745 190.034 72.9423 190.263 72.9423Z" fill="#3B3B78"/>
<path d="M185.089 73.0545C185.103 73.0402 185.127 73.0293 185.148 73.0302C185.169 73.0312 185.192 73.0382 185.206 73.0545C185.211 73.0602 185.215 73.0657 185.219 73.0713C185.227 73.084 185.23 73.0977 185.231 73.1123C185.23 73.1072 185.229 73.1018 185.228 73.0967C185.231 73.1122 185.236 73.1268 185.241 73.1413C185.246 73.1522 185.252 73.1623 185.259 73.1723C185.267 73.1815 185.276 73.1902 185.285 73.1982C185.292 73.2028 185.299 73.2067 185.306 73.2107C185.322 73.1775 185.34 73.1458 185.362 73.118C185.36 73.1165 185.357 73.1162 185.356 73.1143C185.351 73.1102 185.346 73.1058 185.342 73.101C185.334 73.0913 185.326 73.0813 185.32 73.0705C185.31 73.0543 185.302 73.0362 185.298 73.018C185.295 73.0055 185.293 72.9922 185.292 72.9795C185.291 72.9737 185.291 72.9677 185.291 72.9618C185.292 72.9488 185.294 72.9358 185.296 72.9232C185.297 72.9167 185.299 72.9105 185.301 72.9043C185.304 72.8935 185.309 72.8842 185.316 72.8762C185.322 72.8672 185.33 72.86 185.339 72.8548C185.357 72.8445 185.384 72.84 185.404 72.8465C185.424 72.853 185.443 72.8653 185.453 72.8847C185.463 72.9033 185.469 72.9278 185.462 72.9485C185.46 72.9525 185.459 72.9567 185.458 72.9607C185.458 72.964 185.458 72.9673 185.458 72.9707C185.459 72.9743 185.46 72.9782 185.462 72.9817C185.463 72.9845 185.465 72.9872 185.466 72.9898C185.469 72.9923 185.471 72.995 185.473 72.9973C185.477 73.0008 185.48 73.0065 185.483 73.0112C185.537 72.9788 185.597 72.9593 185.662 72.9593C185.891 72.9593 186.076 73.1878 186.076 73.4698C186.076 73.7518 185.891 73.9803 185.662 73.9803C185.433 73.9803 185.247 73.7518 185.247 73.4698C185.247 73.4348 185.25 73.4008 185.255 73.368C185.214 73.3513 185.175 73.328 185.146 73.296C185.126 73.2737 185.107 73.2487 185.094 73.2212C185.087 73.2048 185.079 73.188 185.075 73.1707C185.069 73.1522 185.067 73.1328 185.065 73.1137C185.063 73.0933 185.075 73.068 185.089 73.0545Z" fill="#3B3B78"/>
<path d="M187.835 74.2295C187.882 74.1064 187.93 73.9834 187.978 73.8605C187.995 73.8189 188.034 73.7899 188.081 73.8027C188.121 73.8137 188.155 73.8627 188.139 73.9047C188.096 74.0122 188.054 74.1199 188.013 74.2275C187.993 74.2779 187.973 74.3282 187.954 74.3789C187.939 74.4209 187.922 74.4655 187.921 74.5109C187.921 74.5855 187.987 74.6104 188.052 74.6169C188.158 74.6275 188.262 74.605 188.364 74.6429C188.406 74.6585 188.435 74.6989 188.422 74.7449C188.411 74.7852 188.362 74.8184 188.32 74.8027C188.213 74.7629 188.094 74.7957 187.983 74.773C187.878 74.7517 187.783 74.681 187.761 74.5722C187.738 74.4529 187.793 74.338 187.835 74.2295Z" fill="#F0B4B4"/>
<path d="M189.937 71.98C190.227 71.8433 190.593 71.908 190.809 72.1487C190.88 72.2278 190.763 72.3455 190.692 72.2658C190.528 72.083 190.245 72.0175 190.02 72.1232C189.98 72.1423 189.931 72.1343 189.907 72.0935C189.886 72.0573 189.896 71.9992 189.937 71.98Z" fill="#3B3B78"/>
<path d="M185.103 72.444C185.214 72.3385 185.334 72.2312 185.484 72.1848C185.639 72.137 185.808 72.1728 185.928 72.2812C185.961 72.3112 185.959 72.3678 185.928 72.3983C185.895 72.4313 185.844 72.4283 185.811 72.3983C185.727 72.323 185.61 72.314 185.507 72.3517C185.395 72.3927 185.305 72.4812 185.22 72.561C185.143 72.6345 185.025 72.5175 185.103 72.444Z" fill="#3B3B78"/>
<path d="M190.355 73.1027C190.462 73.1027 190.462 73.2683 190.355 73.2683C190.248 73.2683 190.248 73.1027 190.355 73.1027Z" fill="white"/>
<path d="M185.764 73.1998C185.871 73.1998 185.871 73.3655 185.764 73.3655C185.657 73.3657 185.657 73.1998 185.764 73.1998Z" fill="white"/>
<path d="M189.093 76.2542C189.058 76.5318 188.921 76.778 188.722 76.955C188.694 76.9795 188.665 77.0025 188.635 77.0243C188.449 77.1593 188.219 77.2392 187.971 77.2392C187.701 77.2392 187.454 77.1453 187.26 76.9885C187.038 76.8097 186.886 76.5488 186.849 76.2523C186.84 76.1847 186.904 76.1307 186.97 76.148C187.034 76.1648 187.097 76.1803 187.161 76.194C187.704 76.3117 188.249 76.3168 188.795 76.1942C188.853 76.1812 188.912 76.1665 188.97 76.1503C189.037 76.132 189.101 76.186 189.093 76.2542Z" fill="#3B3B78"/>
<path d="M188.795 76.1942C188.795 76.3447 188.687 76.4742 188.538 76.4997C188.16 76.5647 187.786 76.565 187.417 76.5007C187.269 76.4748 187.161 76.3453 187.161 76.1953V76.1938C187.705 76.3115 188.249 76.3167 188.795 76.1942Z" fill="white"/>
<path d="M188.635 77.0242C188.449 77.1592 188.219 77.239 187.971 77.239C187.701 77.239 187.454 77.1452 187.26 76.9883C187.393 76.8325 187.645 76.727 187.934 76.727C188.245 76.727 188.513 76.8488 188.635 77.0242Z" fill="#FF73D6"/>
<path d="M190.003 82.7143C190.003 82.7143 191.76 82.9048 193.305 83.7782C195.372 84.9475 195.935 86.1555 195.934 88.1232C195.932 90.6577 191.559 90.8967 191.559 90.8967L184.324 91.0263C184.324 91.0263 177.885 90.3778 177.787 90.3778C177.69 90.3778 178.113 89.2105 178.113 89.2105C178.113 89.2105 177.786 82.0927 181.335 82.7145C182.902 82.989 185.939 82.7145 185.939 82.7145C187.245 84.1728 188.504 84.1672 190.003 82.7143Z" fill="#FFD994"/>
<path d="M77.4137 93.0357C74.5449 88.224 70.9348 89.9167 70.4577 83.4818C70.2665 80.9007 68.0512 79.2167 67.0974 76.944C66.05 74.5592 65.7847 71.91 64.611 69.5702C62.3228 65.0088 54.765 64.4812 53.7813 67.8367C53.7813 67.8367 51.3022 67.5818 50.1263 70.2927C48.9072 72.6092 49.0323 74.5592 47.9849 76.944C47.0312 79.2157 45.0518 80.93 44.6249 83.482C43.4352 90.5927 39.2553 90.1437 37.7421 93.2153C36.6639 95.4037 36.9426 98.8558 39.3635 100.437C41.1308 101.591 42.4355 101.88 43.4035 103.689C45.1477 107.111 48.206 103.937 50.9305 105.05C55.604 106.961 59.7722 106.586 64.1436 105.047C66.9216 104.069 69.9302 107.119 71.6786 103.688C72.643 101.878 74.0267 100.382 76.0598 99.8185C78.5115 99.2048 78.6672 95.1382 77.4137 93.0357Z" fill="#3B3B78"/>
<path d="M53.862 67.8576C48.882 67.3276 49.6185 71.8863 48.8589 75.243C48.6632 76.1057 48.3406 76.9835 47.7538 77.6593C46.0413 79.575 43.3483 81.2027 44.6422 84.1615C43.1377 81.2297 45.8163 79.418 47.5278 77.4777C48.089 76.8143 48.3721 76.0085 48.561 75.174C49.3176 71.755 48.7666 67.059 53.862 67.8576Z" fill="#3B3B78"/>
<path d="M64.9465 70.6173C65.5799 74.4907 68.1424 77.4962 70.572 80.4168C71.7516 82.0053 70.8851 83.991 71.0582 85.771C71.217 87.2992 71.885 88.936 73.445 89.4903C75.2466 90.292 77.4745 90.878 78.4492 92.7748C80.2356 95.8522 79.312 100.944 75.468 101.846C79.194 100.848 80.034 95.8833 78.2437 92.8852C77.2468 91.0572 75.1022 90.5528 73.3205 89.758C71.672 89.1732 70.9121 87.4337 70.7582 85.7983C70.5643 84.051 71.4694 82.1265 70.351 80.563C67.9608 77.6137 65.4266 74.5172 64.9465 70.6173Z" fill="#3B3B78"/>
<path d="M62.6165 77.2843C62.5422 77.3213 62.468 77.3462 62.3811 77.3832V77.2102L62.344 75.344C62.4929 74.9485 62.5917 74.5283 62.6663 74.0835V74.0712C62.9762 73.9105 63.472 73.725 63.9181 73.9475C64.513 74.2442 65.0459 76.1843 62.6165 77.2843Z" fill="#F9CBCB"/>
<path d="M59.6495 83.7957C59.5505 83.9233 59.4457 84.0453 59.347 84.1613C58.1008 85.5603 56.8431 85.6417 55.5854 83.7957L56.0687 80.8697L56.2492 79.7725L58.9217 79.755L59.6495 83.7957Z" fill="#F9CBCB"/>
<path d="M59.6211 83.6378C59.4006 83.4542 59.1672 82.6397 58.585 81.8967C58.1135 81.2988 56.6203 81.3148 55.9915 81.3382L56.242 79.7552H58.9566L59.6211 83.6378Z" fill="#F0B4B4"/>
<path d="M62.4063 73.0945C62.3401 73.4898 62.2521 73.8633 62.1199 74.2148L62.1089 73.413V73.2812C62.1089 73.2812 62.1199 73.2702 62.142 73.2482C62.1859 73.2263 62.274 73.1605 62.4063 73.0945Z" fill="#F9CBCB"/>
<path d="M53.0431 73.2813L53.032 73.6108L53.021 74.204C52.8669 73.8635 52.7566 73.512 52.7014 73.1715C52.7014 73.1387 52.7124 73.1057 52.7235 73.0837H52.7345C52.8116 73.1275 52.8778 73.1605 52.9328 73.2045C52.999 73.2483 53.0431 73.2813 53.0431 73.2813Z" fill="#F0B4B4"/>
<path d="M62.9798 74.7582C62.9798 76.1675 62.5212 77.5142 61.7776 78.59C61.3863 79.1657 60.9101 79.6657 60.3764 80.0597C60.3755 80.0605 60.374 80.0612 60.3734 80.062C59.5556 80.6673 58.6024 81.0247 57.6131 81.0247C56.1009 81.0247 54.3162 79.8627 53.2006 78.1693C52.5314 77.1807 52.1094 75.9943 52.1094 74.7582C52.1094 72.9198 52.8567 71.2738 54.0297 70.1707L54.038 70.1622C54.9844 69.2743 56.2072 68.7398 57.5387 68.7398C60.538 68.74 62.9798 71.4342 62.9798 74.7582Z" fill="#F9CBCB"/>
<path d="M62.9799 74.7582C62.9799 76.1675 62.5212 77.5142 61.7777 78.59C61.3864 79.1657 60.9102 79.6657 60.3764 80.0597C63.365 77.5472 61.1316 74.0843 59.5234 73.5443C58.2352 73.1118 57.9218 71.5962 57.4698 70.6173C56.8291 69.2297 54.0295 70.1707 54.0295 70.1707L54.0379 70.1622C54.9843 69.2743 56.2071 68.7398 57.5386 68.7398C60.5381 68.74 62.9799 71.4342 62.9799 74.7582Z" fill="#F0B4B4"/>
<path d="M53.0086 75.1587L52.959 77.3832C52.9342 77.3708 52.9219 77.3585 52.8971 77.3585C52.8971 77.3585 52.8971 77.3585 52.8971 77.3462C52.7731 77.2967 52.6614 77.2473 52.5501 77.1978C50.009 75.8755 50.8767 74.0712 51.4592 73.7745C51.8932 73.5643 52.3639 73.725 52.6738 73.8982C52.6614 73.9228 52.6491 73.96 52.6491 73.997C52.7112 74.38 52.8353 74.7755 53.0086 75.1587Z" fill="#F9CBCB"/>
<path d="M57.8546 68.188C57.7955 68.2848 54.567 68.7402 54.567 68.7402L54.3786 69.6155C53.3301 70.393 52.5642 71.6018 52.4293 72.9123C52.2509 74.7655 53.98 76.4863 53.127 78.3418C54.6406 75.4062 50.6596 73.3567 54.3385 69.8017L54.3128 69.9217C59.4271 68.5162 57.2029 71.5352 60.5147 73.0295C62.6943 73.7663 62.2575 77.7792 61.4274 79.0565C62.269 78.3858 63.8609 75.5965 63.3821 71.8175C63.0466 69.1667 58.4195 67.2648 57.8546 68.188Z" fill="#3B3B78"/>
<path d="M118.47 85.1068C118.47 85.1068 110.552 87.1638 110.554 90.5412C110.556 93.0757 116.914 93.289 116.914 93.289L124.149 93.4187C124.149 93.4187 130.588 92.7702 130.686 92.7702C130.783 92.7702 130.361 91.6028 130.361 91.6028C130.361 91.6028 130.344 84.7835 126.795 85.4052C125.229 85.6797 122.534 85.1067 122.534 85.1067C121.228 86.5653 119.969 86.5595 118.47 85.1068Z" fill="#FF8CDD"/>
<path d="M67.4672 89.9907C67.052 90.5773 66.6637 91.122 66.3224 91.6013C65.6416 91.6683 64.8095 91.7522 64.0193 91.831C62.5719 91.9752 61.2641 92.1075 61.2641 92.1075L54.0289 91.9785C54.0289 91.9785 47.6712 91.764 47.6697 89.2297C47.6697 88.7822 47.8074 88.3565 48.0496 87.9575L48.1471 87.8083C49.8551 85.2842 55.5857 83.7957 55.5857 83.7957C57.0835 85.2488 58.3442 85.2538 59.6487 83.7957C59.6487 83.7957 62.3434 84.3688 63.9102 84.094C66.1139 83.7085 66.9544 86.1908 67.2772 88.1283C67.4067 88.9162 67.452 89.6135 67.4672 89.9907Z" fill="#FFD994"/>
<path d="M78.9629 57.5612C78.5547 57.0943 77.21 59.0188 76.9764 58.9008C76.4828 58.6515 77.5388 56.6053 77.1197 56.341C76.5134 55.9583 75.9952 58.6417 75.6984 58.635C75.2135 58.6242 75.6252 56.0727 74.933 56.3642C74.2408 56.6558 75.0655 59.3877 74.3128 59.6853C73.5601 59.983 73.9581 58.0087 73.165 58.2342C72.4835 58.428 73.1065 59.9988 73.2236 60.7063C73.3574 61.5147 73.9407 62.4147 74.1151 62.5523L75.9503 63.057C76.6353 62.9568 77.4787 62.5503 77.9404 61.3672C78.2921 60.4658 79.7624 59.6992 79.6531 59.4383C79.4238 58.8907 78.1166 60.1475 77.8002 59.7218C77.6167 59.475 79.2531 57.8928 78.9629 57.5612Z" fill="#FFCCCC"/>
<path d="M77.0155 62.9567C77.0155 62.9567 75.0671 78.9535 73.7039 81.0703C73.3123 81.6805 72.3204 83.1102 71.1386 84.7947C69.9687 86.4623 68.6121 88.3782 67.4672 89.9907C67.052 90.5773 66.6637 91.122 66.3224 91.6013C65.6415 91.6683 64.8094 91.7522 64.0193 91.831L62.024 88.162L59.6487 83.7957C61.7869 83.209 64.0933 82.071 68.2639 78.464L73.6197 62.2275C73.7121 62.2443 73.8029 62.261 73.892 62.2778C74.9594 62.4807 75.8487 62.7237 76.5834 62.8762C76.7348 62.9063 76.8776 62.9348 77.0155 62.9567Z" fill="#FFD994"/>
<path d="M148.189 64.855C147.915 64.299 146.117 65.8117 145.923 65.6375C145.51 65.2695 147.061 63.5648 146.724 63.2015C146.238 62.6757 145.042 65.1345 144.757 65.0515C144.291 64.9162 145.35 62.5573 144.606 62.6607C143.862 62.764 143.951 65.6157 143.146 65.7093C142.342 65.803 143.238 63.9982 142.413 64.0118C141.705 64.0235 141.9 65.7015 141.829 66.4152C141.749 67.2305 142.079 68.2503 142.212 68.4282L143.854 69.3885C144.542 69.4682 145.462 69.2928 146.215 68.2688C146.788 67.4888 148.407 67.1268 148.369 66.8467C148.289 66.2585 146.701 67.136 146.506 66.6432C146.392 66.357 148.383 65.2503 148.189 64.855Z" fill="#FFCCCC"/>
<path d="M122.733 85.2232C124.95 85.2073 127.473 84.7028 132.436 82.2925L141.818 67.987C143.12 68.5948 144.109 69.2062 144.909 69.5658C144.909 69.5658 138.882 84.5173 137.017 86.2122C135.285 87.7853 125.326 95.9958 125.326 95.9958L122.733 85.2232Z" fill="#FF8CDD"/>
<path d="M90.8953 66.2222C91.1424 65.6538 93.0093 67.0807 93.1959 66.8977C93.5902 66.5107 91.9614 64.8805 92.2802 64.5018C92.7415 63.9538 94.0517 66.3538 94.3327 66.2577C94.7913 66.1007 93.6226 63.794 94.371 63.8623C95.1193 63.9307 95.1648 66.7833 95.9726 66.8392C96.7805 66.895 95.8003 65.1342 96.6247 65.1092C97.3331 65.0877 97.2174 66.773 97.3213 67.4825C97.4398 68.2932 97.1579 69.3273 97.0337 69.5112L95.4386 70.5473C94.7554 70.6592 93.8279 70.527 93.0279 69.5393C92.4184 68.787 90.7841 68.5013 90.8089 68.2197C90.8607 67.6283 92.4888 68.4305 92.6606 67.9292C92.7604 67.6385 90.7198 66.6262 90.8953 66.2222Z" fill="#FFCCCC"/>
<path d="M117.282 85.3762C115.067 85.4642 112.523 85.0782 107.451 82.903L97.4059 69.0525C96.134 69.7205 95.175 70.3775 94.3931 70.7742C94.3931 70.7742 101.117 85.427 103.061 87.0327C104.864 88.523 115.199 96.2583 115.199 96.2583L117.282 85.3762Z" fill="#FF8CDD"/>
<path d="M190.251 136.529H39.5867C37.38 136.529 35.5913 134.745 35.5913 132.545V92.8958C35.5913 90.6957 37.3802 88.912 39.5868 88.912H190.251C192.458 88.912 194.247 90.6957 194.247 92.8957V132.545C194.246 134.745 192.458 136.529 190.251 136.529Z" fill="#A58AFF"/>
<path d="M45.3896 104.421H50.6927L52.6019 114.507L55.3962 104.421H60.6802L63.4815 114.493L65.393 104.421H70.6686L66.6856 122.437H61.2104L58.0413 111.094L54.8846 122.437H49.4096L45.3896 104.421Z" fill="#8667EB"/>
<path d="M72.4802 104.421H87.443V108.267H78.0759V111.131H86.7652V114.805H78.0759V118.357H87.7141V122.437H72.4802V104.421Z" fill="#8667EB"/>
<path d="M90.7214 104.421H96.3049V118H105.019V122.437H90.7216V104.421H90.7214Z" fill="#8667EB"/>
<path d="M119.156 115.063L124.049 116.538C123.72 117.906 123.202 119.049 122.496 119.966C121.789 120.884 120.912 121.576 119.864 122.043C118.817 122.51 117.484 122.744 115.865 122.744C113.901 122.744 112.297 122.459 111.052 121.89C109.807 121.321 108.733 120.32 107.829 118.887C106.925 117.455 106.473 115.621 106.473 113.385C106.473 110.405 107.268 108.115 108.858 106.514C110.448 104.914 112.697 104.113 115.606 104.113C117.882 104.113 119.672 104.572 120.974 105.49C122.276 106.407 123.244 107.816 123.876 109.717L118.946 110.811C118.774 110.262 118.593 109.861 118.404 109.606C118.091 109.181 117.71 108.853 117.258 108.623C116.806 108.394 116.3 108.279 115.742 108.279C114.476 108.279 113.507 108.787 112.833 109.801C112.323 110.554 112.069 111.737 112.069 113.349C112.069 115.345 112.373 116.714 112.981 117.455C113.589 118.195 114.443 118.565 115.545 118.565C116.613 118.565 117.42 118.267 117.966 117.668C118.513 117.07 118.909 116.202 119.156 115.063Z" fill="#8667EB"/>
<path d="M126.058 113.441C126.058 110.5 126.879 108.21 128.523 106.571C130.166 104.933 132.455 104.113 135.388 104.113C138.395 104.113 140.713 104.918 142.339 106.528C143.966 108.138 144.78 110.393 144.78 113.293C144.78 115.399 144.424 117.126 143.714 118.473C143.003 119.821 141.976 120.87 140.632 121.619C139.289 122.369 137.615 122.744 135.61 122.744C133.572 122.744 131.885 122.42 130.55 121.773C129.215 121.126 128.132 120.102 127.303 118.701C126.473 117.299 126.058 115.546 126.058 113.441ZM131.641 113.465C131.641 115.284 131.98 116.591 132.658 117.385C133.336 118.18 134.258 118.577 135.425 118.577C136.625 118.577 137.553 118.188 138.211 117.41C138.868 116.632 139.196 115.235 139.196 113.219C139.196 111.523 138.853 110.284 138.167 109.502C137.481 108.719 136.55 108.328 135.376 108.328C134.25 108.328 133.346 108.726 132.664 109.52C131.982 110.315 131.641 111.63 131.641 113.465Z" fill="#8667EB"/>
<path d="M147.726 104.421H155.068L157.9 115.383L160.711 104.421H168.05V122.437H163.477V108.697L159.954 122.437H155.815L152.298 108.697V122.437H147.726V104.421Z" fill="#8667EB"/>
<path d="M171.599 104.421H186.562V108.267H177.195V111.131H185.884V114.805H177.195V118.357H186.833V122.437H171.599V104.421Z" fill="#8667EB"/>
<path d="M44.2017 103.712H49.5047L51.4139 113.798L54.2083 103.712H59.4922L62.2936 113.785L64.205 103.712H69.4806L65.4976 121.728H60.0224L56.8533 110.386L53.6966 121.728H48.2214L44.2017 103.712Z" fill="white"/>
<path d="M71.2922 103.712H86.255V107.559H76.8879V110.422H85.5772V114.097H76.8879V117.648H86.5261V121.728H71.2922V103.712Z" fill="white"/>
<path d="M89.5334 103.712H95.1169V117.292H103.831V121.728H89.5336V103.712H89.5334Z" fill="white"/>
<path d="M117.968 114.355L122.861 115.83C122.532 117.198 122.014 118.341 121.308 119.258C120.601 120.176 119.724 120.868 118.676 121.335C117.629 121.802 116.296 122.036 114.677 122.036C112.713 122.036 111.109 121.751 109.864 121.182C108.619 120.613 107.545 119.612 106.641 118.179C105.737 116.747 105.285 114.913 105.285 112.677C105.285 109.697 106.08 107.407 107.67 105.806C109.26 104.206 111.509 103.405 114.418 103.405C116.694 103.405 118.484 103.864 119.786 104.782C121.088 105.699 122.056 107.108 122.688 109.009L117.758 110.103C117.586 109.554 117.405 109.153 117.216 108.898C116.903 108.473 116.522 108.145 116.07 107.915C115.618 107.686 115.112 107.571 114.554 107.571C113.288 107.571 112.319 108.079 111.645 109.093C111.135 109.846 110.881 111.029 110.881 112.641C110.881 114.637 111.185 116.006 111.793 116.747C112.401 117.487 113.255 117.857 114.357 117.857C115.425 117.857 116.232 117.558 116.778 116.96C117.325 116.362 117.721 115.494 117.968 114.355Z" fill="white"/>
<path d="M124.87 112.733C124.87 109.791 125.691 107.502 127.335 105.863C128.978 104.225 131.267 103.405 134.2 103.405C137.207 103.405 139.525 104.21 141.151 105.82C142.778 107.43 143.592 109.685 143.592 112.585C143.592 114.691 143.236 116.418 142.526 117.765C141.815 119.113 140.788 120.162 139.444 120.911C138.101 121.661 136.426 122.036 134.422 122.036C132.384 122.036 130.697 121.712 129.362 121.065C128.027 120.418 126.944 119.394 126.115 117.993C125.285 116.591 124.87 114.838 124.87 112.733ZM130.453 112.757C130.453 114.576 130.792 115.883 131.47 116.677C132.148 117.472 133.07 117.869 134.237 117.869C135.436 117.869 136.365 117.48 137.022 116.702C137.679 115.924 138.008 114.527 138.008 112.511C138.008 110.815 137.665 109.576 136.979 108.794C136.293 108.012 135.362 107.62 134.187 107.62C133.061 107.62 132.158 108.018 131.476 108.812C130.794 109.607 130.453 110.922 130.453 112.757Z" fill="white"/>
<path d="M146.538 103.712H153.88L156.712 114.674L159.523 103.712H166.862V121.728H162.289V107.989L158.766 121.728H154.627L151.11 107.989V121.728H146.538V103.712Z" fill="white"/>
<path d="M170.411 103.712H185.374V107.559H176.007V110.422H184.696V114.097H176.007V117.648H185.645V121.728H170.412V103.712H170.411Z" fill="white"/>
<path d="M39.4558 99.1657V117.268C39.4558 118.346 41.1369 118.348 41.1369 117.268V99.1657C41.1369 98.0872 39.4558 98.0855 39.4558 99.1657Z" fill="#8667EB"/>
<path d="M40.2087 119.665C39.127 119.665 39.1252 121.342 40.2087 121.342C41.2903 121.342 41.2922 119.665 40.2087 119.665Z" fill="#8667EB"/>
<path d="M48.4584 133.23C46.2924 133.283 44.1259 133.254 41.9628 133.131C41.5375 133.106 40.9745 133.208 40.8179 132.743C40.6854 132.351 40.8131 131.712 40.8193 131.309C40.8353 130.266 40.8514 129.222 40.8674 128.178C40.8839 127.099 39.203 127.099 39.1863 128.178C39.1656 129.534 39.1196 130.892 39.1238 132.249C39.1268 133.238 39.3734 134.209 40.3997 134.588C41.513 134.999 42.9533 134.866 44.1268 134.9C45.5705 134.942 47.0145 134.942 48.4584 134.907C49.5383 134.88 49.5423 133.204 48.4584 133.23Z" fill="#8667EB"/>
<path d="M141.208 133.023H85.9528C84.8711 133.023 84.8693 134.699 85.9528 134.699H141.208C142.289 134.699 142.291 133.023 141.208 133.023Z" fill="#8667EB"/>
<path d="M155.778 133.011H145.779C144.698 133.011 144.696 134.688 145.779 134.688H155.778C156.859 134.688 156.861 133.011 155.778 133.011Z" fill="#8667EB"/>
<path d="M38.7021 98.6875V116.789C38.7021 117.868 40.3832 117.87 40.3832 116.789V98.6875C40.3832 97.609 38.7021 97.6072 38.7021 98.6875Z" fill="white"/>
<path d="M39.455 119.187C38.3733 119.187 38.3715 120.863 39.455 120.863C40.5367 120.863 40.5383 119.187 39.455 119.187Z" fill="white"/>
<path d="M48.0058 132.38C45.8398 132.433 43.6735 132.404 41.5101 132.281C41.0849 132.256 40.5219 132.358 40.3653 131.893C40.2327 131.501 40.3604 130.862 40.3666 130.459C40.3827 129.416 40.3987 128.372 40.4148 127.328C40.4313 126.249 38.7504 126.249 38.7337 127.328C38.713 128.684 38.667 130.043 38.6712 131.399C38.6742 132.389 38.9207 133.359 39.9471 133.738C41.0603 134.15 42.5007 134.016 43.6741 134.05C45.1178 134.092 46.5619 134.092 48.0058 134.057C49.0856 134.03 49.0896 132.354 48.0058 132.38Z" fill="white"/>
<path d="M140.755 132.173H85.5004C84.4188 132.173 84.4169 133.85 85.5004 133.85H140.755C141.837 133.85 141.839 132.173 140.755 132.173Z" fill="white"/>
<path d="M155.292 132.37H145.294C144.212 132.37 144.21 134.046 145.294 134.046H155.292C156.374 134.046 156.376 132.37 155.292 132.37Z" fill="white"/>
<path d="M163.302 103.088C162.858 102.655 164.862 101.426 164.757 101.187C164.536 100.681 162.426 101.616 162.186 101.183C161.837 100.558 164.554 100.196 164.564 99.8998C164.581 99.4167 162.002 99.6807 162.334 99.0082C162.665 98.3357 165.354 99.3128 165.695 98.5805C166.036 97.8482 164.036 98.1317 164.307 97.3548C164.54 96.6875 166.078 97.3975 166.779 97.5545C167.581 97.7338 168.449 98.366 168.577 98.5473L168.977 100.403C168.838 101.079 168.383 101.896 167.172 102.287C166.249 102.586 165.398 104.006 165.142 103.882C164.607 103.623 165.94 102.393 165.532 102.054C165.295 101.857 163.618 103.396 163.302 103.088Z" fill="#FFCCCC"/>
<path d="M191.141 86.3583C190.431 88.453 187.33 90.9098 184.844 93.632L168.324 98.3175C168.495 99.7407 168.658 100.171 168.751 101.041C168.751 101.041 185.435 99.8032 187.634 98.5673C189.675 97.4203 195.09 90.9668 195.09 90.9668L191.141 86.3583Z" fill="#FFCCCC"/>
<path d="M189.771 97.923C188.734 96.3037 186.417 95.2328 184.709 92.6745L187.359 88.912L194.058 84.6405C195.752 86.0222 196.84 87.9158 194.904 91.502C194.262 92.693 189.771 97.923 189.771 97.923Z" fill="#FFD994"/>
<path d="M43.211 88.6188C42.7169 89.4708 42.237 91.4482 45.7486 91.6345C48.7104 91.7917 49.7187 89.3292 48.6345 88.3068C47.5503 87.2845 44.2009 86.9118 43.211 88.6188Z" fill="#F9CBCB"/>
<path d="M55.1709 73.9898C55.1311 73.9898 55.0933 73.9988 55.057 74.0122C55.0504 74.0035 55.0437 73.9948 55.034 73.9892C55.0273 73.9862 55.0211 73.9818 55.0149 73.9777C55.0111 73.9742 55.0074 73.9703 55.0037 73.9665C55.0005 73.9617 54.9977 73.9567 54.995 73.9517C54.9927 73.9445 54.99 73.9375 54.9888 73.93C54.9863 73.9192 54.9813 73.9098 54.974 73.9018C54.9681 73.8928 54.9604 73.8857 54.9507 73.8805C54.9412 73.8745 54.9308 73.8712 54.9198 73.8707C54.9088 73.8682 54.8977 73.8687 54.8867 73.8722C54.8666 73.8787 54.8471 73.891 54.8371 73.9102C54.8342 73.9168 54.8315 73.9233 54.8287 73.93C54.8247 73.9447 54.8247 73.9593 54.8287 73.974C54.8317 73.993 54.8391 74.01 54.8468 74.0275C54.8518 74.0388 54.858 74.0493 54.8655 74.0592C54.877 74.0743 54.8882 74.089 54.9031 74.101C54.9058 74.1032 54.9089 74.1047 54.9118 74.1067C54.8859 74.1332 54.862 74.1628 54.8416 74.1963C54.8377 74.1945 54.8344 74.1917 54.8302 74.1905C54.8272 74.1897 54.8244 74.1885 54.8214 74.1875C54.8118 74.183 54.8028 74.1775 54.7941 74.1715C54.7874 74.1657 54.7812 74.1595 54.7754 74.1528C54.7685 74.1427 54.7615 74.1325 54.7567 74.1212C54.7592 74.1272 54.7617 74.1332 54.7643 74.1392C54.7618 74.1283 54.7568 74.119 54.7495 74.111C54.7436 74.102 54.7359 74.0948 54.7261 74.0897C54.7165 74.0837 54.7063 74.0803 54.6951 74.0798C54.6841 74.0773 54.6731 74.0778 54.6619 74.0813C54.6418 74.0878 54.6224 74.1002 54.6122 74.1193C54.6094 74.126 54.6066 74.1325 54.6037 74.1392C54.5999 74.1538 54.5999 74.1685 54.6037 74.1832C54.6121 74.203 54.6201 74.2222 54.6326 74.2397C54.6452 74.257 54.6585 74.2742 54.6746 74.2883C54.705 74.3152 54.7398 74.335 54.7784 74.3472C54.765 74.3982 54.7558 74.4518 54.7558 74.5085C54.7558 74.795 54.9414 75.0273 55.1705 75.0273C55.3995 75.0273 55.5853 74.795 55.5853 74.5085C55.5854 74.2222 55.3999 73.9898 55.1709 73.9898Z" fill="#3B3B78"/>
<path d="M60.3444 74.1022C60.33 74.0878 60.3063 74.077 60.2856 74.0778C60.2642 74.0788 60.2418 74.0858 60.2267 74.1022C60.2224 74.1078 60.2182 74.1133 60.2137 74.119C60.2063 74.1317 60.2028 74.1453 60.2025 74.16C60.2032 74.1548 60.204 74.1495 60.2047 74.1443C60.2025 74.1598 60.1976 74.1745 60.1923 74.189C60.1869 74.1998 60.1809 74.21 60.1739 74.22C60.1659 74.2292 60.1573 74.2378 60.1482 74.2458C60.1415 74.2505 60.1341 74.2543 60.1269 74.2583C60.1107 74.2252 60.0928 74.1935 60.0711 74.1657C60.0731 74.1642 60.0756 74.1638 60.0775 74.162C60.0821 74.1578 60.0865 74.1535 60.0905 74.1487C60.0985 74.139 60.1067 74.129 60.1132 74.1182C60.1229 74.102 60.1306 74.0838 60.1353 74.0657C60.1385 74.0532 60.14 74.0398 60.1413 74.0272C60.142 74.0213 60.1421 74.0153 60.142 74.0095C60.1415 73.9965 60.1395 73.9835 60.1371 73.9708C60.136 73.9643 60.1341 73.9582 60.1318 73.952C60.1293 73.9412 60.1243 73.9318 60.1169 73.9238C60.1111 73.9148 60.1034 73.9077 60.0937 73.9025C60.0758 73.8922 60.0495 73.8877 60.0296 73.8942C60.0096 73.9007 59.99 73.913 59.98 73.9322C59.97 73.9508 59.9638 73.9753 59.9716 73.996C59.9731 74 59.9738 74.0042 59.9748 74.0082C59.975 74.0115 59.975 74.0148 59.975 74.0182C59.9742 74.0218 59.9731 74.0257 59.972 74.0293C59.9705 74.032 59.969 74.0348 59.9671 74.0375C59.9648 74.04 59.9626 74.0427 59.9601 74.045C59.9561 74.0485 59.9539 74.0542 59.9509 74.0588C59.8966 74.0265 59.8362 74.007 59.7719 74.007C59.5429 74.007 59.3572 74.2355 59.3572 74.5175C59.3572 74.7995 59.5427 75.028 59.7719 75.028C60.0009 75.028 60.1866 74.7993 60.1866 74.5175C60.1866 74.4825 60.1836 74.4485 60.1781 74.4157C60.2194 74.399 60.2586 74.3757 60.2877 74.3437C60.308 74.3213 60.3267 74.2963 60.3392 74.2688C60.3467 74.2525 60.3541 74.2357 60.3589 74.2183C60.3643 74.1998 60.3666 74.1805 60.3685 74.1613C60.3708 74.141 60.3579 74.1157 60.3444 74.1022Z" fill="#3B3B78"/>
<path d="M57.9338 75.865C57.8861 75.7418 57.8382 75.6188 57.7898 75.496C57.7735 75.4543 57.7342 75.4253 57.6875 75.4382C57.6478 75.4492 57.613 75.4982 57.6295 75.5402C57.6718 75.6477 57.7138 75.7553 57.7556 75.863C57.7751 75.9133 57.7952 75.9637 57.8139 76.0143C57.8295 76.0563 57.8465 76.101 57.8468 76.1463C57.8475 76.221 57.7808 76.2458 57.7158 76.2523C57.6107 76.263 57.5062 76.2405 57.404 76.2783C57.3621 76.294 57.3333 76.3343 57.346 76.3803C57.3572 76.4207 57.4061 76.4538 57.4483 76.4382C57.5557 76.3983 57.6742 76.4312 57.7853 76.4085C57.89 76.3872 57.9854 76.3165 58.007 76.2077C58.0305 76.0883 57.9757 75.9735 57.9338 75.865Z" fill="#F0B4B4"/>
<path d="M57.7427 78.7018C57.1019 78.7018 56.5826 78.1838 56.5828 77.545V77.3832C57.351 77.7202 58.1248 77.6805 58.9026 77.3832V77.5457C58.9024 78.1842 58.3832 78.7018 57.7427 78.7018Z" fill="white"/>
<path d="M55.4969 73.0275C55.2069 72.8908 54.8403 72.9555 54.6242 73.1962C54.553 73.2753 54.6702 73.393 54.7417 73.3133C54.9058 73.1305 55.1888 73.065 55.4128 73.1707C55.4534 73.1898 55.5026 73.182 55.5265 73.141C55.5479 73.1048 55.5377 73.0468 55.4969 73.0275Z" fill="#3B3B78"/>
<path d="M60.3306 73.4917C60.2189 73.3862 60.0994 73.2788 59.9495 73.2325C59.7945 73.1847 59.6255 73.2205 59.5052 73.3288C59.4719 73.3588 59.4746 73.4155 59.5052 73.446C59.5383 73.479 59.5892 73.476 59.6227 73.446C59.7064 73.3707 59.8238 73.3617 59.9264 73.3993C60.0379 73.4403 60.1283 73.5288 60.2131 73.6087C60.2908 73.6822 60.4085 73.5652 60.3306 73.4917Z" fill="#3B3B78"/>
<path d="M55.0788 74.1502C54.9719 74.1502 54.9717 74.3158 55.0788 74.3158C55.1858 74.316 55.186 74.1502 55.0788 74.1502Z" fill="white"/>
<path d="M59.6699 74.2475C59.5629 74.2475 59.5628 74.4132 59.6699 74.4132C59.7767 74.4132 59.7769 74.2475 59.6699 74.2475Z" fill="white"/>
<path d="M74.7783 40.5673L73.1114 35.9782L68.2617 36.6417L73.8059 27.4915L80.3227 31.4172L74.7783 40.5673Z" fill="#9676FF"/>
<path d="M91.9112 47.5365L89.2474 43.4415L84.6733 45.1805L88.0009 35.018L95.2386 37.374L91.9112 47.5365Z" fill="#FF8CDD"/>
<path d="M111.253 50.709L107.566 47.4983L103.645 50.4202L104.052 39.7375L111.661 40.0263L111.253 50.709Z" fill="#FFD994"/>
<path d="M132.123 50.356L127.986 47.748L124.561 51.2355L123.319 40.617L130.881 39.7375L132.123 50.356Z" fill="#9676FF"/>
<path d="M151.683 45.0557L147.055 43.4637L144.524 47.6417L140.872 37.5905L148.03 35.0045L151.683 45.0557Z" fill="#FF8CDD"/>
<path d="M168.098 37.192L163.308 36.1857L161.318 40.6448L156.441 31.1242L163.222 27.6713L168.098 37.192Z" fill="#FFD994"/>
<path d="M118.654 40.9063C117.888 40.9063 117.123 40.8958 116.354 40.8747C101.723 40.4725 87.5316 36.2242 75.3145 28.589C75.1106 28.4615 74.9077 28.334 74.7052 28.2067C70.3376 25.4612 66.2119 22.8678 58.8363 25.9812C58.7668 26.0105 58.6988 26.041 58.6321 26.0728C58.945 26.2172 59.2248 26.3982 59.4678 26.6157C61.2146 28.1788 61.2561 29.8035 60.7122 30.8027C60.0883 31.9492 58.724 32.4657 57.3177 32.0883C56.3359 31.825 55.7043 31.011 55.6283 29.9108C55.5484 28.7542 56.0982 27.2595 57.4346 26.2245C56.5278 26.0687 55.4217 26.1465 54.1755 26.4642C50.6221 27.3697 47.2154 29.8422 46.4197 32.093C46.3739 32.2223 46.2315 32.2905 46.1016 32.2448C45.9717 32.1992 45.9035 32.0573 45.9493 31.9278C46.8929 29.2585 50.81 26.8087 54.052 25.9827C55.5857 25.5918 56.9339 25.5493 58.0001 25.8437C58.2003 25.7268 58.4141 25.6195 58.6419 25.5233C66.2575 22.3088 70.4901 24.9693 74.9713 27.7862C75.1733 27.9132 75.376 28.0405 75.5796 28.1677C100.047 43.4588 131.739 44.5342 156.32 30.9068C167.111 24.9247 172.465 24.3735 175.017 24.8827C175.117 24.8187 175.221 24.7578 175.329 24.7002C177.494 23.5437 180.878 23.9148 184.382 25.6927C186.804 26.922 188.88 27.2032 190.551 26.5283C192.617 25.6943 193.338 23.6598 193.345 23.6395C193.389 23.5097 193.531 23.4405 193.661 23.485C193.792 23.5297 193.861 23.671 193.816 23.8008C193.785 23.893 193.012 26.071 190.738 26.9892C188.927 27.7205 186.712 27.4333 184.155 26.1358C180.876 24.4715 177.736 24.0768 175.708 25.0653C175.837 25.1092 175.956 25.1553 176.066 25.2032C177.274 25.7308 177.63 26.536 177.736 26.9692C178.201 28.8865 177.441 29.7932 176.946 30.163C176.2 30.7205 175.134 30.771 174.292 30.2887C173.456 29.809 173.047 28.933 173.17 27.8852C173.294 26.8285 173.74 25.9477 174.475 25.2918C171.874 24.945 166.67 25.738 156.562 31.3415C145.242 37.617 132.18 40.906 118.654 40.9063ZM58.0751 26.3847C56.6956 27.284 56.047 28.74 56.1256 29.8767C56.1871 30.7683 56.6688 31.3995 57.4471 31.6082C58.6257 31.9247 59.7622 31.5055 60.2737 30.5655C60.7267 29.7332 60.6652 28.3557 59.1345 26.9857C58.843 26.7248 58.4871 26.5242 58.0751 26.3847ZM175.123 25.412C174.291 26.0062 173.79 26.8718 173.665 27.9428C173.566 28.7838 173.886 29.4817 174.541 29.8575C175.201 30.2362 176.067 30.198 176.647 29.7648C177.331 29.253 177.546 28.3017 177.251 27.086C177.167 26.7423 176.876 26.1002 175.865 25.6583C175.658 25.5677 175.412 25.4825 175.123 25.412Z" fill="#B9A3FF"/>
</svg>
