<svg width="12" height="14" viewBox="0 0 12 14" fill="none" xmlns="http://www.w3.org/2000/svg">
<path fill-rule="evenodd" clip-rule="evenodd" d="M0.82608 5.92756C0.835685 3.1005 3.13525 0.816505 5.96231 0.82608C8.78937 0.835715 11.0734 3.13528 11.0638 5.96234V6.02031C11.029 7.85799 10.0029 9.55654 8.74492 10.8841C8.02549 11.6312 7.22209 12.2926 6.35072 12.8551C6.11772 13.0566 5.77212 13.0566 5.53912 12.8551C4.24013 12.0096 3.10004 10.9421 2.17101 9.70147C1.34298 8.61962 0.872857 7.30651 0.82608 5.94495V5.92756Z" stroke="#758798" stroke-linecap="round" stroke-linejoin="round"/>
<path d="M5.94465 7.66671C6.85077 7.66671 7.58532 6.93216 7.58532 6.02604C7.58532 5.11993 6.85077 4.38538 5.94465 4.38538C5.03854 4.38538 4.30399 5.11993 4.30399 6.02604C4.30399 6.93216 5.03854 7.66671 5.94465 7.66671Z" stroke="#758798" stroke-linecap="round" stroke-linejoin="round"/>
</svg>
