<svg width="12" height="12" viewBox="0 0 12 12" fill="none" xmlns="http://www.w3.org/2000/svg">
<path d="M11.9333 5.7335C11.8667 5.66683 11.8667 5.60016 11.8 5.5335L9.8 3.5335C9.53333 3.26683 9.13333 3.26683 8.86667 3.5335C8.6 3.80016 8.6 4.20016 8.86667 4.46683L9.73333 5.3335H6.66667C6.26667 5.3335 6 5.60016 6 6.00016C6 6.40016 6.26667 6.66683 6.66667 6.66683H9.73333L8.86667 7.5335C8.6 7.80016 8.6 8.20016 8.86667 8.46683C9 8.60016 9.2 8.66683 9.33333 8.66683C9.46667 8.66683 9.66667 8.60016 9.8 8.46683L11.8 6.46683C11.8667 6.40016 11.9333 6.3335 11.9333 6.26683C12 6.06683 12 5.9335 11.9333 5.7335Z" fill="#21334F"/>
<path d="M8.33333 10.0667C7.6 10.4667 6.8 10.6667 6 10.6667C3.4 10.6667 1.33333 8.6 1.33333 6C1.33333 3.4 3.4 1.33333 6 1.33333C6.8 1.33333 7.6 1.53333 8.33333 1.93333C8.66667 2.13333 9.06667 2 9.26667 1.66667C9.46667 1.33333 9.33333 0.933333 9 0.733333C8.06667 0.266667 7.06667 0 6 0C2.66667 0 0 2.66667 0 6C0 9.33333 2.66667 12 6 12C7.06667 12 8.06667 11.7333 9 11.2C9.33333 11 9.4 10.6 9.26667 10.2667C9.06667 10 8.66667 9.86667 8.33333 10.0667Z" fill="#21334F"/>
</svg>
