<svg width="16" height="15" viewBox="0 0 16 15" fill="none" xmlns="http://www.w3.org/2000/svg">
<g clip-path="url(#clip0_1317_13363)">
<path d="M11.9037 1.73584H13.1072C13.9031 1.73584 14.6265 2.07308 15.1505 2.61602C15.6744 3.15895 15.9998 3.90878 15.9998 4.73343V11.4785C15.9998 12.3034 15.6744 13.053 15.1505 13.5959C14.6266 14.1389 13.9031 14.4762 13.1072 14.4762H2.89235C2.09639 14.4762 1.37306 14.1389 0.849154 13.5959C0.325179 13.053 -0.000244141 12.3034 -0.000244141 11.4785V4.73343C-0.000244141 3.90856 0.325179 3.15887 0.849154 2.61594C1.37306 2.07293 2.09639 1.73584 2.89235 1.73584H4.09586C4.20959 1.35397 4.4318 1.01801 4.7051 0.746429C5.1698 0.284365 5.80773 0 6.30163 0H9.69783C10.1917 0 10.8297 0.284365 11.2944 0.746429C11.5676 1.01801 11.7898 1.35397 11.9037 1.73584H11.9037ZM7.99977 4.45255C8.97304 4.45255 9.85463 4.86158 10.4926 5.52268C11.1306 6.18385 11.5253 7.09739 11.5253 8.10609C11.5253 9.11472 11.1306 10.0283 10.4926 10.6894C9.85449 11.3505 8.97319 11.7596 7.99977 11.7596C7.02635 11.7596 6.14505 11.3505 5.50698 10.6894C4.86905 10.0282 4.47435 9.1148 4.47435 8.10609C4.47435 7.09731 4.86905 6.18393 5.50698 5.52268C6.1449 4.86158 7.02649 4.45255 7.99977 4.45255ZM9.72572 6.31745C9.28416 5.85985 8.6739 5.57684 7.99977 5.57684C7.32571 5.57684 6.71538 5.85985 6.27381 6.31745C5.8324 6.77505 5.55917 7.40755 5.55917 8.10609C5.55917 8.80456 5.8324 9.43714 6.27381 9.89466C6.71538 10.3522 7.32571 10.6353 7.99977 10.6353C8.67375 10.6353 9.28416 10.3522 9.72572 9.89466C10.1673 9.43714 10.4404 8.80464 10.4404 8.10609C10.4404 7.40747 10.1673 6.77505 9.72572 6.31745ZM13.1072 2.86006H11.4438C11.1443 2.86006 10.9014 2.60838 10.9014 2.29799C10.9014 2.02051 10.7511 1.75975 10.5444 1.55436C10.2767 1.28815 9.9396 1.1243 9.69791 1.1243H6.3017C6.06 1.1243 5.7229 1.28815 5.45522 1.55436C5.24849 1.75982 5.09819 2.02051 5.09819 2.29799C5.09819 2.60838 4.85533 2.86006 4.55582 2.86006H2.89243C2.39575 2.86006 1.94382 3.07105 1.61607 3.41071C1.28831 3.75045 1.08464 4.21879 1.08464 4.73351V11.4786C1.08464 11.9932 1.28831 12.4617 1.61607 12.8013C1.9439 13.141 2.39582 13.352 2.89243 13.352H13.1073C13.6039 13.352 14.056 13.141 14.3837 12.8013C14.7115 12.4616 14.915 11.9933 14.915 11.4786V4.73351C14.915 4.21894 14.7114 3.75045 14.3836 3.41086C14.0558 3.07112 13.6039 2.86006 13.1073 2.86006H13.1072Z" fill="#FD2959"/>
</g>
<defs>
<clipPath id="clip0_1317_13363">
<rect width="16" height="14.4762" fill="white"/>
</clipPath>
</defs>
</svg>
