<svg width="88" height="34" viewBox="0 0 88 34" fill="none" xmlns="http://www.w3.org/2000/svg">
<rect y="0.5" width="88" height="33" rx="8" fill="black" fill-opacity="0.06"/>
<path d="M13.8067 13.64L15.3334 12.1067V18.5C15.3334 18.6768 15.4036 18.8464 15.5286 18.9714C15.6537 19.0964 15.8232 19.1667 16 19.1667C16.1769 19.1667 16.3464 19.0964 16.4714 18.9714C16.5965 18.8464 16.6667 18.6768 16.6667 18.5V12.1067L18.1934 13.64C18.2553 13.7025 18.3291 13.7521 18.4103 13.7859C18.4916 13.8198 18.5787 13.8372 18.6667 13.8372C18.7547 13.8372 18.8419 13.8198 18.9231 13.7859C19.0043 13.7521 19.0781 13.7025 19.14 13.64C19.2025 13.578 19.2521 13.5043 19.286 13.4231C19.3198 13.3418 19.3372 13.2547 19.3372 13.1667C19.3372 13.0787 19.3198 12.9915 19.286 12.9103C19.2521 12.8291 19.2025 12.7553 19.14 12.6933L16.4734 10.0267C16.41 9.96599 16.3352 9.91841 16.2534 9.88668C16.0911 9.82 15.909 9.82 15.7467 9.88668C15.6649 9.91841 15.5901 9.96599 15.5267 10.0267L12.86 12.6933C12.7979 12.7555 12.7486 12.8293 12.7149 12.9105C12.6813 12.9917 12.664 13.0788 12.664 13.1667C12.664 13.2546 12.6813 13.3416 12.7149 13.4228C12.7486 13.5041 12.7979 13.5779 12.86 13.64C12.9222 13.7022 12.996 13.7515 13.0772 13.7851C13.1584 13.8188 13.2455 13.8361 13.3334 13.8361C13.4213 13.8361 13.5083 13.8188 13.5895 13.7851C13.6708 13.7515 13.7445 13.7022 13.8067 13.64ZM22 17.8333C21.8232 17.8333 21.6537 17.9036 21.5286 18.0286C21.4036 18.1536 21.3334 18.3232 21.3334 18.5V21.1667C21.3334 21.3435 21.2631 21.5131 21.1381 21.6381C21.0131 21.7631 20.8435 21.8333 20.6667 21.8333H11.3334C11.1566 21.8333 10.987 21.7631 10.862 21.6381C10.7369 21.5131 10.6667 21.3435 10.6667 21.1667V18.5C10.6667 18.3232 10.5965 18.1536 10.4714 18.0286C10.3464 17.9036 10.1769 17.8333 10 17.8333C9.82323 17.8333 9.65366 17.9036 9.52864 18.0286C9.40361 18.1536 9.33337 18.3232 9.33337 18.5V21.1667C9.33337 21.6971 9.54409 22.2058 9.91916 22.5809C10.2942 22.956 10.8029 23.1667 11.3334 23.1667H20.6667C21.1971 23.1667 21.7058 22.956 22.0809 22.5809C22.456 22.2058 22.6667 21.6971 22.6667 21.1667V18.5C22.6667 18.3232 22.5965 18.1536 22.4714 18.0286C22.3464 17.9036 22.1769 17.8333 22 17.8333Z" fill="#21334F"/>
<path d="M39.9148 12.3182H41.1477V19.0597C41.1477 19.7557 40.9837 20.3771 40.6555 20.924C40.3307 21.4676 39.8717 21.8968 39.2784 22.2116C38.6851 22.5232 37.9891 22.679 37.1903 22.679C36.3916 22.679 35.6955 22.5232 35.1023 22.2116C34.509 21.8968 34.0483 21.4676 33.7202 20.924C33.3954 20.3771 33.233 19.7557 33.233 19.0597V12.3182H34.4659V18.9602C34.4659 19.4574 34.5753 19.8999 34.794 20.2876C35.0128 20.6721 35.3243 20.9754 35.7287 21.1974C36.1364 21.4162 36.6236 21.5256 37.1903 21.5256C37.7571 21.5256 38.2443 21.4162 38.652 21.1974C39.0597 20.9754 39.3712 20.6721 39.5866 20.2876C39.8054 19.8999 39.9148 19.4574 39.9148 18.9602V12.3182ZM43.4508 25.3636V14.8636H44.5843V16.0767H44.7235C44.8097 15.9441 44.929 15.7751 45.0815 15.5696C45.2373 15.3608 45.4593 15.1752 45.7477 15.0128C46.0394 14.8471 46.4338 14.7642 46.9309 14.7642C47.5739 14.7642 48.1407 14.925 48.6312 15.2464C49.1217 15.5679 49.5046 16.0237 49.7797 16.6136C50.0547 17.2036 50.1923 17.8996 50.1923 18.7017C50.1923 19.5104 50.0547 20.2114 49.7797 20.8047C49.5046 21.3946 49.1234 21.852 48.6362 22.1768C48.149 22.4983 47.5872 22.6591 46.9508 22.6591C46.4603 22.6591 46.0675 22.5779 45.7725 22.4155C45.4776 22.2498 45.2505 22.0625 45.0914 21.8537C44.9324 21.6416 44.8097 21.4659 44.7235 21.3267H44.6241V25.3636H43.4508ZM44.6042 18.6818C44.6042 19.2585 44.6887 19.7673 44.8578 20.2081C45.0268 20.6456 45.2737 20.9886 45.5985 21.2372C45.9234 21.4825 46.3211 21.6051 46.7917 21.6051C47.2823 21.6051 47.6916 21.4759 48.0197 21.2173C48.3511 20.9555 48.5997 20.6042 48.7654 20.1634C48.9345 19.7192 49.019 19.2254 49.019 18.6818C49.019 18.1449 48.9361 17.661 48.7704 17.2301C48.608 16.7959 48.3611 16.4529 48.0297 16.201C47.7015 15.9458 47.2889 15.8182 46.7917 15.8182C46.3145 15.8182 45.9134 15.9392 45.5886 16.1811C45.2638 16.4197 45.0185 16.7545 44.8528 17.1854C44.6871 17.6129 44.6042 18.1117 44.6042 18.6818ZM53.1554 12.3182V22.5H51.9821V12.3182H53.1554ZM58.4066 22.6591C57.7172 22.6591 57.1123 22.495 56.592 22.1669C56.0749 21.8388 55.6706 21.3797 55.3789 20.7898C55.0906 20.1998 54.9464 19.5104 54.9464 18.7216C54.9464 17.9261 55.0906 17.2318 55.3789 16.6385C55.6706 16.0452 56.0749 15.5845 56.592 15.2564C57.1123 14.9283 57.7172 14.7642 58.4066 14.7642C59.096 14.7642 59.6992 14.9283 60.2163 15.2564C60.7366 15.5845 61.141 16.0452 61.4293 16.6385C61.721 17.2318 61.8668 17.9261 61.8668 18.7216C61.8668 19.5104 61.721 20.1998 61.4293 20.7898C61.141 21.3797 60.7366 21.8388 60.2163 22.1669C59.6992 22.495 59.096 22.6591 58.4066 22.6591ZM58.4066 21.6051C58.9303 21.6051 59.3612 21.4709 59.6992 21.2024C60.0373 20.9339 60.2875 20.581 60.4499 20.1435C60.6123 19.706 60.6935 19.232 60.6935 18.7216C60.6935 18.2112 60.6123 17.7356 60.4499 17.2947C60.2875 16.8539 60.0373 16.4976 59.6992 16.2259C59.3612 15.9541 58.9303 15.8182 58.4066 15.8182C57.8829 15.8182 57.4521 15.9541 57.114 16.2259C56.7759 16.4976 56.5257 16.8539 56.3633 17.2947C56.2009 17.7356 56.1197 18.2112 56.1197 18.7216C56.1197 19.232 56.2009 19.706 56.3633 20.1435C56.5257 20.581 56.7759 20.9339 57.114 21.2024C57.4521 21.4709 57.8829 21.6051 58.4066 21.6051ZM65.905 22.679C65.4211 22.679 64.9819 22.5878 64.5875 22.4055C64.1931 22.2199 63.8799 21.9531 63.6479 21.6051C63.4159 21.2538 63.2999 20.8295 63.2999 20.3324C63.2999 19.8949 63.3861 19.5402 63.5584 19.2685C63.7308 18.9934 63.9611 18.7779 64.2495 18.6222C64.5378 18.4664 64.856 18.3504 65.204 18.2741C65.5553 18.1946 65.9083 18.1316 66.263 18.0852C66.727 18.0256 67.1032 17.9808 67.3915 17.951C67.6832 17.9179 67.8953 17.8632 68.0279 17.7869C68.1638 17.7107 68.2317 17.5781 68.2317 17.3892V17.3494C68.2317 16.8589 68.0975 16.4777 67.829 16.206C67.5639 15.9342 67.1612 15.7983 66.6209 15.7983C66.0608 15.7983 65.6216 15.9209 65.3034 16.1662C64.9853 16.4115 64.7615 16.6733 64.6323 16.9517L63.5186 16.554C63.7175 16.09 63.9827 15.7287 64.3141 15.4702C64.6489 15.2083 65.0134 15.026 65.4078 14.9233C65.8056 14.8172 66.1967 14.7642 66.5811 14.7642C66.8264 14.7642 67.1081 14.794 67.4263 14.8537C67.7478 14.91 68.0577 15.0277 68.356 15.2067C68.6576 15.3857 68.9078 15.6558 69.1067 16.017C69.3056 16.3783 69.405 16.8622 69.405 17.4688V22.5H68.2317V21.4659H68.1721C68.0925 21.6316 67.9599 21.8089 67.7743 21.9979C67.5887 22.1868 67.3418 22.3475 67.0336 22.4801C66.7253 22.6127 66.3491 22.679 65.905 22.679ZM66.084 21.625C66.548 21.625 66.9391 21.5339 67.2573 21.3516C67.5788 21.1693 67.8207 20.9339 67.9831 20.6456C68.1489 20.3572 68.2317 20.054 68.2317 19.7358V18.6619C68.182 18.7216 68.0726 18.7763 67.9036 18.826C67.7379 18.8724 67.5456 18.9138 67.3269 18.9503C67.1114 18.9834 66.901 19.0133 66.6955 19.0398C66.4933 19.063 66.3292 19.0829 66.2033 19.0994C65.8984 19.1392 65.6133 19.2038 65.3482 19.2933C65.0864 19.3795 64.8742 19.5104 64.7118 19.6861C64.5527 19.8584 64.4732 20.0937 64.4732 20.392C64.4732 20.7997 64.624 21.108 64.9256 21.3168C65.2305 21.5223 65.6167 21.625 66.084 21.625ZM74.43 22.6591C73.7937 22.6591 73.2319 22.4983 72.7447 22.1768C72.2575 21.852 71.8763 21.3946 71.6012 20.8047C71.3261 20.2114 71.1886 19.5104 71.1886 18.7017C71.1886 17.8996 71.3261 17.2036 71.6012 16.6136C71.8763 16.0237 72.2591 15.5679 72.7496 15.2464C73.2402 14.925 73.8069 14.7642 74.4499 14.7642C74.9471 14.7642 75.3398 14.8471 75.6282 15.0128C75.9199 15.1752 76.1419 15.3608 76.2944 15.5696C76.4502 15.7751 76.5711 15.9441 76.6573 16.0767H76.7567V12.3182H77.93V22.5H76.7965V21.3267H76.6573C76.5711 21.4659 76.4485 21.6416 76.2894 21.8537C76.1303 22.0625 75.9033 22.2498 75.6083 22.4155C75.3133 22.5779 74.9206 22.6591 74.43 22.6591ZM74.5891 21.6051C75.0598 21.6051 75.4575 21.4825 75.7823 21.2372C76.1071 20.9886 76.354 20.6456 76.5231 20.2081C76.6921 19.7673 76.7766 19.2585 76.7766 18.6818C76.7766 18.1117 76.6938 17.6129 76.5281 17.1854C76.3623 16.7545 76.1171 16.4197 75.7923 16.1811C75.4674 15.9392 75.0664 15.8182 74.5891 15.8182C74.092 15.8182 73.6777 15.9458 73.3462 16.201C73.0181 16.4529 72.7712 16.7959 72.6055 17.2301C72.4431 17.661 72.3619 18.1449 72.3619 18.6818C72.3619 19.2254 72.4447 19.7192 72.6104 20.1634C72.7795 20.6042 73.0281 20.9555 73.3562 21.2173C73.6876 21.4759 74.0986 21.6051 74.5891 21.6051Z" fill="#21334F"/>
</svg>
